<svg width="120" height="24" viewBox="0 0 120 24" fill="none" xmlns="http://www.w3.org/2000/svg">
<path d="M8.64291 0.607605C4.21227 0.607605 0.60759 4.21215 0.60759 8.64289V15.3571C0.60759 19.7878 4.21227 23.3924 8.64291 23.3924H15.3572C19.7878 23.3924 23.3924 19.7878 23.3924 15.3571V12.3772L19.8171 14.4998V15.3571C19.8171 17.8163 17.8163 19.817 15.3572 19.817H8.64291C6.18368 19.817 4.18298 17.8163 4.18298 15.3571V8.64289C4.18298 6.18364 6.18368 4.18293 8.64291 4.18293H15.3572C16.9743 4.18293 18.4808 5.08345 19.2615 6.49386L11.8973 10.9575L9.84702 7.575L9.05793 8.05327C9.05846 8.05417 9.05907 8.05491 9.0596 8.05582C9.29473 8.44999 9.15635 8.96566 8.75066 9.20766C8.34769 9.44793 7.8329 9.32745 7.59558 8.9397L6.78949 9.42827L10.6929 15.8683L23.3807 8.17795L23.3687 8.02096C23.29 6.99396 23.0177 6.01009 22.5634 5.09113L22.5687 5.08797L22.3278 4.63523L22.3238 4.63756C20.8895 2.14488 18.2448 0.607605 15.3572 0.607605H8.64291Z" fill="#375DFB"/>
<path fill-rule="evenodd" clip-rule="evenodd" d="M41.1348 19.4166V16.8726H33.6091V12.9828H39.9264V10.628H33.6091V7.0326H40.9439V4.48853H30.6835V19.4166H41.1348ZM40.9015 8.29599L44.993 19.3612H48.0668L52.1582 8.29599H49.4659L46.6676 16.7851L43.827 8.29599H40.9015ZM54.5536 12.9173H60.3621C60.3055 12.3647 60.1465 11.8847 59.8852 11.4771C59.6235 11.0696 59.281 10.7519 58.857 10.524C58.4331 10.2961 57.9593 10.1821 57.4367 10.1821C56.9279 10.1821 56.4648 10.2961 56.0481 10.524C55.6311 10.7519 55.292 11.0696 55.0306 11.4771C54.7689 11.8847 54.6099 12.3647 54.5536 12.9173ZM57.4579 19.5115C56.5676 19.5115 55.7619 19.361 55.0412 19.0608C54.3204 18.7604 53.7057 18.3479 53.1969 17.8238C52.6881 17.2997 52.2992 16.702 52.0309 16.0311C51.7623 15.3602 51.6282 14.6404 51.6282 13.8714C51.6282 12.8371 51.8646 11.883 52.3383 11.009C52.8117 10.1351 53.4831 9.43602 54.3522 8.91191C55.2214 8.38787 56.2635 8.1254 57.4791 8.1254C58.6802 8.1254 59.712 8.38817 60.5742 8.91294C61.436 9.43802 62.1005 10.1275 62.5669 10.9815C63.0333 11.8356 63.2664 12.7665 63.2664 13.7743C63.2664 13.9566 63.2592 14.1278 63.2453 14.2888C63.231 14.4498 63.2167 14.5864 63.2028 14.6983H54.6385C54.6808 15.2788 54.8398 15.7728 55.1154 16.1802C55.391 16.5877 55.7441 16.9021 56.1753 17.1231C56.6063 17.3444 57.0621 17.4547 57.5427 17.4547C58.122 17.4547 58.6626 17.3169 59.1644 17.0413C59.6659 16.7657 60.0087 16.3946 60.1926 15.9281L62.6093 16.6066C62.3549 17.1721 61.9802 17.6741 61.4857 18.112C60.9908 18.5503 60.4045 18.8932 59.7261 19.1404C59.0478 19.3875 58.2916 19.5115 57.4579 19.5115ZM71.513 19.3612H74.3537V12.4467C74.3537 11.9271 74.3076 11.4107 74.2158 10.8977C74.1238 10.3847 73.9615 9.91763 73.7283 9.49586C73.4951 9.07419 73.1559 8.74037 72.7107 8.49454C72.2655 8.24869 71.6964 8.1254 71.0042 8.1254C70.354 8.1254 69.7462 8.21701 69.181 8.39957C68.6156 8.58212 68.1138 8.83535 67.6759 9.15849C67.2377 9.48164 66.8773 9.8823 66.5948 10.3601V8.29596H64.0297V19.3612H66.8492V12.9105C67.0187 12.4664 67.2553 12.0743 67.5594 11.7342C67.8631 11.3944 68.2092 11.1272 68.5981 10.9327C68.9866 10.7385 69.3719 10.6412 69.7534 10.6412C70.3185 10.6412 70.7531 10.8444 71.0572 11.2505C71.3609 11.6569 71.513 12.3011 71.513 13.1837V19.3612ZM82.4519 18.6843C82.1975 18.7951 81.904 18.9093 81.5721 19.0266C81.2399 19.1442 80.8795 19.2408 80.4909 19.317C80.1021 19.3928 79.7099 19.4311 79.3144 19.4311C78.7771 19.4311 78.2895 19.342 77.8517 19.164C77.4134 18.9857 77.0636 18.7015 76.8023 18.3109C76.5406 17.9206 76.4101 17.4101 76.4101 16.78V10.2997H74.9685V8.18374H76.4101V4.5204H79.272V8.18374H81.6039V10.2997H79.272V15.8355C79.2859 16.2043 79.3919 16.4739 79.59 16.6445C79.7877 16.815 80.0421 16.9002 80.3531 16.9002C80.6357 16.9002 80.9182 16.8484 81.2011 16.7447C81.4837 16.6409 81.7168 16.5476 81.9006 16.4645L82.4519 18.6843ZM95.8919 19.417V4.48887H92.9876V10.5232H86.1615V4.48887H83.236V19.417H86.1615V13.0463H92.9876V19.417H95.8919ZM99.8351 12.9173H105.644C105.587 12.3647 105.428 11.8847 105.167 11.4771C104.905 11.0696 104.562 10.7519 104.138 10.524C103.715 10.2961 103.241 10.1821 102.718 10.1821C102.209 10.1821 101.746 10.2961 101.33 10.524C100.913 10.7519 100.573 11.0696 100.312 11.4771C100.05 11.8847 99.8914 12.3647 99.8351 12.9173ZM102.739 19.5115C101.849 19.5115 101.043 19.361 100.323 19.0608C99.6019 18.7604 98.9872 18.3479 98.4783 17.8238C97.9696 17.2997 97.5807 16.702 97.3124 16.0311C97.0438 15.3602 96.9096 14.6404 96.9096 13.8714C96.9096 12.8371 97.1461 11.883 97.6198 11.009C98.0931 10.1351 98.7645 9.43602 99.6336 8.91191C100.503 8.38787 101.545 8.1254 102.761 8.1254C103.962 8.1254 104.993 8.38817 105.856 8.91294C106.717 9.43802 107.382 10.1275 107.848 10.9815C108.315 11.8356 108.548 12.7665 108.548 13.7743C108.548 13.9566 108.541 14.1278 108.527 14.2888C108.512 14.4498 108.498 14.5864 108.484 14.6983H99.9199C99.9622 15.2788 100.121 15.7728 100.397 16.1802C100.672 16.5877 101.026 16.9021 101.457 17.1231C101.888 17.3444 102.344 17.4547 102.824 17.4547C103.404 17.4547 103.944 17.3169 104.446 17.0413C104.947 16.7657 105.29 16.3946 105.474 15.9281L107.891 16.6066C107.636 17.1721 107.262 17.6741 106.767 18.112C106.272 18.5503 105.686 18.8932 105.008 19.1404C104.329 19.3875 103.573 19.5115 102.739 19.5115ZM113.021 11.7809L110.71 8.29487H107.742L111.6 13.9406L107.679 19.5006H110.668L113.042 16.015L113.212 15.6513L113.424 16.015L115.798 19.5006H118.787L114.865 13.8765L118.723 8.29487H115.734L113.424 11.7809L113.212 12.187L113.021 11.7809Z" fill="black"/>
</svg>
