<svg width="20" height="20" viewBox="0 0 20 20" fill="none" xmlns="http://www.w3.org/2000/svg">
<mask id="mask0_1493_2829" style="mask-type:alpha" maskUnits="userSpaceOnUse" x="1" y="1" width="18" height="18">
<path d="M18.4143 9.77716C18.4143 5.1328 14.6475 1.3678 10.0009 1.3678C5.35424 1.3678 1.5874 5.1328 1.5874 9.77716C1.5874 14.4215 5.35424 18.1865 10.0009 18.1865C14.6475 18.1865 18.4143 14.4215 18.4143 9.77716Z" fill="white"/>
</mask>
<g mask="url(#mask0_1493_2829)">
<path d="M18.4133 9.77716C18.4133 5.1328 14.6465 1.3678 9.99989 1.3678C5.35326 1.3678 1.58643 5.1328 1.58643 9.77716C1.58643 14.4215 5.35326 18.1865 9.99989 18.1865C14.6465 18.1865 18.4133 14.4215 18.4133 9.77716Z" fill="#D8D8D8"/>
<path d="M9.99989 18.1865C14.6465 18.1865 18.4133 14.4215 18.4133 9.77716C18.4133 5.1328 14.6465 1.3678 9.99989 1.3678C5.35326 1.3678 1.58643 5.1328 1.58643 9.77716C1.58643 14.4215 5.35326 18.1865 9.99989 18.1865Z" fill="#6DAE4F"/>
<path d="M9.99966 1.36772C12.231 1.36772 14.371 2.2537 15.9489 3.83076C17.5267 5.40782 18.4131 7.54678 18.4131 9.77708C18.4131 12.0074 17.5267 14.1463 15.9489 15.7234C14.371 17.3005 12.231 18.1864 9.99966 18.1864C7.76827 18.1864 5.62828 17.3005 4.05045 15.7234C2.47262 14.1463 1.5862 12.0074 1.5862 9.77708C1.5862 7.54678 2.47262 5.40782 4.05045 3.83076C5.62828 2.2537 7.76827 1.36772 9.99966 1.36772ZM9.99966 0.166382C7.4495 0.166382 5.00379 1.17893 3.20056 2.98129C1.39732 4.78365 0.384277 7.22816 0.384277 9.77708C0.384277 12.326 1.39732 14.7705 3.20056 16.5729C5.00379 18.3752 7.4495 19.3878 9.99966 19.3878C12.5498 19.3878 14.9955 18.3752 16.7988 16.5729C18.602 14.7705 19.615 12.326 19.615 9.77708C19.615 7.22816 18.602 4.78365 16.7988 2.98129C14.9955 1.17893 12.5498 0.166382 9.99966 0.166382V0.166382Z" fill="white"/>
<path d="M14.9673 11.2476C14.9455 10.3036 14.8 9.36663 14.5346 8.46046C13.8071 7.87601 13.2541 7.10307 12.9361 6.22598C12.7438 5.58927 12.6116 5.36101 12.0467 5.349C11.9317 5.35945 11.82 5.39279 11.7181 5.44705C11.6162 5.50132 11.5262 5.57541 11.4534 5.66497C11.3806 5.75453 11.3265 5.85774 11.2942 5.96853C11.2619 6.07932 11.2521 6.19544 11.2654 6.31007C11.2726 6.59839 11.2967 6.88791 11.3375 7.17503C11.5022 7.96191 11.7342 8.73437 12.0346 9.4816L6.62598 5.37303C6.53576 5.28519 6.42813 5.21722 6.31002 5.1735C6.19191 5.12979 6.06595 5.11129 5.94025 5.11922C5.81455 5.12714 5.69191 5.1613 5.58023 5.2195C5.46855 5.2777 5.37031 5.35865 5.29185 5.45712C5.23221 5.55677 5.19325 5.66741 5.1773 5.78244C5.16136 5.89746 5.16875 6.01452 5.19903 6.12663C5.22931 6.23874 5.28187 6.3436 5.35357 6.43497C5.42527 6.52634 5.51465 6.60235 5.61637 6.65846L8.3207 8.70073L9.02983 9.37348L4.73896 6.11786C4.65295 6.03116 4.54932 5.96392 4.43507 5.92071C4.32082 5.87749 4.19862 5.85929 4.07673 5.86734C3.95484 5.87539 3.83609 5.90951 3.72853 5.96738C3.62097 6.02525 3.52709 6.10553 3.45324 6.20279C3.37939 6.30005 3.32729 6.41202 3.30047 6.53114C3.27364 6.65026 3.27272 6.77374 3.29776 6.89325C3.32279 7.01276 3.37321 7.1255 3.44559 7.22385C3.51798 7.3222 3.61064 7.40388 3.71733 7.46335L6.42166 9.50563L8.04425 10.707L4.53464 8.07604C4.44442 7.9882 4.33678 7.92023 4.21867 7.87651C4.10056 7.8328 3.9746 7.8143 3.8489 7.82223C3.72321 7.83015 3.60056 7.86431 3.48888 7.92251C3.3772 7.98071 3.27897 8.06166 3.2005 8.16013C2.82791 8.64066 3.12839 9.13321 3.513 9.43355L6.21733 11.4638L7.5755 12.4849L4.87118 10.4427C4.78786 10.352 4.68662 10.2796 4.57386 10.2301C4.4611 10.1806 4.33929 10.155 4.21613 10.155C4.09297 10.155 3.97115 10.1806 3.85839 10.2301C3.74563 10.2796 3.64439 10.352 3.56108 10.4427C3.48731 10.5454 3.43601 10.6626 3.41051 10.7864C3.38502 10.9103 3.38591 11.0382 3.41312 11.1617C3.44033 11.2852 3.49325 11.4016 3.56844 11.5034C3.64363 11.6051 3.73941 11.6898 3.84954 11.7521L8.77743 15.3561C9.49137 15.8931 11.2654 16.3569 12.0467 15.6781" stroke="#165209" stroke-width="1.15357" stroke-linecap="round" stroke-linejoin="round"/>
<path fill-rule="evenodd" clip-rule="evenodd" d="M15.5433 12.0644L15.0385 11.6199C14.9729 10.7358 14.7659 9.8678 14.4256 9.04906C13.7219 8.22401 13.2236 7.24427 12.9712 6.18988C12.7789 5.55317 12.6467 5.32492 12.0818 5.3129C11.9668 5.32335 11.8551 5.35669 11.7532 5.41096C11.6513 5.46522 11.5613 5.53932 11.4885 5.62887C11.4157 5.71843 11.3616 5.82164 11.3293 5.93243C11.297 6.04322 11.2872 6.15935 11.3006 6.27397C11.3078 6.5623 11.3318 6.85182 11.3727 7.13894C11.5109 7.89698 11.7332 8.63821 12.0337 9.3494L11.8054 9.21725L6.62507 5.24082C6.53485 5.15298 6.42722 5.08502 6.30911 5.0413C6.191 4.99759 6.06503 4.97909 5.93933 4.98702C5.81364 4.99494 5.691 5.0291 5.57932 5.0873C5.46764 5.1455 5.3694 5.22645 5.29093 5.32492C5.22101 5.42764 5.17372 5.54404 5.15219 5.66641C5.13067 5.78878 5.13541 5.91432 5.16609 6.03472C5.19677 6.15512 5.2527 6.26763 5.33017 6.3648C5.40764 6.46196 5.50488 6.54157 5.61545 6.59834L8.25968 8.6286L9.02891 9.24128L4.73805 5.98565C4.64863 5.89712 4.54166 5.82829 4.42402 5.78358C4.30638 5.73887 4.18067 5.71928 4.05499 5.72607C3.92932 5.73286 3.80646 5.76588 3.69432 5.823C3.58219 5.88012 3.48326 5.96008 3.40391 6.05773C3.3354 6.16028 3.28899 6.27596 3.26761 6.39741C3.24624 6.51886 3.25038 6.64342 3.27977 6.76318C3.30916 6.88295 3.36316 6.99529 3.43833 7.09307C3.5135 7.19085 3.6082 7.27193 3.71641 7.33115L6.42074 9.37342L8.04334 10.5748L4.53372 7.95585C4.44525 7.86557 4.33853 7.79518 4.22069 7.74938C4.10285 7.70358 3.97659 7.68342 3.85034 7.69024C3.72409 7.69706 3.60074 7.73071 3.48853 7.78894C3.37632 7.84717 3.27781 7.92864 3.19959 8.02793C3.12922 8.1299 3.08126 8.24561 3.05887 8.36745C3.03648 8.48928 3.04017 8.61448 3.06969 8.73479C3.09922 8.8551 3.15391 8.96779 3.23016 9.06544C3.30641 9.16309 3.4025 9.24349 3.51209 9.30134L6.21641 11.3316L7.57459 12.3527L4.87026 10.3225C4.78902 10.2284 4.68846 10.153 4.57543 10.1012C4.46239 10.0495 4.33953 10.0228 4.21521 10.0228C4.09089 10.0228 3.96804 10.0495 3.855 10.1012C3.74196 10.153 3.6414 10.2284 3.56016 10.3225C3.48659 10.4243 3.43543 10.5405 3.41004 10.6634C3.38465 10.7864 3.38561 10.9134 3.41286 11.036C3.44012 11.1585 3.49304 11.274 3.56815 11.3746C3.64326 11.4753 3.73885 11.5589 3.84863 11.6199L8.77651 15.3561C9.13005 15.622 9.53392 15.8134 9.96364 15.9187C10.3934 16.024 10.84 16.041 11.2765 15.9688C11.9231 16.3436 12.488 16.3436 12.9712 15.9688C13.6948 15.4053 13.4568 15.3549 13.9929 14.6113C14.5995 13.8203 15.1194 12.9665 15.5433 12.0644Z" fill="#DCF0CB"/>
<path d="M14.9673 11.2476C14.9455 10.3036 14.8 9.36663 14.5346 8.46046C13.8071 7.87601 13.2541 7.10307 12.9361 6.22598C12.7438 5.58927 12.6116 5.36101 12.0467 5.349C11.9317 5.35945 11.82 5.39279 11.7181 5.44705C11.6162 5.50132 11.5262 5.57541 11.4534 5.66497C11.3806 5.75453 11.3265 5.85774 11.2942 5.96853C11.2619 6.07932 11.2521 6.19544 11.2654 6.31007C11.2726 6.59839 11.2967 6.88791 11.3375 7.17503C11.5022 7.96191 11.7342 8.73437 12.0346 9.4816L6.62598 5.37303C6.53576 5.28519 6.42813 5.21722 6.31002 5.1735C6.19191 5.12979 6.06595 5.11129 5.94025 5.11922C5.81455 5.12714 5.69191 5.1613 5.58023 5.2195C5.46855 5.2777 5.37031 5.35865 5.29185 5.45712C5.23221 5.55677 5.19325 5.66741 5.1773 5.78244C5.16136 5.89746 5.16875 6.01452 5.19903 6.12663C5.22931 6.23874 5.28187 6.3436 5.35357 6.43497C5.42527 6.52634 5.51465 6.60235 5.61637 6.65846L8.3207 8.70073L9.02983 9.37348L4.73896 6.11786C4.65295 6.03116 4.54932 5.96392 4.43507 5.92071C4.32082 5.87749 4.19862 5.85929 4.07673 5.86734C3.95484 5.87539 3.83609 5.90951 3.72853 5.96738C3.62097 6.02525 3.52709 6.10553 3.45324 6.20279C3.37939 6.30005 3.32729 6.41202 3.30047 6.53114C3.27364 6.65026 3.27272 6.77374 3.29776 6.89325C3.32279 7.01276 3.37321 7.1255 3.44559 7.22385C3.51798 7.3222 3.61064 7.40388 3.71733 7.46335L6.42166 9.50563L8.04425 10.707L4.53464 8.07604C4.44442 7.9882 4.33678 7.92023 4.21867 7.87651C4.10056 7.8328 3.9746 7.8143 3.8489 7.82223C3.72321 7.83015 3.60056 7.86431 3.48888 7.92251C3.3772 7.98071 3.27897 8.06166 3.2005 8.16013C2.82791 8.64066 3.12839 9.13321 3.513 9.43355L6.21733 11.4638L7.5755 12.4849L4.87118 10.4427C4.78786 10.352 4.68662 10.2796 4.57386 10.2301C4.4611 10.1806 4.33929 10.155 4.21613 10.155C4.09297 10.155 3.97115 10.1806 3.85839 10.2301C3.74563 10.2796 3.64439 10.352 3.56108 10.4427C3.48731 10.5454 3.43601 10.6626 3.41051 10.7864C3.38502 10.9103 3.38591 11.0382 3.41312 11.1617C3.44033 11.2852 3.49325 11.4016 3.56844 11.5034C3.64363 11.6051 3.73941 11.6898 3.84954 11.7521L8.77743 15.3561C9.49137 15.8931 11.1644 16.2475 12.0467 16.101" stroke="#165209" stroke-width="0.384522" stroke-linecap="round" stroke-linejoin="round"/>
<path fill-rule="evenodd" clip-rule="evenodd" d="M18.1329 13.8472C17.8898 13.5872 17.7017 13.2807 17.58 12.9462C17.58 12.6819 17.5079 12.4297 17.4598 12.1654C17.4222 11.7044 17.2738 11.2593 17.0271 10.8679C16.3305 10.0382 15.833 9.0602 15.5728 8.00874C15.3805 7.37203 15.2482 7.14377 14.6833 7.13176C14.5684 7.14221 14.4566 7.17555 14.3548 7.22981C14.2529 7.28408 14.1629 7.35817 14.0901 7.44773C14.0173 7.53729 13.9631 7.6405 13.9309 7.75129C13.8986 7.86208 13.8888 7.9782 13.9021 8.09283C13.9105 8.38115 13.9345 8.66947 13.9742 8.95779C14.1906 10.063 14.4189 10.976 14.443 11.0361L9.28671 7.17981C9.19742 7.09022 9.09003 7.02069 8.97171 6.97588C8.85339 6.93108 8.72687 6.91202 8.6006 6.91998C8.47432 6.92793 8.3512 6.96273 8.23945 7.02204C8.1277 7.08135 8.0299 7.16381 7.95258 7.26391C7.89245 7.36283 7.8528 7.47282 7.83598 7.58734C7.81916 7.70187 7.82551 7.8186 7.85465 7.93063C7.88379 8.04265 7.93514 8.1477 8.00563 8.23953C8.07613 8.33136 8.16436 8.40811 8.26508 8.46524L10.9694 10.5075L11.7867 11.1803L7.45979 7.92464C7.37131 7.83436 7.26459 7.76398 7.14675 7.71818C7.02891 7.67238 6.90266 7.65222 6.77641 7.65904C6.65016 7.66586 6.52681 7.69951 6.4146 7.75774C6.30238 7.81596 6.20388 7.89744 6.12565 7.99672C6.05528 8.09869 6.00732 8.21441 5.98493 8.33624C5.96255 8.45808 5.96623 8.58327 5.99576 8.70358C6.02528 8.82389 6.07997 8.93658 6.15622 9.03424C6.23248 9.13189 6.32856 9.21229 6.43815 9.27014L9.14248 11.3124L10.7651 12.5138L7.24344 9.88282C7.15347 9.79593 7.04618 9.72899 6.92857 9.68637C6.81095 9.64375 6.68567 9.6264 6.56089 9.63547C6.43611 9.64454 6.31466 9.67982 6.20445 9.739C6.09424 9.79819 5.99777 9.87994 5.92133 9.97893C5.54873 10.4595 5.83719 10.952 6.23383 11.2523L8.93815 13.2706L10.2843 14.2917L7.5319 12.2495C7.36314 12.1029 7.14478 12.0263 6.92141 12.0352C6.69803 12.0441 6.48649 12.138 6.32998 12.2975C6.2564 12.396 6.20404 12.5086 6.1762 12.6283C6.14837 12.748 6.14566 12.8721 6.16824 12.9929C6.19083 13.1137 6.23823 13.2285 6.30744 13.33C6.37665 13.4316 6.46618 13.5177 6.57036 13.5829L11.3781 17.187C11.7795 17.4873 12.2434 17.6927 12.7362 17.7876L13.4333 17.8957C13.7999 17.9498 14.1545 18.0675 14.479 18.2441C14.7034 18.3537 14.9607 18.3751 15.2002 18.3042C16.0454 18.0062 16.785 17.4675 17.3276 16.7545C17.8358 16.0524 18.1281 15.2174 18.1689 14.3518C18.1994 14.1832 18.187 14.0097 18.1329 13.8472Z" stroke="#165209" stroke-width="1.15357" stroke-linecap="round" stroke-linejoin="round"/>
<path fill-rule="evenodd" clip-rule="evenodd" d="M18.1807 13.7872L17.6399 13.3787C17.58 12.4936 17.3728 11.6248 17.0269 10.8078C16.3281 9.97957 15.8304 9.00102 15.5726 7.94865C15.3803 7.31194 15.248 7.08369 14.6831 7.07168C14.5682 7.08213 14.4564 7.11547 14.3546 7.16973C14.2527 7.22399 14.1627 7.29809 14.0899 7.38765C14.0171 7.4772 13.9629 7.58042 13.9306 7.69121C13.8984 7.802 13.8886 7.91812 13.9019 8.03275C13.9103 8.32107 13.9343 8.60939 13.974 8.89771C14.1904 10.015 14.4187 10.928 14.4428 10.976L9.2865 7.11973C9.19629 7.03189 9.08865 6.96392 8.97054 6.92021C8.85243 6.87649 8.72647 6.858 8.60077 6.86592C8.47507 6.87385 8.35243 6.90801 8.24075 6.96621C8.12907 7.02441 8.03083 7.10535 7.95237 7.20382C7.57977 7.69637 7.88025 8.17691 8.26487 8.47724L10.9692 10.5075L11.7865 11.1803L7.45958 7.86456C7.36936 7.77672 7.26173 7.70875 7.14362 7.66504C7.02551 7.62132 6.89955 7.60283 6.77385 7.61075C6.64815 7.61867 6.52551 7.65284 6.41383 7.71104C6.30215 7.76924 6.20391 7.85018 6.12545 7.94865C5.75285 8.42919 6.05333 8.92174 6.43795 9.22207L9.14227 11.2523L10.7649 12.4537L7.24324 9.82274C7.15407 9.73517 7.04744 9.66738 6.9303 9.62377C6.81316 9.58016 6.68814 9.56172 6.56339 9.56966C6.43864 9.57759 6.31696 9.61172 6.2063 9.66982C6.09563 9.72792 5.99846 9.80868 5.92112 9.90683C5.8488 10.0082 5.79921 10.1239 5.77575 10.2462C5.75229 10.3684 5.7555 10.4943 5.78517 10.6152C5.81484 10.7361 5.87026 10.8491 5.94766 10.9467C6.02505 11.0442 6.12259 11.1239 6.23362 11.1803L8.93795 13.2105L10.2841 14.2316L7.5317 12.2014C7.3656 12.0491 7.146 11.9688 6.92082 11.9778C6.69565 11.9868 6.48317 12.0844 6.32977 12.2494C6.24582 12.3482 6.18479 12.4642 6.15108 12.5893C6.11736 12.7144 6.1118 12.8454 6.13478 12.9729C6.15777 13.1005 6.20873 13.2213 6.28401 13.3268C6.35929 13.4322 6.45702 13.5197 6.57016 13.5829L11.3779 17.1869C12.1068 17.6214 12.9335 17.8652 13.7817 17.8957C14.0894 18.0837 14.4108 18.2484 14.7432 18.3883C15.7075 18.2066 16.5668 17.6655 17.1471 16.8746C17.7806 15.9657 18.1394 14.8941 18.1807 13.7872Z" fill="#DDF6D1"/>
<path fill-rule="evenodd" clip-rule="evenodd" d="M18.1329 13.8472C17.8898 13.5872 17.7017 13.2807 17.58 12.9462C17.58 12.6819 17.5079 12.4297 17.4598 12.1654C17.4222 11.7044 17.2738 11.2593 17.0271 10.8679C16.3305 10.0382 15.833 9.0602 15.5728 8.00874C15.3805 7.37203 15.2482 7.14377 14.6833 7.13176C14.5684 7.14221 14.4566 7.17555 14.3548 7.22981C14.2529 7.28408 14.1629 7.35817 14.0901 7.44773C14.0173 7.53729 13.9631 7.6405 13.9309 7.75129C13.8986 7.86208 13.8888 7.9782 13.9021 8.09283C13.9105 8.38115 13.9345 8.66947 13.9742 8.95779C14.1906 10.063 14.4189 10.976 14.443 11.0361L9.28671 7.17981C9.19742 7.09022 9.09003 7.02069 8.97171 6.97588C8.85339 6.93108 8.72687 6.91202 8.6006 6.91998C8.47432 6.92793 8.3512 6.96273 8.23945 7.02204C8.1277 7.08135 8.0299 7.16381 7.95258 7.26391C7.89245 7.36283 7.8528 7.47282 7.83598 7.58734C7.81916 7.70187 7.82551 7.8186 7.85465 7.93063C7.88379 8.04265 7.93514 8.1477 8.00563 8.23953C8.07613 8.33136 8.16436 8.40811 8.26508 8.46524L10.9694 10.5075L11.7867 11.1803L7.45979 7.92464C7.37131 7.83436 7.26459 7.76398 7.14675 7.71818C7.02891 7.67238 6.90266 7.65222 6.77641 7.65904C6.65016 7.66586 6.52681 7.69951 6.4146 7.75774C6.30238 7.81596 6.20388 7.89744 6.12565 7.99672C6.05528 8.09869 6.00732 8.21441 5.98493 8.33624C5.96255 8.45808 5.96623 8.58327 5.99576 8.70358C6.02528 8.82389 6.07997 8.93658 6.15622 9.03424C6.23248 9.13189 6.32856 9.21229 6.43815 9.27014L9.14248 11.3124L10.7651 12.5138L7.24344 9.88282C7.15347 9.79593 7.04618 9.72899 6.92857 9.68637C6.81095 9.64375 6.68567 9.6264 6.56089 9.63547C6.43611 9.64454 6.31466 9.67982 6.20445 9.739C6.09424 9.79819 5.99777 9.87994 5.92133 9.97893C5.54873 10.4595 5.83719 10.952 6.23383 11.2523L8.93815 13.2706L10.2843 14.2917L7.5319 12.2495C7.36314 12.1029 7.14478 12.0263 6.92141 12.0352C6.69803 12.0441 6.48649 12.138 6.32998 12.2975C6.2564 12.396 6.20404 12.5086 6.1762 12.6283C6.14837 12.748 6.14566 12.8721 6.16824 12.9929C6.19083 13.1137 6.23823 13.2285 6.30744 13.33C6.37665 13.4316 6.46618 13.5177 6.57036 13.5829L11.3781 17.187C11.7795 17.4873 12.2434 17.6927 12.7362 17.7876L13.4333 17.8957C13.7999 17.9498 14.1545 18.0675 14.479 18.2441C14.7034 18.3537 14.9607 18.3751 15.2002 18.3042C16.0454 18.0062 16.785 17.4675 17.3276 16.7545C17.8358 16.0524 18.1281 15.2174 18.1689 14.3518C18.1994 14.1832 18.187 14.0097 18.1329 13.8472Z" stroke="#165209" stroke-width="0.384522" stroke-linecap="round" stroke-linejoin="round"/>
<path d="M9.44404 2.12826L8.66399 4.00235M10.9957 3.55185L10.1183 4.65708L10.9957 3.55185ZM6.9873 2.11865L7.06543 3.55185L6.9873 2.11865Z" stroke="#165209" stroke-width="0.769043" stroke-linecap="round" stroke-linejoin="round"/>
</g>
</svg>
