<svg width="12" height="13" viewBox="0 0 12 13" fill="none" xmlns="http://www.w3.org/2000/svg">
<path d="M2.99961 2.9V1.1C2.99961 0.94087 3.06282 0.788258 3.17535 0.675736C3.28787 0.563214 3.44048 0.5 3.59961 0.5H10.7996C10.9587 0.5 11.1114 0.563214 11.2239 0.675736C11.3364 0.788258 11.3996 0.94087 11.3996 1.1V9.5C11.3996 9.65913 11.3364 9.81174 11.2239 9.92426C11.1114 10.0368 10.9587 10.1 10.7996 10.1H8.99961V11.9C8.99961 12.2312 8.72961 12.5 8.39541 12.5H1.20381C1.12469 12.5005 1.04625 12.4853 0.973003 12.4554C0.899758 12.4254 0.833149 12.3813 0.777005 12.3256C0.72086 12.2698 0.676285 12.2035 0.645842 12.1305C0.615399 12.0575 0.599687 11.9791 0.599609 11.9L0.601409 3.5C0.601409 3.1688 0.87141 2.9 1.20561 2.9H2.99961ZM1.80141 4.1L1.79961 11.3H7.79961V4.1H1.80141ZM4.19961 2.9H8.99961V8.9H10.1996V1.7H4.19961V2.9Z" fill="#375DFB"/>
</svg>
