<svg width="4" height="18" viewBox="0 0 4 18" fill="none" xmlns="http://www.w3.org/2000/svg">
<path d="M2.0002 0.899994C1.0102 0.899994 0.200195 1.70999 0.200195 2.69999C0.200195 3.68999 1.0102 4.49999 2.0002 4.49999C2.9902 4.49999 3.8002 3.68999 3.8002 2.69999C3.8002 1.70999 2.9902 0.899994 2.0002 0.899994ZM2.0002 13.5C1.0102 13.5 0.200195 14.31 0.200195 15.3C0.200195 16.29 1.0102 17.1 2.0002 17.1C2.9902 17.1 3.8002 16.29 3.8002 15.3C3.8002 14.31 2.9902 13.5 2.0002 13.5ZM2.0002 7.19999C1.0102 7.19999 0.200195 8.00999 0.200195 8.99999C0.200195 9.98999 1.0102 10.8 2.0002 10.8C2.9902 10.8 3.8002 9.98999 3.8002 8.99999C3.8002 8.00999 2.9902 7.19999 2.0002 7.19999Z" fill="#0A0D14"/>
</svg>
