<svg width="25" height="24" viewBox="0 0 25 24" fill="none" xmlns="http://www.w3.org/2000/svg">
<path d="M13.4001 12.9V17.9265L15.0452 16.2813L16.3188 17.5548L12.5001 21.3726L8.68135 17.5548L9.95485 16.2813L11.6 17.9265V12.9H13.4001ZM12.5001 3C14.0453 3.00007 15.5367 3.568 16.6906 4.59581C17.8445 5.62361 18.5805 7.03962 18.7587 8.5746C19.8785 8.87998 20.8554 9.56919 21.5186 10.5218C22.1819 11.4744 22.4893 12.6297 22.3871 13.786C22.2849 14.9422 21.7797 16.0257 20.9597 16.8472C20.1396 17.6687 19.057 18.1759 17.901 18.2802V16.4676C18.3151 16.4085 18.7133 16.2674 19.0724 16.0527C19.4314 15.8379 19.7441 15.5539 19.9922 15.217C20.2402 14.8801 20.4187 14.4972 20.5171 14.0906C20.6156 13.6839 20.6321 13.2618 20.5656 12.8488C20.4991 12.4357 20.351 12.0401 20.13 11.6849C19.9089 11.3297 19.6194 11.0221 19.2781 10.78C18.9369 10.538 18.5509 10.3663 18.1426 10.2751C17.7343 10.1838 17.312 10.1748 16.9002 10.2486C17.0411 9.5924 17.0335 8.91297 16.8778 8.2601C16.7222 7.60722 16.4225 6.99743 16.0007 6.47538C15.5789 5.95333 15.0456 5.53225 14.44 5.24298C13.8343 4.9537 13.1717 4.80357 12.5005 4.80357C11.8293 4.80357 11.1667 4.9537 10.561 5.24298C9.95539 5.53225 9.42214 5.95333 9.00031 6.47538C8.57849 6.99743 8.27879 7.60722 8.12315 8.2601C7.96752 8.91297 7.9599 9.5924 8.10085 10.2486C7.27974 10.0944 6.43101 10.2727 5.74136 10.7443C5.05171 11.2159 4.57765 11.9421 4.42345 12.7632C4.26925 13.5843 4.44756 14.433 4.91914 15.1227C5.39072 15.8123 6.11694 16.2864 6.93805 16.4406L7.10005 16.4676V18.2802C5.94396 18.1761 4.86122 17.669 4.04107 16.8476C3.22093 16.0261 2.71555 14.9426 2.61326 13.7863C2.51097 12.6301 2.81828 11.4747 3.48148 10.522C4.14468 9.56934 5.12159 8.88005 6.24145 8.5746C6.41939 7.03954 7.15532 5.62342 8.30927 4.59558C9.46323 3.56774 10.9547 2.99988 12.5001 3Z" fill="#0A0D14"/>
</svg>
