<svg width="15" height="15" viewBox="0 0 15 15" fill="none" xmlns="http://www.w3.org/2000/svg">
<path d="M2.25 6.99163L3.75 5.49163L7.875 9.61663L10.5 6.99163L12.75 9.24163V2.41663H2.25V6.99163ZM1.5 0.916626H13.5C13.6989 0.916626 13.8897 0.995644 14.0303 1.1363C14.171 1.27695 14.25 1.46771 14.25 1.66663V13.6666C14.25 13.8655 14.171 14.0563 14.0303 14.197C13.8897 14.3376 13.6989 14.4166 13.5 14.4166H1.5C1.30109 14.4166 1.11032 14.3376 0.96967 14.197C0.829018 14.0563 0.75 13.8655 0.75 13.6666V1.66663C0.75 1.46771 0.829018 1.27695 0.96967 1.1363C1.11032 0.995644 1.30109 0.916626 1.5 0.916626ZM10.125 6.16663C9.82663 6.16663 9.54048 6.0481 9.3295 5.83712C9.11853 5.62614 9 5.33999 9 5.04163C9 4.74326 9.11853 4.45711 9.3295 4.24613C9.54048 4.03515 9.82663 3.91663 10.125 3.91663C10.4234 3.91663 10.7095 4.03515 10.9205 4.24613C11.1315 4.45711 11.25 4.74326 11.25 5.04163C11.25 5.33999 11.1315 5.62614 10.9205 5.83712C10.7095 6.0481 10.4234 6.16663 10.125 6.16663Z" fill="#525866"/>
</svg>
