<svg width="13" height="12" viewBox="0 0 13 12" fill="none" xmlns="http://www.w3.org/2000/svg">
<path d="M6.37966 10.3604C8.76935 10.3604 10.7066 8.42416 10.7066 6.03563C10.7066 3.6471 8.76935 1.71082 6.37966 1.71082C3.98996 1.71082 2.05273 3.6471 2.05273 6.03563C2.05273 8.42416 3.98996 10.3604 6.37966 10.3604Z" stroke="#868C98" stroke-width="1.15357" stroke-miterlimit="10"/>
<path d="M10.2633 7.94462L7.81649 6.44046C7.7736 6.4141 7.72566 6.397 7.67576 6.39028L6.64727 6.25171C6.57004 6.2413 6.49152 6.25618 6.42346 6.29412C6.3554 6.33207 6.30148 6.39102 6.26975 6.46217L5.65232 7.84694C5.62361 7.91133 5.61442 7.98273 5.6259 8.0523C5.63738 8.12186 5.66902 8.18653 5.71691 8.2383L6.56426 9.15438C6.60268 9.19591 6.63077 9.24589 6.64628 9.30029C6.66178 9.35468 6.66426 9.41196 6.65351 9.46749L6.48092 10.3593C7.35356 10.3109 9.33173 9.76006 10.2633 7.94462Z" fill="#868C98" stroke="#868C98" stroke-width="0.769043" stroke-linecap="round" stroke-linejoin="round"/>
<path d="M7.4831 1.85278L7.90379 2.60595C7.94356 2.67715 7.958 2.75972 7.94474 2.84018C7.93149 2.92065 7.89132 2.99424 7.83081 3.04893L6.61788 4.14534C6.5973 4.16395 6.57463 4.18012 6.55033 4.19353L5.99857 4.49809C5.9452 4.52754 5.88523 4.543 5.82426 4.543H4.86218C4.79123 4.543 4.72186 4.56392 4.66275 4.60314C4.60364 4.64236 4.55742 4.69814 4.52988 4.76349L4.15456 5.65405" fill="#868C98"/>
<path d="M3.53903 2.77437L3.1359 3.72717C3.09995 3.81213 3.09797 3.90762 3.13035 3.994L3.64826 5.37561C3.66947 5.43218 3.70457 5.48252 3.75033 5.522C3.79609 5.56147 3.85105 5.58881 3.91015 5.60151L4.87604 5.80901C4.92964 5.82052 4.9799 5.8441 5.02301 5.87794C5.06612 5.91179 5.10094 5.95502 5.12483 6.00434L5.29635 6.35852C5.32587 6.41947 5.37197 6.47088 5.42938 6.50685C5.48678 6.54282 5.55316 6.5619 5.62091 6.5619H6.22634" fill="#868C98"/>
<path d="M7.4831 1.85278L7.90379 2.60595C7.94356 2.67715 7.958 2.75972 7.94474 2.84018C7.93149 2.92065 7.89132 2.99424 7.83081 3.04893L6.61788 4.14534C6.5973 4.16395 6.57463 4.18012 6.55033 4.19353L5.99857 4.49809C5.9452 4.52754 5.88523 4.543 5.82426 4.543H4.86218C4.79123 4.543 4.72186 4.56392 4.66275 4.60314C4.60364 4.64236 4.55742 4.69814 4.52988 4.76349L4.15456 5.65405L3.91015 5.60151C3.85105 5.58881 3.79609 5.56147 3.75033 5.522C3.70457 5.48252 3.66947 5.43218 3.64826 5.37561L3.13035 3.994C3.09797 3.90762 3.09995 3.81213 3.1359 3.72717L3.53903 2.77437C4.01925 2.27419 5.48037 1.38961 7.4831 1.85278Z" fill="#868C98"/>
<path d="M3.91015 5.60151C3.85105 5.58881 3.79609 5.56147 3.75033 5.522C3.70457 5.48252 3.66947 5.43218 3.64826 5.37561L3.13035 3.994C3.09797 3.90762 3.09995 3.81213 3.1359 3.72717L3.53903 2.77437C4.01925 2.27419 5.48037 1.38961 7.4831 1.85278L7.90379 2.60595C7.94356 2.67715 7.958 2.75972 7.94474 2.84018C7.93149 2.92065 7.89132 2.99424 7.83081 3.04893L6.61788 4.14534C6.5973 4.16395 6.57463 4.18012 6.55033 4.19353L5.99857 4.49809C5.9452 4.52754 5.88523 4.543 5.82426 4.543H4.86218C4.79123 4.543 4.72186 4.56392 4.66275 4.60314C4.60364 4.64236 4.55742 4.69814 4.52988 4.76349L4.15456 5.65405L3.91015 5.60151ZM3.91015 5.60151L4.87604 5.80901C4.92964 5.82052 4.9799 5.8441 5.02301 5.87794C5.06612 5.91179 5.10094 5.95502 5.12483 6.00434L5.29635 6.35852C5.32587 6.41947 5.37197 6.47088 5.42938 6.50685C5.48678 6.54282 5.55316 6.5619 5.62091 6.5619H6.22634" stroke="#868C98" stroke-width="0.769043" stroke-linecap="round" stroke-linejoin="round"/>
</svg>
