<svg width="21" height="20" viewBox="0 0 21 20" fill="none" xmlns="http://www.w3.org/2000/svg">
<path d="M10.4657 18.1864C15.1123 18.1864 18.8792 14.4214 18.8792 9.77704C18.8792 5.13267 15.1123 1.36768 10.4657 1.36768C5.81908 1.36768 2.05225 5.13267 2.05225 9.77704C2.05225 14.4214 5.81908 18.1864 10.4657 18.1864Z" fill="#DF704D"/>
<path fill-rule="evenodd" clip-rule="evenodd" d="M10.118 6.17313C9.82552 5.88 9.47801 5.64744 9.09543 5.48875C8.71284 5.33007 8.30269 5.24839 7.88847 5.24839C7.47425 5.24839 7.06411 5.33007 6.68152 5.48875C6.29893 5.64744 5.95143 5.88 5.65891 6.17313C5.36272 6.4688 5.12775 6.81993 4.96744 7.20644C4.80713 7.59294 4.72461 8.00724 4.72461 8.42564C4.72461 8.84404 4.80713 9.25834 4.96744 9.64485C5.12775 10.0314 5.36272 10.3825 5.65891 10.6781L10.4666 15.4835L15.2743 10.6781C15.5705 10.3825 15.8054 10.0314 15.9658 9.64485C16.1261 9.25834 16.2086 8.84404 16.2086 8.42564C16.2086 8.00724 16.1261 7.59294 15.9658 7.20644C15.8054 6.81993 15.5705 6.4688 15.2743 6.17313C14.9837 5.87906 14.6374 5.6458 14.2556 5.48698C13.8739 5.32815 13.4643 5.24695 13.0507 5.2481C12.637 5.2456 12.227 5.32618 11.845 5.48509C11.4631 5.64399 11.1169 5.87797 10.8272 6.17313L10.4666 6.53354L10.118 6.17313Z" fill="#FFF3F0" stroke="#77280C" stroke-width="0.769043"/>
<path fill-rule="evenodd" clip-rule="evenodd" d="M10.1172 6.17301C9.82628 5.87697 9.47931 5.64183 9.0965 5.48132C8.71369 5.3208 8.30272 5.23813 7.88759 5.23813C7.47246 5.23813 7.0615 5.3208 6.67869 5.48132C6.29588 5.64183 5.9489 5.87697 5.65803 6.17301C5.07803 6.76756 4.75342 7.56509 4.75342 8.39548C4.75342 9.22587 5.07803 10.0234 5.65803 10.618L10.4657 15.4233L15.2734 10.618C15.8534 10.0234 16.178 9.22587 16.178 8.39548C16.178 7.56509 15.8534 6.76756 15.2734 6.17301C14.9834 5.8773 14.6375 5.64218 14.2558 5.48131C13.874 5.32044 13.4641 5.23704 13.0499 5.23596C12.6354 5.2357 12.2251 5.31849 11.8431 5.47943C11.4612 5.64038 11.1155 5.87621 10.8263 6.17301L10.4657 6.47334L10.1172 6.17301Z" stroke="#77280C" stroke-width="0.769043" stroke-linecap="round" stroke-linejoin="round"/>
</svg>
