<svg width="20" height="20" viewBox="0 0 20 20" fill="none" xmlns="http://www.w3.org/2000/svg">
<g clip-path="url(#clip0_922_864)">
<path d="M10 20C15.5228 20 20 15.5228 20 10C20 4.47715 15.5228 0 10 0C4.47715 0 0 4.47715 0 10C0 15.5228 4.47715 20 10 20Z" fill="#F0F0F0"/>
<path d="M9.99998 0C6.03537 0 2.60975 2.30723 0.992249 5.65219H19.0077C17.3902 2.30723 13.9646 0 9.99998 0Z" fill="#FF9811"/>
<path d="M9.99998 20C13.9646 20 17.3902 17.6928 19.0077 14.3478H0.992249C2.60975 17.6928 6.03537 20 9.99998 20Z" fill="#6DA544"/>
<path d="M9.99997 13.4782C11.921 13.4782 13.4782 11.921 13.4782 10C13.4782 8.07902 11.921 6.52176 9.99997 6.52176C8.07899 6.52176 6.52173 8.07902 6.52173 10C6.52173 11.921 8.07899 13.4782 9.99997 13.4782Z" fill="#0052B4"/>
<path d="M10 12.1739C11.2006 12.1739 12.1739 11.2006 12.1739 9.99999C12.1739 8.79937 11.2006 7.82608 10 7.82608C8.7994 7.82608 7.82611 8.79937 7.82611 9.99999C7.82611 11.2006 8.7994 12.1739 10 12.1739Z" fill="#F0F0F0"/>
<path d="M9.99998 7.31741L10.6706 8.83843L12.3231 8.6587L11.3413 9.99999L12.3231 11.3413L10.6706 11.1616L9.99998 12.6826L9.32932 11.1616L7.67682 11.3412L8.65869 9.99999L7.67682 8.6587L9.32932 8.83843L9.99998 7.31741Z" fill="#0052B4"/>
</g>
<defs>
<clipPath id="clip0_922_864">
<rect width="20" height="20" fill="white"/>
</clipPath>
</defs>
</svg>
