<svg width="20" height="20" viewBox="0 0 20 20" fill="none" xmlns="http://www.w3.org/2000/svg">
<g clip-path="url(#clip0_1493_2862)">
<path d="M9.69911 18.1865C14.3457 18.1865 18.1126 14.4215 18.1126 9.77716C18.1126 5.1328 14.3457 1.3678 9.69911 1.3678C5.05248 1.3678 1.28564 5.1328 1.28564 9.77716C1.28564 14.4215 5.05248 18.1865 9.69911 18.1865Z" fill="#F5BB5C"/>
<path fill-rule="evenodd" clip-rule="evenodd" d="M10.6834 16.2643H8.76037C8.58823 16.2643 8.42315 16.196 8.30143 16.0743C8.17971 15.9527 8.11133 15.7877 8.11133 15.6156V14.0178H11.3325V15.6156C11.3325 15.7877 11.2641 15.9527 11.1424 16.0743C11.0207 16.196 10.8556 16.2643 10.6834 16.2643Z" fill="#FFE1B2"/>
<path fill-rule="evenodd" clip-rule="evenodd" d="M8.12339 14.3301V14.0177C8.12339 13.6093 8.05728 13.2044 7.93108 12.8164C7.76265 12.4764 7.54831 12.1611 7.29406 11.8794C6.85129 11.5156 6.49373 11.0593 6.2466 10.5424C5.99948 10.0256 5.86879 9.46085 5.86377 8.88803C5.86377 7.86528 6.27025 6.88442 6.9938 6.16122C7.71735 5.43802 8.69869 5.03174 9.72194 5.03174C10.7452 5.03174 11.7265 5.43802 12.4501 6.16122C13.1736 6.88442 13.5801 7.86528 13.5801 8.88803C13.5698 9.47338 13.4323 10.0495 13.177 10.5764C12.9217 11.1033 12.5548 11.5684 12.1018 11.9394C12.1859 11.8794 12.0056 12.0115 11.8854 12.1797C11.7671 12.3539 11.674 12.544 11.609 12.7443C11.4865 13.1329 11.4257 13.5383 11.4287 13.9457V14.258" fill="#FCF0DE"/>
<path d="M9.05055 5.90881C8.48976 6.00325 7.97492 6.27741 7.5837 6.68995C7.1735 7.08816 6.88922 7.59793 6.76611 8.15608" stroke="white" stroke-width="1.53809" stroke-linecap="round" stroke-linejoin="round"/>
<path fill-rule="evenodd" clip-rule="evenodd" d="M10.6834 16.2643H8.76037C8.58823 16.2643 8.42315 16.196 8.30143 16.0743C8.17971 15.9527 8.11133 15.7877 8.11133 15.6156V14.0178H11.3325V15.6156C11.3325 15.7877 11.2641 15.9527 11.1424 16.0743C11.0207 16.196 10.8556 16.2643 10.6834 16.2643V16.2643Z" stroke="#5D3B01" stroke-width="0.769043" stroke-linecap="round" stroke-linejoin="round"/>
<path d="M9.69884 1.96838V3.48207M8.1123 14.3301V14.0178C8.11548 13.6104 8.05465 13.205 7.93202 12.8165C7.85372 12.6151 7.74861 12.4251 7.61952 12.2518C7.49104 12.0636 7.34188 11.8903 7.17481 11.7353C7.01446 11.591 6.86576 11.4344 6.73009 11.2667C6.17357 10.5893 5.86792 9.74063 5.86471 8.86406C5.86471 7.84131 6.27119 6.86045 6.99474 6.13725C7.71829 5.41405 8.69963 5.00777 9.72288 5.00777C10.7461 5.00777 11.7275 5.41405 12.451 6.13725C13.1746 6.86045 13.5811 7.84131 13.5811 8.86406C13.5668 9.7407 13.2577 10.587 12.7037 11.2667C12.4993 11.519 12.271 11.7473 12.0186 11.9515C11.9324 12.0297 11.8521 12.114 11.7782 12.2038C11.6635 12.3784 11.5745 12.5685 11.5137 12.7684C11.3913 13.157 11.3305 13.5624 11.3335 13.9697V14.2821L8.1123 14.3301ZM5.6123 3.3331L6.34548 4.28336L5.6123 3.3331ZM13.8034 3.3283L13.0762 4.28336L13.8034 3.3283Z" stroke="#5D3B01" stroke-width="0.769043" stroke-linecap="round" stroke-linejoin="round"/>
</g>
<defs>
<clipPath id="clip0_1493_2862">
<rect width="19.2308" height="19.2214" fill="white" transform="translate(0.0839844 0.166382)"/>
</clipPath>
</defs>
</svg>
