<svg width="81" height="81" viewBox="0 0 81 81" fill="none" xmlns="http://www.w3.org/2000/svg">
<path d="M28.4046 0.137451C12.8182 0.137451 0.137451 12.8177 0.137451 28.4044V52.0242C0.137451 67.6106 12.8182 80.2912 28.4046 80.2912H52.0243C67.6107 80.2912 80.2912 67.6106 80.2912 52.0242V41.5411L67.7137 49.0084V52.0242C67.7137 60.6752 60.6753 67.7134 52.0243 67.7134H28.4046C19.7533 67.7134 12.7151 60.6752 12.7151 52.0242V28.4044C12.7151 19.7531 19.7533 12.7149 28.4046 12.7149H52.0243C57.7132 12.7149 63.013 15.8828 65.7592 20.8444L39.8529 36.5469L32.6404 24.6477L29.8646 26.3302C29.8664 26.3334 29.8686 26.336 29.8704 26.3392C30.6976 27.7258 30.2108 29.5399 28.7836 30.3912C27.366 31.2365 25.5551 30.8126 24.7202 29.4486L21.8845 31.1673L35.616 53.8224L80.2498 26.7689L80.2078 26.2166C79.931 22.6037 78.9729 19.1426 77.3749 15.9099L77.3935 15.8987L76.5462 14.3061L76.5321 14.3143C71.4863 5.54536 62.1827 0.137451 52.0243 0.137451H28.4046Z" fill="#375DFB"/>
</svg>
