<svg width="30" height="30" viewBox="0 0 30 30" fill="none" xmlns="http://www.w3.org/2000/svg">
<path d="M14.9595 27.3913C21.9295 27.3913 27.5797 21.7438 27.5797 14.7772C27.5797 7.81071 21.9295 2.16321 14.9595 2.16321C7.98961 2.16321 2.33936 7.81071 2.33936 14.7772C2.33936 21.7438 7.98961 27.3913 14.9595 27.3913Z" fill="#1485BD"/>
<path fill-rule="evenodd" clip-rule="evenodd" d="M22.0452 13.4257H21.0536C20.9635 13.4257 20.7832 13.0833 20.3325 12.5968C19.6654 11.876 18.9262 10.9569 18.4034 10.4524C17.1061 9.32705 16.0458 7.95489 15.2844 6.41588C14.8517 5.49686 14.8156 5.0824 13.9322 5.0824C13.5833 5.12743 13.2645 5.30318 13.0403 5.57413C12.8161 5.84509 12.7031 6.19103 12.7243 6.54202C12.7243 6.7943 12.8505 7.67729 12.9046 7.98363C13.2907 9.39254 13.8994 10.7308 14.7075 11.948H15.681H7.96468C7.74613 11.9448 7.52932 11.9873 7.32815 12.0727C7.12698 12.1582 6.94589 12.2847 6.79651 12.4442C6.64713 12.6037 6.53275 12.7926 6.4607 12.9989C6.38866 13.2051 6.36054 13.4242 6.37815 13.6419C6.40593 14.0641 6.59592 14.4593 6.90839 14.7447C7.22086 15.0302 7.63163 15.1838 8.05483 15.1736H8.34329C8.1586 15.1783 7.97664 15.2193 7.80781 15.2943C7.63898 15.3693 7.48659 15.4768 7.35934 15.6107C7.2321 15.7445 7.13249 15.9022 7.06622 16.0745C6.99994 16.2469 6.9683 16.4306 6.9731 16.6152C6.97623 16.9783 7.11465 17.3273 7.36135 17.5938C7.60804 17.8604 7.94529 18.0255 8.30723 18.0568C8.08692 18.2253 7.91988 18.4537 7.82615 18.7147C7.73241 18.9756 7.71596 19.2581 7.77875 19.5281C7.84154 19.7982 7.98092 20.0444 8.18018 20.2373C8.37943 20.4302 8.63012 20.5616 8.90218 20.6157C8.72943 20.9154 8.67176 21.2677 8.73993 21.6068C8.83224 21.9397 9.03318 22.2322 9.31082 22.4378C9.58846 22.6435 9.92689 22.7506 10.2724 22.7421H14.401C14.9418 22.7421 15.4809 22.6736 16.0055 22.5438L18.5656 21.787H21.9911C23.8301 21.7149 24.3168 13.4257 22.0452 13.4257Z" fill="#E6F7FF"/>
<path d="M13.9312 11.948H7.94561C7.71774 11.9459 7.49208 11.9929 7.284 12.0857C7.07591 12.1786 6.89028 12.3151 6.73974 12.4861C6.5892 12.6571 6.47727 12.8585 6.41158 13.0766C6.3459 13.2947 6.32798 13.5244 6.35907 13.75C6.39128 14.169 6.58318 14.5597 6.89518 14.8413C7.20718 15.123 7.61546 15.2742 8.03575 15.2637H8.32421C8.13952 15.2684 7.95756 15.3094 7.78873 15.3844C7.6199 15.4594 7.46751 15.5669 7.34027 15.7008C7.21302 15.8346 7.11341 15.9923 7.04714 16.1646C6.98087 16.337 6.94922 16.5207 6.95402 16.7053C6.96065 17.0692 7.0998 17.4182 7.3454 17.6869C7.59099 17.9556 7.92618 18.1255 8.28815 18.1649C8.11575 18.3001 7.97599 18.4724 7.87924 18.6689C7.78249 18.8654 7.73123 19.0812 7.72926 19.3002C7.73016 19.6382 7.84698 19.9657 8.06024 20.2281C8.2735 20.4904 8.5703 20.6717 8.90113 20.7418C8.72714 21.0477 8.66952 21.406 8.73888 21.7509C8.83454 22.0805 9.0369 22.3689 9.31423 22.5711C9.59157 22.7733 9.92819 22.8778 10.2713 22.8682H14.3999C14.9408 22.8682 15.4799 22.7997 16.0045 22.67L18.5646 21.823H21.9901C23.793 21.823 24.2797 13.4617 21.9901 13.4617C21.6598 13.4799 21.3288 13.4799 20.9985 13.4617C20.9083 13.4617 20.7281 13.1193 20.2773 12.6328C19.6103 11.912 18.8711 10.993 18.3482 10.4884C17.0685 9.35269 16.0268 7.97461 15.2833 6.43389C15.1402 6.09387 14.9456 5.77784 14.7064 5.49684C14.4062 5.24445 14.0187 5.12002 13.6276 5.15036C13.2364 5.18069 12.8728 5.36336 12.6151 5.65902C12.4282 5.86099 12.276 6.09234 12.1644 6.34379C12.0914 6.51779 12.037 6.69899 12.0021 6.88439C11.9537 7.39244 11.9965 7.90504 12.1283 8.39807C12.2437 8.91705 12.4077 9.42342 12.6151 9.91176C12.954 10.5479 13.3543 11.1515 13.805 11.7138C13.8606 11.748 13.9046 11.7983 13.9312 11.8579" stroke="#004B7C" stroke-width="1.15357" stroke-linecap="round" stroke-linejoin="round"/>
</svg>
