<svg width="18" height="18" viewBox="0 0 18 18" fill="none" xmlns="http://www.w3.org/2000/svg">
<path d="M13.05 0.900024C15.7842 0.900024 18 3.15002 18 6.30002C18 12.6 11.25 16.2 9 17.55C6.75 16.2 0 12.6 0 6.30002C0 3.15002 2.25 0.900024 4.95 0.900024C6.624 0.900024 8.1 1.80002 9 2.70002C9.9 1.80002 11.376 0.900024 13.05 0.900024ZM9.8406 14.9436C10.6335 14.4432 11.349 13.9455 12.0186 13.4127C14.7015 11.2797 16.2 8.94872 16.2 6.30002C16.2 4.17602 14.8167 2.70002 13.05 2.70002C12.0816 2.70002 11.034 3.21302 10.2726 3.97262L9 5.24522L7.7274 3.97262C6.966 3.21302 5.9184 2.70002 4.95 2.70002C3.204 2.70002 1.8 4.19042 1.8 6.30002C1.8 8.94962 3.2994 11.2797 5.9805 13.4127C6.651 13.9455 7.3665 14.4432 8.1594 14.9427C8.4285 15.1128 8.6949 15.2757 9 15.4575C9.3051 15.2757 9.5715 15.1128 9.8406 14.9436Z" fill="#0A0D14"/>
</svg>
