<svg width="20" height="21" viewBox="0 0 20 21" fill="none" xmlns="http://www.w3.org/2000/svg">
<g clip-path="url(#clip0_1604_1559)">
<path d="M17.7019 18.3718H15.3034V14.6125C15.3034 13.7161 15.2854 12.5623 14.0524 12.5623C12.8023 12.5623 12.6115 13.5379 12.6115 14.5468V18.3718H10.2121V10.6417H12.5161V11.6947H12.5476C12.8698 11.0881 13.6528 10.4464 14.8228 10.4464C17.2528 10.4464 17.7028 12.0466 17.7028 14.1283V18.3718H17.7019ZM7.50309 9.58415C7.31999 9.58439 7.13864 9.54848 6.96945 9.4785C6.80025 9.40851 6.64653 9.30582 6.5171 9.1763C6.38767 9.04679 6.28508 8.893 6.2152 8.72376C6.14532 8.55452 6.10954 8.37315 6.10989 8.19005C6.11007 7.9145 6.19195 7.64519 6.34519 7.41618C6.49842 7.18717 6.71613 7.00874 6.97077 6.90346C7.22541 6.79817 7.50555 6.77077 7.77577 6.8247C8.04599 6.87863 8.29415 7.01148 8.48887 7.20645C8.68358 7.40141 8.81611 7.64974 8.8697 7.92003C8.92328 8.19032 8.89551 8.47043 8.78989 8.72494C8.68428 8.97944 8.50557 9.19692 8.27636 9.34985C8.04715 9.50279 7.77774 9.58433 7.50219 9.58415H7.50309ZM8.70549 18.3718H6.29979V10.6417H8.70639V18.3718H8.70549ZM18.9034 4.56665H5.09649C4.43409 4.56665 3.90039 5.08865 3.90039 5.73395V19.5994C3.90039 20.2447 4.43499 20.7667 5.09559 20.7667H18.8998C19.5604 20.7667 20.1004 20.2447 20.1004 19.5994V5.73395C20.1004 5.08865 19.5604 4.56665 18.8998 4.56665H18.9025H18.9034Z" fill="white"/>
</g>
<defs>
<clipPath id="clip0_1604_1559">
<rect width="20" height="20" fill="white" transform="translate(0 0.666626)"/>
</clipPath>
</defs>
</svg>
