<svg width="75" height="94" viewBox="0 0 75 94" fill="none" xmlns="http://www.w3.org/2000/svg">
<path d="M3.11694 14.9878C3.64472 15.8651 4.23369 16.6815 4.87238 17.4177C4.97182 17.5321 5.08273 17.6504 5.20129 17.7801C4.47464 16.8874 3.7824 15.9529 3.11694 14.9878ZM20.4763 13.3207V0H7.95492C9.9972 6.56882 14.5025 16.7577 22.7787 16.7577C21.4363 16.239 20.4763 14.8962 20.4763 13.3207ZM22.7136 27.332C19.2448 27.332 16.1126 26.4126 13.2977 24.8448C14.1047 25.5353 14.7434 26.3935 15.1794 27.351C15.6192 28.3123 15.8525 29.369 15.8525 30.46V41.4309C18.434 40.584 24.2052 39.6762 29.766 40.3208V30.46C29.766 28.7853 30.3205 27.187 31.3073 25.9129C28.6951 26.8208 25.8344 27.332 22.7136 27.332ZM27.5287 0.0801076V13.3207C27.5287 14.3316 27.1347 15.251 26.4961 15.9109C26.4081 16.0063 26.3125 16.094 26.213 16.1741C32.8179 13.8929 37.0402 5.40536 39.0978 0.0801076H27.5287ZM61.3525 30.0632L66.898 25.9701C67.1925 25.7489 67.4831 25.52 67.7661 25.2835C68.0492 25.047 68.3245 24.8028 68.5922 24.5511C68.8561 24.2955 69.1162 24.0399 69.3686 23.7729C70.4968 22.5675 71.4606 21.2171 72.237 19.7599C73.6979 17.0171 74.4972 13.8968 74.4972 10.6696V10.5513C74.4972 7.10287 72.8948 4.04353 70.4203 2.1362C68.7452 0.843037 66.6685 0.0801076 64.4235 0.0801076H53.5467C51.7798 4.71109 49.3244 9.83798 45.9818 14.385L51.6803 10.1622C52.0896 9.76168 52.5906 9.46033 53.1489 9.30393C53.4511 9.21237 53.7647 9.1666 54.0936 9.1666C54.7629 9.1666 55.3824 9.35733 55.914 9.68921L55.9561 9.71972C56.8969 10.2995 57.5395 11.3181 57.658 12.5159C57.7957 13.9464 57.1455 15.2319 56.1091 15.9643L44.4979 24.841C44.4979 24.841 44.4903 24.8448 44.4788 24.8524C44.169 25.0699 43.8784 25.3102 43.5992 25.5734C42.3333 26.7445 41.4001 28.2971 40.9641 30.0556C40.7844 30.7804 40.6887 31.5433 40.6887 32.3253C40.6887 34.0343 41.1439 35.6326 41.9355 36.9983C42.318 37.6582 42.7807 38.2647 43.3085 38.7988H43.3123C43.3123 38.7988 43.32 38.8064 43.32 38.8102L47.1177 41.7475L56.1091 48.7092C56.373 48.8923 56.6101 49.1136 56.8166 49.3654C56.8893 49.4493 56.9543 49.5408 57.0193 49.6324C57.3062 50.052 57.5127 50.5403 57.6121 51.0705C57.6274 51.1468 57.6389 51.2193 57.6427 51.2994C57.6542 51.3833 57.6657 51.4749 57.6657 51.5664C57.6771 51.7228 57.6771 51.883 57.6657 52.0471C57.6312 52.5506 57.5012 53.0274 57.287 53.4547C57.2182 53.5996 57.1379 53.7369 57.0499 53.8705C56.9658 54.0002 56.8702 54.126 56.7669 54.2443C56.1856 54.9157 55.371 55.3658 54.4569 55.4535C54.3192 55.4688 54.1777 55.4726 54.0477 55.4688H54.04C53.1795 55.4497 52.3955 55.1178 51.7912 54.5762L49.5845 52.9282L49.5463 52.8977L48.158 51.864L44.0925 48.8351C40.7729 46.2106 36.8145 44.5055 32.5388 43.7159V64.6087H64.4235C64.4656 64.6087 64.5077 64.6087 64.5497 64.6049C64.8825 64.6011 65.2076 64.5782 65.5288 64.5438C65.7124 64.521 65.8921 64.4943 66.0719 64.4637C66.1599 64.4485 66.2478 64.4332 66.3358 64.4141C66.4046 64.4027 66.4696 64.3874 66.5347 64.3722C66.6456 64.3493 66.7565 64.3226 66.8636 64.2959C67.0357 64.2501 67.2078 64.2005 67.3799 64.1471C67.6361 64.0708 67.8847 63.9793 68.1295 63.8725C68.2098 63.8381 68.2939 63.8038 68.3742 63.7657C68.7796 63.594 69.1697 63.388 69.5445 63.1515C69.6937 63.0599 69.8428 62.9608 69.9882 62.8616C70.2559 62.6747 70.516 62.4763 70.7684 62.2627C70.8563 62.1902 70.9481 62.1101 71.0323 62.03C71.0399 62.0262 71.0437 62.0224 71.0476 62.0147C71.1279 61.9461 71.2044 61.8736 71.2809 61.7973C71.3612 61.7248 71.4377 61.6447 71.5141 61.5646C71.5677 61.5074 71.6212 61.4502 71.6748 61.3929C71.6977 61.3701 71.7169 61.351 71.736 61.3281C71.8086 61.2518 71.8775 61.1717 71.9463 61.0916C73.5335 59.2415 74.4972 56.8077 74.4972 54.1375C74.4972 51.1926 73.828 48.3354 72.6003 45.772C72.5621 45.688 72.5238 45.6079 72.4817 45.524C71.1814 42.8995 69.2806 40.5955 66.898 38.8369L61.3525 34.74C59.8074 33.5956 59.8074 31.2076 61.3525 30.0632ZM46.0775 36.0789C45.7753 35.789 45.5076 35.461 45.282 35.0986C45.2093 34.9803 45.1366 34.8544 45.0716 34.7286C45.0066 34.6027 44.9454 34.473 44.8919 34.3395C44.8383 34.2059 44.7886 34.0686 44.7427 33.9313C44.6318 33.5842 44.5553 33.218 44.5209 32.8441C44.4444 32.043 44.5477 31.2725 44.7962 30.5744C44.8766 30.3417 44.976 30.1166 45.0907 29.903C45.1252 29.8267 45.1634 29.7543 45.2055 29.6856C45.2896 29.5444 45.3737 29.4109 45.4694 29.2812C45.6568 29.018 45.8671 28.7777 46.1004 28.5565C46.2075 28.4535 46.3222 28.3543 46.4408 28.2627C46.4981 28.2169 46.5593 28.1712 46.6205 28.1292C46.7429 28.0415 46.8653 27.9576 46.9953 27.8851C47.1751 27.7783 47.3587 27.6867 47.5499 27.6066C47.6914 27.5456 47.8367 27.4922 47.9859 27.4464C48.135 27.3968 48.2918 27.3587 48.4448 27.3281C48.9076 27.2366 49.3933 27.2099 49.8943 27.2595C49.9631 27.2671 50.0282 27.2747 50.097 27.2824C50.162 27.29 50.2308 27.3014 50.2959 27.3167C50.4909 27.351 50.686 27.4006 50.8734 27.4655H50.8772C51.1908 27.5723 51.4929 27.7058 51.7721 27.866C51.8869 27.927 51.9978 27.9995 52.1087 28.0758C52.3228 28.2284 52.5255 28.3924 52.7129 28.5717H52.7168C52.7397 28.5946 52.7665 28.6175 52.7894 28.6442C52.8162 28.6671 52.8392 28.69 52.8621 28.7205H52.8659C52.9883 28.8464 53.103 28.9799 53.2101 29.1172C53.3172 29.2545 53.4205 29.3995 53.5123 29.5483C53.9253 30.2082 54.193 30.9749 54.2695 31.8027C54.2963 32.0736 54.3001 32.3444 54.2886 32.6076C54.2886 32.6839 54.281 32.7602 54.2695 32.8327V32.8556C54.2619 32.9395 54.2504 33.0196 54.2389 33.0997C54.2236 33.1951 54.2083 33.2904 54.1892 33.382C54.1701 33.4888 54.1433 33.5956 54.1127 33.6986C54.0477 33.9427 53.9674 34.1792 53.8679 34.4043C53.8373 34.4806 53.8029 34.5531 53.7647 34.6256C53.7456 34.6675 53.7264 34.7095 53.7035 34.7514C53.6308 34.8964 53.5467 35.0337 53.4587 35.1711C53.4128 35.2397 53.3669 35.3084 53.321 35.3732C53.2293 35.5029 53.1298 35.6288 53.0227 35.7471C52.8659 35.9264 52.6938 36.098 52.5141 36.2506C52.4644 36.2964 52.4108 36.3422 52.3573 36.3803C52.3343 36.3956 52.3152 36.4146 52.2961 36.4261C52.2425 36.4718 52.189 36.51 52.1355 36.5443C52.0169 36.6321 51.8907 36.7122 51.7606 36.7846C51.6803 36.8304 51.6038 36.8724 51.5235 36.9105C51.4509 36.9487 51.3782 36.983 51.3055 37.0135C51.2329 37.044 51.1602 37.0746 51.0875 37.1013C51.011 37.1318 50.9346 37.1585 50.8542 37.1852C50.8007 37.2043 50.7433 37.2233 50.6898 37.2386C50.6668 37.2462 50.6439 37.25 50.6209 37.2539C50.5445 37.2729 50.4641 37.292 50.3838 37.3111C50.3035 37.3263 50.2232 37.3416 50.1429 37.3568C50.0626 37.3721 49.9823 37.3835 49.8981 37.3874C49.573 37.4255 49.2403 37.4255 48.8999 37.3874H48.8961C47.8138 37.2767 46.8347 36.7999 46.0775 36.0751V36.0789Z" fill="#2E8ACA"/>
<path d="M32.5388 43.7121V64.6049H12.1963C11.8483 64.6049 11.5041 64.6583 11.1866 64.7575C11.1369 64.7728 11.0834 64.788 11.0337 64.8109C10.9839 64.83 10.9342 64.849 10.8845 64.8719C10.8692 64.8757 10.8539 64.8834 10.8348 64.891C10.8195 64.8986 10.8004 64.9063 10.7812 64.9177C10.7545 64.9292 10.7277 64.9406 10.7009 64.952C10.6933 64.9559 10.6895 64.9597 10.6818 64.9635C10.6512 64.9787 10.6168 64.994 10.5862 65.0093C10.5709 65.0169 10.5594 65.0245 10.5479 65.0321C10.395 65.1161 10.2535 65.2114 10.112 65.3182C10.0928 65.3335 10.0699 65.3488 10.0469 65.3678C10.0431 65.3717 10.0355 65.3755 10.0316 65.3793C10.024 65.3869 10.0163 65.3907 10.0087 65.4022C9.99722 65.4098 9.98957 65.4174 9.9781 65.4251C9.97045 65.4327 9.9628 65.4403 9.95515 65.4479C9.87484 65.5128 9.79835 65.5853 9.72568 65.6616C9.64919 65.7417 9.57653 65.8218 9.50386 65.9095C9.45032 65.9782 9.39677 66.0468 9.35088 66.1193C9.32028 66.1575 9.29351 66.1994 9.26674 66.2414C9.2132 66.3253 9.15966 66.413 9.11376 66.5046C9.10994 66.5046 9.10994 66.5084 9.10611 66.5084C9.10611 66.5084 9.09846 66.5237 9.09846 66.5275H9.09081V66.5351L9.08699 66.5428C9.08699 66.5466 9.08699 66.5504 9.07934 66.5542H9.07552C9.06404 66.5923 9.04875 66.6229 9.03345 66.6572C9.0258 66.6686 9.02197 66.6801 9.01815 66.6915C9.00285 66.7182 8.99138 66.7449 8.98373 66.7716C8.9799 66.7716 8.9799 66.7754 8.9799 66.7754C8.94548 66.8517 8.91489 66.9318 8.88812 67.012C8.74661 67.4087 8.67395 67.8321 8.67395 68.2708C8.67395 68.7781 8.77338 69.2588 8.94931 69.7013C8.9952 69.8081 9.04492 69.9149 9.09846 70.0179C9.15583 70.1247 9.2132 70.2239 9.27439 70.3193C9.33558 70.4184 9.4006 70.5138 9.47709 70.6053C9.55358 70.6969 9.62624 70.7808 9.70656 70.8609C9.72568 70.8838 9.7448 70.9029 9.76775 70.9258C9.78687 70.9449 9.80599 70.9677 9.82894 70.983C9.91308 71.0669 10.001 71.1432 10.0928 71.2081C10.1387 71.2462 10.1884 71.2805 10.2343 71.3111V71.3187C10.2611 71.5247 10.2917 71.7307 10.3261 71.9367C10.3567 72.116 10.3873 72.2952 10.4217 72.4745C10.4217 72.4783 10.4217 72.486 10.4217 72.4898C10.4217 72.4974 10.4217 72.505 10.4256 72.5127C10.4256 72.5203 10.4256 72.5317 10.4294 72.5394V72.5508C10.4523 72.6729 10.4753 72.7911 10.5021 72.9132C10.5097 72.9475 10.5174 72.9819 10.525 73.0162C10.5288 73.0505 10.5365 73.0811 10.5479 73.1154C10.5479 73.1306 10.5518 73.1459 10.5556 73.1612C10.5556 73.165 10.5594 73.1688 10.5594 73.1726C10.6015 73.3557 10.6436 73.5426 10.6895 73.7219C10.72 73.8516 10.7545 73.9813 10.7851 74.1072C10.7851 74.111 10.7889 74.1186 10.7889 74.1225C10.7965 74.153 10.8042 74.1835 10.8118 74.214C10.8118 74.2216 10.8157 74.2255 10.8195 74.2331C10.8233 74.2522 10.831 74.275 10.8386 74.2979C10.8921 74.4887 10.9457 74.6756 11.0031 74.8625C11.0604 75.0494 11.1178 75.2325 11.179 75.4156C11.2402 75.5987 11.3052 75.7818 11.3702 75.9611C11.4391 76.1404 11.5041 76.3197 11.5729 76.4952C11.7144 76.8499 11.8636 77.1932 12.0166 77.5327C12.028 77.5595 12.0395 77.5862 12.0548 77.6129C12.0701 77.6472 12.0854 77.6777 12.1007 77.712C12.1389 77.7921 12.1772 77.8723 12.2116 77.9524C12.2269 77.9791 12.2422 78.0096 12.2537 78.0363C12.4181 78.372 12.5864 78.6962 12.7623 79.0128C12.7929 79.0701 12.8235 79.1273 12.8579 79.1807C12.9153 79.2875 12.9727 79.3905 13.0339 79.4897C13.1142 79.627 13.1945 79.7643 13.2786 79.8978C13.2901 79.9169 13.3054 79.9398 13.3169 79.9589C13.401 80.0962 13.4852 80.2335 13.5731 80.3708C13.5846 80.3823 13.5922 80.3975 13.5999 80.409C13.5999 80.409 13.6075 80.4243 13.6114 80.4281C13.6152 80.4319 13.619 80.4395 13.6228 80.4433C13.6267 80.4471 13.6267 80.4548 13.6305 80.4586C13.7184 80.5921 13.8064 80.7256 13.8982 80.8553C13.9976 81.0003 14.1009 81.1452 14.2042 81.2902C14.208 81.2978 14.2118 81.3054 14.2195 81.3131C14.2883 81.4046 14.3533 81.4962 14.4222 81.5877C14.4528 81.6297 14.4833 81.6755 14.5178 81.7174L14.5369 81.7403C14.5407 81.7441 14.5407 81.7479 14.5445 81.7518C14.5484 81.7594 14.5522 81.7632 14.556 81.7708C14.5675 81.7823 14.5751 81.7975 14.5866 81.809C14.5904 81.8128 14.5904 81.8166 14.5943 81.8204C14.5981 81.8242 14.5981 81.828 14.6019 81.8319C14.6096 81.8433 14.621 81.8547 14.6287 81.8662C14.6975 81.9577 14.7664 82.0455 14.839 82.137C15.057 82.4117 15.275 82.6787 15.5007 82.9419C15.9558 83.4722 16.4224 83.9719 16.9004 84.4487C17.019 84.5708 17.1414 84.689 17.2638 84.8035C17.2638 84.8035 17.2867 84.8302 17.2982 84.8378C17.3938 84.9332 17.4932 85.0285 17.5927 85.1201C17.5965 85.1201 17.6003 85.1277 17.6041 85.1315C17.608 85.1353 17.6118 85.1392 17.6156 85.1392C17.6156 85.1392 17.6182 85.1417 17.6233 85.1468C17.6233 85.1468 17.6271 85.1506 17.6309 85.1506C17.7571 85.265 17.8795 85.3795 18.0019 85.4901C18.2505 85.7114 18.5029 85.9288 18.7553 86.1386C18.7706 86.1539 18.7859 86.1653 18.8012 86.1806C18.8356 86.2073 18.87 86.234 18.9045 86.2645C18.9121 86.2645 18.9198 86.2721 18.9274 86.2836L18.9351 86.2874C18.9389 86.2874 18.9427 86.295 18.9465 86.295C18.9618 86.3103 18.9771 86.3217 18.9924 86.3331C18.9924 86.3331 18.9924 86.3331 18.9962 86.337C19.1836 86.4972 19.371 86.6498 19.5623 86.7909L19.5737 86.8023C19.5737 86.8023 19.589 86.8176 19.6005 86.8252C19.6196 86.8405 19.6388 86.8557 19.6617 86.871C19.742 86.932 19.8223 86.9931 19.9027 87.0503C20.0289 87.1495 20.1589 87.2448 20.2889 87.3402C20.5452 87.5271 20.8052 87.7102 21.0615 87.8895C21.3177 88.0726 21.5778 88.2481 21.8378 88.4121C21.9641 88.496 22.0941 88.5762 22.2241 88.6601C22.2891 88.702 22.3541 88.744 22.4153 88.7822C22.4268 88.7898 22.4383 88.7974 22.4498 88.805C22.4612 88.8127 22.4727 88.8203 22.4842 88.8279C22.5263 88.8546 22.5645 88.8775 22.6066 88.9004C22.7022 88.9576 22.7978 89.0187 22.8934 89.0759C22.9278 89.0988 22.9622 89.1178 22.9928 89.1331C23.1917 89.2552 23.3868 89.3658 23.5818 89.4802C23.6239 89.5069 23.6621 89.5298 23.7042 89.5527C23.7195 89.5603 23.7386 89.5718 23.7539 89.5794C23.8725 89.6481 23.9872 89.7129 24.1058 89.7778C24.1134 89.7816 24.1211 89.7854 24.1287 89.793C24.2549 89.8617 24.3773 89.9265 24.5035 89.9952H24.5073C24.6335 90.0639 24.7559 90.1287 24.8783 90.1898C25.452 90.4911 26.0104 90.7658 26.5458 91.0175C26.584 91.0366 26.6223 91.0557 26.6644 91.0709C26.6911 91.0824 26.7217 91.0976 26.7485 91.1091C26.8097 91.1396 26.8709 91.1663 26.9321 91.193C26.9588 91.2044 26.9818 91.2159 27.0086 91.2273C27.2839 91.3532 27.5555 91.4715 27.8155 91.5859C27.9035 91.6202 27.9876 91.6584 28.0756 91.6927C28.0871 91.7004 28.1024 91.7042 28.1138 91.7118C28.1138 91.7118 28.1164 91.7131 28.1215 91.7156H28.1253C28.1253 91.7156 28.1406 91.7232 28.1483 91.7271C28.1674 91.7347 28.1903 91.7423 28.2094 91.7499C28.2592 91.769 28.3089 91.7919 28.3586 91.811C28.4695 91.8568 28.5804 91.9025 28.6913 91.9445C28.9055 92.0322 29.1197 92.1123 29.3224 92.1924C29.4256 92.2306 29.5251 92.2687 29.6207 92.3031C29.7507 92.3488 29.8807 92.3984 30.0031 92.4404H29.9993L29.9917 92.4442C29.7545 92.5091 29.5136 92.5701 29.2727 92.6235C29.0202 92.6807 28.7678 92.7379 28.5154 92.7837C28.1062 92.8638 27.697 92.9325 27.2839 92.9935C26.867 93.0546 26.454 93.1003 26.0333 93.1347C25.3717 93.1881 24.7024 93.2186 24.0255 93.2186H23.7654C23.6774 93.2224 23.5933 93.2186 23.5053 93.2148C23.3332 93.211 23.1611 93.2033 22.989 93.1957C22.8207 93.1881 22.6525 93.1804 22.4842 93.169C22.4804 93.1728 22.4727 93.1728 22.4689 93.169C22.3006 93.1576 22.1285 93.1461 21.9602 93.1308C21.7078 93.108 21.4554 93.0813 21.2068 93.0507C20.9544 93.0202 20.7058 92.9859 20.4572 92.9477C20.4381 92.9477 20.419 92.9439 20.3998 92.9401C19.589 92.8066 18.7897 92.6388 18.0095 92.429C17.8489 92.387 17.6883 92.3412 17.5276 92.2954C17.2102 92.2039 16.8928 92.1047 16.583 91.9979C16.4262 91.9445 16.2732 91.8911 16.1164 91.8339C15.841 91.7347 15.5657 91.6317 15.2941 91.5211C14.7549 91.2998 14.2233 91.0595 13.7032 90.8039H13.6993C13.4813 90.6933 13.2633 90.5827 13.0492 90.4644C12.9803 90.4301 12.9153 90.3957 12.8465 90.3576C12.6208 90.2317 12.3952 90.1058 12.1734 89.9723H12.1695C11.9209 89.8235 11.6723 89.671 11.4314 89.5146H11.4276C11.1828 89.3582 10.9419 89.1979 10.7048 89.0339C10.59 88.9538 10.4753 88.8737 10.3644 88.7898H10.3605C10.1999 88.6715 10.0393 88.5533 9.87866 88.4274C9.77157 88.3473 9.66449 88.2672 9.56123 88.1832C9.44649 88.0955 9.33176 88.0078 9.22085 87.9124C9.14053 87.8514 9.06404 87.7865 8.98755 87.7217C8.81545 87.5805 8.64717 87.4318 8.4789 87.2868C8.28767 87.1151 8.10027 86.9435 7.91287 86.7718C7.8861 86.7451 7.85933 86.7222 7.83256 86.6917C7.65663 86.5277 7.4807 86.356 7.31243 86.1844C7.1212 85.9936 6.9338 85.8029 6.75405 85.6045C6.62019 85.4634 6.49016 85.3223 6.36778 85.1773C6.28364 85.0858 6.1995 84.9904 6.11536 84.895C5.77498 84.4983 5.44607 84.0901 5.12864 83.6705C4.99096 83.4912 4.86093 83.3119 4.7309 83.1288C4.65823 83.0297 4.58556 82.9305 4.52055 82.8275C4.32932 82.5566 4.14957 82.282 3.97365 82.0035C3.88951 81.8738 3.80537 81.7441 3.72505 81.6106C3.52236 81.2864 3.33113 80.9507 3.14756 80.6112C3.07872 80.4891 3.0137 80.3632 2.94486 80.2373C2.86454 80.0886 2.78423 79.936 2.71156 79.7834C2.63507 79.6308 2.56241 79.482 2.48974 79.3295C2.48209 79.3295 2.47827 79.318 2.47827 79.3066C2.4056 79.154 2.33676 79.0052 2.26792 78.8526H2.2641C2.0767 78.4368 1.90077 78.0172 1.73632 77.59C1.57187 77.1665 1.41889 76.7355 1.27356 76.3006C1.20471 76.0984 1.14352 75.8963 1.08233 75.6941C1.07086 75.6559 1.05556 75.614 1.04791 75.5682C1.01349 75.4652 0.982894 75.3622 0.956123 75.2554C0.929351 75.1677 0.906404 75.0799 0.883457 74.9884C0.883457 74.9884 0.883457 74.9769 0.883457 74.9731C0.871984 74.935 0.86051 74.9006 0.852861 74.8625C0.803143 74.6756 0.757249 74.4887 0.711355 74.3017C0.653988 74.0767 0.60427 73.8478 0.558376 73.6189C0.523955 73.4663 0.493359 73.3137 0.466588 73.1612C0.435992 73.0048 0.409221 72.8522 0.382449 72.6996C0.355678 72.547 0.328906 72.3906 0.305959 72.2342C0.283012 72.0778 0.260065 71.9214 0.237118 71.7688C0.183576 71.3492 0.133857 70.9296 0.0994368 70.51C0.0650163 70.0866 0.0382449 69.6593 0.0229469 69.2321C0.00764898 68.9002 0 68.576 0 68.2441C0 67.9656 0 67.691 0.0114735 67.4163C0.0305959 66.8632 0.0650164 66.3177 0.114735 65.7798C0.168278 65.2381 0.233294 64.7041 0.317433 64.1739C0.566025 62.5831 0.959947 61.0458 1.48773 59.5734C1.75162 58.8333 2.0461 58.1162 2.37118 57.4143C2.58918 56.9451 2.81865 56.4835 3.06342 56.0334C3.28524 55.6252 3.51471 55.2247 3.75947 54.8318L3.84744 54.683V54.6792C4.54732 53.5539 5.33516 52.4896 6.1995 51.4978C6.49016 51.1659 6.78465 50.8417 7.09061 50.5289C7.19387 50.4182 7.30478 50.3076 7.41186 50.2008C7.74077 49.8727 8.0735 49.5599 8.41388 49.2548C8.42153 49.2471 8.433 49.2395 8.44065 49.2319C8.6204 49.0717 8.8078 48.9153 8.99138 48.7627C9.0105 48.7436 9.02962 48.7283 9.05257 48.7093C9.07169 48.6902 9.09081 48.6749 9.11376 48.6559C9.28969 48.5109 9.46944 48.3698 9.64919 48.2286C10.0125 47.9425 10.3873 47.6717 10.7659 47.4085C10.9533 47.2788 11.1446 47.1529 11.3358 47.027C11.5041 46.9164 11.6762 46.8096 11.8521 46.7066C12.1389 46.5311 12.4258 46.3633 12.7164 46.1992C12.9574 46.0657 13.2021 45.9322 13.4507 45.8063H13.4584C13.5731 45.7453 13.6879 45.6881 13.8026 45.6347C13.8408 45.6156 13.8791 45.5927 13.9211 45.5774C13.9594 45.5546 13.9976 45.5355 14.0397 45.5164C14.1353 45.4706 14.2309 45.4249 14.3265 45.3829C14.3763 45.36 14.4298 45.3371 14.4833 45.3142C14.4872 45.3142 14.4872 45.3104 14.4872 45.3104C14.6363 45.2418 14.7855 45.1769 14.9346 45.1121C15.0073 45.0815 15.0838 45.051 15.1603 45.0205C15.2941 44.9671 15.428 44.9137 15.5619 44.8603C15.6575 44.8221 15.7493 44.784 15.8449 44.7497C16.0055 44.6886 16.1661 44.6314 16.3268 44.5742C18.7438 43.7235 21.3292 43.2658 24.0216 43.2658C24.1823 43.2658 24.4844 43.262 24.8783 43.2581H25.4214C25.517 43.2581 25.6164 43.2581 25.7197 43.2581C26.1404 43.2543 26.607 43.2543 27.0697 43.2581H27.7696C27.9417 43.2581 28.11 43.2581 28.2745 43.2658C28.4427 43.2696 28.611 43.2734 28.7716 43.281H28.7793C28.9055 43.281 29.0241 43.2887 29.1388 43.2925H29.1464C29.3147 43.3001 29.4753 43.3115 29.6207 43.323C29.6704 43.3268 29.7125 43.3306 29.7584 43.3344C30.6954 43.4184 31.6209 43.5481 32.5311 43.7159L32.5388 43.7121Z" fill="#AC2489"/>
<path d="M61.3525 30.0632L66.898 25.9701C67.1925 25.7489 67.4831 25.52 67.7661 25.2835C68.0492 25.047 68.3245 24.8028 68.5922 24.5511C68.8561 24.2955 69.1162 24.0399 69.3686 23.7729C70.4968 22.5674 71.4606 21.2171 72.237 19.7599C73.6979 17.0171 74.4972 13.8967 74.4972 10.6696V10.5513C74.4972 7.10286 72.8948 4.04351 70.4203 2.13619C68.7452 0.843023 66.6685 0.0800934 64.4235 0.0800934H44.4941V15.4875L45.978 14.385H45.9818L51.6803 10.1622C52.0896 9.76167 52.5906 9.46031 53.1489 9.30391C53.4511 9.21236 53.7647 9.16658 54.0936 9.16658C54.7629 9.16658 55.3824 9.35732 55.914 9.68919L55.9561 9.71971C56.8969 10.2995 57.5395 11.318 57.658 12.5158C57.7957 13.9463 57.1455 15.2319 56.1091 15.9643L44.4979 24.841C44.4979 24.841 44.4903 24.8448 44.4788 24.8524C44.169 25.0699 43.8784 25.3102 43.5992 25.5734C42.3333 26.7445 41.4001 28.297 40.9641 30.0556C40.7844 30.7804 40.6887 31.5433 40.6887 32.3253C40.6887 34.0343 41.1439 35.6326 41.9355 36.9983C42.318 37.6582 42.7807 38.2647 43.3085 38.7988H43.3123C43.3123 38.7988 43.32 38.8064 43.32 38.8102L47.1177 41.7475L56.1091 48.7092C56.373 48.8923 56.6101 49.1136 56.8166 49.3653C56.8893 49.4493 56.9543 49.5408 57.0193 49.6324C57.3062 50.052 57.5127 50.5403 57.6121 51.0705C57.6274 51.1468 57.6389 51.2193 57.6427 51.2994C57.6542 51.3833 57.6657 51.4748 57.6657 51.5664C57.6771 51.7228 57.6771 51.883 57.6657 52.047C57.6312 52.5506 57.5012 53.0274 57.287 53.4546C57.2182 53.5996 57.1379 53.7369 57.0499 53.8704C56.9658 54.0001 56.8702 54.126 56.7669 54.2443C56.1856 54.9157 55.371 55.3658 54.4569 55.4535C54.3192 55.4688 54.1777 55.4726 54.0477 55.4688H54.04C53.1795 55.4497 52.3955 55.1178 51.7912 54.5762L49.5845 52.9282L49.5463 52.8977L48.158 51.8639L44.0925 48.8351C40.7729 46.2106 36.8145 44.5055 32.5388 43.7159V64.6087H64.4235C64.4656 64.6087 64.5077 64.6087 64.5497 64.6049C64.8825 64.601 65.2076 64.5782 65.5288 64.5438C65.7124 64.5209 65.8921 64.4942 66.0719 64.4637C66.1599 64.4485 66.2478 64.4332 66.3358 64.4141C66.4046 64.4027 66.4696 64.3874 66.5347 64.3722C66.6456 64.3493 66.7565 64.3226 66.8636 64.2959C67.0357 64.2501 67.2078 64.2005 67.3799 64.1471C67.6361 64.0708 67.8847 63.9793 68.1295 63.8724C68.2098 63.8381 68.2939 63.8038 68.3742 63.7656C68.7796 63.594 69.1697 63.388 69.5445 63.1515C69.6937 63.0599 69.8428 62.9607 69.9882 62.8616C70.2559 62.6746 70.516 62.4763 70.7684 62.2627C70.8563 62.1902 70.9481 62.1101 71.0323 62.03C71.0399 62.0262 71.0437 62.0223 71.0476 62.0147C71.1279 61.9461 71.2044 61.8736 71.2809 61.7973C71.3612 61.7248 71.4377 61.6447 71.5141 61.5646C71.5677 61.5074 71.6212 61.4501 71.6748 61.3929C71.6977 61.37 71.7168 61.351 71.736 61.3281C71.8086 61.2518 71.8775 61.1717 71.9463 61.0916C73.5335 59.2415 74.4972 56.8077 74.4972 54.1375C74.4972 51.1926 73.828 48.3354 72.6003 45.7719C72.5621 45.688 72.5238 45.6079 72.4817 45.524C71.1814 42.8995 69.2806 40.5955 66.898 38.8369L61.3525 34.74C59.8074 33.5956 59.8074 31.2076 61.3525 30.0632ZM46.0775 36.0789C45.7753 35.789 45.5076 35.461 45.282 35.0986C45.2093 34.9803 45.1366 34.8544 45.0716 34.7285C45.0066 34.6027 44.9454 34.473 44.8919 34.3394C44.8383 34.2059 44.7886 34.0686 44.7427 33.9313C44.6318 33.5841 44.5553 33.2179 44.5209 32.8441C44.4444 32.043 44.5477 31.2725 44.7963 30.5744C44.8766 30.3417 44.976 30.1166 45.0907 29.903C45.1252 29.8267 45.1634 29.7542 45.2055 29.6856C45.2896 29.5444 45.3737 29.4109 45.4694 29.2812C45.6568 29.018 45.8671 28.7777 46.1004 28.5564C46.2075 28.4534 46.3222 28.3543 46.4408 28.2627C46.4981 28.2169 46.5593 28.1712 46.6205 28.1292C46.7429 28.0415 46.8653 27.9575 46.9953 27.8851C47.1751 27.7783 47.3587 27.6867 47.5499 27.6066C47.6914 27.5456 47.8367 27.4922 47.9859 27.4464C48.135 27.3968 48.2918 27.3586 48.4448 27.3281C48.9076 27.2366 49.3933 27.2099 49.8943 27.2595C49.9631 27.2671 50.0282 27.2747 50.097 27.2823C50.162 27.29 50.2309 27.3014 50.2959 27.3167C50.4909 27.351 50.686 27.4006 50.8734 27.4655H50.8772C51.1908 27.5723 51.4929 27.7058 51.7721 27.866C51.8869 27.927 51.9978 27.9995 52.1087 28.0758C52.3228 28.2284 52.5255 28.3924 52.7129 28.5717L52.8621 28.7205C52.9845 28.8464 53.0992 28.9799 53.2101 29.1172C53.3172 29.2545 53.4205 29.3995 53.5123 29.5482C53.9253 30.2082 54.193 30.9749 54.2695 31.8027C54.2963 32.0735 54.3001 32.3444 54.2886 32.6076C54.2886 32.6839 54.281 32.7602 54.2695 32.8327V32.8555C54.2619 32.9395 54.2504 33.0196 54.2389 33.0997C54.2236 33.195 54.2083 33.2904 54.1892 33.382C54.1701 33.4888 54.1433 33.5956 54.1127 33.6986C54.0477 33.9427 53.9674 34.1792 53.8679 34.4043C53.8374 34.4806 53.8029 34.5531 53.7647 34.6255C53.7456 34.6675 53.7264 34.7095 53.7035 34.7514C53.6308 34.8964 53.5467 35.0337 53.4587 35.171C53.4128 35.2397 53.3669 35.3084 53.321 35.3732C53.2293 35.5029 53.1298 35.6288 53.0227 35.7471C52.8659 35.9263 52.6938 36.098 52.5141 36.2506C52.4644 36.2964 52.4108 36.3421 52.3573 36.3803C52.3343 36.3955 52.3152 36.4146 52.2961 36.4261C52.2425 36.4718 52.189 36.51 52.1355 36.5443C52.0169 36.632 51.8907 36.7122 51.7606 36.7846C51.6803 36.8304 51.6038 36.8724 51.5235 36.9105C51.4509 36.9487 51.3782 36.983 51.3055 37.0135C51.2329 37.044 51.1602 37.0746 51.0875 37.1012C51.011 37.1318 50.9346 37.1585 50.8542 37.1852C50.8007 37.2042 50.7433 37.2233 50.6898 37.2386C50.6668 37.2462 50.6439 37.25 50.621 37.2538C50.5445 37.2729 50.4641 37.292 50.3838 37.3111C50.3035 37.3263 50.2232 37.3416 50.1429 37.3568C50.0626 37.3721 49.9823 37.3835 49.8981 37.3873C49.573 37.4255 49.2403 37.4255 48.8999 37.3873H48.8961C47.8138 37.2767 46.8347 36.7999 46.0775 36.0751V36.0789Z" fill="#502E8B"/>
<path d="M61.3525 30.0633L66.898 25.9702C67.1925 25.7489 67.4832 25.52 67.7662 25.2835C68.0492 25.047 68.3246 24.8029 68.5923 24.5511C68.8562 24.2955 69.1162 24.04 69.3686 23.7729C70.4969 22.5675 71.4606 21.2171 72.237 19.7599C73.698 17.0172 74.4973 13.8968 74.4973 10.6696V10.5514C74.4973 7.10292 72.8948 4.04357 70.4204 2.13625C64.8749 3.47519 58.5836 5.67242 53.149 9.30397C53.4511 9.21242 53.7647 9.16664 54.0936 9.16664C54.7629 9.16664 55.3825 9.35737 55.9141 9.68925L55.9561 9.71977C56.897 10.2996 57.5395 11.3181 57.658 12.5159C57.7957 13.9464 57.1456 15.2319 56.1091 15.9643L44.498 24.841C44.498 24.841 44.4903 24.8448 44.4789 24.8525C44.4062 24.8944 44.1232 25.0585 43.7331 25.3446L43.5992 25.5734L40.9641 30.0557C40.7844 30.7804 40.6888 31.5434 40.6888 32.3254C40.6888 34.0343 41.1439 35.6327 41.9356 36.9983C42.318 37.6582 42.7808 38.2648 43.3086 38.7988H43.3124C43.3124 38.7988 43.32 38.8065 43.32 38.8103L47.1178 41.7476L56.1091 48.7093C56.373 48.8924 56.6101 49.1136 56.8167 49.3654C56.8893 49.4493 56.9543 49.5409 57.0194 49.6324C57.3062 50.052 57.5127 50.5403 57.6122 51.0705C57.6275 51.1468 57.6389 51.2193 57.6427 51.2994C57.6542 51.3833 57.6657 51.4749 57.6657 51.5664C57.6772 51.7228 57.6772 51.8831 57.6657 52.0471C57.6313 52.5506 57.5012 53.0275 57.2871 53.4547C57.2182 53.5997 57.1379 53.737 57.05 53.8705C56.9658 54.0002 56.8702 54.1261 56.7669 54.2443C56.1856 54.9157 55.371 55.3658 54.4569 55.4536C54.3193 55.4688 54.1778 55.4726 54.0477 55.4688C54.0477 55.4688 54.0477 55.465 54.0401 55.465C53.1796 55.4459 52.3955 55.1141 51.7913 54.5724L49.5845 52.9283C56.656 59.0432 66.3549 60.817 71.736 61.3281C71.8087 61.2518 71.8775 61.1717 71.9463 61.0916C73.5335 59.2415 74.4973 56.8078 74.4973 54.1375C74.4973 51.1926 73.828 48.3354 72.6003 45.772C72.5621 45.6881 72.5238 45.608 72.4818 45.524C71.1814 42.8996 69.2807 40.5955 66.898 38.837L61.3525 34.74C59.8074 33.5956 59.8074 31.2077 61.3525 30.0633ZM46.0775 36.079C45.7754 35.7891 45.5076 35.461 45.282 35.0986C45.2093 34.9804 45.1367 34.8545 45.0716 34.7286C45.0066 34.6027 44.9454 34.473 44.8919 34.3395C44.8384 34.206 44.7886 34.0687 44.7427 33.9313C44.6318 33.5842 44.5553 33.218 44.5209 32.8442C44.4444 32.0431 44.5477 31.2725 44.7963 30.5744C44.8766 30.3418 44.976 30.1167 45.0908 29.9031C45.1252 29.8268 45.1634 29.7543 45.2055 29.6856C45.2896 29.5445 45.3738 29.411 45.4694 29.2813C45.6568 29.0181 45.8671 28.7777 46.1004 28.5565C46.2075 28.4535 46.3223 28.3543 46.4408 28.2628C46.4982 28.217 46.5594 28.1712 46.6206 28.1293C46.743 28.0415 46.8653 27.9576 46.9954 27.8851C47.1751 27.7783 47.3587 27.6868 47.5499 27.6067C47.6914 27.5456 47.8368 27.4922 47.9859 27.4464C48.1351 27.3968 48.2919 27.3587 48.4448 27.3282C48.9076 27.2366 49.3933 27.2099 49.8943 27.2595C49.9632 27.2671 50.0282 27.2748 50.097 27.2824C50.162 27.29 50.2309 27.3015 50.2959 27.3167C50.4909 27.3511 50.686 27.4007 50.8734 27.4655H50.8772C51.1908 27.5723 51.493 27.7058 51.7722 27.866C51.8869 27.9271 51.9978 27.9996 52.1087 28.0759C52.3229 28.2284 52.5256 28.3925 52.713 28.5718L52.8621 28.7205C52.9845 28.8464 53.0993 28.9799 53.2102 29.1173C53.3173 29.2546 53.4205 29.3995 53.5123 29.5483C53.9253 30.2082 54.1931 30.975 54.2695 31.8028C54.2963 32.0736 54.3001 32.3444 54.2887 32.6077C54.2887 32.6839 54.281 32.7602 54.2695 32.8327V32.8556C54.2619 32.9395 54.2504 33.0196 54.239 33.0997C54.2237 33.1951 54.2084 33.2905 54.1892 33.382C54.1701 33.4888 54.1433 33.5956 54.1127 33.6986C54.0477 33.9428 53.9674 34.1793 53.868 34.4044C53.8374 34.4806 53.803 34.5531 53.7647 34.6256C53.7456 34.6676 53.7265 34.7095 53.7035 34.7515C53.6309 34.8964 53.5467 35.0338 53.4588 35.1711C53.4129 35.2398 53.367 35.3084 53.3211 35.3733C53.2293 35.503 53.1299 35.6289 53.0228 35.7471C52.866 35.9264 52.6939 36.0981 52.5141 36.2506C52.4644 36.2964 52.4108 36.3384 52.3573 36.3803C52.3344 36.3956 52.3152 36.4147 52.2961 36.4261C52.2426 36.4681 52.189 36.5062 52.1355 36.5444C52.0169 36.6321 51.8907 36.7122 51.7607 36.7847C51.6804 36.8305 51.6039 36.8724 51.5236 36.9106C51.4509 36.9487 51.3782 36.9831 51.3056 37.0136C51.2329 37.0441 51.1602 37.0746 51.0876 37.1013C51.0111 37.1318 50.9346 37.1585 50.8543 37.1852C50.7778 37.2119 50.7013 37.2348 50.621 37.2539C50.5445 37.273 50.4642 37.292 50.3839 37.3111C50.3036 37.3264 50.2232 37.3416 50.1429 37.3569C50.0626 37.3683 49.9823 37.3798 49.8982 37.3874C49.5731 37.4217 49.2365 37.4217 48.8961 37.3874C47.8138 37.2806 46.8347 36.8038 46.0775 36.079ZM52.866 28.7205H52.8621C52.9845 28.8464 53.0993 28.9799 53.2102 29.1173C53.1031 28.9799 52.9883 28.8464 52.866 28.7205ZM52.7168 28.5718H52.713L52.8621 28.7205C52.8392 28.69 52.8162 28.6671 52.7895 28.6442C52.7665 28.6175 52.7398 28.5946 52.7168 28.5718ZM52.713 28.5718C52.5256 28.3848 52.3229 28.2208 52.1087 28.0759C52.3229 28.2284 52.5256 28.3925 52.713 28.5718ZM51.7722 27.866C51.4891 27.6982 51.1908 27.5647 50.8772 27.4655C51.1908 27.5723 51.493 27.7058 51.7722 27.866ZM48.4448 27.3282C48.9076 27.2366 49.3933 27.2099 49.8943 27.2595C49.9632 27.2671 50.0282 27.2748 50.097 27.2824C50.0282 27.271 49.9632 27.2633 49.8943 27.2557C49.3972 27.2061 48.9076 27.2328 48.4448 27.3282Z" fill="#861D89"/>
<path d="M72.4818 45.524C71.1815 42.8996 69.2807 40.5955 66.898 38.837L61.3525 34.74C59.8074 33.5956 59.8074 31.2077 61.3525 30.0633L66.898 25.9702C67.1925 25.7489 67.4832 25.52 67.7662 25.2835C68.0492 25.047 68.3246 24.8029 68.5923 24.5511C68.8562 24.2955 69.1162 24.04 69.3686 23.7729C70.4969 22.5675 71.4606 21.2171 72.237 19.7599C65.3415 18.9855 52.625 18.6232 44.498 24.841C44.498 24.841 44.4903 24.8448 44.4789 24.8525C44.4062 24.8944 44.1232 25.0585 43.7331 25.3446L43.5992 25.5734C42.3333 26.7445 41.4001 28.2971 40.9641 30.0557C40.7844 30.7804 40.6888 31.5434 40.6888 32.3254C40.6888 34.0343 41.1439 35.6327 41.9356 36.9983C42.3218 37.5781 42.777 38.1809 43.3124 38.7988C43.3124 38.8026 43.32 38.8065 43.32 38.8103L47.1178 41.7475C54.304 45.6423 66.1675 45.9398 72.6003 45.772C72.5621 45.6881 72.5238 45.608 72.4818 45.524ZM54.2887 32.6077C54.2887 32.6839 54.281 32.7602 54.2695 32.8327V32.8556C54.2619 32.9395 54.2504 33.0196 54.239 33.0997C54.2237 33.1951 54.2084 33.2905 54.1892 33.382C54.1701 33.4888 54.1433 33.5956 54.1127 33.6986C54.0477 33.9428 53.9674 34.1793 53.868 34.4044C53.8374 34.4806 53.803 34.5531 53.7647 34.6256C53.7456 34.6676 53.7265 34.7095 53.7035 34.7515C53.6309 34.8964 53.5467 35.0338 53.4588 35.1711C53.4129 35.2398 53.367 35.3084 53.3211 35.3733C53.2293 35.503 53.1299 35.6289 53.0228 35.7471C52.866 35.9264 52.6939 36.0981 52.5141 36.2506C52.4644 36.2964 52.4108 36.3384 52.3573 36.3803C52.3344 36.3956 52.3152 36.4147 52.2961 36.4261C52.2426 36.4681 52.189 36.5062 52.1355 36.5444C52.0169 36.6321 51.8907 36.7122 51.7607 36.7847C51.6804 36.8305 51.6039 36.8724 51.5236 36.9106C51.4509 36.9487 51.3782 36.9831 51.3056 37.0136C51.2329 37.0441 51.1602 37.0746 51.0876 37.1013C51.0111 37.1318 50.9346 37.1585 50.8543 37.1852C50.7778 37.2119 50.7013 37.2348 50.621 37.2539C50.5445 37.273 50.4642 37.292 50.3839 37.3111C50.3036 37.3264 50.2232 37.3416 50.1429 37.3569C50.0626 37.3683 49.9823 37.3798 49.8982 37.3874C49.5731 37.4217 49.2365 37.4217 48.8961 37.3874C47.8138 37.2806 46.8347 36.8038 46.0775 36.079C45.7754 35.7891 45.5076 35.461 45.282 35.0986C45.2055 34.9804 45.1367 34.8545 45.0716 34.7286C45.0066 34.6027 44.9454 34.473 44.8919 34.3395C44.8345 34.206 44.7848 34.0687 44.7427 33.9313C44.6318 33.5842 44.5553 33.218 44.5209 32.8442C44.4444 32.0431 44.5477 31.2725 44.7963 30.5744C44.8766 30.3418 44.976 30.1167 45.0908 29.9031C45.1252 29.8268 45.1634 29.7543 45.2055 29.6856C45.2896 29.5445 45.3738 29.411 45.4694 29.2813C45.6568 29.0181 45.8671 28.7777 46.1004 28.5565C46.2075 28.4535 46.3223 28.3543 46.4408 28.2628C46.4982 28.217 46.5594 28.1712 46.6206 28.1293C46.743 28.0415 46.8653 27.9576 46.9954 27.8851C47.1751 27.7783 47.3587 27.6868 47.5499 27.6066C47.6914 27.5456 47.8368 27.4922 47.9859 27.4464C48.1351 27.3968 48.2919 27.3587 48.4448 27.3282C48.9076 27.2328 49.3972 27.2061 49.8943 27.2557C49.9632 27.2633 50.0282 27.271 50.097 27.2824C50.162 27.29 50.2309 27.3015 50.2959 27.3167C50.491 27.3511 50.686 27.4007 50.8734 27.4655H50.8772C51.1908 27.5647 51.4891 27.6982 51.7722 27.866C51.8869 27.9271 51.9978 27.9996 52.1087 28.0758C52.3229 28.2208 52.5256 28.3848 52.713 28.5718H52.7168C52.7398 28.5946 52.7665 28.6175 52.7895 28.6442C52.8162 28.6671 52.8392 28.69 52.8621 28.7205H52.866C52.9883 28.8464 53.1031 28.9799 53.2102 29.1172C53.3173 29.2546 53.4205 29.3995 53.5123 29.5483C53.9253 30.2082 54.1931 30.975 54.2695 31.8028C54.2963 32.0736 54.3001 32.3444 54.2887 32.6077Z" fill="#FF769A"/>
<path d="M53.5467 0.0801076C51.7798 4.71109 49.3245 9.83798 45.9819 14.385H45.978C42.2683 19.4394 37.4647 23.7767 31.3073 25.9129C28.6952 26.8208 25.8344 27.332 22.7137 27.332C19.2448 27.332 16.1126 26.4126 13.2978 24.8448C13.206 24.7685 13.1142 24.6922 13.0224 24.6197C13.0224 24.6197 7.43481 20.1528 5.20131 17.7801C4.47465 16.8874 3.78242 15.9529 3.11696 14.9878V14.9801C1.13205 11.6805 0 7.53393 0 3.52473C0 2.33075 0.0764898 1.15584 0.217996 0H7.95494C9.99722 6.56882 14.5025 16.7577 22.7787 16.7577C23.1611 16.9065 23.5742 16.9828 24.0025 16.9828C24.2932 16.9828 24.5762 16.9485 24.8477 16.8798C25.3526 16.7501 25.8077 16.5098 26.2016 16.1817C26.2016 16.1817 26.2041 16.1805 26.2092 16.1779H26.2131C32.818 13.8929 37.0402 5.40536 39.0978 0.0801076H53.5467Z" fill="#1658B7"/>
<path d="M13.0224 24.6198C13.1142 24.6923 13.206 24.7686 13.2977 24.8448C11.7679 23.9942 10.3299 22.9528 8.98372 21.7588C7.63367 20.5686 6.37541 19.2259 5.20129 17.7801C7.4348 20.1528 13.0224 24.6198 13.0224 24.6198Z" fill="#1658B7"/>
<path d="M22.7787 16.7577C14.5025 16.7577 9.99723 6.56882 7.95496 0L20.4763 0.0305172V13.3207C20.4763 14.8962 21.4363 16.239 22.7787 16.7577Z" fill="#1658B7"/>
<path d="M22.7787 16.7577C23.9834 16.7577 25.1231 16.5517 26.2016 16.1817C25.8077 16.5098 25.3526 16.7501 24.8477 16.8798C24.5762 16.9484 24.2932 16.9828 24.0025 16.9828C23.5742 16.9828 23.1611 16.9065 22.7787 16.7577Z" fill="#1658B7"/>
<path d="M39.0978 0.0800934C37.0402 5.40534 32.818 13.8929 26.2131 16.1741C26.3125 16.094 26.4081 16.0062 26.4961 15.9109C27.1348 15.2509 27.5287 14.3316 27.5287 13.3207V0.0800934H39.0978Z" fill="#1658B7"/>
<path d="M39.0978 0.0800934C37.0402 5.40534 32.818 13.8929 26.2131 16.1741C26.3125 16.094 26.4081 16.0062 26.4961 15.9109C27.1348 15.2509 27.5287 14.3316 27.5287 13.3207V0.0800934H39.0978Z" fill="#3838AD"/>
<path d="M22.7787 16.7577C14.5025 16.7577 9.99723 6.56882 7.95496 0L20.4763 0.0305172V13.3207C20.4763 14.8962 21.4363 16.239 22.7787 16.7577Z" fill="#3838AD"/>
<path d="M71.9463 61.0916C71.8775 61.1717 71.8086 61.2518 71.736 61.3281C71.7168 61.351 71.6977 61.3701 71.6748 61.393C71.6212 61.4502 71.5677 61.5074 71.5141 61.5646C71.4376 61.6447 71.3612 61.7248 71.2808 61.7973C71.2044 61.8736 71.1279 61.9461 71.0475 62.0148C71.0437 62.0224 71.0399 62.0262 71.0322 62.03C70.9481 62.1101 70.8563 62.1902 70.7683 62.2627C70.5159 62.4763 70.2559 62.6747 69.9882 62.8616C69.8428 62.9608 69.6937 63.06 69.5445 63.1515C69.1697 63.3804 68.7796 63.5864 68.3742 63.7657C68.2939 63.8038 68.2098 63.8382 68.1295 63.8725C67.8847 63.9717 67.6323 64.0632 67.3799 64.1472C67.2078 64.2006 67.0356 64.2501 66.8635 64.2959C66.7565 64.3226 66.6456 64.3493 66.5346 64.3722C66.4696 64.3875 66.4046 64.4027 66.3358 64.4142C66.2478 64.4333 66.1598 64.4485 66.0719 64.4638C65.8921 64.4943 65.7124 64.521 65.5288 64.5439C65.2075 64.5782 64.8825 64.6011 64.5497 64.6049H43.1364C43.0599 64.6011 42.9834 64.5935 42.9108 64.5858C42.8763 64.582 42.8457 64.582 42.8113 64.5782H42.796C42.2912 64.5477 41.8934 64.5248 41.6181 64.5172C38.1875 64.4256 39.9009 64.1166 37.2505 63.1248C36.3556 62.7853 34.5428 61.6753 32.5426 60.3516C28.6454 57.7843 24.0292 54.416 24.0292 54.416C24.0292 54.416 20.0135 50.2084 13.5157 45.8368C13.5004 45.8254 13.4851 45.814 13.4698 45.8063H13.466C13.6611 45.7033 13.8523 45.608 14.0512 45.5126C14.1468 45.4668 14.2424 45.4249 14.338 45.3829C14.3877 45.36 14.4412 45.3371 14.4948 45.3142C14.4986 45.3142 14.4986 45.3104 14.4986 45.3104C14.6478 45.2418 14.7969 45.1769 14.9461 45.1121C15.0187 45.0815 15.0952 45.051 15.1717 45.0205C15.3056 44.9671 15.4394 44.9137 15.5733 44.8603C15.6651 44.8221 15.7607 44.784 15.8563 44.7459C16.0169 44.6848 16.1776 44.6276 16.3382 44.5742C18.7553 43.7235 21.3406 43.2658 24.0331 43.2658C24.1937 43.2658 24.4958 43.262 24.8898 43.2581H25.2301C25.2952 43.2581 25.364 43.2581 25.429 43.2581H25.7311C26.1518 43.2543 26.6184 43.2543 27.0812 43.2581H27.7811C27.9532 43.2581 28.1215 43.2581 28.2859 43.2581C28.4542 43.2658 28.6225 43.2696 28.7831 43.2734H28.7907C28.9169 43.2734 29.0355 43.281 29.1502 43.2887H29.1579C29.3262 43.2963 29.4868 43.3039 29.6321 43.3154C29.6818 43.3192 29.7239 43.323 29.7698 43.3268C30.7068 43.4107 31.6323 43.5404 32.5426 43.7121C36.8183 44.5017 40.7767 46.2069 44.0964 48.8313L48.1618 51.864L49.5501 52.8978L49.5883 52.9283L51.7951 54.5724C52.3993 55.1141 53.1833 55.4459 54.0439 55.465C54.0477 55.465 54.0477 55.4688 54.0515 55.4688C58.6332 58.0208 64.7027 60.4317 71.9501 61.0916H71.9463Z" fill="#822884"/>
<path d="M54.2963 64.521C54.2963 64.521 48.5481 64.5553 42.9108 64.5858H42.7922C40.8991 64.5934 39.0251 64.5973 37.3844 64.6049C36.3135 64.6049 35.3459 64.6087 34.5428 64.6087C33.9691 64.6087 33.2998 64.4676 32.5388 64.2196C26.2666 62.1673 14.0168 52.8558 3.06342 56.0334L3.75947 54.8318L3.84744 54.683V54.6792C4.54732 53.5538 5.33516 52.4896 6.1995 51.4978C6.48633 51.1659 6.78082 50.8416 7.08678 50.5288C7.19387 50.4182 7.30095 50.3076 7.40804 50.2008H7.41186C7.74077 49.8727 8.0735 49.5599 8.41388 49.2547C8.42153 49.2471 8.433 49.2395 8.44065 49.2319C8.6204 49.0716 8.8078 48.9152 8.99138 48.7627C9.02962 48.7245 9.07169 48.694 9.11376 48.6597C9.28969 48.5147 9.46944 48.3697 9.64919 48.2286C10.0125 47.9425 10.3873 47.6717 10.7659 47.4084C10.9533 47.2826 11.1446 47.1567 11.3358 47.0308C11.5079 46.9202 11.68 46.8134 11.8521 46.7066C12.1389 46.5311 12.4258 46.3632 12.7164 46.1992C12.9574 46.0657 13.2021 45.9322 13.4507 45.8063H13.4584C13.5731 45.7453 13.6879 45.688 13.8026 45.6346C13.8791 45.5927 13.9594 45.5583 14.0397 45.5202C14.1889 45.4477 14.3342 45.3791 14.4833 45.3142C14.4872 45.3142 14.4872 45.3104 14.4872 45.3104C14.709 45.2112 14.9346 45.1158 15.1603 45.0205C15.2941 44.9671 15.428 44.9137 15.5619 44.8603C15.6575 44.8221 15.7493 44.784 15.8449 44.7496H15.8602C21.7384 43.4107 27.3183 45.9589 32.5311 49.6286C40.8264 55.4688 48.1809 64.1548 54.2887 64.521H54.2963Z" fill="#AF0072"/>
<path d="M37.3921 64.6087H13.6802L12.0204 64.7079C11.7412 64.7231 11.4658 64.7422 11.1867 64.7613C11.1369 64.7766 11.0834 64.7956 11.0337 64.8109C10.984 64.83 10.9342 64.849 10.8845 64.8719C10.8692 64.8757 10.8539 64.8834 10.8348 64.891C10.8195 64.8986 10.8004 64.9062 10.7813 64.9177C10.7545 64.9291 10.7277 64.9406 10.7009 64.952C10.6933 64.9558 10.6895 64.9597 10.6818 64.9635C10.6512 64.9787 10.6168 64.994 10.5862 65.0131C10.5747 65.0207 10.5594 65.0245 10.548 65.0321C10.395 65.1161 10.2535 65.2114 10.112 65.3182C10.0929 65.3335 10.0699 65.3487 10.047 65.3678C10.0431 65.3716 10.0355 65.3754 10.0317 65.3793C10.024 65.3869 10.0164 65.3945 10.0087 65.4022C9.99724 65.4098 9.98959 65.4174 9.97812 65.425C9.97047 65.4327 9.96282 65.4403 9.95517 65.4479C9.87486 65.5128 9.79837 65.5853 9.7257 65.6615C9.64921 65.7417 9.57655 65.8218 9.50388 65.9095C9.45034 65.9782 9.3968 66.0468 9.3509 66.1193C9.32031 66.1575 9.29354 66.1994 9.26676 66.2414C9.21322 66.3253 9.15968 66.413 9.11378 66.5046C9.10996 66.5046 9.10996 66.5084 9.10613 66.5122C9.10231 66.516 9.09849 66.5237 9.09849 66.5275C9.09466 66.5275 9.09466 66.5313 9.09084 66.5351C9.09084 66.5351 9.09084 66.5389 9.08701 66.5389C9.08701 66.5389 9.08701 66.5504 9.07936 66.5542H9.07554C9.06406 66.5923 9.04877 66.6228 9.03347 66.6572C9.02582 66.6686 9.022 66.6801 9.01817 66.6915C9.00287 66.7182 8.9914 66.7449 8.97993 66.7716C8.94551 66.8517 8.91491 66.9318 8.88814 67.0119C8.84225 67.0424 8.80782 67.073 8.76576 67.0997H8.76193L8.75811 67.1035C8.73898 67.1187 8.71986 67.134 8.69691 67.1493C6.17275 68.9994 3.42294 72.2456 2.47447 77.9218C2.4171 78.2575 2.34826 78.5627 2.26794 78.8488C2.08054 78.4368 1.90462 78.0172 1.74016 77.59C1.65603 77.3801 1.57571 77.1665 1.49922 76.9491C1.42273 76.7355 1.34624 76.518 1.2774 76.3006C1.20856 76.0984 1.14737 75.8962 1.08618 75.6941C1.0747 75.6559 1.0594 75.614 1.05176 75.5682C1.01734 75.4652 0.98674 75.3622 0.959968 75.2554C0.933197 75.1677 0.91025 75.0799 0.887303 74.9884C0.887303 74.9884 0.887303 74.9769 0.887303 74.9731C0.875829 74.935 0.864356 74.9006 0.856707 74.8625C0.806988 74.6756 0.761095 74.4886 0.715201 74.3017C0.657833 74.0767 0.608115 73.8478 0.562221 73.6189C0.527801 73.4663 0.497205 73.3137 0.470433 73.1611C0.439837 73.0047 0.413066 72.8522 0.386294 72.6996C0.359523 72.547 0.332751 72.3906 0.309805 72.2342C0.286858 72.0778 0.263911 71.9214 0.240964 71.7688C0.187421 71.3492 0.137702 70.9296 0.103282 70.51C0.0650371 70.0865 0.0382656 69.6593 0.0229677 69.2321C0.00766971 68.904 0.00384521 68.5759 0.00384521 68.2441C0.00384521 67.9656 0.00384521 67.6909 0.0153187 67.4163C0.0344411 66.8632 0.0688616 66.3177 0.11858 65.7798C0.168298 65.2381 0.237139 64.7041 0.321278 64.1738C0.56987 62.5831 0.963793 61.0458 1.49157 59.5734C1.75546 58.8333 2.04995 58.1162 2.37503 57.4143C2.59303 56.9451 2.8225 56.4835 3.06726 56.0334L3.76332 54.8318L3.85128 54.683V54.6792C4.81123 54.3511 5.85149 54.0955 6.98354 53.943C14.0818 52.9778 25.7197 58.3336 32.5388 61.9156C34.7952 63.1057 36.5239 64.1014 37.3844 64.6049C37.3844 64.6049 37.3844 64.6087 37.3921 64.6087Z" fill="#FF5215"/>
<path d="M11.1868 64.7575C11.137 64.7765 11.0835 64.7956 11.0338 64.8109C10.9841 64.8299 10.9343 64.849 10.8846 64.8719C10.8693 64.8757 10.854 64.8833 10.8349 64.891C10.8196 64.8986 10.8005 64.9062 10.7814 64.9177C10.7546 64.9291 10.7278 64.9406 10.7011 64.952C10.6934 64.9558 10.6896 64.9596 10.6819 64.9635C10.6513 64.9787 10.6169 64.994 10.5863 65.0092C10.5863 65.0092 10.5595 65.0245 10.5481 65.0321C10.3951 65.116 10.2536 65.2114 10.1121 65.3182C10.093 65.3335 10.07 65.3487 10.0471 65.3678C10.0432 65.3716 10.0356 65.3754 10.0318 65.3793C10.0241 65.3869 10.0165 65.3945 10.0088 65.4021C9.99734 65.4098 9.9897 65.4174 9.97822 65.425C9.97057 65.4327 9.96292 65.4403 9.95528 65.4479C9.87496 65.5128 9.79847 65.5852 9.72581 65.6615C9.64932 65.7416 9.57665 65.8217 9.50399 65.9095C9.45044 65.9782 9.3969 66.0468 9.35101 66.1193C9.32041 66.1574 9.29364 66.1994 9.26687 66.2414C9.21332 66.3253 9.15978 66.413 9.11389 66.5046C9.11006 66.5046 9.11006 66.5084 9.10624 66.5122C9.10241 66.516 9.09859 66.5236 9.09859 66.5275C9.09476 66.5275 9.09476 66.5313 9.09094 66.5351C9.09094 66.5351 9.09094 66.5389 9.08712 66.5389C9.08712 66.5389 9.08712 66.5503 9.07947 66.5542H9.07564C8.94178 66.7411 8.81175 66.9394 8.69702 67.1492C8.50579 67.4964 8.34134 67.874 8.19983 68.2746C8.19983 68.2746 8.18836 68.3051 8.18454 68.3165C6.13461 74.2979 9.61107 85.7228 10.7087 89.0339C10.594 88.9538 10.4792 88.8737 10.3683 88.7897H10.3645C10.2039 88.6715 10.0432 88.5532 9.88261 88.4274C9.77552 88.3472 9.66844 88.2671 9.56518 88.1832C9.45044 88.0955 9.33571 88.0077 9.2248 87.9124C9.14448 87.8513 9.06799 87.7865 8.9915 87.7216C8.8194 87.5805 8.65112 87.4317 8.48285 87.2868C8.29162 87.1151 8.10422 86.9435 7.91682 86.7718C7.89005 86.7451 7.86328 86.7222 7.83651 86.6917C7.66058 86.5277 7.48465 86.356 7.31638 86.1843C7.12515 85.9936 6.93775 85.8029 6.758 85.6045C6.62414 85.4634 6.49411 85.3222 6.37173 85.1773C6.28759 85.0857 6.20345 84.9904 6.11931 84.895C5.77893 84.4983 5.45002 84.0901 5.13259 83.6705C4.99491 83.4912 4.86488 83.3119 4.73484 83.1288C4.66218 83.0296 4.58951 82.9304 4.5245 82.8275C4.33327 82.5566 4.15352 82.282 3.97759 82.0035C3.89346 81.8738 3.80932 81.7441 3.729 81.6106C3.52631 81.2863 3.33508 80.9506 3.1515 80.6111C3.08266 80.4891 3.01765 80.3632 2.94881 80.2373C2.86849 80.0885 2.78818 79.9359 2.71551 79.7834C2.63902 79.6308 2.56636 79.482 2.49369 79.3294C2.48604 79.3294 2.48222 79.318 2.48222 79.3065C2.40955 79.1578 2.33689 79.0052 2.26805 78.8526C2.08065 78.4368 1.9009 78.0172 1.74027 77.5899C1.65613 77.3801 1.57581 77.1665 1.49932 76.9491C1.42284 76.7355 1.34635 76.518 1.2775 76.3006C1.20866 76.0984 1.14747 75.8962 1.08628 75.6941C1.07481 75.6559 1.05951 75.614 1.05186 75.5682C1.01744 75.4652 0.986843 75.3622 0.960072 75.2554C0.9333 75.1676 0.910353 75.0799 0.887406 74.9883C0.887406 74.9883 0.887406 74.9769 0.887406 74.9731C0.875933 74.9349 0.864459 74.9006 0.85681 74.8625C0.807092 74.6755 0.761198 74.4886 0.715304 74.3017C0.657937 74.0766 0.608218 73.8478 0.562325 73.6189C0.527904 73.4663 0.497308 73.3137 0.470537 73.1611C0.439941 73.0047 0.413169 72.8521 0.386398 72.6996C0.359627 72.547 0.332855 72.3906 0.309908 72.2342C0.286961 72.0778 0.264014 71.9214 0.241067 71.7688C0.187524 71.3492 0.137806 70.9296 0.103386 70.51C0.0651407 70.0865 0.0383693 69.6593 0.0230713 69.232H0.0268958C2.73464 65.6806 6.88803 65.055 11.1906 64.7575H11.1868Z" fill="#FBAF1B"/>
<path d="M13.6802 64.6087L12.0204 64.7079C12.2805 64.6583 12.5558 64.624 12.8427 64.6087C12.8885 64.6049 12.9344 64.6049 12.9803 64.6049H13.5387C13.5846 64.6049 13.6305 64.6049 13.6802 64.6087Z" fill="#FBAF1B"/>
<path d="M29.9955 92.4442C29.7584 92.509 29.5175 92.5701 29.2765 92.6235C29.0241 92.6807 28.7717 92.7379 28.5193 92.7837C28.1101 92.8638 27.7008 92.9363 27.2878 92.9935C26.8709 93.0545 26.4579 93.1003 26.0372 93.1346C25.3755 93.1918 24.7063 93.2224 24.0293 93.2224C23.9414 93.2224 23.8572 93.2224 23.7693 93.2185C23.6813 93.2224 23.5972 93.2185 23.5092 93.2147C23.3371 93.2109 23.165 93.2033 22.9929 93.1957C22.8246 93.188 22.6563 93.1804 22.4881 93.169C22.4842 93.1728 22.4766 93.1728 22.4728 93.169C22.3045 93.1575 22.1324 93.1461 21.9641 93.1308C21.7117 93.1079 21.4593 93.0812 21.2107 93.0507C20.9583 93.0202 20.7097 92.9859 20.4611 92.9477C20.442 92.9477 20.4228 92.9439 20.4037 92.9401C19.5929 92.8142 18.7936 92.6425 18.0134 92.4289C17.8528 92.387 17.6921 92.3412 17.5315 92.2954C17.2141 92.2038 16.8967 92.1047 16.5869 91.9979C16.4301 91.9445 16.2771 91.891 16.1203 91.8338C15.8449 91.7346 15.5696 91.6316 15.298 91.521C14.7588 91.2998 14.2272 91.0633 13.707 90.8039H13.7032C13.4852 90.6932 13.2672 90.5826 13.053 90.4644C12.9842 90.43 12.9192 90.3957 12.8503 90.3576C12.6247 90.2317 12.399 90.1058 12.1772 89.9723H12.1734C11.9248 89.8235 11.6762 89.6709 11.4353 89.5145H11.4315C11.1867 89.3581 10.9457 89.1979 10.7086 89.0339C10.5939 88.9576 10.4792 88.8737 10.3682 88.7936L10.3644 88.7859C6.12688 80.9163 6.2225 73.0886 8.18446 68.3165C8.18828 68.3051 8.19593 68.2936 8.19976 68.2784C8.37186 67.8626 8.55926 67.4735 8.75813 67.1073H8.76196L8.76578 67.0996C8.86522 66.9127 8.97231 66.7296 9.07557 66.558C9.06409 66.5923 9.0488 66.6228 9.0335 66.6572C9.02585 66.6686 9.02202 66.68 9.0182 66.6915C9.0029 66.7182 8.99143 66.7449 8.98378 66.7716H8.97995C8.94553 66.8517 8.91494 66.9318 8.88817 67.0119C8.74666 67.4086 8.674 67.8321 8.674 68.2707C8.674 68.7781 8.77343 69.2587 8.94936 69.7012C8.99143 69.8081 9.04115 69.9149 9.09851 70.0179C9.14823 70.1209 9.20942 70.22 9.27444 70.3192C9.33563 70.4184 9.40065 70.5138 9.47714 70.6053C9.54598 70.693 9.62247 70.7808 9.70278 70.8647C9.72191 70.8838 9.74485 70.9067 9.7678 70.9257C9.78692 70.9448 9.80604 70.9677 9.82899 70.983C9.91313 71.0669 10.0011 71.1432 10.0929 71.208C10.1388 71.2462 10.1847 71.2805 10.2306 71.3148C10.2573 71.5208 10.2918 71.7268 10.3224 71.9328C10.3491 72.0854 10.3721 72.238 10.4027 72.3867C10.4065 72.4096 10.4103 72.4325 10.4141 72.4516C10.418 72.4745 10.4218 72.4936 10.4294 72.5126C10.4294 72.5203 10.4294 72.5317 10.4333 72.5393V72.5508C10.4562 72.6729 10.4792 72.7911 10.5059 72.9132C10.5136 72.9475 10.5212 72.9818 10.5289 73.0162C10.5327 73.0505 10.5403 73.081 10.5518 73.1153C10.5518 73.1306 10.5556 73.1459 10.5595 73.1611C10.5595 73.1649 10.5633 73.1688 10.5633 73.1726C10.5786 73.2603 10.5977 73.3442 10.6207 73.4282C10.6436 73.5273 10.6666 73.6265 10.6895 73.7219C10.6933 73.7371 10.6972 73.7524 10.701 73.7638C10.701 73.7638 10.7048 73.7791 10.7048 73.7867C10.7048 73.7905 10.7086 73.7944 10.7086 73.7982C10.7354 73.9012 10.7622 74.0042 10.7889 74.1072C10.7889 74.111 10.7928 74.1186 10.7928 74.1224C10.8004 74.1529 10.8081 74.1835 10.8157 74.214C10.8157 74.2216 10.8195 74.2254 10.8234 74.233C10.8272 74.2521 10.8348 74.275 10.8425 74.2979C10.854 74.3437 10.8654 74.3933 10.8807 74.439C10.919 74.5802 10.961 74.7213 11.0069 74.8625C11.0108 74.8853 11.0184 74.9082 11.0261 74.9311C11.0758 75.0951 11.1293 75.2554 11.1829 75.4156C11.2441 75.5987 11.3091 75.7818 11.3741 75.9611C11.4429 76.1404 11.5079 76.3197 11.5768 76.4951C11.7145 76.8499 11.8636 77.1932 12.0204 77.5327C12.0319 77.5594 12.0434 77.5861 12.0587 77.6128C12.074 77.6472 12.0893 77.6777 12.1046 77.712C12.1428 77.7921 12.1811 77.8722 12.2155 77.9523C12.2308 77.979 12.2461 78.0095 12.2575 78.0362C12.422 78.3719 12.5903 78.6962 12.7662 79.0128C12.7968 79.07 12.8274 79.1272 12.8618 79.1806C12.9192 79.2875 12.9765 79.3904 13.0377 79.4896C13.1181 79.627 13.1984 79.7643 13.2825 79.8978C13.294 79.9169 13.3093 79.9398 13.3208 79.9588C13.4049 80.0962 13.489 80.2335 13.577 80.3708C13.5885 80.3823 13.5961 80.3975 13.6038 80.409C13.6038 80.409 13.6114 80.4242 13.6152 80.428C13.6191 80.4318 13.6229 80.4395 13.6267 80.4433C13.6305 80.4471 13.6305 80.4547 13.6344 80.4585C13.7223 80.5921 13.8103 80.7256 13.9021 80.8553C13.9939 80.9926 14.0895 81.1299 14.1851 81.2634C14.1927 81.2711 14.2004 81.2825 14.208 81.2901C14.2119 81.2978 14.2157 81.3054 14.2233 81.313C14.2922 81.4046 14.3572 81.4961 14.426 81.5877C14.4566 81.6296 14.4872 81.6754 14.5216 81.7174L14.5408 81.7403C14.5446 81.7441 14.5446 81.7479 14.5484 81.7517C14.5522 81.7593 14.5561 81.7632 14.5599 81.7708C14.5714 81.7822 14.579 81.7975 14.5905 81.8089C14.5943 81.8127 14.5943 81.8166 14.5981 81.8204C14.602 81.8242 14.602 81.828 14.6058 81.8318C14.6134 81.8433 14.6249 81.8547 14.6326 81.8662C14.7014 81.9577 14.7702 82.0454 14.8429 82.137C15.0571 82.4116 15.2789 82.6787 15.5045 82.9419C15.9558 83.4683 16.4224 83.9718 16.9043 84.4487C17.0229 84.5707 17.1452 84.689 17.2676 84.8072C17.2791 84.8187 17.2906 84.8301 17.302 84.8378C17.3977 84.9331 17.4971 85.0285 17.5965 85.12C17.6004 85.12 17.6042 85.1277 17.608 85.1315C17.6118 85.1353 17.6157 85.1391 17.6195 85.1391C17.6195 85.1391 17.622 85.1417 17.6271 85.1468C17.6271 85.1468 17.631 85.1506 17.6348 85.1544C17.7572 85.2688 17.8795 85.3794 18.0058 85.4901C18.2543 85.7113 18.5068 85.9288 18.7592 86.1386C18.7745 86.1538 18.7898 86.1653 18.8051 86.1805C18.8395 86.2072 18.8739 86.2339 18.9083 86.2644C18.916 86.2644 18.9236 86.2721 18.9313 86.2835L18.9389 86.2873C19.1455 86.4666 19.3558 86.6345 19.5661 86.7909L19.5776 86.8023C19.5776 86.8023 19.5929 86.8176 19.6044 86.8252C19.6235 86.8405 19.6426 86.8557 19.6656 86.871C19.9218 87.0693 20.1781 87.2639 20.4343 87.447C20.5758 87.55 20.7173 87.6492 20.8588 87.7521C20.8932 87.775 20.9277 87.7979 20.9621 87.8208C20.9965 87.8437 21.0309 87.8666 21.0653 87.8895C21.3216 88.0726 21.5817 88.2481 21.8417 88.4121C21.922 88.4655 21.9985 88.5189 22.0788 88.5685C22.1056 88.5837 22.1286 88.599 22.1515 88.6143C22.2395 88.6753 22.3313 88.7287 22.4192 88.7821C22.4307 88.7897 22.4422 88.7974 22.4536 88.805C22.4651 88.8126 22.4766 88.8203 22.4881 88.8279C22.5263 88.8546 22.5684 88.8813 22.6104 88.9042C22.7061 88.9614 22.8017 89.0186 22.8973 89.0758C23.035 89.1636 23.1688 89.2437 23.3027 89.32C23.3983 89.3772 23.4939 89.4306 23.5857 89.4802C23.6278 89.5069 23.666 89.5298 23.7081 89.5527C23.7234 89.5603 23.7425 89.5717 23.7578 89.5794C23.8763 89.648 23.9911 89.7129 24.1096 89.7777C24.1173 89.7815 24.1249 89.7854 24.1326 89.793C24.2588 89.8617 24.3812 89.9265 24.5074 89.9952H24.5112C24.7598 90.1325 25.0046 90.2622 25.2455 90.3843C25.387 90.4567 25.5324 90.5292 25.6739 90.5979C25.8919 90.7085 26.106 90.8153 26.3202 90.9145C26.3546 90.9298 26.3929 90.945 26.4273 90.9641C26.7983 91.1396 27.1578 91.3036 27.5058 91.4524C27.5632 91.4753 27.6167 91.5019 27.6702 91.5248C27.72 91.5439 27.7697 91.5668 27.8194 91.5859C27.9188 91.6278 28.0183 91.6698 28.1177 91.7118C28.1177 91.7118 28.1203 91.713 28.1254 91.7156H28.1292C28.1292 91.7156 28.1445 91.7232 28.1521 91.727C28.1713 91.7346 28.1942 91.7423 28.2133 91.7499C28.263 91.769 28.3128 91.7919 28.3625 91.8109C28.416 91.8338 28.4657 91.8567 28.5155 91.8758C28.5766 91.8987 28.634 91.9216 28.6952 91.9445C28.7411 91.9635 28.787 91.9826 28.8329 92.0017C28.9744 92.0627 29.1197 92.1161 29.2574 92.1695C29.2804 92.1771 29.3033 92.1848 29.3262 92.1924C29.4295 92.2305 29.5289 92.2687 29.6246 92.303C29.6896 92.3297 29.7508 92.3526 29.812 92.3755C29.8731 92.3984 29.9343 92.4213 29.9955 92.4442Z" fill="#FF769A"/>
<path d="M74.4972 71.9405V73.9126C74.394 73.9126 74.2869 73.9241 74.1798 73.9279L74.4972 71.9405Z" fill="#AC2489"/>
<path d="M74.4972 76.8614V81.1643C74.0268 81.1948 73.5105 81.2253 73.0133 81.2482C72.2676 81.2826 71.56 81.2978 71.1011 81.2978C66.3052 81.2978 61.647 79.8864 57.6504 77.2276L50.1314 71.9405H55.4895L56.2123 72.444L56.2429 72.4669C60.6755 75.4156 65.8156 76.9758 71.1011 76.9758C71.6403 76.9758 72.6538 76.9453 73.7056 76.8995C73.9695 76.8881 74.2333 76.8766 74.4972 76.8614Z" fill="#A8288C"/>
<path d="M74.4973 71.9405L74.1798 73.9279C73.0057 73.9889 71.7475 74.0309 71.1011 74.0309C67.7126 74.0309 64.393 73.3099 61.3219 71.9405H74.4973Z" fill="#A8288C"/>
<path d="M41.8705 79.8367C43.1517 78.227 46.1272 76.1556 49.16 78.5817L57.505 84.4525C61.5475 87.1418 66.2555 88.5685 71.1011 88.5685C71.3229 88.5685 71.5715 88.5646 71.8469 88.557C72.6691 88.5379 73.675 88.4807 74.4972 88.4006V83.5636C73.8891 83.6018 73.2275 83.6361 72.6271 83.659C72.0266 83.6819 71.4835 83.6933 71.1011 83.6933C65.8654 83.6933 60.7788 82.1484 56.3844 79.2302L47.9323 73.2794C45.7524 71.5132 43.8095 73.7295 43.4385 74.1911C40.7614 77.5594 36.2982 80.7408 32.6152 81.9996L32.642 79.4476C35.7628 78.1774 39.4496 75.4537 41.6678 72.6652C41.8552 72.4287 42.0809 72.1807 42.3371 71.9404H38.8186C36.8528 73.3976 34.6881 74.6107 32.6879 75.221L32.7223 71.9633V71.9366H12.1963C11.4696 71.9366 10.7965 71.7077 10.2343 71.3186C10.2611 71.5246 10.2955 71.7306 10.3261 71.9366H10.3299C10.3529 72.093 10.3796 72.2418 10.4064 72.3905C10.4102 72.4134 10.4141 72.4363 10.4179 72.4554C10.4217 72.463 10.4217 72.4707 10.4255 72.4783C10.4255 72.4821 10.4255 72.4897 10.4255 72.4935C10.4255 72.5012 10.4255 72.5088 10.4294 72.5164C10.4294 72.5241 10.4294 72.5355 10.4332 72.5431V72.5546C10.4561 72.6766 10.4791 72.7949 10.5059 72.917C10.5135 72.9513 10.5212 72.9856 10.5288 73.02C10.5326 73.0543 10.5403 73.0848 10.5517 73.1191C10.5517 73.1344 10.5556 73.1497 10.5594 73.1649C10.5594 73.1687 10.5632 73.1726 10.5632 73.1764C10.5785 73.2641 10.5976 73.348 10.6206 73.4319C10.6435 73.5311 10.6665 73.6303 10.6894 73.7257H10.6933C10.6933 73.7257 10.6971 73.7524 10.7009 73.7676C10.7009 73.7676 10.7047 73.7829 10.7047 73.7905C10.7047 73.7943 10.7086 73.7982 10.7086 73.802C10.7353 73.905 10.7621 74.008 10.7889 74.111C10.7889 74.1148 10.7927 74.1224 10.7927 74.1262C10.8003 74.1567 10.808 74.1872 10.8156 74.2178C10.8156 74.2254 10.8195 74.2292 10.8233 74.2368C10.8271 74.2559 10.8348 74.2788 10.8424 74.3017C10.8539 74.3475 10.8654 74.397 10.8807 74.4428C10.9189 74.584 10.961 74.7251 11.0069 74.8663C11.0107 74.8891 11.0183 74.912 11.026 74.9349C11.0757 75.0989 11.1292 75.2592 11.1828 75.4194C11.244 75.6025 11.309 75.7856 11.374 75.9649C11.4429 76.1442 11.5079 76.3234 11.5767 76.4989C11.7182 76.8537 11.8674 77.197 12.0204 77.5365C12.0318 77.5632 12.0433 77.5899 12.0586 77.6166C12.0739 77.6509 12.0892 77.6815 12.1045 77.7158C12.1427 77.7959 12.181 77.876 12.2154 77.9561C12.2307 77.9828 12.246 78.0133 12.2575 78.04C12.4219 78.3757 12.5902 78.7 12.7661 79.0166C12.7967 79.0738 12.8273 79.131 12.8617 79.1844C12.9191 79.2912 12.9765 79.3942 13.0377 79.4934C13.118 79.6307 13.1983 79.7681 13.2824 79.9016C13.2939 79.9207 13.3092 79.9435 13.3207 79.9626C13.4048 80.0999 13.489 80.2373 13.5769 80.3746C13.5884 80.386 13.596 80.4013 13.6037 80.4128C13.6037 80.4128 13.6113 80.428 13.6152 80.4318C13.619 80.4356 13.6228 80.4433 13.6266 80.4471C13.6305 80.4509 13.6305 80.4585 13.6343 80.4623C13.7223 80.5959 13.8102 80.7294 13.902 80.8591C13.9938 80.9964 14.0894 81.1337 14.185 81.2672C14.1927 81.2749 14.2003 81.2863 14.208 81.2939C14.2118 81.3016 14.2156 81.3092 14.2233 81.3168C14.2921 81.4084 14.3571 81.4999 14.426 81.5915C14.4566 81.6334 14.4871 81.6792 14.5216 81.7212L14.5407 81.7441C14.5445 81.7479 14.5445 81.7517 14.5483 81.7555C14.5522 81.7631 14.556 81.7669 14.5598 81.7746C14.5713 81.786 14.5789 81.8013 14.5904 81.8127C14.5942 81.8165 14.5942 81.8204 14.5981 81.8242C14.6019 81.828 14.6019 81.8318 14.6057 81.8356C14.6134 81.8471 14.6248 81.8585 14.6325 81.8699C14.7013 81.9615 14.7702 82.0492 14.8428 82.1408C15.0608 82.4154 15.2788 82.6825 15.5045 82.9457C15.9558 83.4721 16.4223 83.9756 16.9042 84.4525C17.0228 84.5745 17.1452 84.6928 17.2676 84.8072C17.2676 84.8072 17.2905 84.8339 17.302 84.8416C17.3976 84.9369 17.497 85.0323 17.5965 85.1238C17.6003 85.1238 17.6041 85.1315 17.6079 85.1353C17.6118 85.1391 17.6156 85.1429 17.6194 85.1429C17.6194 85.1429 17.622 85.1455 17.6271 85.1505C17.6271 85.1505 17.6309 85.1544 17.6347 85.1544C17.7571 85.2726 17.8795 85.3832 18.0057 85.4939C18.2543 85.7151 18.5067 85.9325 18.7591 86.1424C18.7744 86.1576 18.7897 86.1691 18.805 86.1843C18.8394 86.211 18.8738 86.2377 18.9083 86.2682C18.9159 86.2682 18.9236 86.2759 18.9312 86.2873L18.9389 86.2911C18.9427 86.2911 18.9465 86.2988 18.9503 86.2988C18.9656 86.314 18.9809 86.3255 18.9962 86.3369C19.0039 86.3445 19.0153 86.3522 19.023 86.3598C19.0306 86.3674 19.0383 86.3712 19.0459 86.3789C19.0536 86.3865 19.0651 86.3941 19.0727 86.4017C19.1416 86.459 19.2104 86.5162 19.2831 86.5734C19.3748 86.6459 19.4705 86.7222 19.5661 86.7947L19.5775 86.8061C19.5775 86.8061 19.5928 86.8214 19.6043 86.829C19.6234 86.8442 19.6426 86.8595 19.6655 86.8748C19.7458 86.9358 19.8261 86.9968 19.9065 87.0541C20.0327 87.1532 20.1627 87.2486 20.2927 87.344C20.3386 87.3821 20.3883 87.4164 20.4342 87.4508C20.5757 87.5538 20.7172 87.653 20.8588 87.7559C20.8932 87.7788 20.9276 87.8017 20.962 87.8246C20.9964 87.8475 21.0309 87.8704 21.0653 87.8933C21.1953 87.9848 21.3215 88.0726 21.4515 88.1565C21.5816 88.2442 21.7116 88.332 21.8416 88.4159C21.922 88.4693 21.9984 88.5227 22.0788 88.5723C22.1055 88.5875 22.1285 88.6028 22.1514 88.6181C22.1782 88.6333 22.205 88.6486 22.2279 88.6638C22.2929 88.7058 22.358 88.7478 22.4191 88.7859C22.4306 88.7935 22.4421 88.8012 22.4536 88.8088C22.465 88.8164 22.4765 88.824 22.488 88.8317C22.5301 88.8584 22.5683 88.8813 22.6104 88.9042C22.706 88.9652 22.8016 89.0224 22.8972 89.0796C22.9316 89.1025 22.966 89.1216 22.9966 89.1368C23.0999 89.2017 23.2032 89.2627 23.3026 89.3238C23.3982 89.381 23.4938 89.4344 23.5856 89.484C23.6277 89.5107 23.6659 89.5336 23.708 89.5565C23.7233 89.5641 23.7424 89.5755 23.7577 89.5832C23.8763 89.6518 23.991 89.7167 24.1096 89.7815C24.1172 89.7853 24.1249 89.7892 24.1325 89.7968C24.2587 89.8654 24.3811 89.9303 24.5073 89.999H24.5111C24.6373 90.0676 24.7597 90.1325 24.8821 90.1935C25.0045 90.2622 25.1269 90.327 25.2454 90.3881C25.3869 90.4605 25.5323 90.533 25.6738 90.6017C25.8918 90.7123 26.1098 90.8153 26.3201 90.9183C26.3545 90.9335 26.3928 90.9488 26.4272 90.9679C26.4693 90.987 26.5113 91.006 26.5496 91.0213C26.5878 91.0404 26.6261 91.0594 26.6682 91.0747C26.6949 91.0861 26.7255 91.1014 26.7523 91.1128C26.8135 91.1434 26.8747 91.1701 26.9359 91.1968C26.9626 91.2082 26.9856 91.2196 27.0124 91.2311C27.1806 91.3074 27.3451 91.3875 27.5057 91.4562C27.5631 91.479 27.6166 91.5057 27.6702 91.5286C27.7199 91.5477 27.7696 91.5706 27.8193 91.5897C27.9188 91.6316 28.0182 91.6736 28.1176 91.7155C28.1176 91.7155 28.1202 91.7168 28.1253 91.7194H28.1291C28.1291 91.7194 28.1444 91.727 28.1521 91.7308C28.1712 91.7384 28.1941 91.7461 28.2132 91.7537C28.263 91.7728 28.3127 91.7957 28.3624 91.8147C28.4159 91.8376 28.4657 91.8605 28.5154 91.8796C28.5766 91.9025 28.6339 91.9254 28.6951 91.9482C28.741 91.9673 28.7869 91.9864 28.8328 92.0055C28.9743 92.0665 29.1196 92.1199 29.2573 92.1733C29.4486 92.2458 29.636 92.3145 29.8119 92.3793C29.8731 92.4022 29.9343 92.4251 29.9955 92.448H30.0031L32.5082 91.624V91.5973L32.5387 91.6126C36.4741 90.0638 39.9162 87.4737 42.5551 84.1587C43.3162 83.2013 45.8633 80.8209 48.6399 83.0639L57.0078 88.9499C61.0771 91.6583 65.9151 93.2262 71.1011 93.2262C72.2523 93.2262 73.3843 93.146 74.4972 93.0011V90.2545C73.5488 90.3385 72.4205 90.3957 71.5524 90.4109C71.3956 90.4109 71.2426 90.4148 71.1011 90.4148C65.9189 90.4148 60.8782 88.8851 56.5298 85.9936L48.093 80.058C45.7218 78.1392 43.6336 80.5157 43.2358 81.0116C40.6658 84.2427 36.3824 87.3402 32.5387 88.7973L32.5579 86.8175C35.9311 85.3832 39.66 82.6176 41.8705 79.8406V79.8367ZM29.6933 90.8115C29.6933 90.8115 29.7086 90.8191 29.7163 90.8191C29.613 90.8306 29.5442 90.8382 29.5289 90.8382C29.5403 90.8344 29.5939 90.8267 29.6933 90.8115Z" fill="#AF008E"/>
</svg>
