<svg width="149" height="148" viewBox="0 0 149 148" fill="none" xmlns="http://www.w3.org/2000/svg">
<rect x="1" width="148" height="148" rx="74" fill="#F6F8FA"/>
<path d="M137 122.81C137 122.81 130.994 121.02 129.19 127C130.994 121.02 125 119.19 125 119.19C125 119.19 131.006 120.98 132.81 115C131.006 120.98 137 122.81 137 122.81Z" fill="white" stroke="#868C98" stroke-linecap="round" stroke-linejoin="round"/>
<path d="M12.1499 41.0001C12.1499 41.0001 7.0205 47.0177 13 52.1499C7.02039 47.0176 1.85024 53 1.85024 53C1.85024 53 6.97961 46.9824 1 41.8501C6.97961 46.9824 12.1499 41.0001 12.1499 41.0001Z" fill="white" stroke="#868C98" stroke-linecap="round" stroke-linejoin="round"/>
<g clip-path="url(#clip0_1859_7420)">
<path d="M104.267 74.4164V44.3875C104.267 35.5953 86.4303 31 68.8061 31C51.1951 31 33.3584 35.5953 33.3584 44.3875V102.453C33.3584 111.152 51.6201 115.841 68.8061 115.841C75.274 115.841 81.5428 115.203 87.0412 114.034C89.7771 115.296 92.8053 116.013 96.0061 116.013C107.933 116.013 117.628 106.318 117.628 94.4047C117.641 85.3867 112.103 77.657 104.267 74.4164ZM68.8061 35.1836C88.1834 35.1836 100.083 40.5492 100.083 44.3875C100.083 48.2258 88.1834 53.5914 68.8061 53.5914C49.442 53.5914 37.542 48.2258 37.542 44.3875C37.542 40.5359 49.442 35.1836 68.8061 35.1836ZM37.542 50.9484C37.5951 50.9883 37.6615 51.0148 37.7146 51.0547C38.0068 51.2539 38.3256 51.4531 38.6443 51.6523C38.7373 51.7055 38.817 51.7586 38.8967 51.8117C39.2951 52.0508 39.7201 52.2766 40.1584 52.4891C40.2381 52.5289 40.3178 52.5688 40.4107 52.6086C40.7826 52.7945 41.1678 52.9672 41.5529 53.1398C41.6725 53.193 41.8053 53.2461 41.9248 53.2992C42.8811 53.7109 43.9037 54.0828 44.9795 54.4414C45.1256 54.4945 45.2717 54.5344 45.4178 54.5875C45.8693 54.7336 46.3209 54.8664 46.7857 54.9992C46.892 55.0258 47.0115 55.0656 47.1178 55.0922C47.6756 55.2516 48.26 55.3977 48.8443 55.5437C48.9904 55.5836 49.1365 55.6102 49.2826 55.65C49.7475 55.7562 50.2256 55.8758 50.717 55.9687C50.8764 56.0086 51.0357 56.0352 51.2084 56.075C51.8193 56.1945 52.4303 56.3141 53.0545 56.4336C53.1475 56.4469 53.2271 56.4602 53.3201 56.4734C53.8646 56.5664 54.4225 56.6594 54.9936 56.7523L55.5514 56.832C56.1092 56.9117 56.6803 56.9914 57.2514 57.0578C57.3443 57.0711 57.4373 57.0844 57.517 57.0977C58.1678 57.1773 58.8318 57.2437 59.4959 57.3102C59.6686 57.3234 59.8545 57.35 60.0271 57.3633C60.5584 57.4164 61.0896 57.4563 61.6342 57.4961C61.7936 57.5094 61.9662 57.5227 62.1256 57.5359C62.7896 57.5891 63.467 57.6289 64.1443 57.6555C64.2771 57.6687 64.41 57.6688 64.5561 57.6688C65.1139 57.6953 65.6717 57.7086 66.2295 57.7352C66.4154 57.7352 66.6014 57.7484 66.8006 57.7484C67.4779 57.7617 68.1553 57.775 68.8326 57.775C69.51 57.775 70.1873 57.7617 70.8646 57.7484C71.0506 57.7484 71.2498 57.7352 71.4357 57.7352C71.9936 57.7219 72.5514 57.6953 73.1092 57.6688C73.242 57.6688 73.3881 57.6555 73.5209 57.6555C74.1717 57.6156 74.8357 57.5758 75.4998 57.5359C75.6725 57.5227 75.8318 57.5094 76.0045 57.4961C76.5357 57.4563 77.067 57.4164 77.5982 57.3633C77.7842 57.35 77.9568 57.3234 78.1428 57.3102C78.8068 57.2437 79.4576 57.1773 80.1084 57.0977C80.2014 57.0844 80.3076 57.0711 80.4006 57.0578C80.9584 56.9914 81.5162 56.9117 82.074 56.832C82.2732 56.8055 82.4592 56.7789 82.6451 56.7523C83.1896 56.6727 83.7342 56.5797 84.2787 56.4867C84.3717 56.4734 84.4779 56.4602 84.5709 56.4336C85.1951 56.3273 85.8061 56.2078 86.4037 56.075C86.5764 56.0352 86.749 56.0086 86.9217 55.9687C87.3998 55.8625 87.8647 55.7562 88.3162 55.65C88.4756 55.6102 88.6217 55.5836 88.7811 55.5437C89.3654 55.3977 89.9232 55.2516 90.4811 55.0922C90.6006 55.0523 90.7201 55.0258 90.8396 54.9859C91.2912 54.8531 91.7295 54.7203 92.1678 54.5875C92.3271 54.5344 92.4865 54.4945 92.6326 54.4414C93.1506 54.2687 93.6686 54.0961 94.1732 53.9102C94.1865 53.8969 94.2131 53.8969 94.2264 53.8836C94.7178 53.6977 95.1959 53.5117 95.6607 53.3125C95.7936 53.2594 95.9264 53.193 96.0725 53.1398C96.4576 52.9672 96.8162 52.8078 97.1748 52.6219C97.2678 52.582 97.3607 52.5289 97.4537 52.4891C97.8787 52.2766 98.2904 52.0508 98.6889 51.825C98.7951 51.7719 98.8881 51.7055 98.9811 51.6523C99.2865 51.4664 99.592 51.2805 99.8709 51.0812C99.9373 51.0414 100.004 51.0016 100.057 50.9617V63.7516C100.057 67.5898 88.1568 72.9555 68.7795 72.9555C49.4154 72.9555 37.5154 67.5898 37.5154 63.7516V50.9484H37.542ZM100.083 70.2859V73.1547C98.7686 72.9023 97.4139 72.7563 96.0193 72.7563C95.7936 72.7563 95.5811 72.7828 95.3553 72.7961C97.1615 72.0523 98.7553 71.2156 100.083 70.2859ZM37.542 70.2859C43.917 74.7484 56.6271 77.1125 68.8061 77.1125C74.4107 77.1125 80.135 76.6078 85.3014 75.6383C79.4311 79.0117 75.274 85.0547 74.5303 92.1203C72.6842 92.2266 70.7717 92.293 68.8061 92.293C49.442 92.293 37.542 86.9273 37.542 83.0758V70.2859ZM68.8061 111.657C49.442 111.657 37.542 106.291 37.542 102.453V89.6633C43.917 94.1391 56.6271 96.4898 68.8061 96.4898C70.7584 96.4898 72.6443 96.4234 74.5037 96.3172C75.0084 102.055 77.7709 107.155 81.8881 110.727C77.7842 111.312 73.3482 111.657 68.8061 111.657ZM96.0193 111.816C86.4037 111.816 78.5811 103.994 78.5811 94.3781C78.5811 84.7625 86.4037 76.9398 96.0193 76.9398C105.635 76.9398 113.458 84.7625 113.458 94.3781C113.458 103.994 105.635 111.816 96.0193 111.816Z" fill="#868C98"/>
<path d="M93.9873 84.0586H98.1709V99.1859H93.9873V84.0586Z" fill="#868C98"/>
<path d="M93.9609 102.48H98.1445V105.8H93.9609V102.48Z" fill="#868C98"/>
</g>
<defs>
<clipPath id="clip0_1859_7420">
<rect width="85" height="85" fill="white" transform="translate(33 31)"/>
</clipPath>
</defs>
</svg>
