<svg width="138" height="132" viewBox="0 0 138 132" fill="none" xmlns="http://www.w3.org/2000/svg">
<g clip-path="url(#clip0_1981_3561)">
<path d="M80.6439 124.748C78.5388 122.421 75.8516 120.146 73.6346 117.797C72.2293 116.31 68.1368 110.884 66.6799 110.317C66.1694 110.119 65.6474 110.351 65.2057 110.096C64.4859 109.68 63.809 108.048 62.8397 107.668C62.6705 107.152 63.9008 106.237 64.265 105.693C67.1359 101.409 68.1769 97.8393 67.6062 92.6854C67.4857 91.6144 67.1875 90.5746 66.8777 89.5432C66.6196 88.6819 66.4934 87.7667 66.1608 86.928C65.7851 85.9817 65.1283 85.3385 64.5404 84.5338C64.331 84.2477 64.1216 83.9643 63.9037 83.6867C63.4735 83.1285 63.0261 82.5817 62.5557 82.0518C60.4908 79.7341 57.9555 77.8245 55.0016 76.7846C53.9777 76.4248 52.9223 76.1471 51.8554 75.9431C49.6729 75.5238 47.4216 75.4473 45.2161 75.7391C43.0107 76.031 40.9629 76.6656 39.0386 77.6545C37.0969 78.6518 35.3446 80.0005 33.8992 81.6268C32.4537 83.2532 31.3697 85.0693 30.5867 87.0442C27.5323 94.7509 28.7541 101.959 34.6305 107.827C40.0624 113.253 48.0238 115.041 55.2798 112.431C55.492 112.25 55.7501 112.117 56.0512 112.06C56.1229 112.034 56.1946 112.012 56.2692 111.995C56.4241 111.847 56.6076 111.728 56.8141 111.646C56.8629 111.57 56.9116 111.505 56.9661 111.459C57.055 111.38 58.9966 110.411 59.1142 110.428C59.4182 110.468 59.6534 110.68 59.7996 110.935C59.9 111.111 59.8972 111.323 59.9717 111.507C60.0463 111.692 60.1839 111.768 60.3618 111.862C60.5166 111.941 60.6572 112.049 60.7776 112.173C60.9038 112.306 61.2279 112.573 61.248 112.578C61.3197 112.601 61.3655 112.666 61.4 112.729C61.5606 113.015 61.6351 113.301 61.6753 113.627C61.7154 113.953 61.7326 114.27 61.8474 114.576C62.3636 115.939 65.808 118.99 66.9839 120.339C69.5077 123.237 71.7848 126.419 74.2627 129.25C76.3592 131.647 77.8018 132.757 80.6267 130.205C82.8723 128.176 82.4335 126.72 80.6439 124.745V124.748ZM36.1792 108.039C22.413 96.0712 33.3514 73.2344 51.4912 76.694C58.8876 78.105 65.7277 84.9589 66.5766 92.3907C68.4723 108.994 48.8613 119.067 36.1763 108.042L36.1792 108.039ZM60.6285 110.961C60.4564 110.567 62.1829 108.484 62.464 108.521C62.6848 108.552 65.1914 110.929 65.1828 111.286C62.9142 114.644 62.9085 112.587 60.6285 110.961ZM76.8037 130.275L62.7278 114.613C62.4439 114.069 63.5825 113.992 63.9524 113.743C64.8644 113.134 65.9629 112.505 66.0977 111.301C66.4992 111.335 66.7831 111.502 67.0928 111.74C69.3958 113.505 72.6968 118.208 74.8965 120.557C76.2961 122.053 79.7319 124.711 80.6238 126.184C81.9832 128.431 78.4356 131.131 76.8037 130.275Z" fill="#1B163E"/>
<path d="M26.5887 61.2069C30.8447 62.6122 32.3332 66.7036 29.9929 70.4663C28.5045 72.8576 24.2972 73.0588 23.6433 75.8298C23.5114 76.3937 23.8297 77.0368 23.7552 77.4278C23.5745 78.377 20.2104 79.2695 19.4561 78.1418C18.3204 76.439 19.8949 72.8633 21.1625 71.5231C22.3871 70.2255 26.3736 68.806 26.7235 67.5848C27.5208 64.7883 22.7485 64.3009 20.8872 65.8451C20.1731 66.4373 19.8117 67.3298 19.2955 67.7803C18.4466 68.5226 15.8167 66.6866 16.0662 65.6949C17.0929 61.6149 22.912 59.9914 26.5858 61.2041L26.5887 61.2069ZM18.6903 67.2703C18.8624 67.2221 20.1587 65.2954 21.1396 64.7486C22.9206 63.7569 26.8783 64.0091 27.4691 66.3296C28.2177 69.2706 24.4291 69.9251 22.7141 71.271C20.3882 73.0985 19.4446 75.0875 20.2591 78.0058C20.804 77.867 22.5191 77.7537 22.8345 77.3683C23.15 76.983 22.7083 76.0452 22.8517 75.4615C23.672 72.0898 30.274 72.4043 30.3543 67.0833C30.4289 62.1334 24.4234 60.4504 20.5172 62.1504C19.479 62.6037 16.5566 64.7514 16.7803 65.9329C16.8204 66.1398 18.5785 67.3014 18.6932 67.2703H18.6903Z" fill="#1B163E"/>
<path d="M23.4741 80.0175C23.8326 80.0997 23.9875 80.196 24.1624 80.5218C24.346 80.8675 24.8163 83.4034 24.6557 83.749C24.303 84.5112 21.5153 84.9362 20.8299 84.4942C20.2534 84.123 19.9408 81.4739 20.1961 80.9667C20.4513 80.4595 22.9321 79.89 23.4741 80.0175ZM21.0134 83.8454C21.2113 84.1882 23.6003 83.7434 23.781 83.545C24.0821 83.2135 23.6921 81.1537 23.4225 80.9327C23.1529 80.7117 21.1195 81.0715 21.045 81.1679C20.5459 81.8252 21.326 83.052 21.0134 83.8454Z" fill="#1B163E"/>
<path d="M50.7598 80.0005C55.1937 80.8166 59.7107 83.8624 61.8072 87.8149C68.8078 101.007 54.0952 114.65 41.1092 107.529C26.3794 99.4487 34.0253 76.915 50.757 80.0005H50.7598ZM49.0993 80.8081C37.074 79.6605 29.7836 93.7111 37.074 102.971C45.7811 114.035 63.7717 107.714 62.5184 93.5326C61.8932 86.4379 56.1831 81.4852 49.0993 80.8081Z" fill="#1B163E"/>
<path d="M138 50.5535C137.687 51.1599 136.537 51.1825 136.265 51.5084C136.176 51.616 136.322 53.0554 135.837 53.4039C134.501 52.4462 133.988 52.3074 132.419 53.1149C131.157 52.2252 132.932 51.5395 132.829 50.6555L131.906 48.794L134.432 48.7742L135.447 47.2527C136.167 48.3577 136.113 49.9387 137.805 50.0209L137.997 50.5535H138ZM135.657 51.446C135.895 50.9502 136.858 50.6669 137.36 50.477C137.185 50.0152 136.529 50.4005 136.127 50.0209C135.726 49.6412 135.628 48.9697 135.419 48.4625C134.438 49.9642 133.988 49.168 132.631 49.1425C133.79 50.7065 133.486 50.9332 132.602 52.4462C133.816 51.956 134.59 51.5225 135.548 52.6191C135.789 52.5312 135.488 51.7889 135.654 51.4489L135.657 51.446Z" fill="black"/>
<path d="M96.2283 1.04352L97.3066 0.666687C99.2597 0.961356 99.9566 3.65871 97.8888 4.26788C95.93 4.84305 94.9807 2.41203 96.2283 1.04636V1.04352ZM98.2559 1.73203C97.6278 0.947189 96.0017 1.57619 96.2053 2.70953C96.5839 4.80905 99.6268 3.44337 98.2559 1.73203Z" fill="black"/>
<path d="M125.802 19.1543C125.237 19.6671 124.021 19.1373 123.646 19.3583C123.25 19.5906 122.943 21.1206 121.954 21.1036L121.156 19.2733L118.965 19.1713L118.555 18.4035C120.956 17.3353 119.823 16.3351 120.339 14.4764C122.364 14.7598 122.263 16.4995 124.294 14.6011L124.899 15.0714C125.022 15.6523 124.38 16.865 124.581 17.2843C124.799 17.7405 125.846 18.2703 125.802 19.1543ZM125.071 18.8115C123.729 17.392 123.93 16.9556 124.371 15.1621C123.752 15.2839 123.497 16.0659 122.869 16.1425C121.865 16.2643 121.423 15.0176 120.485 15.3264C121.394 16.9585 120.795 17.8 119.192 18.48C119.608 19.0211 120.804 18.4545 121.323 18.6981C121.842 18.9418 122.114 19.8853 122.306 20.3811C123.044 19.1656 123.436 18.2986 125.074 18.8115H125.071Z" fill="black"/>
<path d="M93.3203 23.3561C94.4961 22.6988 95.7781 20.8571 95.2905 19.5226C95.0697 18.9219 94.5162 18.6669 94.4904 17.8368C94.456 16.7601 95.8068 16.2501 96.0133 15.2018L95.0582 13.0654L97.1576 9.55772L96.8794 9.20072C95.1471 9.37355 95.4311 6.01037 96.8851 7.10404C95.0353 8.82672 97.2006 8.18921 97.6394 9.32539C97.7799 10.7761 95.4884 13.1957 95.5486 13.4196C95.5974 13.5981 96.409 13.8786 96.5668 14.7938C96.8105 16.1934 95.1414 16.8508 95.0468 17.6498C94.8804 19.0438 97.2838 19.6388 95.0439 22.5033C94.7313 22.9028 93.7963 24.1665 93.3174 23.3533L93.3203 23.3561Z" fill="black"/>
<path d="M130.127 50.6158L128.622 50.6923C127.888 51.0549 128.318 51.463 128.53 52.0778C127.489 53.214 123.827 51.344 123.333 51.5678C123.107 51.6698 123.092 52.4688 122.266 52.806C120.792 53.4066 119.8 52.0268 119.026 52.2365C118.484 52.3838 117.95 53.2735 117.359 53.5795C115.968 54.302 113.651 53.928 112.888 52.4631C113.886 52.6048 114.815 53.5738 115.885 53.4491C117.514 53.2593 117.904 51.9815 119.146 51.7661C120.236 51.5763 120.887 53.0723 122.246 52.1203C122.648 51.8398 122.817 51.0408 123.365 50.9501C124.288 50.7943 126.706 52.5651 128.068 51.6415L127.733 50.6016C127.85 50.0689 129.955 49.5929 130.127 50.6158Z" fill="black"/>
<path d="M104.694 96.4141C103.636 97.0035 104.081 95.0371 103.946 94.4024C103.771 93.5751 103.303 91.3481 102.452 91.0591C102.153 90.9571 101.795 91.3056 101.402 90.9118C100.415 89.9173 100.593 87.6959 99.2998 86.9281C98.8582 86.6646 98.1641 86.8232 97.7942 86.3387C97.2206 85.5851 97.3554 84.5906 96.9969 83.8114C96.5523 82.8509 95.7264 82.5477 95.1843 81.7657C97.5131 81.5645 97.3869 85.0949 98.3849 86.0412C98.752 86.3926 99.5207 86.1659 99.9021 86.6107C100.53 87.3474 101.459 90.3224 101.715 90.5208C101.892 90.6596 102.827 90.2913 103.246 90.8268C103.742 91.4586 105.001 95.7625 104.692 96.417L104.694 96.4141Z" fill="black"/>
<path d="M108.156 32.5391C107.789 31.9016 108.09 32.0234 108.46 31.7004C109.186 31.0686 110.711 30.5614 111.124 29.8446C111.537 29.1306 111.027 28.3146 111.242 27.6884C111.491 26.9687 112.796 26.5522 113.195 25.9516C113.594 25.3509 113.212 24.6936 113.654 24.175C114.293 23.4242 116.404 22.3362 117.354 21.8234C116.998 23.0842 115.031 23.529 114.262 24.4612C113.754 25.0761 114.093 25.7164 113.76 26.2179C113.393 26.7704 112.226 27.1416 111.907 27.7819C111.621 28.3599 111.988 29.1476 111.838 29.7426C111.546 30.9014 109.071 31.7118 108.153 32.5448L108.156 32.5391Z" fill="black"/>
<path d="M122.582 81.1452C122.238 81.3407 122.003 80.8137 121.853 80.5757C121.475 79.9722 120.749 78.0257 120.31 77.7339C119.952 77.4959 119.358 77.8501 118.951 77.765C117.876 77.5412 117.821 75.504 117.027 74.9005C116.533 74.5265 115.105 75.1442 114.276 74.4529C113.777 74.0392 112.891 72.75 113.407 72.0757C114.296 74.9345 115.466 73.7899 117.058 74.2545C118.234 74.5974 118.188 76.5807 118.985 77.1219C119.387 77.3939 120.156 76.8981 120.603 77.2409C121.403 77.8586 122.226 80.1677 122.582 81.1452Z" fill="black"/>
<path d="M125.702 83.0067C126.68 85.7125 122.456 86.3784 122.92 82.9925C123.13 81.4625 125.241 81.7232 125.702 83.0067ZM124.799 82.5732C123.758 81.9952 122.909 83.8737 123.89 84.4914C125.295 85.3754 125.547 82.9897 124.799 82.5732Z" fill="black"/>
<path d="M52.624 41.1666C52.4261 41.3905 49.5037 39.1578 48.2389 39.4524C47.7858 39.5573 47.0028 42.7221 46.6816 43.3511C46.544 43.6175 46.7562 43.8073 46.1969 43.7025C45.2247 43.048 39.9362 38.6166 39.3282 38.6081C38.1093 38.5939 36.6094 43.6713 36.1849 43.6996C34.4355 43.0706 26.0611 35.2449 25.0716 35.5254C24.5267 35.6813 22.4302 42.1271 22.1779 43.1415C22.0287 43.7365 21.3863 45.0398 22.1779 45.3968C22.6855 45.6263 22.6884 44.918 22.8088 44.6233C23.7552 42.2858 24.5038 39.6394 25.1806 37.2028C25.5018 37.1631 25.7456 37.1943 26.0353 37.3444C26.7121 37.6929 29.1986 40.3705 30.1881 41.1525C32.3562 42.8638 44.2353 51.1939 46.1883 51.055C46.4579 51.0352 46.3231 50.7235 46.3317 50.4912L37.2002 44.527C37.0597 44.3286 38.8292 40.3478 39.0443 40.0276C39.3655 39.5488 39.3512 39.8576 39.615 40.0276C40.2517 40.4413 40.9744 41.195 41.6713 41.671C42.5174 42.249 46.8164 45.3742 47.4674 44.8216C47.6252 44.6885 48.477 41.0193 48.6347 40.8861C49.0563 40.5291 52.647 42.1951 52.6412 43.2605C52.624 46.771 50.6709 50.9672 50.0486 54.438L23.5946 49.0773C19.4332 44.9321 15.4382 40.4781 12.7308 35.2279C11.7816 33.3862 10.339 31.9271 12.0196 30.2724C17.7125 24.6652 32.0522 16.7063 39.6867 14.0996C40.8826 13.6916 43.9915 12.4194 45.0096 13.1561C45.328 13.3856 46.217 16.9585 46.4895 17.6895C49.8593 26.7335 55.9853 37.4804 61.8273 45.2013C65.9198 50.6102 70.847 55.05 75.7368 59.7251C75.9032 60.2719 75.8257 60.8471 75.3783 61.2409C73.2245 62.5584 71.3517 65.2246 69.3556 66.5903C69.1147 66.7546 69.0717 66.9841 68.6387 66.868C68.1568 64.6466 67.8385 61.2636 66.046 59.6797C63.6943 57.6029 54.6258 56.2967 51.1987 54.8574C50.8803 54.7242 50.5534 54.6194 50.3698 54.2964C53.5446 49.0037 54.4681 41.9996 53.4471 35.9589C53.3353 35.3044 53.298 34.0889 52.6269 33.8027V41.1496L52.624 41.1666ZM39.4085 21.7213C33.5436 22.424 34.8628 30.6407 40.4037 30.3574C45.9933 30.0712 45.1215 21.0385 39.4085 21.7213Z" fill="#375DFB"/>
<path d="M75.3584 99.6583C73.3393 90.2317 70.8385 80.8703 68.7248 71.4551C67.9734 68.1004 67.8701 62.5102 65.0624 60.3824C62.9487 58.7787 56.3438 57.549 53.4874 56.8463C38.6974 53.2055 22.3988 49.4173 7.45391 46.6746C6.50462 46.5018 5.83925 46.2723 4.82973 46.3233C1.72661 46.4763 0.381542 47.9666 0.0545961 50.953C-0.547673 56.4412 4.32497 68.9986 6.30386 74.6596C8.06478 79.7001 10.1526 86.248 12.381 90.9769C13.1181 92.5437 13.078 92.5947 14.8274 93.0821C19.2527 94.3089 24.0221 95.4196 28.8918 96.4538C28.737 96.0174 28.7341 95.5216 28.8832 95.0824C24.2945 94.1276 19.7918 93.1019 15.6849 91.9516C15.1142 91.7929 14.5291 91.6682 14.033 91.3254C11.3142 84.293 8.48063 77.2663 6.01706 70.1404C4.6003 66.0406 2.92255 61.4477 1.87574 57.277C0.983812 53.7127 -0.289558 46.9183 5.5123 47.4623C23.0297 51.888 41.6198 54.5485 58.9766 59.3369C62.4555 60.2974 65.2144 60.8215 66.267 64.5672C67.4686 68.8456 68.0738 73.7926 69.0632 78.1928C70.9761 86.6787 73.1414 95.1079 74.9282 103.619C71.5784 103.115 68.2372 102.571 64.8989 101.996C64.9047 102.075 64.8989 102.154 64.8961 102.231C64.9305 102.611 64.8617 102.999 64.6925 103.333C66.9381 103.73 69.1808 104.104 71.4035 104.418C72.261 104.54 75.8975 105.231 76.2359 104.758C76.4683 104.432 75.5247 100.423 75.3612 99.6583H75.3584Z" fill="#282828"/>
<path d="M48.6204 4.99606C49.6328 11.7083 50.9664 18.3978 53.8085 24.5944C58.0731 33.8877 66.7688 44.8557 74.3516 51.7662C77.1479 54.3134 80.3141 56.4242 83.1763 58.8892C83.4373 59.8299 81.857 61.7538 81.2232 62.5074C79.8954 64.0856 73.2761 69.9506 71.5783 70.4946C70.9846 70.6845 70.6921 70.5683 71.0621 69.9846C71.7791 68.8513 74.5122 67.089 75.6479 66.0406C77.0016 64.7883 80.641 61.5413 81.5186 60.2521C81.7136 59.9659 81.8571 59.8441 81.7567 59.4502C81.6391 58.9912 75.3525 54.353 74.3487 53.4634C64.8616 45.02 53.0686 30.0769 49.8479 17.7688C48.8469 13.9466 48.4454 9.95443 47.4732 6.12374C31.5704 10.2774 17.2135 18.0635 4.07539 27.6544C3.49319 28.6319 6.47586 33.4372 7.15843 34.5309C10.0694 39.1889 14.0874 42.64 17.0041 46.8418C17.2393 47.1818 17.5347 47.4878 17.4544 47.9497C16.9467 48.5532 9.88585 40.4526 9.33234 39.7301C8.07331 38.0868 2.0965 29.0994 2.72171 27.6119C2.9827 26.9885 7.57715 23.7812 8.5035 23.1323C16.8578 17.2843 27.518 11.7168 37.1142 8.17508C38.5682 7.63958 48.0411 4.41806 48.6204 4.99606Z" fill="#282828"/>
<path d="M77.2167 105.03C77.1078 103.347 77.6871 101.724 78.0943 100.109C79.5656 94.2722 81.3753 88.4468 83.0129 82.6469C85.7403 73.0022 88.439 63.3291 91.7945 53.8856C90.3835 53.5484 87.0854 53.2141 85.9841 52.4887C85.2155 51.9816 85.7747 49.8424 84.9459 48.9215C83.7499 47.5955 75.5247 46.261 73.8584 47.2924C73.5228 47.502 72.8546 48.7402 72.3527 48.2274C71.8996 47.7655 73.2704 46.1307 73.8555 45.8984C76.2244 44.9577 84.8025 46.4112 86.1963 48.8167C86.6953 49.6809 86.4974 51.0607 86.9248 51.4886C87.6905 52.2536 92.979 52.6021 93.1998 53.4804C87.2976 70.2482 83.6037 87.7668 78.0743 104.611L77.2139 105.03H77.2167Z" fill="#282828"/>
<path d="M62.9201 25.059C63.3818 24.5292 65.1342 27.8301 65.3751 28.1417C71.2974 35.7889 79.319 39.3448 88.3789 41.8608C89.8702 42.2745 89.7871 42.8978 88.2355 42.8695C81.4385 42.7505 70.8959 36.2706 66.4878 31.2783C65.7823 30.4792 62.2031 25.8807 62.9201 25.059Z" fill="#282828"/>
</g>
<defs>
<clipPath id="clip0_1981_3561">
<rect width="138" height="131" fill="white" transform="translate(0 0.666687)"/>
</clipPath>
</defs>
</svg>
