<svg id="No_Notifications" viewBox="0 0 64 64" xmlns="http://www.w3.org/2000/svg" data-name="No Notifications"><path d="m28 3c-2.76 0-5 2.24-5 5 0 1.3.5 2.49 1.32 3.38h7.37c.81-.89 1.31-2.08 1.31-3.38 0-2.76-2.24-5-5-5z" fill="#8c8c8c"/><path d="m40.73 16.27c-3.26-3.25-7.76-5.27-12.73-5.27-9.94 0-18 8.06-18 18v12.9h36v-12.9c0-4.97-2.02-9.47-5.27-12.73z" fill="#bfbfbf"/><ellipse cx="28" cy="49.5" fill="#f2f2f2" rx="24" ry="11.5"/><ellipse cx="28" cy="50.5" fill="#595959" rx="19" ry="7.5"/><path d="m35.96 43.69c-2.42-.44-5.12-.69-7.96-.69s-5.54.25-7.96.69c-.03.77-.04 1.04-.04 1.31 0 4.42 3.58 8 8 8s8-3.58 8-8c0-.27-.01-.54-.04-1.31z" fill="#8c8c8c"/><circle cx="46" cy="22" fill="#f2f2f2" r="14"/><path d="m51.71 16.29c-.39-.39-1.02-.39-1.41 0l-4.29 4.29-4.29-4.29c-.39-.39-1.02-.39-1.41 0s-.39 1.02 0 1.41l4.29 4.29-4.29 4.29c-.39.39-.39 1.02 0 1.41.2.2.45.29.71.29s.51-.1.71-.29l4.29-4.29 4.29 4.29c.2.2.45.29.71.29s.51-.1.71-.29c.39-.39.39-1.02 0-1.41l-4.29-4.29 4.29-4.29c.39-.39.39-1.02 0-1.41z" fill="#595959"/></svg>