<svg width="156" height="16" viewBox="0 0 156 16" fill="none" xmlns="http://www.w3.org/2000/svg">
<path d="M1.70881 12V3.27273H4.8196C5.49858 3.27273 6.06108 3.39631 6.5071 3.64347C6.95313 3.89062 7.28693 4.22869 7.50852 4.65767C7.73011 5.08381 7.84091 5.56392 7.84091 6.09801C7.84091 6.63494 7.72869 7.1179 7.50426 7.54688C7.28267 7.97301 6.94744 8.31108 6.49858 8.56108C6.05256 8.80824 5.49148 8.93182 4.81534 8.93182H2.67614V7.81534H4.69602C5.125 7.81534 5.47301 7.74148 5.74006 7.59375C6.0071 7.44318 6.20312 7.23864 6.32812 6.98011C6.45312 6.72159 6.51562 6.42756 6.51562 6.09801C6.51562 5.76847 6.45312 5.47585 6.32812 5.22017C6.20312 4.96449 6.00568 4.7642 5.7358 4.61932C5.46875 4.47443 5.11648 4.40199 4.67898 4.40199H3.02557V12H1.70881ZM11.9574 12.1321C11.3438 12.1321 10.8082 11.9915 10.3509 11.7102C9.89347 11.429 9.53835 11.0355 9.28551 10.5298C9.03267 10.0241 8.90625 9.43324 8.90625 8.7571C8.90625 8.07812 9.03267 7.48437 9.28551 6.97585C9.53835 6.46733 9.89347 6.07244 10.3509 5.79119C10.8082 5.50994 11.3438 5.36932 11.9574 5.36932C12.571 5.36932 13.1065 5.50994 13.5639 5.79119C14.0213 6.07244 14.3764 6.46733 14.6293 6.97585C14.8821 7.48437 15.0085 8.07812 15.0085 8.7571C15.0085 9.43324 14.8821 10.0241 14.6293 10.5298C14.3764 11.0355 14.0213 11.429 13.5639 11.7102C13.1065 11.9915 12.571 12.1321 11.9574 12.1321ZM11.9616 11.0625C12.3594 11.0625 12.6889 10.9574 12.9503 10.7472C13.2116 10.5369 13.4048 10.2571 13.5298 9.90767C13.6577 9.55824 13.7216 9.1733 13.7216 8.75284C13.7216 8.33523 13.6577 7.9517 13.5298 7.60227C13.4048 7.25 13.2116 6.96733 12.9503 6.75426C12.6889 6.54119 12.3594 6.43466 11.9616 6.43466C11.5611 6.43466 11.2287 6.54119 10.9645 6.75426C10.7031 6.96733 10.5085 7.25 10.3807 7.60227C10.2557 7.9517 10.1932 8.33523 10.1932 8.75284C10.1932 9.1733 10.2557 9.55824 10.3807 9.90767C10.5085 10.2571 10.7031 10.5369 10.9645 10.7472C11.2287 10.9574 11.5611 11.0625 11.9616 11.0625ZM17.6506 12L15.7244 5.45455H17.0412L18.3239 10.2614H18.3878L19.6747 5.45455H20.9915L22.2699 10.2401H22.3338L23.608 5.45455H24.9247L23.0028 12H21.7031L20.3736 7.27415H20.2756L18.946 12H17.6506ZM28.7557 12.1321C28.1108 12.1321 27.5554 11.9943 27.0895 11.7188C26.6264 11.4403 26.2685 11.0497 26.0156 10.5469C25.7656 10.0412 25.6406 9.44886 25.6406 8.76989C25.6406 8.09943 25.7656 7.50852 26.0156 6.99716C26.2685 6.4858 26.6207 6.08665 27.0724 5.79972C27.527 5.51278 28.0582 5.36932 28.6662 5.36932C29.0355 5.36932 29.3935 5.4304 29.7401 5.55256C30.0866 5.67472 30.3977 5.86648 30.6733 6.12784C30.9489 6.3892 31.1662 6.72869 31.3253 7.14631C31.4844 7.56108 31.5639 8.06534 31.5639 8.65909V9.1108H26.3608V8.15625H30.3153C30.3153 7.82102 30.2472 7.52415 30.1108 7.26562C29.9744 7.00426 29.7827 6.7983 29.5355 6.64773C29.2912 6.49716 29.0043 6.42188 28.6747 6.42188C28.3168 6.42188 28.0043 6.50994 27.7372 6.68608C27.473 6.85937 27.2685 7.08665 27.1236 7.3679C26.9815 7.64631 26.9105 7.94886 26.9105 8.27557V9.02131C26.9105 9.45881 26.9872 9.83097 27.1406 10.1378C27.2969 10.4446 27.5142 10.679 27.7926 10.8409C28.071 11 28.3963 11.0795 28.7685 11.0795C29.0099 11.0795 29.2301 11.0455 29.429 10.9773C29.6278 10.9062 29.7997 10.8011 29.9446 10.6619C30.0895 10.5227 30.2003 10.3509 30.277 10.1463L31.483 10.3636C31.3864 10.7187 31.2131 11.0298 30.9631 11.2969C30.7159 11.5611 30.4048 11.767 30.0298 11.9148C29.6577 12.0597 29.233 12.1321 28.7557 12.1321ZM32.9776 12V5.45455H34.2092V6.49432H34.2773C34.3967 6.14205 34.6069 5.86506 34.908 5.66335C35.212 5.45881 35.5558 5.35653 35.9393 5.35653C36.0188 5.35653 36.1126 5.35937 36.2205 5.36506C36.3313 5.37074 36.418 5.37784 36.4805 5.38636V6.60511C36.4293 6.59091 36.3384 6.57528 36.2077 6.55824C36.0771 6.53835 35.9464 6.52841 35.8157 6.52841C35.5146 6.52841 35.2461 6.59233 35.0103 6.72017C34.7773 6.84517 34.5927 7.01989 34.4563 7.24432C34.32 7.46591 34.2518 7.71875 34.2518 8.00284V12H32.9776ZM40.1697 12.1321C39.5249 12.1321 38.9695 11.9943 38.5036 11.7188C38.0405 11.4403 37.6825 11.0497 37.4297 10.5469C37.1797 10.0412 37.0547 9.44886 37.0547 8.76989C37.0547 8.09943 37.1797 7.50852 37.4297 6.99716C37.6825 6.4858 38.0348 6.08665 38.4865 5.79972C38.9411 5.51278 39.4723 5.36932 40.0803 5.36932C40.4496 5.36932 40.8075 5.4304 41.1541 5.55256C41.5007 5.67472 41.8118 5.86648 42.0874 6.12784C42.3629 6.3892 42.5803 6.72869 42.7393 7.14631C42.8984 7.56108 42.978 8.06534 42.978 8.65909V9.1108H37.7749V8.15625H41.7294C41.7294 7.82102 41.6612 7.52415 41.5249 7.26562C41.3885 7.00426 41.1967 6.7983 40.9496 6.64773C40.7053 6.49716 40.4183 6.42188 40.0888 6.42188C39.7308 6.42188 39.4183 6.50994 39.1513 6.68608C38.8871 6.85937 38.6825 7.08665 38.5376 7.3679C38.3956 7.64631 38.3246 7.94886 38.3246 8.27557V9.02131C38.3246 9.45881 38.4013 9.83097 38.5547 10.1378C38.7109 10.4446 38.9283 10.679 39.2067 10.8409C39.4851 11 39.8104 11.0795 40.1825 11.0795C40.424 11.0795 40.6442 11.0455 40.843 10.9773C41.0419 10.9062 41.2138 10.8011 41.3587 10.6619C41.5036 10.5227 41.6143 10.3509 41.6911 10.1463L42.897 10.3636C42.8004 10.7187 42.6271 11.0298 42.3771 11.2969C42.13 11.5611 41.8189 11.767 41.4439 11.9148C41.0717 12.0597 40.647 12.1321 40.1697 12.1321ZM46.842 12.1278C46.3136 12.1278 45.842 11.9929 45.4272 11.723C45.0153 11.4503 44.6914 11.0625 44.4556 10.5597C44.2227 10.054 44.1062 9.44744 44.1062 8.74006C44.1062 8.03267 44.2241 7.42756 44.4599 6.92472C44.6985 6.42187 45.0252 6.03693 45.44 5.76989C45.8548 5.50284 46.3249 5.36932 46.8505 5.36932C47.2567 5.36932 47.5835 5.4375 47.8306 5.57386C48.0806 5.70739 48.2738 5.86364 48.4102 6.04261C48.5494 6.22159 48.6573 6.37926 48.734 6.51562H48.8107V3.27273H50.0849V12H48.8406V10.9815H48.734C48.6573 11.1207 48.5465 11.2798 48.4016 11.4588C48.2596 11.6378 48.0636 11.794 47.8136 11.9276C47.5636 12.0611 47.2397 12.1278 46.842 12.1278ZM47.1232 11.0412C47.4897 11.0412 47.7994 10.9446 48.0522 10.7514C48.3079 10.5554 48.5011 10.2841 48.6317 9.9375C48.7653 9.59091 48.832 9.1875 48.832 8.72727C48.832 8.27273 48.7667 7.875 48.636 7.53409C48.5053 7.19318 48.3136 6.92756 48.0607 6.73722C47.8079 6.54687 47.4954 6.4517 47.1232 6.4517C46.7397 6.4517 46.4201 6.55114 46.1644 6.75C45.9087 6.94886 45.7156 7.22017 45.5849 7.56392C45.457 7.90767 45.3931 8.29545 45.3931 8.72727C45.3931 9.16477 45.4585 9.55824 45.5891 9.90767C45.7198 10.2571 45.913 10.5341 46.1687 10.7386C46.4272 10.9403 46.7454 11.0412 47.1232 11.0412ZM55.1815 12V3.27273H58.3775C58.9968 3.27273 59.5096 3.375 59.9158 3.57955C60.3221 3.78125 60.6261 4.0554 60.8278 4.40199C61.0295 4.74574 61.1303 5.13352 61.1303 5.56534C61.1303 5.92898 61.0636 6.2358 60.93 6.4858C60.7965 6.73295 60.6175 6.93182 60.3931 7.08239C60.1715 7.23011 59.9272 7.33807 59.6602 7.40625V7.49148C59.9499 7.50568 60.2326 7.59943 60.5082 7.77273C60.7866 7.94318 61.0167 8.18608 61.1985 8.50142C61.3803 8.81676 61.4712 9.20028 61.4712 9.65199C61.4712 10.098 61.3661 10.4986 61.1559 10.8537C60.9485 11.206 60.6275 11.4858 60.1928 11.6932C59.7582 11.8977 59.2028 12 58.5266 12H55.1815ZM56.4982 10.8707H58.3988C59.0295 10.8707 59.4812 10.7486 59.7539 10.5043C60.0266 10.2599 60.163 9.95455 60.163 9.58807C60.163 9.3125 60.0934 9.05966 59.9542 8.82955C59.815 8.59943 59.6161 8.41619 59.3576 8.27983C59.1019 8.14347 58.7979 8.07528 58.4457 8.07528H56.4982V10.8707ZM56.4982 7.0483H58.2624C58.5579 7.0483 58.8235 6.99148 59.0593 6.87784C59.2979 6.7642 59.4869 6.60511 59.6261 6.40057C59.7681 6.19318 59.8391 5.94886 59.8391 5.66761C59.8391 5.30682 59.7127 5.00426 59.4599 4.75994C59.207 4.51562 58.8192 4.39347 58.2965 4.39347H56.4982V7.0483ZM63.7362 14.4545C63.5458 14.4545 63.3725 14.4389 63.2163 14.4077C63.06 14.3793 62.9435 14.348 62.8668 14.3139L63.1737 13.2699C63.4066 13.3324 63.614 13.3594 63.7958 13.3509C63.9776 13.3423 64.1381 13.2741 64.2773 13.1463C64.4194 13.0185 64.5444 12.8097 64.6523 12.5199L64.81 12.0852L62.4151 5.45455H63.7788L65.4364 10.5341H65.5046L67.1623 5.45455H68.5302L65.8327 12.8736C65.7077 13.2145 65.5487 13.5028 65.3555 13.7386C65.1623 13.9773 64.9322 14.1563 64.6651 14.2756C64.3981 14.3949 64.0884 14.4545 63.7362 14.4545Z" fill="white"/>
<path d="M103.537 11.2021V12.877H96.6562V3.04932H103.411V4.72416H98.5822V7.09111H102.741V8.64141H98.5822V11.2021H103.537Z" fill="white"/>
<path d="M106.076 12.8405L103.383 5.55591H105.309L107.179 11.1446L109.021 5.55591H110.793L108.1 12.8405H106.076Z" fill="white"/>
<path d="M112.37 8.59828H116.194C116.157 8.2345 116.052 7.91846 115.88 7.65017C115.708 7.38189 115.482 7.17273 115.203 7.02271C114.924 6.87265 114.612 6.79761 114.268 6.79761C113.933 6.79761 113.628 6.87265 113.354 7.02271C113.08 7.17273 112.856 7.38189 112.684 7.65017C112.512 7.91846 112.407 8.2345 112.37 8.59828ZM114.282 12.9394C113.696 12.9394 113.166 12.8404 112.691 12.6428C112.217 12.445 111.812 12.1734 111.477 11.8284C111.142 11.4834 110.886 11.0899 110.709 10.6482C110.533 10.2065 110.444 9.73263 110.444 9.22638C110.444 8.54548 110.6 7.91734 110.912 7.34199C111.223 6.76665 111.665 6.30643 112.238 5.96139C112.81 5.6164 113.496 5.4436 114.296 5.4436C115.087 5.4436 115.766 5.6166 116.334 5.96207C116.901 6.30775 117.339 6.76164 117.646 7.32388C117.953 7.88617 118.106 8.49901 118.106 9.16249C118.106 9.28248 118.101 9.3952 118.092 9.5012C118.083 9.6072 118.073 9.6971 118.064 9.77076H112.426C112.454 10.1529 112.559 10.4781 112.74 10.7464C112.922 11.0146 113.154 11.2216 113.438 11.3671C113.722 11.5128 114.022 11.5854 114.338 11.5854C114.719 11.5854 115.075 11.4947 115.406 11.3132C115.736 11.1318 115.962 10.8875 116.083 10.5804L117.674 11.0271C117.506 11.3994 117.259 11.7298 116.934 12.0181C116.608 12.3067 116.222 12.5324 115.776 12.6951C115.329 12.8578 114.831 12.9394 114.282 12.9394Z" fill="white"/>
<path d="M125.405 12.8405H123.535V8.77363C123.535 8.19264 123.435 7.76849 123.235 7.50099C123.035 7.23364 122.749 7.09985 122.377 7.09985C122.126 7.09985 121.872 7.1639 121.616 7.29174C121.36 7.41982 121.133 7.5957 120.933 7.81938C120.732 8.0433 120.577 8.30143 120.465 8.59377V12.8405H118.609V5.55589H120.298V6.91475C120.484 6.60023 120.721 6.33646 121.009 6.12372C121.298 5.91099 121.628 5.74428 122 5.6241C122.372 5.50392 122.772 5.4436 123.2 5.4436C123.656 5.4436 124.031 5.52477 124.324 5.68663C124.617 5.84846 124.84 6.06822 124.994 6.34583C125.147 6.62349 125.254 6.931 125.315 7.26872C125.375 7.60645 125.405 7.94638 125.405 8.28848V12.8405Z" fill="white"/>
<path d="M130.737 12.3949C130.57 12.4678 130.376 12.543 130.158 12.6202C129.939 12.6977 129.702 12.7613 129.446 12.8114C129.19 12.8613 128.932 12.8865 128.672 12.8865C128.318 12.8865 127.997 12.8279 127.709 12.7107C127.42 12.5933 127.19 12.4062 127.018 12.1491C126.846 11.8921 126.76 11.556 126.76 11.1412V6.87503H125.811V5.48201H126.76V3.07031H128.644V5.48201H130.179V6.87503H128.644V10.5194C128.653 10.7622 128.723 10.9397 128.853 11.052C128.983 11.1642 129.151 11.2204 129.355 11.2204C129.541 11.2204 129.727 11.1862 129.914 11.118C130.1 11.0497 130.253 10.9882 130.374 10.9335L130.737 12.3949Z" fill="white"/>
<path d="M139.585 3.04932V12.877H137.673V8.68292H133.179V12.877H131.253V3.04932H133.179V7.0219H137.673V3.04932H139.585Z" fill="white"/>
<path d="M142.181 8.59828H146.005C145.967 8.2345 145.863 7.91846 145.691 7.65017C145.518 7.38189 145.293 7.17273 145.014 7.02271C144.735 6.87265 144.423 6.79761 144.079 6.79761C143.744 6.79761 143.439 6.87265 143.165 7.02271C142.89 7.17273 142.667 7.38189 142.495 7.65017C142.323 7.91846 142.218 8.2345 142.181 8.59828ZM144.093 12.9394C143.507 12.9394 142.976 12.8404 142.502 12.6428C142.027 12.445 141.623 12.1734 141.288 11.8284C140.953 11.4834 140.697 11.0899 140.52 10.6482C140.343 10.2065 140.255 9.73263 140.255 9.22638C140.255 8.54548 140.411 7.91734 140.722 7.34199C141.034 6.76665 141.476 6.30643 142.048 5.96139C142.62 5.6164 143.306 5.4436 144.107 5.4436C144.897 5.4436 145.577 5.6166 146.144 5.96207C146.712 6.30775 147.149 6.76164 147.456 7.32388C147.763 7.88617 147.917 8.49901 147.917 9.16249C147.917 9.28248 147.912 9.3952 147.903 9.5012C147.893 9.6072 147.884 9.6971 147.875 9.77076H142.237C142.265 10.1529 142.369 10.4781 142.551 10.7464C142.732 11.0146 142.965 11.2216 143.248 11.3671C143.532 11.5128 143.832 11.5854 144.149 11.5854C144.53 11.5854 144.886 11.4947 145.216 11.3132C145.546 11.1318 145.772 10.8875 145.893 10.5804L147.484 11.0271C147.317 11.3994 147.07 11.7298 146.744 12.0181C146.419 12.3067 146.033 12.5324 145.586 12.6951C145.139 12.8578 144.642 12.9394 144.093 12.9394Z" fill="white"/>
<path d="M149.34 5.55518L150.862 7.85013L150.987 8.11749L151.127 7.85013L152.648 5.55518H154.616L152.076 9.22975L154.658 12.9323H152.69L151.127 10.6376L150.987 10.3981L150.876 10.6376L149.313 12.9323H147.345L149.927 9.27195L147.387 5.55518H149.34Z" fill="white"/>
<path d="M83.5399 0.5C80.6231 0.5 78.25 2.87299 78.25 5.7899V10.2101C78.25 13.127 80.6231 15.5 83.5399 15.5H87.9601C90.877 15.5 93.25 13.127 93.25 10.2101V8.24829L90.8963 9.64573V10.2101C90.8963 11.8291 89.5791 13.1462 87.9601 13.1462H83.5399C81.9209 13.1462 80.6038 11.8291 80.6038 10.2101V5.7899C80.6038 4.17089 81.9209 2.85375 83.5399 2.85375H87.9601C89.0247 2.85375 90.0166 3.4466 90.5305 4.37512L85.6824 7.31367L84.3326 5.08687L83.8131 5.40173C83.8135 5.40232 83.8139 5.40281 83.8142 5.40341C83.969 5.6629 83.8779 6.00239 83.6109 6.16171C83.3456 6.31988 83.0067 6.24057 82.8504 5.98529L82.3198 6.30694L84.8895 10.5466L93.2423 5.48381L93.2344 5.38046C93.1826 4.70435 93.0033 4.05664 92.7043 3.45166L92.7077 3.44957L92.5492 3.15152L92.5465 3.15305C91.6023 1.51204 89.8612 0.5 87.9601 0.5H83.5399Z" fill="white"/>
</svg>
