<svg width="155" height="16" viewBox="0 0 155 16" fill="none" xmlns="http://www.w3.org/2000/svg">
<path d="M0.958807 12V3.27273H4.0696C4.74858 3.27273 5.31108 3.39631 5.7571 3.64347C6.20313 3.89062 6.53693 4.22869 6.75852 4.65767C6.98011 5.08381 7.09091 5.56392 7.09091 6.09801C7.09091 6.63494 6.97869 7.1179 6.75426 7.54688C6.53267 7.97301 6.19744 8.31108 5.74858 8.56108C5.30256 8.80824 4.74148 8.93182 4.06534 8.93182H1.92614V7.81534H3.94602C4.375 7.81534 4.72301 7.74148 4.99006 7.59375C5.2571 7.44318 5.45312 7.23864 5.57812 6.98011C5.70312 6.72159 5.76562 6.42756 5.76562 6.09801C5.76562 5.76847 5.70312 5.47585 5.57812 5.22017C5.45312 4.96449 5.25568 4.7642 4.9858 4.61932C4.71875 4.47443 4.36648 4.40199 3.92898 4.40199H2.27557V12H0.958807ZM11.2074 12.1321C10.5938 12.1321 10.0582 11.9915 9.60085 11.7102C9.14347 11.429 8.78835 11.0355 8.53551 10.5298C8.28267 10.0241 8.15625 9.43324 8.15625 8.7571C8.15625 8.07812 8.28267 7.48437 8.53551 6.97585C8.78835 6.46733 9.14347 6.07244 9.60085 5.79119C10.0582 5.50994 10.5938 5.36932 11.2074 5.36932C11.821 5.36932 12.3565 5.50994 12.8139 5.79119C13.2713 6.07244 13.6264 6.46733 13.8793 6.97585C14.1321 7.48437 14.2585 8.07812 14.2585 8.7571C14.2585 9.43324 14.1321 10.0241 13.8793 10.5298C13.6264 11.0355 13.2713 11.429 12.8139 11.7102C12.3565 11.9915 11.821 12.1321 11.2074 12.1321ZM11.2116 11.0625C11.6094 11.0625 11.9389 10.9574 12.2003 10.7472C12.4616 10.5369 12.6548 10.2571 12.7798 9.90767C12.9077 9.55824 12.9716 9.1733 12.9716 8.75284C12.9716 8.33523 12.9077 7.9517 12.7798 7.60227C12.6548 7.25 12.4616 6.96733 12.2003 6.75426C11.9389 6.54119 11.6094 6.43466 11.2116 6.43466C10.8111 6.43466 10.4787 6.54119 10.2145 6.75426C9.95313 6.96733 9.75852 7.25 9.63068 7.60227C9.50568 7.9517 9.44318 8.33523 9.44318 8.75284C9.44318 9.1733 9.50568 9.55824 9.63068 9.90767C9.75852 10.2571 9.95313 10.5369 10.2145 10.7472C10.4787 10.9574 10.8111 11.0625 11.2116 11.0625ZM16.9006 12L14.9744 5.45455H16.2912L17.5739 10.2614H17.6378L18.9247 5.45455H20.2415L21.5199 10.2401H21.5838L22.858 5.45455H24.1747L22.2528 12H20.9531L19.6236 7.27415H19.5256L18.196 12H16.9006ZM28.0057 12.1321C27.3608 12.1321 26.8054 11.9943 26.3395 11.7188C25.8764 11.4403 25.5185 11.0497 25.2656 10.5469C25.0156 10.0412 24.8906 9.44886 24.8906 8.76989C24.8906 8.09943 25.0156 7.50852 25.2656 6.99716C25.5185 6.4858 25.8707 6.08665 26.3224 5.79972C26.777 5.51278 27.3082 5.36932 27.9162 5.36932C28.2855 5.36932 28.6435 5.4304 28.9901 5.55256C29.3366 5.67472 29.6477 5.86648 29.9233 6.12784C30.1989 6.3892 30.4162 6.72869 30.5753 7.14631C30.7344 7.56108 30.8139 8.06534 30.8139 8.65909V9.1108H25.6108V8.15625H29.5653C29.5653 7.82102 29.4972 7.52415 29.3608 7.26562C29.2244 7.00426 29.0327 6.7983 28.7855 6.64773C28.5412 6.49716 28.2543 6.42188 27.9247 6.42188C27.5668 6.42188 27.2543 6.50994 26.9872 6.68608C26.723 6.85937 26.5185 7.08665 26.3736 7.3679C26.2315 7.64631 26.1605 7.94886 26.1605 8.27557V9.02131C26.1605 9.45881 26.2372 9.83097 26.3906 10.1378C26.5469 10.4446 26.7642 10.679 27.0426 10.8409C27.321 11 27.6463 11.0795 28.0185 11.0795C28.2599 11.0795 28.4801 11.0455 28.679 10.9773C28.8778 10.9062 29.0497 10.8011 29.1946 10.6619C29.3395 10.5227 29.4503 10.3509 29.527 10.1463L30.733 10.3636C30.6364 10.7187 30.4631 11.0298 30.2131 11.2969C29.9659 11.5611 29.6548 11.767 29.2798 11.9148C28.9077 12.0597 28.483 12.1321 28.0057 12.1321ZM32.2276 12V5.45455H33.4592V6.49432H33.5273C33.6467 6.14205 33.8569 5.86506 34.158 5.66335C34.462 5.45881 34.8058 5.35653 35.1893 5.35653C35.2688 5.35653 35.3626 5.35937 35.4705 5.36506C35.5813 5.37074 35.668 5.37784 35.7305 5.38636V6.60511C35.6793 6.59091 35.5884 6.57528 35.4577 6.55824C35.3271 6.53835 35.1964 6.52841 35.0657 6.52841C34.7646 6.52841 34.4961 6.59233 34.2603 6.72017C34.0273 6.84517 33.8427 7.01989 33.7063 7.24432C33.57 7.46591 33.5018 7.71875 33.5018 8.00284V12H32.2276ZM39.4197 12.1321C38.7749 12.1321 38.2195 11.9943 37.7536 11.7188C37.2905 11.4403 36.9325 11.0497 36.6797 10.5469C36.4297 10.0412 36.3047 9.44886 36.3047 8.76989C36.3047 8.09943 36.4297 7.50852 36.6797 6.99716C36.9325 6.4858 37.2848 6.08665 37.7365 5.79972C38.1911 5.51278 38.7223 5.36932 39.3303 5.36932C39.6996 5.36932 40.0575 5.4304 40.4041 5.55256C40.7507 5.67472 41.0618 5.86648 41.3374 6.12784C41.6129 6.3892 41.8303 6.72869 41.9893 7.14631C42.1484 7.56108 42.228 8.06534 42.228 8.65909V9.1108H37.0249V8.15625H40.9794C40.9794 7.82102 40.9112 7.52415 40.7749 7.26562C40.6385 7.00426 40.4467 6.7983 40.1996 6.64773C39.9553 6.49716 39.6683 6.42188 39.3388 6.42188C38.9808 6.42188 38.6683 6.50994 38.4013 6.68608C38.1371 6.85937 37.9325 7.08665 37.7876 7.3679C37.6456 7.64631 37.5746 7.94886 37.5746 8.27557V9.02131C37.5746 9.45881 37.6513 9.83097 37.8047 10.1378C37.9609 10.4446 38.1783 10.679 38.4567 10.8409C38.7351 11 39.0604 11.0795 39.4325 11.0795C39.674 11.0795 39.8942 11.0455 40.093 10.9773C40.2919 10.9062 40.4638 10.8011 40.6087 10.6619C40.7536 10.5227 40.8643 10.3509 40.9411 10.1463L42.147 10.3636C42.0504 10.7187 41.8771 11.0298 41.6271 11.2969C41.38 11.5611 41.0689 11.767 40.6939 11.9148C40.3217 12.0597 39.897 12.1321 39.4197 12.1321ZM46.092 12.1278C45.5636 12.1278 45.092 11.9929 44.6772 11.723C44.2653 11.4503 43.9414 11.0625 43.7056 10.5597C43.4727 10.054 43.3562 9.44744 43.3562 8.74006C43.3562 8.03267 43.4741 7.42756 43.7099 6.92472C43.9485 6.42187 44.2752 6.03693 44.69 5.76989C45.1048 5.50284 45.5749 5.36932 46.1005 5.36932C46.5067 5.36932 46.8335 5.4375 47.0806 5.57386C47.3306 5.70739 47.5238 5.86364 47.6602 6.04261C47.7994 6.22159 47.9073 6.37926 47.984 6.51562H48.0607V3.27273H49.3349V12H48.0906V10.9815H47.984C47.9073 11.1207 47.7965 11.2798 47.6516 11.4588C47.5096 11.6378 47.3136 11.794 47.0636 11.9276C46.8136 12.0611 46.4897 12.1278 46.092 12.1278ZM46.3732 11.0412C46.7397 11.0412 47.0494 10.9446 47.3022 10.7514C47.5579 10.5554 47.7511 10.2841 47.8817 9.9375C48.0153 9.59091 48.082 9.1875 48.082 8.72727C48.082 8.27273 48.0167 7.875 47.886 7.53409C47.7553 7.19318 47.5636 6.92756 47.3107 6.73722C47.0579 6.54687 46.7454 6.4517 46.3732 6.4517C45.9897 6.4517 45.6701 6.55114 45.4144 6.75C45.1587 6.94886 44.9656 7.22017 44.8349 7.56392C44.707 7.90767 44.6431 8.29545 44.6431 8.72727C44.6431 9.16477 44.7085 9.55824 44.8391 9.90767C44.9698 10.2571 45.163 10.5341 45.4187 10.7386C45.6772 10.9403 45.9954 11.0412 46.3732 11.0412ZM54.4315 12V3.27273H57.6275C58.2468 3.27273 58.7596 3.375 59.1658 3.57955C59.5721 3.78125 59.8761 4.0554 60.0778 4.40199C60.2795 4.74574 60.3803 5.13352 60.3803 5.56534C60.3803 5.92898 60.3136 6.2358 60.18 6.4858C60.0465 6.73295 59.8675 6.93182 59.6431 7.08239C59.4215 7.23011 59.1772 7.33807 58.9102 7.40625V7.49148C59.1999 7.50568 59.4826 7.59943 59.7582 7.77273C60.0366 7.94318 60.2667 8.18608 60.4485 8.50142C60.6303 8.81676 60.7212 9.20028 60.7212 9.65199C60.7212 10.098 60.6161 10.4986 60.4059 10.8537C60.1985 11.206 59.8775 11.4858 59.4428 11.6932C59.0082 11.8977 58.4528 12 57.7766 12H54.4315ZM55.7482 10.8707H57.6488C58.2795 10.8707 58.7312 10.7486 59.0039 10.5043C59.2766 10.2599 59.413 9.95455 59.413 9.58807C59.413 9.3125 59.3434 9.05966 59.2042 8.82955C59.065 8.59943 58.8661 8.41619 58.6076 8.27983C58.3519 8.14347 58.0479 8.07528 57.6957 8.07528H55.7482V10.8707ZM55.7482 7.0483H57.5124C57.8079 7.0483 58.0735 6.99148 58.3093 6.87784C58.5479 6.7642 58.7369 6.60511 58.8761 6.40057C59.0181 6.19318 59.0891 5.94886 59.0891 5.66761C59.0891 5.30682 58.9627 5.00426 58.7099 4.75994C58.457 4.51562 58.0692 4.39347 57.5465 4.39347H55.7482V7.0483ZM62.9862 14.4545C62.7958 14.4545 62.6225 14.4389 62.4663 14.4077C62.31 14.3793 62.1935 14.348 62.1168 14.3139L62.4237 13.2699C62.6566 13.3324 62.864 13.3594 63.0458 13.3509C63.2276 13.3423 63.3881 13.2741 63.5273 13.1463C63.6694 13.0185 63.7944 12.8097 63.9023 12.5199L64.06 12.0852L61.6651 5.45455H63.0288L64.6864 10.5341H64.7546L66.4123 5.45455H67.7802L65.0827 12.8736C64.9577 13.2145 64.7987 13.5028 64.6055 13.7386C64.4123 13.9773 64.1822 14.1563 63.9151 14.2756C63.6481 14.3949 63.3384 14.4545 62.9862 14.4545Z" fill="#0A0D14"/>
<path d="M102.787 11.2023V12.8771H95.9061V3.04944H102.661V4.72429H97.8321V7.09123H101.991V8.64153H97.8321V11.2023H102.787Z" fill="#0A0D14"/>
<path d="M105.326 12.8406L102.633 5.55597H104.559L106.429 11.1447L108.271 5.55597H110.044L107.35 12.8406H105.326Z" fill="#0A0D14"/>
<path d="M111.621 8.59831H115.444C115.407 8.23453 115.303 7.91849 115.13 7.6502C114.958 7.38192 114.733 7.17276 114.454 7.02274C114.174 6.87268 113.863 6.79764 113.519 6.79764C113.184 6.79764 112.879 6.87268 112.604 7.02274C112.33 7.17276 112.107 7.38192 111.935 7.6502C111.762 7.91849 111.658 8.23453 111.621 8.59831ZM113.532 12.9395C112.946 12.9395 112.416 12.8404 111.941 12.6428C111.467 12.445 111.062 12.1735 110.727 11.8284C110.392 11.4834 110.136 11.0899 109.96 10.6482C109.783 10.2066 109.695 9.73266 109.695 9.22641C109.695 8.54551 109.85 7.91737 110.162 7.34202C110.474 6.76668 110.916 6.30646 111.488 5.96142C112.06 5.61643 112.746 5.44363 113.546 5.44363C114.337 5.44363 115.016 5.61663 115.584 5.9621C116.151 6.30778 116.589 6.76167 116.896 7.32391C117.203 7.8862 117.356 8.49904 117.356 9.16252C117.356 9.28251 117.352 9.39523 117.343 9.50123C117.333 9.60723 117.324 9.69713 117.315 9.77079H111.676C111.704 10.1529 111.809 10.4782 111.99 10.7464C112.172 11.0147 112.404 11.2216 112.688 11.3671C112.972 11.5128 113.272 11.5855 113.588 11.5855C113.97 11.5855 114.326 11.4947 114.656 11.3132C114.986 11.1318 115.212 10.8875 115.333 10.5804L116.924 11.0271C116.756 11.3994 116.51 11.7298 116.184 12.0181C115.858 12.3067 115.472 12.5324 115.026 12.6952C114.579 12.8579 114.081 12.9395 113.532 12.9395Z" fill="#0A0D14"/>
<path d="M124.656 12.8406H122.785V8.77369C122.785 8.1927 122.685 7.76855 122.485 7.50105C122.285 7.2337 121.999 7.09991 121.627 7.09991C121.376 7.09991 121.122 7.16396 120.867 7.2918C120.611 7.41988 120.383 7.59576 120.183 7.81944C119.982 8.04336 119.827 8.30149 119.715 8.59383V12.8406H117.859V5.55595H119.548V6.91482C119.734 6.60029 119.971 6.33653 120.259 6.12378C120.548 5.91105 120.878 5.74434 121.25 5.62416C121.622 5.50398 122.022 5.44366 122.451 5.44366C122.906 5.44366 123.281 5.52484 123.574 5.68669C123.867 5.84852 124.09 6.06829 124.244 6.34589C124.397 6.62355 124.504 6.93106 124.565 7.26878C124.625 7.60651 124.656 7.94644 124.656 8.28854V12.8406Z" fill="#0A0D14"/>
<path d="M129.987 12.3947C129.819 12.4677 129.626 12.5429 129.408 12.6201C129.189 12.6975 128.952 12.7611 128.696 12.8113C128.44 12.8612 128.182 12.8864 127.921 12.8864C127.568 12.8864 127.247 12.8277 126.958 12.7105C126.67 12.5932 126.44 12.4061 126.268 12.1489C126.095 11.892 126.009 11.5559 126.009 11.1411V6.87491H125.06V5.48189H126.009V3.07019H127.893V5.48189H129.429V6.87491H127.893V10.5193C127.903 10.7621 127.972 10.9396 128.103 11.0519C128.233 11.1641 128.4 11.2203 128.605 11.2203C128.791 11.2203 128.977 11.1861 129.163 11.1179C129.349 11.0495 129.503 10.9881 129.624 10.9334L129.987 12.3947Z" fill="#0A0D14"/>
<path d="M138.835 3.04944V12.8771H136.923V8.68305H132.429V12.8771H130.503V3.04944H132.429V7.02203H136.923V3.04944H138.835Z" fill="#0A0D14"/>
<path d="M141.431 8.59831H145.255C145.217 8.23453 145.113 7.91849 144.941 7.6502C144.768 7.38192 144.543 7.17276 144.264 7.02274C143.985 6.87268 143.673 6.79764 143.329 6.79764C142.994 6.79764 142.689 6.87268 142.415 7.02274C142.14 7.17276 141.917 7.38192 141.745 7.6502C141.573 7.91849 141.468 8.23453 141.431 8.59831ZM143.343 12.9395C142.757 12.9395 142.226 12.8404 141.752 12.6428C141.277 12.445 140.873 12.1735 140.538 11.8284C140.203 11.4834 139.947 11.0899 139.77 10.6482C139.593 10.2066 139.505 9.73266 139.505 9.22641C139.505 8.54551 139.661 7.91737 139.972 7.34202C140.284 6.76668 140.726 6.30646 141.298 5.96142C141.87 5.61643 142.556 5.44363 143.357 5.44363C144.147 5.44363 144.827 5.61663 145.394 5.9621C145.962 6.30778 146.399 6.76167 146.706 7.32391C147.013 7.8862 147.167 8.49904 147.167 9.16252C147.167 9.28251 147.162 9.39523 147.153 9.50123C147.143 9.60723 147.134 9.69713 147.125 9.77079H141.487C141.515 10.1529 141.619 10.4782 141.801 10.7464C141.982 11.0147 142.215 11.2216 142.498 11.3671C142.782 11.5128 143.082 11.5855 143.399 11.5855C143.78 11.5855 144.136 11.4947 144.466 11.3132C144.796 11.1318 145.022 10.8875 145.143 10.5804L146.734 11.0271C146.567 11.3994 146.32 11.7298 145.994 12.0181C145.669 12.3067 145.283 12.5324 144.836 12.6952C144.389 12.8579 143.892 12.9395 143.343 12.9395Z" fill="#0A0D14"/>
<path d="M148.59 5.5553L150.111 7.85026L150.237 8.11761L150.377 7.85026L151.898 5.5553H153.866L151.326 9.22987L153.908 12.9324H151.94L150.377 10.6377L150.237 10.3983L150.125 10.6377L148.562 12.9324H146.595L149.176 9.27207L146.636 5.5553H148.59Z" fill="#0A0D14"/>
<path d="M82.7899 0.5C79.8731 0.5 77.5 2.87299 77.5 5.7899V10.2101C77.5 13.127 79.8731 15.5 82.7899 15.5H87.2101C90.127 15.5 92.5 13.127 92.5 10.2101V8.24829L90.1463 9.64573V10.2101C90.1463 11.8291 88.8291 13.1462 87.2101 13.1462H82.7899C81.1709 13.1462 79.8538 11.8291 79.8538 10.2101V5.7899C79.8538 4.17089 81.1709 2.85375 82.7899 2.85375H87.2101C88.2747 2.85375 89.2666 3.4466 89.7805 4.37512L84.9324 7.31367L83.5826 5.08687L83.0631 5.40173C83.0635 5.40232 83.0639 5.40281 83.0642 5.40341C83.219 5.6629 83.1279 6.00239 82.8609 6.16171C82.5956 6.31988 82.2567 6.24057 82.1004 5.98529L81.5698 6.30694L84.1395 10.5466L92.4923 5.48381L92.4844 5.38046C92.4326 4.70435 92.2533 4.05664 91.9543 3.45166L91.9577 3.44957L91.7992 3.15152L91.7965 3.15305C90.8523 1.51204 89.1112 0.5 87.2101 0.5H82.7899Z" fill="#375DFB"/>
</svg>
