<svg width="25" height="24" viewBox="0 0 25 24" fill="none" xmlns="http://www.w3.org/2000/svg">
<path d="M13.5079 16.5207L9.72884 14.4597C9.23546 14.9872 8.59483 15.3541 7.89021 15.5126C7.18559 15.6712 6.44956 15.6142 5.77777 15.349C5.10598 15.0837 4.52951 14.6226 4.12325 14.0254C3.717 13.4283 3.49976 12.7227 3.49976 12.0005C3.49976 11.2782 3.717 10.5727 4.12325 9.97554C4.52951 9.37838 5.10598 8.91722 5.77777 8.652C6.44956 8.38678 7.18559 8.32976 7.89021 8.48834C8.59483 8.64692 9.23546 9.01378 9.72884 9.54124L13.5088 7.48024C13.2942 6.6307 13.3968 5.73207 13.7974 4.95277C14.198 4.17347 14.869 3.56702 15.6847 3.24709C16.5005 2.92716 17.4049 2.91571 18.2284 3.2149C19.052 3.51408 19.7382 4.10336 20.1583 4.87227C20.5785 5.64118 20.7038 6.53694 20.5108 7.39163C20.3177 8.24632 19.8196 9.00127 19.1098 9.51497C18.3999 10.0287 17.5271 10.2658 16.6549 10.182C15.7827 10.0982 14.971 9.6992 14.3719 9.05974L10.5919 11.1207C10.737 11.698 10.737 12.3021 10.5919 12.8793L14.371 14.9403C14.9701 14.3009 15.7818 13.9018 16.654 13.818C17.5262 13.7342 18.399 13.9714 19.1089 14.4851C19.8187 14.9988 20.3168 15.7538 20.5099 16.6084C20.7029 17.4631 20.5776 18.3589 20.1574 19.1278C19.7373 19.8967 19.0511 20.486 18.2275 20.7852C17.404 21.0844 16.4996 21.0729 15.6838 20.753C14.8681 20.4331 14.1971 19.8266 13.7965 19.0473C13.3959 18.268 13.2933 17.3694 13.5079 16.5198V16.5207ZM7.09994 13.8C7.57733 13.8 8.03517 13.6104 8.37273 13.2728C8.7103 12.9353 8.89994 12.4774 8.89994 12C8.89994 11.5226 8.7103 11.0648 8.37273 10.7272C8.03517 10.3897 7.57733 10.2 7.09994 10.2C6.62255 10.2 6.16471 10.3897 5.82715 10.7272C5.48958 11.0648 5.29994 11.5226 5.29994 12C5.29994 12.4774 5.48958 12.9353 5.82715 13.2728C6.16471 13.6104 6.62255 13.8 7.09994 13.8ZM16.9999 8.40004C17.4773 8.40004 17.9352 8.21039 18.2727 7.87283C18.6103 7.53526 18.7999 7.07743 18.7999 6.60004C18.7999 6.12265 18.6103 5.66481 18.2727 5.32724C17.9352 4.98968 17.4773 4.80004 16.9999 4.80004C16.5226 4.80004 16.0647 4.98968 15.7271 5.32724C15.3896 5.66481 15.1999 6.12265 15.1999 6.60004C15.1999 7.07743 15.3896 7.53526 15.7271 7.87283C16.0647 8.21039 16.5226 8.40004 16.9999 8.40004ZM16.9999 19.2C17.4773 19.2 17.9352 19.0104 18.2727 18.6728C18.6103 18.3353 18.7999 17.8774 18.7999 17.4C18.7999 16.9226 18.6103 16.4648 18.2727 16.1272C17.9352 15.7897 17.4773 15.6 16.9999 15.6C16.5226 15.6 16.0647 15.7897 15.7271 16.1272C15.3896 16.4648 15.1999 16.9226 15.1999 17.4C15.1999 17.8774 15.3896 18.3353 15.7271 18.6728C16.0647 19.0104 16.5226 19.2 16.9999 19.2Z" fill="#0A0D14"/>
</svg>
