<svg width="18" height="18" viewBox="0 0 18 18" fill="none" xmlns="http://www.w3.org/2000/svg">
<path d="M10.0082 13.5207L6.22909 11.4597C5.7357 11.9871 5.09507 12.354 4.39045 12.5126C3.68583 12.6712 2.9498 12.6141 2.27801 12.3489C1.60623 12.0837 1.02975 11.6225 0.623496 11.0254C0.217243 10.4282 0 9.72267 0 9.00042C0 8.27818 0.217243 7.57263 0.623496 6.97548C1.02975 6.37832 1.60623 5.91716 2.27801 5.65194C2.9498 5.38672 3.68583 5.32969 4.39045 5.48828C5.09507 5.64686 5.7357 6.01372 6.22909 6.54118L10.0091 4.48018C9.79449 3.63064 9.89709 2.732 10.2977 1.95271C10.6982 1.17341 11.3693 0.566958 12.185 0.247027C13.0007 -0.0729047 13.9051 -0.08435 14.7287 0.214837C15.5522 0.514023 16.2384 1.1033 16.6586 1.87221C17.0787 2.64112 17.204 3.53687 17.011 4.39157C16.818 5.24626 16.3198 6.00121 15.61 6.5149C14.9002 7.0286 14.0273 7.26577 13.1551 7.18197C12.2829 7.09817 11.4712 6.69913 10.8722 6.05968L7.09219 8.12068C7.23727 8.6979 7.23727 9.30205 7.09219 9.87928L10.8713 11.9403C11.4703 11.3008 12.282 10.9018 13.1542 10.818C14.0264 10.7342 14.8993 10.9713 15.6091 11.485C16.3189 11.9987 16.8171 12.7537 17.0101 13.6084C17.2031 14.4631 17.0778 15.3588 16.6577 16.1277C16.2375 16.8967 15.5513 17.4859 14.7278 17.7851C13.9042 18.0843 12.9998 18.0729 12.1841 17.7529C11.3684 17.433 10.6973 16.8265 10.2968 16.0472C9.89618 15.2679 9.79358 14.3693 10.0082 13.5198V13.5207ZM3.60019 10.8C4.07758 10.8 4.53541 10.6103 4.87298 10.2728C5.21054 9.9352 5.40019 9.47736 5.40019 8.99998C5.40019 8.52258 5.21054 8.06475 4.87298 7.72718C4.53541 7.38962 4.07758 7.19998 3.60019 7.19998C3.1228 7.19998 2.66496 7.38962 2.32739 7.72718C1.98983 8.06475 1.80019 8.52258 1.80019 8.99998C1.80019 9.47736 1.98983 9.9352 2.32739 10.2728C2.66496 10.6103 3.1228 10.8 3.60019 10.8ZM13.5002 5.39998C13.9776 5.39998 14.4354 5.21033 14.773 4.87277C15.1105 4.5352 15.3002 4.07737 15.3002 3.59998C15.3002 3.12259 15.1105 2.66475 14.773 2.32718C14.4354 1.98962 13.9776 1.79998 13.5002 1.79998C13.0228 1.79998 12.565 1.98962 12.2274 2.32718C11.8898 2.66475 11.7002 3.12259 11.7002 3.59998C11.7002 4.07737 11.8898 4.5352 12.2274 4.87277C12.565 5.21033 13.0228 5.39998 13.5002 5.39998ZM13.5002 16.2C13.9776 16.2 14.4354 16.0103 14.773 15.6728C15.1105 15.3352 15.3002 14.8774 15.3002 14.4C15.3002 13.9226 15.1105 13.4647 14.773 13.1272C14.4354 12.7896 13.9776 12.6 13.5002 12.6C13.0228 12.6 12.565 12.7896 12.2274 13.1272C11.8898 13.4647 11.7002 13.9226 11.7002 14.4C11.7002 14.8774 11.8898 15.3352 12.2274 15.6728C12.565 16.0103 13.0228 16.2 13.5002 16.2Z" fill="#0A0D14"/>
</svg>
