<svg width="20" height="20" viewBox="0 0 20 20" fill="none" xmlns="http://www.w3.org/2000/svg">
<g clip-path="url(#clip0_1493_2871)">
<path d="M9.93203 18.7912C14.9104 18.7912 18.9461 14.7555 18.9461 9.77712C18.9461 4.79879 14.9104 0.763062 9.93203 0.763062C4.9537 0.763062 0.917969 4.79879 0.917969 9.77712C0.917969 14.7555 4.9537 18.7912 9.93203 18.7912Z" fill="#44BFD3"/>
<path d="M9.93174 15.7864C13.2506 15.7864 15.9411 13.096 15.9411 9.77707C15.9411 6.45819 13.2506 3.7677 9.93174 3.7677C6.61285 3.7677 3.92236 6.45819 3.92236 9.77707C3.92236 13.096 6.61285 15.7864 9.93174 15.7864Z" fill="#D5F9FE" stroke="#104E58"/>
<path d="M12.4556 10.4983H7.40773C7.05919 10.4983 6.80679 10.8108 6.91496 11.1233C7.31158 12.253 8.0928 13.7434 9.93167 13.7434C11.7705 13.7434 12.5518 12.253 12.9484 11.1233C13.0565 10.8108 12.8041 10.4983 12.4556 10.4983Z" fill="#2199AC"/>
<path d="M9.93174 11.9404C8.98226 11.9404 7.52799 12.5414 8.12892 13.1423C8.72986 13.7432 9.30676 13.7312 9.93174 13.7432C10.4726 13.7553 11.1336 13.7432 11.7345 13.1423C12.3355 12.5414 10.8452 11.9404 9.93174 11.9404Z" fill="#D5F9FE"/>
<path d="M12.4797 10.1377H7.38376C6.81888 10.1377 6.38621 10.7026 6.59053 11.2554C6.77081 11.7362 7.04724 12.4092 7.56404 12.9741C8.09287 13.551 8.86207 13.9837 9.93174 13.9837C11.0014 13.9837 11.7586 13.551 12.2994 12.9741C12.8162 12.4213 13.0927 11.7482 13.2729 11.2554C13.4773 10.6906 13.0566 10.1377 12.4797 10.1377ZM9.93174 13.3828C8.16498 13.3828 7.49193 11.9886 7.15541 11.0511C7.09531 10.8949 7.2155 10.7386 7.38376 10.7386H12.4797C12.648 10.7386 12.7561 10.8949 12.7081 11.0511C12.3715 11.9766 11.6985 13.3828 9.93174 13.3828Z" fill="#104E58"/>
<path d="M6.17007 8.13051L6.08594 8.25069L6.47054 8.69539L6.6388 8.59924C7.32387 8.21464 8.12912 8.09445 8.89832 8.26271L9.1387 7.73389C8.20124 7.0368 6.87917 7.21708 6.17007 8.14252V8.13051Z" fill="#104E58"/>
<path d="M13.766 8.43103L14.0064 8.25075L13.9222 8.13056C13.2131 7.20512 11.8911 7.02484 10.9536 7.72192L11.194 8.25075C11.9632 8.09451 12.7684 8.21469 13.4535 8.58727L13.6218 8.68342L14.0064 8.23873L13.766 8.41901V8.43103Z" fill="#104E58"/>
</g>
<defs>
<clipPath id="clip0_1493_2871">
<rect width="19.23" height="19.23" fill="white" transform="translate(0.316895 0.162109)"/>
</clipPath>
</defs>
</svg>
