<svg width="21" height="18" viewBox="0 0 21 18" fill="none" xmlns="http://www.w3.org/2000/svg">
<path d="M9.0308 17.1866C11.2622 17.1866 13.4023 16.3006 14.9801 14.7235C16.558 13.1464 17.4444 11.0074 17.4444 8.77707C17.4444 6.54673 16.558 4.40773 14.9801 2.83064C13.4023 1.25355 11.2622 0.367554 9.0308 0.367554C6.79937 0.367554 4.65934 1.25355 3.08148 2.83064C1.50362 4.40773 0.617188 6.54673 0.617188 8.77707C0.617188 11.0074 1.50362 13.1464 3.08148 14.7235C4.65934 16.3006 6.79937 17.1866 9.0308 17.1866Z" fill="#D8D8D8"/>
<path d="M9.0308 17.1866C11.2622 17.1866 13.4023 16.3006 14.9801 14.7235C16.558 13.1464 17.4444 11.0074 17.4444 8.77707C17.4444 6.54673 16.558 4.40773 14.9801 2.83064C13.4023 1.25355 11.2622 0.367554 9.0308 0.367554C6.79937 0.367554 4.65934 1.25355 3.08148 2.83064C1.50362 4.40773 0.617188 6.54673 0.617188 8.77707C0.617188 11.0074 1.50362 13.1464 3.08148 14.7235C4.65934 16.3006 6.79937 17.1866 9.0308 17.1866Z" fill="#BBA9D1"/>
<path d="M7.28251 11.9212H7.12265C7.09355 11.9252 7.06402 11.9252 7.03491 11.9212C6.76327 11.8202 5.37983 11.2928 4.45193 11.0334C4.39503 11.0172 4.34416 10.9847 4.30567 10.9398C4.26719 10.895 4.24281 10.8397 4.23558 10.7811C4.19863 10.571 4.24474 10.3548 4.36419 10.178C4.41017 10.1153 4.47049 10.0644 4.54011 10.0297C4.60974 9.99506 4.68665 9.97751 4.76444 9.97856C4.84377 9.97856 4.9243 9.99057 5.00002 10.0182C5.18392 10.0903 5.35579 10.1912 5.50724 10.3185L5.57575 10.3666L6.00364 10.6669C6.1635 10.7775 6.30413 10.8736 6.40269 10.9493L7.40271 11.3493C7.53853 11.4094 8.10224 11.6653 8.07099 11.8058C8.03854 11.9452 7.43396 11.9332 7.29934 11.9368L7.28251 11.9212Z" fill="#FEF2FF"/>
<path d="M18.013 16.0693C16.5794 16.0422 15.1497 15.9101 13.7353 15.6741H13.6548C12.5856 15.5361 11.5261 15.3306 10.4829 15.059C9.55976 14.7995 8.64869 14.4607 7.76646 14.1363L7.37463 13.9946C6.65951 13.735 5.9479 13.4658 5.23997 13.1872L5.008 13.0959C4.63693 12.9599 4.27482 12.8006 3.92384 12.619C3.43946 12.3547 3.29162 12.0159 3.50316 11.6147V11.5822C3.57023 11.4582 3.67231 11.3567 3.7967 11.2902C3.92109 11.2238 4.06228 11.1954 4.20269 11.2086H4.25678C4.32769 11.2038 4.39741 11.2038 4.46832 11.2086C5.23636 11.2867 7.45876 12.076 7.89747 12.2334L9.33139 12.2814H9.36505L12.6091 12.3823C12.3567 12.1697 11.7197 11.7913 10.1667 11.4176C9.87106 11.3456 9.60183 11.2675 9.53813 11.0668C9.49106 10.9126 9.49295 10.7475 9.54353 10.5944C9.5941 10.4412 9.69089 10.3074 9.82058 10.2115C10.0249 10.0986 10.2629 10.0469 10.4997 10.0649C10.9305 10.065 11.3582 10.1369 11.7653 10.2776C12.1031 10.3857 12.4528 10.4578 12.8074 10.4938C13.3868 10.5731 13.9601 10.692 14.5202 10.8542C16.3291 11.3071 16.6789 12.1541 16.9073 12.6671C16.8351 12.458 16.9073 12.6118 16.9409 12.5325L16.9914 12.4652H17.114C17.166 12.4692 17.2182 12.4692 17.2702 12.4652C17.5827 12.4652 18.1717 12.4376 18.1813 12.4376C18.3292 12.4376 19.0251 12.2766 19.0251 12.4064C19.0887 13.6405 18.81 14.8681 18.2198 15.954C18.2015 15.9849 18.1765 16.0113 18.1465 16.0311C18.1165 16.0509 18.0823 16.0635 18.0467 16.0681H18.013V16.0693Z" fill="#EAE2F3"/>
<path d="M15.2861 11.1678C15.303 11.1776 15.3222 11.1827 15.3417 11.1827C15.3612 11.1827 15.3804 11.1776 15.3973 11.1678H15.2861Z" fill="#D67676"/>
<path fill-rule="evenodd" clip-rule="evenodd" d="M6.79828 3.45986C6.47804 3.13126 6.04033 2.94325 5.58142 2.93716C5.12251 2.93108 4.67997 3.10743 4.35112 3.42742L4.32347 3.45986C3.99493 3.79644 3.81104 4.24805 3.81104 4.71828C3.81104 5.18852 3.99493 5.64012 4.32347 5.97671L6.98819 8.67856L9.65891 5.9731C9.98722 5.63713 10.171 5.18612 10.171 4.71648C10.171 4.24684 9.98722 3.79583 9.65891 3.45986C9.49897 3.29406 9.30731 3.16209 9.09532 3.07181C8.88334 2.98153 8.65535 2.93478 8.42493 2.93433C8.1945 2.93388 7.96634 2.97975 7.754 3.0692C7.54166 3.15866 7.34949 3.28987 7.18891 3.45505L6.99299 3.65568L6.79708 3.45986H6.79828Z" fill="#ECAA96"/>
<path d="M19.7557 12.6791C19.8951 12.7752 19.9011 13.7639 19.5994 14.6337C19.2989 15.5035 18.3013 16.5235 18.1403 16.6616C17.9804 16.7998 12.3072 16.0345 10.9767 15.8255C9.64612 15.6164 3.42846 12.7164 3.17965 12.5842C2.92965 12.4521 2.90681 11.5054 3.62077 11.3096C4.33352 11.1125 7.04631 12.2779 8.19297 12.3704C9.33962 12.4641 11.2423 12.5842 12.5993 12.5842C13.9563 12.5842 11.032 11.7637 10.5608 11.5991C10.0884 11.4309 9.31678 11.2219 9.25909 10.8278C9.2026 10.4338 9.78434 10.0313 10.1714 9.9292C10.5584 9.82709 11.1041 10.0325 12.5993 10.3557C14.0945 10.6789 14.3397 10.4938 15.5417 10.9576C16.7436 11.4213 17.3109 12.1205 17.4443 12.3704C17.5765 12.6215 19.6163 12.5842 19.7557 12.6791V12.6791Z" stroke="#493D57" stroke-width="0.769043"/>
<path d="M4.31086 11.2903C4.03802 10.5527 4.44548 10.0842 4.93107 9.98804C5.41545 9.89313 6.34696 10.489 6.9948 11.0897C7.51645 11.5714 7.94073 11.8369 9.2773 12.4352" stroke="#493D57" stroke-width="0.769043"/>
<path d="M6.89794 3.21484C6.54032 2.86888 6.06113 2.67706 5.56345 2.68065C5.06578 2.68425 4.5894 2.88297 4.23683 3.23406C3.88408 3.58544 3.68322 4.06105 3.67738 4.55879C3.67153 5.05653 3.86117 5.53672 4.20558 5.89627L7.10828 8.77713L10.0122 5.89267C10.275 5.62656 10.4533 5.2888 10.5248 4.92176C10.5963 4.55472 10.5577 4.17476 10.4139 3.82956C10.2701 3.48436 10.0275 3.1893 9.71653 2.98141C9.40557 2.77351 9.0401 2.66205 8.666 2.66101C8.16358 2.66341 7.68281 2.86524 7.32944 3.22325L7.10828 3.43108L6.89794 3.21484V3.21484Z" stroke="#77280C" stroke-width="0.769043" stroke-linecap="round" stroke-linejoin="round"/>
</svg>
