<svg width="11" height="9" viewBox="0 0 11 9" fill="none" xmlns="http://www.w3.org/2000/svg">
<path d="M5.49985 0.112488C8.12845 0.112488 10.3154 2.00399 10.7741 4.49999C10.3159 6.99599 8.12845 8.88749 5.49985 8.88749C2.87125 8.88749 0.684323 6.99599 0.225586 4.49999C0.683836 2.00399 2.87125 0.112488 5.49985 0.112488ZM5.49985 7.91249C6.49409 7.91227 7.45881 7.57456 8.23612 6.95463C9.01342 6.3347 9.55726 5.46927 9.77864 4.49999C9.55645 3.53147 9.01226 2.66699 8.23503 2.04788C7.4578 1.42876 6.49352 1.09165 5.49985 1.09165C4.50618 1.09165 3.5419 1.42876 2.76467 2.04788C1.98744 2.66699 1.44325 3.53147 1.22106 4.49999C1.44243 5.46927 1.98628 6.3347 2.76358 6.95463C3.54089 7.57456 4.50561 7.91227 5.49985 7.91249ZM5.49985 6.69374C4.91803 6.69374 4.36004 6.46261 3.94863 6.0512C3.53723 5.6398 3.3061 5.08181 3.3061 4.49999C3.3061 3.91817 3.53723 3.36018 3.94863 2.94877C4.36004 2.53736 4.91803 2.30624 5.49985 2.30624C6.08167 2.30624 6.63966 2.53736 7.05106 2.94877C7.46247 3.36018 7.6936 3.91817 7.6936 4.49999C7.6936 5.08181 7.46247 5.6398 7.05106 6.0512C6.63966 6.46261 6.08167 6.69374 5.49985 6.69374ZM5.49985 5.71874C5.82308 5.71874 6.13308 5.59033 6.36164 5.36177C6.5902 5.13321 6.7186 4.82322 6.7186 4.49999C6.7186 4.17676 6.5902 3.86676 6.36164 3.6382C6.13308 3.40964 5.82308 3.28124 5.49985 3.28124C5.17662 3.28124 4.86662 3.40964 4.63806 3.6382C4.4095 3.86676 4.2811 4.17676 4.2811 4.49999C4.2811 4.82322 4.4095 5.13321 4.63806 5.36177C4.86662 5.59033 5.17662 5.71874 5.49985 5.71874Z" fill="#868C98"/>
</svg>
