<svg width="16" height="16" viewBox="0 0 16 16" fill="none" xmlns="http://www.w3.org/2000/svg">
<path d="M1.72927 13.4371L4.64171 9.51916L4.64173 9.51913C4.72253 9.41051 4.85043 9.36021 4.972 9.36018C5.09356 9.36016 5.22146 9.41039 5.30221 9.51915L1.72927 13.4371ZM1.72927 13.4371C1.72518 13.4031 1.72305 13.369 1.72305 13.3347V2.66511C1.72305 2.14573 2.14573 1.72305 2.66511 1.72305H13.3349C13.8543 1.72305 14.2769 2.14573 14.2769 2.66511V13.3349C14.2769 13.3916 14.2719 13.4477 14.262 13.5027L10.0073 8.22014L10.0072 8.22003C9.92616 8.11965 9.80383 8.0729 9.68686 8.07288C9.56988 8.07285 9.4475 8.11956 9.36641 8.22007L9.36635 8.22014L6.75097 11.4675L5.30227 9.51922L1.72927 13.4371ZM1.34264 14.5045L1.34266 14.5045C1.67712 14.8831 2.15911 15.1 2.66511 15.1H13.3349C13.8287 15.1 14.3035 14.8913 14.6389 14.5264L14.6392 14.526C14.9364 14.1995 15.1 13.7763 15.1 13.3347V2.66511C15.1 1.69165 14.3082 0.9 13.3349 0.9H2.66511C1.69165 0.9 0.9 1.69182 0.9 2.66511V13.3349C0.9 13.7658 1.0572 14.1813 1.34264 14.5045ZM2.21596 14.1621L4.97213 10.4547L6.2178 12.1298L4.48843 14.2771H2.66526C2.50665 14.2771 2.35256 14.2364 2.21596 14.1621ZM9.68707 9.13419L13.7504 14.1792C13.6218 14.2425 13.4799 14.2769 13.335 14.2769H5.54523L9.68707 9.13419Z" fill="#0A0D14" stroke="#0A0D14" stroke-width="0.2"/>
<path d="M5.77474 6.05689L5.28861 7.55284C5.24686 7.68119 5.29266 7.82184 5.40185 7.90112C5.45652 7.94084 5.52069 7.96063 5.58502 7.96063C5.64935 7.96063 5.71353 7.94084 5.7682 7.90112L7.04063 6.97636L8.31322 7.90112C8.42241 7.98056 8.57023 7.98056 8.67957 7.90112C8.78892 7.82168 8.8344 7.68119 8.79281 7.55284L8.30668 6.05689L9.57926 5.13243C9.68845 5.05299 9.73409 4.91249 9.6925 4.78415C9.65091 4.6558 9.53113 4.56888 9.39624 4.56888H7.82334L7.33721 3.07293C7.29546 2.94458 7.17583 2.85767 7.04094 2.85767C6.90605 2.85767 6.78643 2.94458 6.74468 3.07293L6.2587 4.56888H4.6858C4.55076 4.56888 4.43129 4.6558 4.38954 4.78415C4.3478 4.91249 4.39359 5.05315 4.50278 5.13243L5.77521 6.05689H5.77474ZM6.48456 5.19193C6.6196 5.19193 6.73907 5.10502 6.78082 4.97667L7.04048 4.17729L7.30013 4.97667C7.34188 5.10502 7.4615 5.19193 7.5964 5.19193H8.43674L7.75699 5.68586C7.6478 5.7653 7.602 5.9058 7.64375 6.03415L7.90356 6.83352L7.2235 6.33944C7.16883 6.29972 7.10465 6.27994 7.04032 6.27994C6.97599 6.27994 6.91182 6.29972 6.85714 6.33944L6.17724 6.83352L6.43705 6.03415C6.47879 5.9058 6.433 5.76514 6.32381 5.68586L5.6439 5.19193H6.48456Z" fill="#0A0D14"/>
<path d="M5.77474 6.05689L5.28861 7.55284C5.24686 7.68119 5.29266 7.82184 5.40185 7.90112C5.45652 7.94084 5.52069 7.96063 5.58502 7.96063C5.64935 7.96063 5.71353 7.94084 5.7682 7.90112L7.04063 6.97636L8.31322 7.90112C8.42241 7.98056 8.57023 7.98056 8.67957 7.90112C8.78892 7.82168 8.8344 7.68119 8.79281 7.55284L8.30668 6.05689L9.57926 5.13243C9.68845 5.05299 9.73409 4.91249 9.6925 4.78415C9.65091 4.6558 9.53113 4.56888 9.39624 4.56888H7.82334L7.33721 3.07293C7.29546 2.94458 7.17583 2.85767 7.04094 2.85767C6.90605 2.85767 6.78643 2.94458 6.74468 3.07293L6.2587 4.56888H4.6858C4.55076 4.56888 4.43129 4.6558 4.38954 4.78415C4.3478 4.91249 4.39359 5.05315 4.50278 5.13243L5.77521 6.05689H5.77474ZM6.48456 5.19193C6.6196 5.19193 6.73907 5.10502 6.78082 4.97667L7.04048 4.17729L7.30013 4.97667C7.34188 5.10502 7.4615 5.19193 7.5964 5.19193H8.43674L7.75699 5.68586C7.6478 5.7653 7.602 5.9058 7.64375 6.03415L7.90356 6.83352L7.2235 6.33944C7.16883 6.29972 7.10465 6.27994 7.04032 6.27994C6.97599 6.27994 6.91182 6.29972 6.85714 6.33944L6.17724 6.83352L6.43705 6.03415C6.47879 5.9058 6.433 5.76514 6.32381 5.68586L5.6439 5.19193H6.48456Z" stroke="#0A0D14"/>
</svg>
