<svg width="14" height="15" viewBox="0 0 14 15" fill="none" xmlns="http://www.w3.org/2000/svg">
<path d="M13.75 14C13.75 14.1989 13.671 14.3896 13.5303 14.5303C13.3897 14.6709 13.1989 14.75 13 14.75H1C0.801088 14.75 0.610322 14.6709 0.46967 14.5303C0.329018 14.3896 0.25 14.1989 0.25 14V6.11746C0.249921 6.00317 0.275963 5.89037 0.326137 5.78768C0.376311 5.685 0.44929 5.59513 0.5395 5.52496L6.5395 0.85846C6.67116 0.756044 6.8332 0.700439 7 0.700439C7.1668 0.700439 7.32884 0.756044 7.4605 0.85846L13.4605 5.52496C13.5507 5.59513 13.6237 5.685 13.6739 5.78768C13.724 5.89037 13.7501 6.00317 13.75 6.11746V14ZM12.25 13.25V6.48346L7 2.40046L1.75 6.48346V13.25H12.25ZM3.25 10.25H10.75V11.75H3.25V10.25Z" fill="#0A0D14"/>
</svg>
