<svg width="22" height="21" viewBox="0 0 22 21" fill="none" xmlns="http://www.w3.org/2000/svg">
<path d="M14.5 9.5C14.5 8.30653 14.0259 7.16193 13.182 6.31802C12.3381 5.47411 11.1935 5 10 5C8.80653 5 7.66193 5.47411 6.81802 6.31802C5.97411 7.16193 5.5 8.30653 5.5 9.5V15.5H14.5V9.5ZM16 16.0002L16.3 16.4C16.3418 16.4557 16.3672 16.522 16.3735 16.5913C16.3797 16.6607 16.3666 16.7304 16.3354 16.7927C16.3043 16.855 16.2564 16.9074 16.1971 16.944C16.1379 16.9806 16.0696 17 16 17H4C3.93036 17 3.86209 16.9806 3.80285 16.944C3.74361 16.9074 3.69573 16.855 3.66459 16.7927C3.63345 16.7304 3.62026 16.6607 3.62652 16.5913C3.63277 16.522 3.65821 16.4557 3.7 16.4L4 16.0002V9.5C4 7.9087 4.63214 6.38258 5.75736 5.25736C6.88258 4.13214 8.4087 3.5 10 3.5C11.5913 3.5 13.1174 4.13214 14.2426 5.25736C15.3679 6.38258 16 7.9087 16 9.5V16.0002ZM8.125 17.75H11.875C11.875 18.2473 11.6775 18.7242 11.3258 19.0758C10.9742 19.4275 10.4973 19.625 10 19.625C9.50272 19.625 9.02581 19.4275 8.67417 19.0758C8.32254 18.7242 8.125 18.2473 8.125 17.75Z" fill="#0A0D14"/>
<g filter="url(#filter0_d_929_510)">
<path d="M18 5C18 6.10457 17.1046 7 16 7C14.8954 7 14 6.10457 14 5C14 3.89543 14.8954 3 16 3C17.1046 3 18 3.89543 18 5Z" fill="#DF1C41"/>
<path d="M16 8C17.6569 8 19 6.65685 19 5C19 3.34315 17.6569 2 16 2C14.3431 2 13 3.34315 13 5C13 6.65685 14.3431 8 16 8Z" stroke="white" stroke-width="2"/>
</g>
<defs>
<filter id="filter0_d_929_510" x="10" y="0" width="12" height="12" filterUnits="userSpaceOnUse" color-interpolation-filters="sRGB">
<feFlood flood-opacity="0" result="BackgroundImageFix"/>
<feColorMatrix in="SourceAlpha" type="matrix" values="0 0 0 0 0 0 0 0 0 0 0 0 0 0 0 0 0 0 127 0" result="hardAlpha"/>
<feOffset dy="1"/>
<feGaussianBlur stdDeviation="1"/>
<feComposite in2="hardAlpha" operator="out"/>
<feColorMatrix type="matrix" values="0 0 0 0 0.894118 0 0 0 0 0.898039 0 0 0 0 0.905882 0 0 0 0.24 0"/>
<feBlend mode="normal" in2="BackgroundImageFix" result="effect1_dropShadow_929_510"/>
<feBlend mode="normal" in="SourceGraphic" in2="effect1_dropShadow_929_510" result="shape"/>
</filter>
</defs>
</svg>
