<svg width="15" height="16" viewBox="0 0 15 16" fill="none" xmlns="http://www.w3.org/2000/svg">
<path d="M8.83991 11.7673L5.69066 10.0498C5.27951 10.4893 4.74565 10.795 4.15846 10.9272C3.57128 11.0593 2.95792 11.0118 2.3981 10.7908C1.83828 10.5698 1.35788 10.1855 1.01934 9.68786C0.680792 9.19023 0.499756 8.60228 0.499756 8.00041C0.499756 7.39853 0.680792 6.81058 1.01934 6.31295C1.35788 5.81532 1.83828 5.43102 2.3981 5.21C2.95792 4.98898 3.57128 4.94146 4.15846 5.07362C4.74565 5.20577 5.27951 5.51148 5.69066 5.95103L8.84066 4.23353C8.66183 3.52559 8.74733 2.77672 9.08113 2.12731C9.41494 1.47789 9.97414 0.972516 10.6539 0.705907C11.3337 0.439297 12.0873 0.429759 12.7736 0.679081C13.4599 0.928403 14.0318 1.41947 14.3819 2.06023C14.732 2.70099 14.8364 3.44745 14.6756 4.15969C14.5147 4.87193 14.0996 5.50106 13.5081 5.92914C12.9166 6.35722 12.1892 6.55486 11.4624 6.48503C10.7355 6.41519 10.0591 6.08266 9.55991 5.54978L6.40991 7.26728C6.53081 7.7483 6.53081 8.25176 6.40991 8.73278L9.55916 10.4503C10.0584 9.9174 10.7348 9.58487 11.4616 9.51503C12.1884 9.4452 12.9158 9.64284 13.5073 10.0709C14.0989 10.499 14.514 11.1281 14.6748 11.8404C14.8357 12.5526 14.7313 13.2991 14.3811 13.9398C14.031 14.5806 13.4592 15.0717 12.7729 15.321C12.0866 15.5703 11.3329 15.5608 10.6532 15.2942C9.97339 15.0275 9.41419 14.5222 9.08039 13.8728C8.74658 13.2233 8.66108 12.4745 8.83991 11.7665V11.7673ZM3.49991 9.50003C3.89774 9.50003 4.27927 9.34199 4.56057 9.06069C4.84188 8.77939 4.99991 8.39785 4.99991 8.00003C4.99991 7.60221 4.84188 7.22067 4.56057 6.93937C4.27927 6.65807 3.89774 6.50003 3.49991 6.50003C3.10209 6.50003 2.72055 6.65807 2.43925 6.93937C2.15795 7.22067 1.99991 7.60221 1.99991 8.00003C1.99991 8.39785 2.15795 8.77939 2.43925 9.06069C2.72055 9.34199 3.10209 9.50003 3.49991 9.50003ZM11.7499 5.00003C12.1477 5.00003 12.5293 4.842 12.8106 4.56069C13.0919 4.27939 13.2499 3.89786 13.2499 3.50003C13.2499 3.10221 13.0919 2.72067 12.8106 2.43937C12.5293 2.15807 12.1477 2.00003 11.7499 2.00003C11.3521 2.00003 10.9706 2.15807 10.6893 2.43937C10.4079 2.72067 10.2499 3.10221 10.2499 3.50003C10.2499 3.89786 10.4079 4.27939 10.6893 4.56069C10.9706 4.842 11.3521 5.00003 11.7499 5.00003ZM11.7499 14C12.1477 14 12.5293 13.842 12.8106 13.5607C13.0919 13.2794 13.2499 12.8979 13.2499 12.5C13.2499 12.1022 13.0919 11.7207 12.8106 11.4394C12.5293 11.1581 12.1477 11 11.7499 11C11.3521 11 10.9706 11.1581 10.6893 11.4394C10.4079 11.7207 10.2499 12.1022 10.2499 12.5C10.2499 12.8979 10.4079 13.2794 10.6893 13.5607C10.9706 13.842 11.3521 14 11.7499 14Z" fill="#0A0D14"/>
</svg>
