<svg width="24" height="24" viewBox="0 0 24 24" fill="none" xmlns="http://www.w3.org/2000/svg">
<rect width="24" height="24" rx="12" fill="#375DFB"/>
<path d="M12.6719 15.0138L10.1525 13.6398C9.82356 13.9915 9.39647 14.236 8.92672 14.3418C8.45698 14.4475 7.96629 14.4095 7.51843 14.2326C7.07057 14.0558 6.68626 13.7484 6.41542 13.3503C6.14458 12.9522 5.99976 12.4818 5.99976 12.0003C5.99976 11.5188 6.14458 11.0485 6.41542 10.6504C6.68626 10.2523 7.07057 9.94482 7.51843 9.768C7.96629 9.59119 8.45698 9.55317 8.92672 9.65889C9.39647 9.76461 9.82356 10.0092 10.1525 10.3608L12.6725 8.98682C12.5294 8.42047 12.5978 7.82138 12.8649 7.30185C13.1319 6.78231 13.5793 6.37801 14.1231 6.16473C14.6669 5.95144 15.2698 5.94381 15.8189 6.14327C16.3679 6.34272 16.8254 6.73557 17.1055 7.24818C17.3856 7.76079 17.4691 8.35796 17.3404 8.92775C17.2117 9.49755 16.8796 10.0008 16.4064 10.3433C15.9332 10.6858 15.3513 10.8439 14.7698 10.788C14.1884 10.7322 13.6472 10.4661 13.2479 10.0398L10.7279 11.4138C10.8246 11.7986 10.8246 12.2014 10.7279 12.5862L13.2473 13.9602C13.6466 13.5339 14.1878 13.2679 14.7692 13.212C15.3507 13.1562 15.9326 13.3143 16.4058 13.6567C16.879 13.9992 17.2111 14.5025 17.3398 15.0723C17.4685 15.6421 17.385 16.2393 17.1049 16.7519C16.8248 17.2645 16.3673 17.6573 15.8183 17.8568C15.2692 18.0562 14.6663 18.0486 14.1225 17.8353C13.5787 17.622 13.1313 17.2177 12.8643 16.6982C12.5972 16.1787 12.5288 15.5796 12.6719 15.0132V15.0138ZM8.39988 13.2C8.71814 13.2 9.02336 13.0736 9.24841 12.8486C9.47345 12.6235 9.59988 12.3183 9.59988 12C9.59988 11.6818 9.47345 11.3765 9.24841 11.1515C9.02336 10.9265 8.71814 10.8 8.39988 10.8C8.08162 10.8 7.77639 10.9265 7.55135 11.1515C7.32631 11.3765 7.19988 11.6818 7.19988 12C7.19988 12.3183 7.32631 12.6235 7.55135 12.8486C7.77639 13.0736 8.08162 13.2 8.39988 13.2ZM14.9999 9.60002C15.3181 9.60002 15.6234 9.4736 15.8484 9.24855C16.0735 9.02351 16.1999 8.71828 16.1999 8.40002C16.1999 8.08176 16.0735 7.77654 15.8484 7.5515C15.6234 7.32645 15.3181 7.20002 14.9999 7.20002C14.6816 7.20002 14.3764 7.32645 14.1514 7.5515C13.9263 7.77654 13.7999 8.08176 13.7999 8.40002C13.7999 8.71828 13.9263 9.02351 14.1514 9.24855C14.3764 9.4736 14.6816 9.60002 14.9999 9.60002ZM14.9999 16.8C15.3181 16.8 15.6234 16.6736 15.8484 16.4486C16.0735 16.2235 16.1999 15.9183 16.1999 15.6C16.1999 15.2818 16.0735 14.9765 15.8484 14.7515C15.6234 14.5265 15.3181 14.4 14.9999 14.4C14.6816 14.4 14.3764 14.5265 14.1514 14.7515C13.9263 14.9765 13.7999 15.2818 13.7999 15.6C13.7999 15.9183 13.9263 16.2235 14.1514 16.4486C14.3764 16.6736 14.6816 16.8 14.9999 16.8Z" fill="white"/>
</svg>
