<svg width="24" height="24" viewBox="0 0 24 24" fill="none" xmlns="http://www.w3.org/2000/svg">
<rect width="24" height="24" rx="12" fill="#375DFB"/>
<path d="M17.4001 16.8C17.4001 16.9591 17.3369 17.1118 17.2244 17.2243C17.1118 17.3368 16.9592 17.4 16.8001 17.4H7.2001C7.04097 17.4 6.88836 17.3368 6.77583 17.2243C6.66331 17.1118 6.6001 16.9591 6.6001 16.8V10.494C6.60003 10.4026 6.62087 10.3123 6.66101 10.2302C6.70115 10.148 6.75953 10.0762 6.8317 10.02L11.6317 6.28682C11.737 6.20488 11.8667 6.1604 12.0001 6.1604C12.1335 6.1604 12.2632 6.20488 12.3685 6.28682L17.1685 10.02C17.2407 10.0762 17.2991 10.148 17.3392 10.2302C17.3793 10.3123 17.4002 10.4026 17.4001 10.494V16.8ZM16.2001 16.2V10.7868L12.0001 7.52042L7.8001 10.7868V16.2H16.2001ZM9.0001 13.8H15.0001V15H9.0001V13.8Z" fill="white"/>
</svg>
