<svg width="24" height="24" viewBox="0 0 24 24" fill="none" xmlns="http://www.w3.org/2000/svg">
<rect width="24" height="24" rx="12" fill="#375DFB"/>
<path d="M5.88821 17.9693L5.88823 17.9693C6.20041 18.3227 6.65025 18.5251 7.12248 18.5251H16.8777C17.3386 18.5251 17.7817 18.3304 18.0947 17.9898L18.0951 17.9893C18.3724 17.6846 18.5251 17.2896 18.5251 16.8776V7.12248C18.5251 6.21392 17.7861 5.4751 16.8777 5.4751H7.12248C6.21392 5.4751 5.4751 6.21408 5.4751 7.12248V16.8777C5.4751 17.2799 5.62182 17.6676 5.88821 17.9693ZM8.90272 13.369L6.29475 16.8773V7.12248C6.29475 6.66616 6.66616 6.29475 7.12248 6.29475H16.8777C17.334 6.29475 17.7055 6.66616 17.7055 7.12248V16.8777C17.7055 16.9016 17.7044 16.9255 17.7024 16.9491L13.8615 12.1803L13.8614 12.1802C13.7799 12.0793 13.6578 12.0332 13.5424 12.0332C13.4269 12.0331 13.3048 12.0792 13.2233 12.1802L13.2232 12.1803L10.8592 15.1155L9.56056 13.3691C9.56053 13.3691 9.56051 13.369 9.56049 13.369C9.47927 13.2596 9.35148 13.2101 9.23163 13.2101C9.11177 13.2101 8.984 13.2597 8.90274 13.369L8.90272 13.369ZM6.76239 17.6223L9.23176 14.3006L10.3282 15.7751L8.77345 17.7056H7.12263C6.99654 17.7056 6.87364 17.6763 6.76239 17.6223ZM9.82588 17.7055L13.5426 13.0906L17.2045 17.6373C17.1018 17.6816 16.9908 17.7055 16.8779 17.7055H9.82588Z" fill="white" stroke="white" stroke-width="0.25"/>
<path d="M9.98891 11.9499L9.9889 11.95C9.93015 11.9926 9.86113 12.0139 9.79204 12.0139C9.72295 12.0139 9.65393 11.9926 9.59518 11.95C9.59518 11.95 9.59518 11.95 9.59517 11.95L9.62456 11.9095C9.52473 11.837 9.48286 11.7084 9.52103 11.5911L9.98891 11.9499ZM9.98891 11.9499L11.1229 11.1258M9.98891 11.9499L11.1229 11.064M12.257 11.9499C12.3743 12.0353 12.5332 12.0353 12.6507 11.95C12.7683 11.8646 12.8171 11.7135 12.7724 11.5757L12.7724 11.5756L12.3392 10.2424L13.4733 9.41858L13.4733 9.41856C13.5906 9.3332 13.6397 9.18221 13.595 9.04428C13.5503 8.90627 13.4215 8.81288 13.2766 8.81288H11.8748L11.4416 7.4797L11.4416 7.47969C11.3967 7.34176 11.2682 7.24834 11.1232 7.24834C10.9782 7.24834 10.8496 7.34176 10.8047 7.47969L10.8047 7.4797L10.3716 8.81288H8.96989C8.82474 8.81288 8.69633 8.90631 8.65148 9.04423C8.6066 9.18221 8.65583 9.33338 8.77318 9.41859L9.90672 10.2424L9.47348 11.5756L12.2864 11.9095M12.257 11.9499L12.2864 11.9095M12.257 11.9499L12.257 11.9499L12.2864 11.9095M12.257 11.9499L11.1229 11.1258M12.2864 11.9095L11.1229 11.064M11.1229 11.1258L11.1523 11.1044L11.1229 11.064M11.1229 11.1258L11.0935 11.1044L11.1229 11.064M10.6186 10.218C10.6635 10.08 10.6142 9.92887 10.4969 9.84366C10.4969 9.84366 10.4969 9.84366 10.4969 9.84366L9.99977 9.48253H10.6145C10.7596 9.48253 10.888 9.38909 10.9329 9.25118L10.9329 9.25116L10.571 10.2025M10.6186 10.218L10.571 10.2025M10.6186 10.218L10.6186 10.218L10.571 10.2025M10.6186 10.218L10.4286 10.8025M10.571 10.2025L10.3598 10.8525L10.4286 10.8025M10.4286 10.8025L10.9257 10.4412L10.9257 10.4412C10.9845 10.3985 11.0535 10.3773 11.1226 10.3773C11.1917 10.3773 11.2607 10.3985 11.3195 10.4412L11.293 10.4776L11.3195 10.4412L11.8167 10.8025M10.4286 10.8025L10.4023 10.8834L11.8167 10.8025M11.8167 10.8025L11.843 10.8834L11.9118 10.9334L11.8855 10.8525L11.8167 10.8025ZM11.6267 10.218L11.6743 10.2025L11.6267 10.218C11.6267 10.218 11.6267 10.218 11.6267 10.218ZM12.2454 9.48253H12.3305L12.3993 9.43253H12.3143L12.2454 9.48253ZM11.0964 8.58578L11.1227 8.50486L11.149 8.58578L11.1227 8.6667L11.0964 8.58578Z" fill="white" stroke="white" stroke-width="0.1"/>
</svg>
