<svg width="24" height="24" viewBox="0 0 24 24" fill="none" xmlns="http://www.w3.org/2000/svg">
<rect width="24" height="24" rx="12" fill="#375DFB"/>
<path d="M15.5999 10.8C15.5999 9.84522 15.2206 8.92955 14.5455 8.25442C13.8704 7.57928 12.9547 7.2 11.9999 7.2C11.0451 7.2 10.1294 7.57928 9.45432 8.25442C8.77919 8.92955 8.3999 9.84522 8.3999 10.8V15.6H15.5999V10.8ZM16.7999 16.0002L17.0399 16.32C17.0733 16.3646 17.0937 16.4176 17.0987 16.4731C17.1037 16.5285 17.0931 16.5843 17.0682 16.6342C17.0433 16.684 17.005 16.7259 16.9576 16.7552C16.9102 16.7845 16.8556 16.8 16.7999 16.8H7.1999C7.14419 16.8 7.08958 16.7845 7.04218 16.7552C6.99479 16.7259 6.95649 16.684 6.93157 16.6342C6.90666 16.5843 6.89611 16.5285 6.90111 16.4731C6.90612 16.4176 6.92647 16.3646 6.9599 16.32L7.1999 16.0002V10.8C7.1999 9.52696 7.70562 8.30606 8.60579 7.40589C9.50596 6.50571 10.7269 6 11.9999 6C13.2729 6 14.4938 6.50571 15.394 7.40589C16.2942 8.30606 16.7999 9.52696 16.7999 10.8V16.0002ZM10.4999 17.4H13.4999C13.4999 17.7978 13.3419 18.1794 13.0606 18.4607C12.7793 18.742 12.3977 18.9 11.9999 18.9C11.6021 18.9 11.2205 18.742 10.9392 18.4607C10.6579 18.1794 10.4999 17.7978 10.4999 17.4Z" fill="white"/>
</svg>
