<svg width="204" height="100" viewBox="0 0 204 100" fill="none" xmlns="http://www.w3.org/2000/svg">
<path d="M3.11694 14.9878C3.64472 15.8651 4.23369 16.6815 4.87238 17.4177C4.97182 17.5321 5.08273 17.6504 5.20129 17.7801C4.47464 16.8874 3.7824 15.9529 3.11694 14.9878ZM20.4763 13.3207V0H7.95492C9.9972 6.56882 14.5025 16.7577 22.7787 16.7577C21.4363 16.239 20.4763 14.8962 20.4763 13.3207ZM22.7136 27.332C19.2448 27.332 16.1126 26.4126 13.2977 24.8448C14.1047 25.5353 14.7434 26.3935 15.1794 27.351C15.6192 28.3123 15.8525 29.369 15.8525 30.46V41.4309C18.434 40.584 24.2052 39.6762 29.766 40.3208V30.46C29.766 28.7853 30.3205 27.187 31.3073 25.9129C28.6951 26.8208 25.8344 27.332 22.7136 27.332ZM27.5287 0.0801076V13.3207C27.5287 14.3316 27.1347 15.251 26.4961 15.9109C26.4081 16.0063 26.3125 16.094 26.213 16.1741C32.8179 13.8929 37.0402 5.40536 39.0978 0.0801076H27.5287ZM61.3525 30.0632L66.898 25.9701C67.1925 25.7489 67.4831 25.52 67.7661 25.2835C68.0492 25.047 68.3245 24.8028 68.5922 24.5511C68.8561 24.2955 69.1162 24.0399 69.3686 23.7729C70.4968 22.5675 71.4606 21.2171 72.237 19.7599C73.6979 17.0171 74.4972 13.8968 74.4972 10.6696V10.5513C74.4972 7.10287 72.8948 4.04353 70.4203 2.1362C68.7452 0.843037 66.6685 0.0801076 64.4235 0.0801076H53.5467C51.7798 4.71109 49.3244 9.83798 45.9818 14.385L51.6803 10.1622C52.0896 9.76168 52.5906 9.46033 53.1489 9.30393C53.4511 9.21237 53.7647 9.1666 54.0936 9.1666C54.7629 9.1666 55.3824 9.35733 55.914 9.68921L55.9561 9.71972C56.8969 10.2995 57.5395 11.3181 57.658 12.5159C57.7957 13.9464 57.1455 15.2319 56.1091 15.9643L44.4979 24.841C44.4979 24.841 44.4903 24.8448 44.4788 24.8524C44.169 25.0699 43.8784 25.3102 43.5992 25.5734C42.3333 26.7445 41.4001 28.2971 40.9641 30.0556C40.7844 30.7804 40.6887 31.5433 40.6887 32.3253C40.6887 34.0343 41.1439 35.6326 41.9355 36.9983C42.318 37.6582 42.7807 38.2647 43.3085 38.7988H43.3123C43.3123 38.7988 43.32 38.8064 43.32 38.8102L47.1177 41.7475L56.1091 48.7092C56.373 48.8923 56.6101 49.1136 56.8166 49.3654C56.8893 49.4493 56.9543 49.5408 57.0193 49.6324C57.3062 50.052 57.5127 50.5403 57.6121 51.0705C57.6274 51.1468 57.6389 51.2193 57.6427 51.2994C57.6542 51.3833 57.6657 51.4749 57.6657 51.5664C57.6771 51.7228 57.6771 51.883 57.6657 52.0471C57.6312 52.5506 57.5012 53.0274 57.287 53.4547C57.2182 53.5996 57.1379 53.7369 57.0499 53.8705C56.9658 54.0002 56.8702 54.126 56.7669 54.2443C56.1856 54.9157 55.371 55.3658 54.4569 55.4535C54.3192 55.4688 54.1777 55.4726 54.0477 55.4688H54.04C53.1795 55.4497 52.3955 55.1178 51.7912 54.5762L49.5845 52.9282L49.5463 52.8977L48.158 51.864L44.0925 48.8351C40.7729 46.2106 36.8145 44.5055 32.5388 43.7159V64.6087H64.4235C64.4656 64.6087 64.5077 64.6087 64.5497 64.6049C64.8825 64.6011 65.2076 64.5782 65.5288 64.5438C65.7124 64.521 65.8921 64.4943 66.0719 64.4637C66.1599 64.4485 66.2478 64.4332 66.3358 64.4141C66.4046 64.4027 66.4696 64.3874 66.5347 64.3722C66.6456 64.3493 66.7565 64.3226 66.8636 64.2959C67.0357 64.2501 67.2078 64.2005 67.3799 64.1471C67.6361 64.0708 67.8847 63.9793 68.1295 63.8725C68.2098 63.8381 68.2939 63.8038 68.3742 63.7657C68.7796 63.594 69.1697 63.388 69.5445 63.1515C69.6937 63.0599 69.8428 62.9608 69.9882 62.8616C70.2559 62.6747 70.516 62.4763 70.7684 62.2627C70.8563 62.1902 70.9481 62.1101 71.0323 62.03C71.0399 62.0262 71.0437 62.0224 71.0476 62.0147C71.1279 61.9461 71.2044 61.8736 71.2809 61.7973C71.3612 61.7248 71.4377 61.6447 71.5141 61.5646C71.5677 61.5074 71.6212 61.4502 71.6748 61.3929C71.6977 61.3701 71.7169 61.351 71.736 61.3281C71.8086 61.2518 71.8775 61.1717 71.9463 61.0916C73.5335 59.2415 74.4972 56.8077 74.4972 54.1375C74.4972 51.1926 73.828 48.3354 72.6003 45.772C72.5621 45.688 72.5238 45.6079 72.4817 45.524C71.1814 42.8995 69.2806 40.5955 66.898 38.8369L61.3525 34.74C59.8074 33.5956 59.8074 31.2076 61.3525 30.0632ZM46.0775 36.0789C45.7753 35.789 45.5076 35.461 45.282 35.0986C45.2093 34.9803 45.1366 34.8544 45.0716 34.7286C45.0066 34.6027 44.9454 34.473 44.8919 34.3395C44.8383 34.2059 44.7886 34.0686 44.7427 33.9313C44.6318 33.5842 44.5553 33.218 44.5209 32.8441C44.4444 32.043 44.5477 31.2725 44.7962 30.5744C44.8766 30.3417 44.976 30.1166 45.0907 29.903C45.1252 29.8267 45.1634 29.7543 45.2055 29.6856C45.2896 29.5444 45.3737 29.4109 45.4694 29.2812C45.6568 29.018 45.8671 28.7777 46.1004 28.5565C46.2075 28.4535 46.3222 28.3543 46.4408 28.2627C46.4981 28.2169 46.5593 28.1712 46.6205 28.1292C46.7429 28.0415 46.8653 27.9576 46.9953 27.8851C47.1751 27.7783 47.3587 27.6867 47.5499 27.6066C47.6914 27.5456 47.8367 27.4922 47.9859 27.4464C48.135 27.3968 48.2918 27.3587 48.4448 27.3281C48.9076 27.2366 49.3933 27.2099 49.8943 27.2595C49.9631 27.2671 50.0282 27.2747 50.097 27.2824C50.162 27.29 50.2308 27.3014 50.2959 27.3167C50.4909 27.351 50.686 27.4006 50.8734 27.4655H50.8772C51.1908 27.5723 51.4929 27.7058 51.7721 27.866C51.8869 27.927 51.9978 27.9995 52.1087 28.0758C52.3228 28.2284 52.5255 28.3924 52.7129 28.5717H52.7168C52.7397 28.5946 52.7665 28.6175 52.7894 28.6442C52.8162 28.6671 52.8392 28.69 52.8621 28.7205H52.8659C52.9883 28.8464 53.103 28.9799 53.2101 29.1172C53.3172 29.2545 53.4205 29.3995 53.5123 29.5483C53.9253 30.2082 54.193 30.9749 54.2695 31.8027C54.2963 32.0736 54.3001 32.3444 54.2886 32.6076C54.2886 32.6839 54.281 32.7602 54.2695 32.8327V32.8556C54.2619 32.9395 54.2504 33.0196 54.2389 33.0997C54.2236 33.1951 54.2083 33.2904 54.1892 33.382C54.1701 33.4888 54.1433 33.5956 54.1127 33.6986C54.0477 33.9427 53.9674 34.1792 53.8679 34.4043C53.8373 34.4806 53.8029 34.5531 53.7647 34.6256C53.7456 34.6675 53.7264 34.7095 53.7035 34.7514C53.6308 34.8964 53.5467 35.0337 53.4587 35.1711C53.4128 35.2397 53.3669 35.3084 53.321 35.3732C53.2293 35.5029 53.1298 35.6288 53.0227 35.7471C52.8659 35.9264 52.6938 36.098 52.5141 36.2506C52.4644 36.2964 52.4108 36.3422 52.3573 36.3803C52.3343 36.3956 52.3152 36.4146 52.2961 36.4261C52.2425 36.4718 52.189 36.51 52.1355 36.5443C52.0169 36.6321 51.8907 36.7122 51.7606 36.7846C51.6803 36.8304 51.6038 36.8724 51.5235 36.9105C51.4509 36.9487 51.3782 36.983 51.3055 37.0135C51.2329 37.044 51.1602 37.0746 51.0875 37.1013C51.011 37.1318 50.9346 37.1585 50.8542 37.1852C50.8007 37.2043 50.7433 37.2233 50.6898 37.2386C50.6668 37.2462 50.6439 37.25 50.6209 37.2539C50.5445 37.2729 50.4641 37.292 50.3838 37.3111C50.3035 37.3263 50.2232 37.3416 50.1429 37.3568C50.0626 37.3721 49.9823 37.3835 49.8981 37.3874C49.573 37.4255 49.2403 37.4255 48.8999 37.3874H48.8961C47.8138 37.2767 46.8347 36.7999 46.0775 36.0751V36.0789Z" fill="#2E8ACA"/>
<path d="M32.5388 43.7121V64.6049H12.1963C11.8483 64.6049 11.5041 64.6583 11.1866 64.7575C11.1369 64.7728 11.0834 64.788 11.0337 64.8109C10.9839 64.83 10.9342 64.849 10.8845 64.8719C10.8692 64.8757 10.8539 64.8834 10.8348 64.891C10.8195 64.8986 10.8004 64.9063 10.7812 64.9177C10.7545 64.9292 10.7277 64.9406 10.7009 64.952C10.6933 64.9559 10.6895 64.9597 10.6818 64.9635C10.6512 64.9787 10.6168 64.994 10.5862 65.0093C10.5709 65.0169 10.5594 65.0245 10.5479 65.0321C10.395 65.1161 10.2535 65.2114 10.112 65.3182C10.0928 65.3335 10.0699 65.3488 10.0469 65.3678C10.0431 65.3717 10.0355 65.3755 10.0316 65.3793C10.024 65.3869 10.0163 65.3907 10.0087 65.4022C9.99722 65.4098 9.98957 65.4174 9.9781 65.4251C9.97045 65.4327 9.9628 65.4403 9.95515 65.4479C9.87484 65.5128 9.79835 65.5853 9.72568 65.6616C9.64919 65.7417 9.57653 65.8218 9.50386 65.9095C9.45032 65.9782 9.39677 66.0468 9.35088 66.1193C9.32028 66.1575 9.29351 66.1994 9.26674 66.2414C9.2132 66.3253 9.15966 66.413 9.11376 66.5046C9.10994 66.5046 9.10994 66.5084 9.10611 66.5084C9.10611 66.5084 9.09846 66.5237 9.09846 66.5275H9.09081V66.5351L9.08699 66.5428C9.08699 66.5466 9.08699 66.5504 9.07934 66.5542H9.07552C9.06404 66.5923 9.04875 66.6229 9.03345 66.6572C9.0258 66.6686 9.02197 66.6801 9.01815 66.6915C9.00285 66.7182 8.99138 66.7449 8.98373 66.7716C8.9799 66.7716 8.9799 66.7754 8.9799 66.7754C8.94548 66.8517 8.91489 66.9318 8.88812 67.012C8.74661 67.4087 8.67395 67.8321 8.67395 68.2708C8.67395 68.7781 8.77338 69.2588 8.94931 69.7013C8.9952 69.8081 9.04492 69.9149 9.09846 70.0179C9.15583 70.1247 9.2132 70.2239 9.27439 70.3193C9.33558 70.4184 9.4006 70.5138 9.47709 70.6053C9.55358 70.6969 9.62624 70.7808 9.70656 70.8609C9.72568 70.8838 9.7448 70.9029 9.76775 70.9258C9.78687 70.9449 9.80599 70.9677 9.82894 70.983C9.91308 71.0669 10.001 71.1432 10.0928 71.2081C10.1387 71.2462 10.1884 71.2805 10.2343 71.3111V71.3187C10.2611 71.5247 10.2917 71.7307 10.3261 71.9367C10.3567 72.116 10.3873 72.2952 10.4217 72.4745C10.4217 72.4783 10.4217 72.486 10.4217 72.4898C10.4217 72.4974 10.4217 72.505 10.4256 72.5127C10.4256 72.5203 10.4256 72.5317 10.4294 72.5394V72.5508C10.4523 72.6729 10.4753 72.7911 10.5021 72.9132C10.5097 72.9475 10.5174 72.9819 10.525 73.0162C10.5288 73.0505 10.5365 73.0811 10.5479 73.1154C10.5479 73.1306 10.5518 73.1459 10.5556 73.1612C10.5556 73.165 10.5594 73.1688 10.5594 73.1726C10.6015 73.3557 10.6436 73.5426 10.6895 73.7219C10.72 73.8516 10.7545 73.9813 10.7851 74.1072C10.7851 74.111 10.7889 74.1186 10.7889 74.1225C10.7965 74.153 10.8042 74.1835 10.8118 74.214C10.8118 74.2216 10.8157 74.2255 10.8195 74.2331C10.8233 74.2522 10.831 74.275 10.8386 74.2979C10.8921 74.4887 10.9457 74.6756 11.0031 74.8625C11.0604 75.0494 11.1178 75.2325 11.179 75.4156C11.2402 75.5987 11.3052 75.7818 11.3702 75.9611C11.4391 76.1404 11.5041 76.3197 11.5729 76.4952C11.7144 76.8499 11.8636 77.1932 12.0166 77.5327C12.028 77.5595 12.0395 77.5862 12.0548 77.6129C12.0701 77.6472 12.0854 77.6777 12.1007 77.712C12.1389 77.7921 12.1772 77.8723 12.2116 77.9524C12.2269 77.9791 12.2422 78.0096 12.2537 78.0363C12.4181 78.372 12.5864 78.6962 12.7623 79.0128C12.7929 79.0701 12.8235 79.1273 12.8579 79.1807C12.9153 79.2875 12.9727 79.3905 13.0339 79.4897C13.1142 79.627 13.1945 79.7643 13.2786 79.8978C13.2901 79.9169 13.3054 79.9398 13.3169 79.9589C13.401 80.0962 13.4852 80.2335 13.5731 80.3708C13.5846 80.3823 13.5922 80.3975 13.5999 80.409C13.5999 80.409 13.6075 80.4243 13.6114 80.4281C13.6152 80.4319 13.619 80.4395 13.6228 80.4433C13.6267 80.4471 13.6267 80.4548 13.6305 80.4586C13.7184 80.5921 13.8064 80.7256 13.8982 80.8553C13.9976 81.0003 14.1009 81.1452 14.2042 81.2902C14.208 81.2978 14.2118 81.3054 14.2195 81.3131C14.2883 81.4046 14.3533 81.4962 14.4222 81.5877C14.4528 81.6297 14.4833 81.6755 14.5178 81.7174L14.5369 81.7403C14.5407 81.7441 14.5407 81.7479 14.5445 81.7518C14.5484 81.7594 14.5522 81.7632 14.556 81.7708C14.5675 81.7823 14.5751 81.7975 14.5866 81.809C14.5904 81.8128 14.5904 81.8166 14.5943 81.8204C14.5981 81.8242 14.5981 81.828 14.6019 81.8319C14.6096 81.8433 14.621 81.8547 14.6287 81.8662C14.6975 81.9577 14.7664 82.0455 14.839 82.137C15.057 82.4117 15.275 82.6787 15.5007 82.9419C15.9558 83.4722 16.4224 83.9719 16.9004 84.4487C17.019 84.5708 17.1414 84.689 17.2638 84.8035C17.2638 84.8035 17.2867 84.8302 17.2982 84.8378C17.3938 84.9332 17.4932 85.0285 17.5927 85.1201C17.5965 85.1201 17.6003 85.1277 17.6041 85.1315C17.608 85.1353 17.6118 85.1392 17.6156 85.1392C17.6156 85.1392 17.6182 85.1417 17.6233 85.1468C17.6233 85.1468 17.6271 85.1506 17.6309 85.1506C17.7571 85.265 17.8795 85.3795 18.0019 85.4901C18.2505 85.7114 18.5029 85.9288 18.7553 86.1386C18.7706 86.1539 18.7859 86.1653 18.8012 86.1806C18.8356 86.2073 18.87 86.234 18.9045 86.2645C18.9121 86.2645 18.9198 86.2721 18.9274 86.2836L18.9351 86.2874C18.9389 86.2874 18.9427 86.295 18.9465 86.295C18.9618 86.3103 18.9771 86.3217 18.9924 86.3331C18.9924 86.3331 18.9924 86.3331 18.9962 86.337C19.1836 86.4972 19.371 86.6498 19.5623 86.7909L19.5737 86.8023C19.5737 86.8023 19.589 86.8176 19.6005 86.8252C19.6196 86.8405 19.6388 86.8557 19.6617 86.871C19.742 86.932 19.8223 86.9931 19.9027 87.0503C20.0289 87.1495 20.1589 87.2448 20.2889 87.3402C20.5452 87.5271 20.8052 87.7102 21.0615 87.8895C21.3177 88.0726 21.5778 88.2481 21.8378 88.4121C21.9641 88.496 22.0941 88.5762 22.2241 88.6601C22.2891 88.702 22.3541 88.744 22.4153 88.7822C22.4268 88.7898 22.4383 88.7974 22.4498 88.805C22.4612 88.8127 22.4727 88.8203 22.4842 88.8279C22.5263 88.8546 22.5645 88.8775 22.6066 88.9004C22.7022 88.9576 22.7978 89.0187 22.8934 89.0759C22.9278 89.0988 22.9622 89.1178 22.9928 89.1331C23.1917 89.2552 23.3868 89.3658 23.5818 89.4802C23.6239 89.5069 23.6621 89.5298 23.7042 89.5527C23.7195 89.5603 23.7386 89.5718 23.7539 89.5794C23.8725 89.6481 23.9872 89.7129 24.1058 89.7778C24.1134 89.7816 24.1211 89.7854 24.1287 89.793C24.2549 89.8617 24.3773 89.9265 24.5035 89.9952H24.5073C24.6335 90.0639 24.7559 90.1287 24.8783 90.1898C25.452 90.4911 26.0104 90.7658 26.5458 91.0175C26.584 91.0366 26.6223 91.0557 26.6644 91.0709C26.6911 91.0824 26.7217 91.0976 26.7485 91.1091C26.8097 91.1396 26.8709 91.1663 26.9321 91.193C26.9588 91.2044 26.9818 91.2159 27.0086 91.2273C27.2839 91.3532 27.5555 91.4715 27.8155 91.5859C27.9035 91.6202 27.9876 91.6584 28.0756 91.6927C28.0871 91.7004 28.1024 91.7042 28.1138 91.7118C28.1138 91.7118 28.1164 91.7131 28.1215 91.7156H28.1253C28.1253 91.7156 28.1406 91.7232 28.1483 91.7271C28.1674 91.7347 28.1903 91.7423 28.2094 91.7499C28.2592 91.769 28.3089 91.7919 28.3586 91.811C28.4695 91.8568 28.5804 91.9025 28.6913 91.9445C28.9055 92.0322 29.1197 92.1123 29.3224 92.1924C29.4256 92.2306 29.5251 92.2687 29.6207 92.3031C29.7507 92.3488 29.8807 92.3984 30.0031 92.4404H29.9993L29.9917 92.4442C29.7545 92.5091 29.5136 92.5701 29.2727 92.6235C29.0202 92.6807 28.7678 92.7379 28.5154 92.7837C28.1062 92.8638 27.697 92.9325 27.2839 92.9935C26.867 93.0546 26.454 93.1003 26.0333 93.1347C25.3717 93.1881 24.7024 93.2186 24.0255 93.2186H23.7654C23.6774 93.2224 23.5933 93.2186 23.5053 93.2148C23.3332 93.211 23.1611 93.2033 22.989 93.1957C22.8207 93.1881 22.6525 93.1804 22.4842 93.169C22.4804 93.1728 22.4727 93.1728 22.4689 93.169C22.3006 93.1576 22.1285 93.1461 21.9602 93.1308C21.7078 93.108 21.4554 93.0813 21.2068 93.0507C20.9544 93.0202 20.7058 92.9859 20.4572 92.9477C20.4381 92.9477 20.419 92.9439 20.3998 92.9401C19.589 92.8066 18.7897 92.6388 18.0095 92.429C17.8489 92.387 17.6883 92.3412 17.5276 92.2954C17.2102 92.2039 16.8928 92.1047 16.583 91.9979C16.4262 91.9445 16.2732 91.8911 16.1164 91.8339C15.841 91.7347 15.5657 91.6317 15.2941 91.5211C14.7549 91.2998 14.2233 91.0595 13.7032 90.8039H13.6993C13.4813 90.6933 13.2633 90.5827 13.0492 90.4644C12.9803 90.4301 12.9153 90.3957 12.8465 90.3576C12.6208 90.2317 12.3952 90.1058 12.1734 89.9723H12.1695C11.9209 89.8235 11.6723 89.671 11.4314 89.5146H11.4276C11.1828 89.3582 10.9419 89.1979 10.7048 89.0339C10.59 88.9538 10.4753 88.8737 10.3644 88.7898H10.3605C10.1999 88.6715 10.0393 88.5533 9.87866 88.4274C9.77157 88.3473 9.66449 88.2672 9.56123 88.1832C9.44649 88.0955 9.33176 88.0078 9.22085 87.9124C9.14053 87.8514 9.06404 87.7865 8.98755 87.7217C8.81545 87.5805 8.64717 87.4318 8.4789 87.2868C8.28767 87.1151 8.10027 86.9435 7.91287 86.7718C7.8861 86.7451 7.85933 86.7222 7.83256 86.6917C7.65663 86.5277 7.4807 86.356 7.31243 86.1844C7.1212 85.9936 6.9338 85.8029 6.75405 85.6045C6.62019 85.4634 6.49016 85.3223 6.36778 85.1773C6.28364 85.0858 6.1995 84.9904 6.11536 84.895C5.77498 84.4983 5.44607 84.0901 5.12864 83.6705C4.99096 83.4912 4.86093 83.3119 4.7309 83.1288C4.65823 83.0297 4.58556 82.9305 4.52055 82.8275C4.32932 82.5566 4.14957 82.282 3.97365 82.0035C3.88951 81.8738 3.80537 81.7441 3.72505 81.6106C3.52236 81.2864 3.33113 80.9507 3.14756 80.6112C3.07872 80.4891 3.0137 80.3632 2.94486 80.2373C2.86454 80.0886 2.78423 79.936 2.71156 79.7834C2.63507 79.6308 2.56241 79.482 2.48974 79.3295C2.48209 79.3295 2.47827 79.318 2.47827 79.3066C2.4056 79.154 2.33676 79.0052 2.26792 78.8526H2.2641C2.0767 78.4368 1.90077 78.0172 1.73632 77.59C1.57187 77.1665 1.41889 76.7355 1.27356 76.3006C1.20471 76.0984 1.14352 75.8963 1.08233 75.6941C1.07086 75.6559 1.05556 75.614 1.04791 75.5682C1.01349 75.4652 0.982894 75.3622 0.956123 75.2554C0.929351 75.1677 0.906404 75.0799 0.883457 74.9884C0.883457 74.9884 0.883457 74.9769 0.883457 74.9731C0.871984 74.935 0.86051 74.9006 0.852861 74.8625C0.803143 74.6756 0.757249 74.4887 0.711355 74.3017C0.653988 74.0767 0.60427 73.8478 0.558376 73.6189C0.523955 73.4663 0.493359 73.3137 0.466588 73.1612C0.435992 73.0048 0.409221 72.8522 0.382449 72.6996C0.355678 72.547 0.328906 72.3906 0.305959 72.2342C0.283012 72.0778 0.260065 71.9214 0.237118 71.7688C0.183576 71.3492 0.133857 70.9296 0.0994368 70.51C0.0650163 70.0866 0.0382449 69.6593 0.0229469 69.2321C0.00764898 68.9002 0 68.576 0 68.2441C0 67.9656 0 67.691 0.0114735 67.4163C0.0305959 66.8632 0.0650164 66.3177 0.114735 65.7798C0.168278 65.2381 0.233294 64.7041 0.317433 64.1739C0.566025 62.5831 0.959947 61.0458 1.48773 59.5734C1.75162 58.8333 2.0461 58.1162 2.37118 57.4143C2.58918 56.9451 2.81865 56.4835 3.06342 56.0334C3.28524 55.6252 3.51471 55.2247 3.75947 54.8318L3.84744 54.683V54.6792C4.54732 53.5539 5.33516 52.4896 6.1995 51.4978C6.49016 51.1659 6.78465 50.8417 7.09061 50.5289C7.19387 50.4182 7.30478 50.3076 7.41186 50.2008C7.74077 49.8727 8.0735 49.5599 8.41388 49.2548C8.42153 49.2471 8.433 49.2395 8.44065 49.2319C8.6204 49.0717 8.8078 48.9153 8.99138 48.7627C9.0105 48.7436 9.02962 48.7283 9.05257 48.7093C9.07169 48.6902 9.09081 48.6749 9.11376 48.6559C9.28969 48.5109 9.46944 48.3698 9.64919 48.2286C10.0125 47.9425 10.3873 47.6717 10.7659 47.4085C10.9533 47.2788 11.1446 47.1529 11.3358 47.027C11.5041 46.9164 11.6762 46.8096 11.8521 46.7066C12.1389 46.5311 12.4258 46.3633 12.7164 46.1992C12.9574 46.0657 13.2021 45.9322 13.4507 45.8063H13.4584C13.5731 45.7453 13.6879 45.6881 13.8026 45.6347C13.8408 45.6156 13.8791 45.5927 13.9211 45.5774C13.9594 45.5546 13.9976 45.5355 14.0397 45.5164C14.1353 45.4706 14.2309 45.4249 14.3265 45.3829C14.3763 45.36 14.4298 45.3371 14.4833 45.3142C14.4872 45.3142 14.4872 45.3104 14.4872 45.3104C14.6363 45.2418 14.7855 45.1769 14.9346 45.1121C15.0073 45.0815 15.0838 45.051 15.1603 45.0205C15.2941 44.9671 15.428 44.9137 15.5619 44.8603C15.6575 44.8221 15.7493 44.784 15.8449 44.7497C16.0055 44.6886 16.1661 44.6314 16.3268 44.5742C18.7438 43.7235 21.3292 43.2658 24.0216 43.2658C24.1823 43.2658 24.4844 43.262 24.8783 43.2581H25.4214C25.517 43.2581 25.6164 43.2581 25.7197 43.2581C26.1404 43.2543 26.607 43.2543 27.0697 43.2581H27.7696C27.9417 43.2581 28.11 43.2581 28.2745 43.2658C28.4427 43.2696 28.611 43.2734 28.7716 43.281H28.7793C28.9055 43.281 29.0241 43.2887 29.1388 43.2925H29.1464C29.3147 43.3001 29.4753 43.3115 29.6207 43.323C29.6704 43.3268 29.7125 43.3306 29.7584 43.3344C30.6954 43.4184 31.6209 43.5481 32.5311 43.7159L32.5388 43.7121Z" fill="#AC2489"/>
<path d="M61.3525 30.0632L66.898 25.9701C67.1925 25.7489 67.4831 25.52 67.7661 25.2835C68.0492 25.047 68.3245 24.8028 68.5922 24.5511C68.8561 24.2955 69.1162 24.0399 69.3686 23.7729C70.4968 22.5674 71.4606 21.2171 72.237 19.7599C73.6979 17.0171 74.4972 13.8967 74.4972 10.6696V10.5513C74.4972 7.10286 72.8948 4.04351 70.4203 2.13619C68.7452 0.843023 66.6685 0.0800934 64.4235 0.0800934H44.4941V15.4875L45.978 14.385H45.9818L51.6803 10.1622C52.0896 9.76167 52.5906 9.46031 53.1489 9.30391C53.4511 9.21236 53.7647 9.16658 54.0936 9.16658C54.7629 9.16658 55.3824 9.35732 55.914 9.68919L55.9561 9.71971C56.8969 10.2995 57.5395 11.318 57.658 12.5158C57.7957 13.9463 57.1455 15.2319 56.1091 15.9643L44.4979 24.841C44.4979 24.841 44.4903 24.8448 44.4788 24.8524C44.169 25.0699 43.8784 25.3102 43.5992 25.5734C42.3333 26.7445 41.4001 28.297 40.9641 30.0556C40.7844 30.7804 40.6887 31.5433 40.6887 32.3253C40.6887 34.0343 41.1439 35.6326 41.9355 36.9983C42.318 37.6582 42.7807 38.2647 43.3085 38.7988H43.3123C43.3123 38.7988 43.32 38.8064 43.32 38.8102L47.1177 41.7475L56.1091 48.7092C56.373 48.8923 56.6101 49.1136 56.8166 49.3653C56.8893 49.4493 56.9543 49.5408 57.0193 49.6324C57.3062 50.052 57.5127 50.5403 57.6121 51.0705C57.6274 51.1468 57.6389 51.2193 57.6427 51.2994C57.6542 51.3833 57.6657 51.4748 57.6657 51.5664C57.6771 51.7228 57.6771 51.883 57.6657 52.047C57.6312 52.5506 57.5012 53.0274 57.287 53.4546C57.2182 53.5996 57.1379 53.7369 57.0499 53.8704C56.9658 54.0001 56.8702 54.126 56.7669 54.2443C56.1856 54.9157 55.371 55.3658 54.4569 55.4535C54.3192 55.4688 54.1777 55.4726 54.0477 55.4688H54.04C53.1795 55.4497 52.3955 55.1178 51.7912 54.5762L49.5845 52.9282L49.5463 52.8977L48.158 51.8639L44.0925 48.8351C40.7729 46.2106 36.8145 44.5055 32.5388 43.7159V64.6087H64.4235C64.4656 64.6087 64.5077 64.6087 64.5497 64.6049C64.8825 64.601 65.2076 64.5782 65.5288 64.5438C65.7124 64.5209 65.8921 64.4942 66.0719 64.4637C66.1599 64.4485 66.2478 64.4332 66.3358 64.4141C66.4046 64.4027 66.4696 64.3874 66.5347 64.3722C66.6456 64.3493 66.7565 64.3226 66.8636 64.2959C67.0357 64.2501 67.2078 64.2005 67.3799 64.1471C67.6361 64.0708 67.8847 63.9793 68.1295 63.8724C68.2098 63.8381 68.2939 63.8038 68.3742 63.7656C68.7796 63.594 69.1697 63.388 69.5445 63.1515C69.6937 63.0599 69.8428 62.9607 69.9882 62.8616C70.2559 62.6746 70.516 62.4763 70.7684 62.2627C70.8563 62.1902 70.9481 62.1101 71.0323 62.03C71.0399 62.0262 71.0437 62.0223 71.0476 62.0147C71.1279 61.9461 71.2044 61.8736 71.2809 61.7973C71.3612 61.7248 71.4377 61.6447 71.5141 61.5646C71.5677 61.5074 71.6212 61.4501 71.6748 61.3929C71.6977 61.37 71.7168 61.351 71.736 61.3281C71.8086 61.2518 71.8775 61.1717 71.9463 61.0916C73.5335 59.2415 74.4972 56.8077 74.4972 54.1375C74.4972 51.1926 73.828 48.3354 72.6003 45.7719C72.5621 45.688 72.5238 45.6079 72.4817 45.524C71.1814 42.8995 69.2806 40.5955 66.898 38.8369L61.3525 34.74C59.8074 33.5956 59.8074 31.2076 61.3525 30.0632ZM46.0775 36.0789C45.7753 35.789 45.5076 35.461 45.282 35.0986C45.2093 34.9803 45.1366 34.8544 45.0716 34.7285C45.0066 34.6027 44.9454 34.473 44.8919 34.3394C44.8383 34.2059 44.7886 34.0686 44.7427 33.9313C44.6318 33.5841 44.5553 33.2179 44.5209 32.8441C44.4444 32.043 44.5477 31.2725 44.7963 30.5744C44.8766 30.3417 44.976 30.1166 45.0907 29.903C45.1252 29.8267 45.1634 29.7542 45.2055 29.6856C45.2896 29.5444 45.3737 29.4109 45.4694 29.2812C45.6568 29.018 45.8671 28.7777 46.1004 28.5564C46.2075 28.4534 46.3222 28.3543 46.4408 28.2627C46.4981 28.2169 46.5593 28.1712 46.6205 28.1292C46.7429 28.0415 46.8653 27.9575 46.9953 27.8851C47.1751 27.7783 47.3587 27.6867 47.5499 27.6066C47.6914 27.5456 47.8367 27.4922 47.9859 27.4464C48.135 27.3968 48.2918 27.3586 48.4448 27.3281C48.9076 27.2366 49.3933 27.2099 49.8943 27.2595C49.9631 27.2671 50.0282 27.2747 50.097 27.2823C50.162 27.29 50.2309 27.3014 50.2959 27.3167C50.4909 27.351 50.686 27.4006 50.8734 27.4655H50.8772C51.1908 27.5723 51.4929 27.7058 51.7721 27.866C51.8869 27.927 51.9978 27.9995 52.1087 28.0758C52.3228 28.2284 52.5255 28.3924 52.7129 28.5717L52.8621 28.7205C52.9845 28.8464 53.0992 28.9799 53.2101 29.1172C53.3172 29.2545 53.4205 29.3995 53.5123 29.5482C53.9253 30.2082 54.193 30.9749 54.2695 31.8027C54.2963 32.0735 54.3001 32.3444 54.2886 32.6076C54.2886 32.6839 54.281 32.7602 54.2695 32.8327V32.8555C54.2619 32.9395 54.2504 33.0196 54.2389 33.0997C54.2236 33.195 54.2083 33.2904 54.1892 33.382C54.1701 33.4888 54.1433 33.5956 54.1127 33.6986C54.0477 33.9427 53.9674 34.1792 53.8679 34.4043C53.8374 34.4806 53.8029 34.5531 53.7647 34.6255C53.7456 34.6675 53.7264 34.7095 53.7035 34.7514C53.6308 34.8964 53.5467 35.0337 53.4587 35.171C53.4128 35.2397 53.3669 35.3084 53.321 35.3732C53.2293 35.5029 53.1298 35.6288 53.0227 35.7471C52.8659 35.9263 52.6938 36.098 52.5141 36.2506C52.4644 36.2964 52.4108 36.3421 52.3573 36.3803C52.3343 36.3955 52.3152 36.4146 52.2961 36.4261C52.2425 36.4718 52.189 36.51 52.1355 36.5443C52.0169 36.632 51.8907 36.7122 51.7606 36.7846C51.6803 36.8304 51.6038 36.8724 51.5235 36.9105C51.4509 36.9487 51.3782 36.983 51.3055 37.0135C51.2329 37.044 51.1602 37.0746 51.0875 37.1012C51.011 37.1318 50.9346 37.1585 50.8542 37.1852C50.8007 37.2042 50.7433 37.2233 50.6898 37.2386C50.6668 37.2462 50.6439 37.25 50.621 37.2538C50.5445 37.2729 50.4641 37.292 50.3838 37.3111C50.3035 37.3263 50.2232 37.3416 50.1429 37.3568C50.0626 37.3721 49.9823 37.3835 49.8981 37.3873C49.573 37.4255 49.2403 37.4255 48.8999 37.3873H48.8961C47.8138 37.2767 46.8347 36.7999 46.0775 36.0751V36.0789Z" fill="#502E8B"/>
<path d="M61.3525 30.0633L66.898 25.9702C67.1925 25.7489 67.4832 25.52 67.7662 25.2835C68.0492 25.047 68.3246 24.8029 68.5923 24.5511C68.8562 24.2955 69.1162 24.04 69.3686 23.7729C70.4969 22.5675 71.4606 21.2171 72.237 19.7599C73.698 17.0172 74.4973 13.8968 74.4973 10.6696V10.5514C74.4973 7.10292 72.8948 4.04357 70.4204 2.13625C64.8749 3.47519 58.5836 5.67242 53.149 9.30397C53.4511 9.21242 53.7647 9.16664 54.0936 9.16664C54.7629 9.16664 55.3825 9.35737 55.9141 9.68925L55.9561 9.71977C56.897 10.2996 57.5395 11.3181 57.658 12.5159C57.7957 13.9464 57.1456 15.2319 56.1091 15.9643L44.498 24.841C44.498 24.841 44.4903 24.8448 44.4789 24.8525C44.4062 24.8944 44.1232 25.0585 43.7331 25.3446L43.5992 25.5734L40.9641 30.0557C40.7844 30.7804 40.6888 31.5434 40.6888 32.3254C40.6888 34.0343 41.1439 35.6327 41.9356 36.9983C42.318 37.6582 42.7808 38.2648 43.3086 38.7988H43.3124C43.3124 38.7988 43.32 38.8065 43.32 38.8103L47.1178 41.7476L56.1091 48.7093C56.373 48.8924 56.6101 49.1136 56.8167 49.3654C56.8893 49.4493 56.9543 49.5409 57.0194 49.6324C57.3062 50.052 57.5127 50.5403 57.6122 51.0705C57.6275 51.1468 57.6389 51.2193 57.6427 51.2994C57.6542 51.3833 57.6657 51.4749 57.6657 51.5664C57.6772 51.7228 57.6772 51.8831 57.6657 52.0471C57.6313 52.5506 57.5012 53.0275 57.2871 53.4547C57.2182 53.5997 57.1379 53.737 57.05 53.8705C56.9658 54.0002 56.8702 54.1261 56.7669 54.2443C56.1856 54.9157 55.371 55.3658 54.4569 55.4536C54.3193 55.4688 54.1778 55.4726 54.0477 55.4688C54.0477 55.4688 54.0477 55.465 54.0401 55.465C53.1796 55.4459 52.3955 55.1141 51.7913 54.5724L49.5845 52.9283C56.656 59.0432 66.3549 60.817 71.736 61.3281C71.8087 61.2518 71.8775 61.1717 71.9463 61.0916C73.5335 59.2415 74.4973 56.8078 74.4973 54.1375C74.4973 51.1926 73.828 48.3354 72.6003 45.772C72.5621 45.6881 72.5238 45.608 72.4818 45.524C71.1814 42.8996 69.2807 40.5955 66.898 38.837L61.3525 34.74C59.8074 33.5956 59.8074 31.2077 61.3525 30.0633ZM46.0775 36.079C45.7754 35.7891 45.5076 35.461 45.282 35.0986C45.2093 34.9804 45.1367 34.8545 45.0716 34.7286C45.0066 34.6027 44.9454 34.473 44.8919 34.3395C44.8384 34.206 44.7886 34.0687 44.7427 33.9313C44.6318 33.5842 44.5553 33.218 44.5209 32.8442C44.4444 32.0431 44.5477 31.2725 44.7963 30.5744C44.8766 30.3418 44.976 30.1167 45.0908 29.9031C45.1252 29.8268 45.1634 29.7543 45.2055 29.6856C45.2896 29.5445 45.3738 29.411 45.4694 29.2813C45.6568 29.0181 45.8671 28.7777 46.1004 28.5565C46.2075 28.4535 46.3223 28.3543 46.4408 28.2628C46.4982 28.217 46.5594 28.1712 46.6206 28.1293C46.743 28.0415 46.8653 27.9576 46.9954 27.8851C47.1751 27.7783 47.3587 27.6868 47.5499 27.6067C47.6914 27.5456 47.8368 27.4922 47.9859 27.4464C48.1351 27.3968 48.2919 27.3587 48.4448 27.3282C48.9076 27.2366 49.3933 27.2099 49.8943 27.2595C49.9632 27.2671 50.0282 27.2748 50.097 27.2824C50.162 27.29 50.2309 27.3015 50.2959 27.3167C50.4909 27.3511 50.686 27.4007 50.8734 27.4655H50.8772C51.1908 27.5723 51.493 27.7058 51.7722 27.866C51.8869 27.9271 51.9978 27.9996 52.1087 28.0759C52.3229 28.2284 52.5256 28.3925 52.713 28.5718L52.8621 28.7205C52.9845 28.8464 53.0993 28.9799 53.2102 29.1173C53.3173 29.2546 53.4205 29.3995 53.5123 29.5483C53.9253 30.2082 54.1931 30.975 54.2695 31.8028C54.2963 32.0736 54.3001 32.3444 54.2887 32.6077C54.2887 32.6839 54.281 32.7602 54.2695 32.8327V32.8556C54.2619 32.9395 54.2504 33.0196 54.239 33.0997C54.2237 33.1951 54.2084 33.2905 54.1892 33.382C54.1701 33.4888 54.1433 33.5956 54.1127 33.6986C54.0477 33.9428 53.9674 34.1793 53.868 34.4044C53.8374 34.4806 53.803 34.5531 53.7647 34.6256C53.7456 34.6676 53.7265 34.7095 53.7035 34.7515C53.6309 34.8964 53.5467 35.0338 53.4588 35.1711C53.4129 35.2398 53.367 35.3084 53.3211 35.3733C53.2293 35.503 53.1299 35.6289 53.0228 35.7471C52.866 35.9264 52.6939 36.0981 52.5141 36.2506C52.4644 36.2964 52.4108 36.3384 52.3573 36.3803C52.3344 36.3956 52.3152 36.4147 52.2961 36.4261C52.2426 36.4681 52.189 36.5062 52.1355 36.5444C52.0169 36.6321 51.8907 36.7122 51.7607 36.7847C51.6804 36.8305 51.6039 36.8724 51.5236 36.9106C51.4509 36.9487 51.3782 36.9831 51.3056 37.0136C51.2329 37.0441 51.1602 37.0746 51.0876 37.1013C51.0111 37.1318 50.9346 37.1585 50.8543 37.1852C50.7778 37.2119 50.7013 37.2348 50.621 37.2539C50.5445 37.273 50.4642 37.292 50.3839 37.3111C50.3036 37.3264 50.2232 37.3416 50.1429 37.3569C50.0626 37.3683 49.9823 37.3798 49.8982 37.3874C49.5731 37.4217 49.2365 37.4217 48.8961 37.3874C47.8138 37.2806 46.8347 36.8038 46.0775 36.079ZM52.866 28.7205H52.8621C52.9845 28.8464 53.0993 28.9799 53.2102 29.1173C53.1031 28.9799 52.9883 28.8464 52.866 28.7205ZM52.7168 28.5718H52.713L52.8621 28.7205C52.8392 28.69 52.8162 28.6671 52.7895 28.6442C52.7665 28.6175 52.7398 28.5946 52.7168 28.5718ZM52.713 28.5718C52.5256 28.3848 52.3229 28.2208 52.1087 28.0759C52.3229 28.2284 52.5256 28.3925 52.713 28.5718ZM51.7722 27.866C51.4891 27.6982 51.1908 27.5647 50.8772 27.4655C51.1908 27.5723 51.493 27.7058 51.7722 27.866ZM48.4448 27.3282C48.9076 27.2366 49.3933 27.2099 49.8943 27.2595C49.9632 27.2671 50.0282 27.2748 50.097 27.2824C50.0282 27.271 49.9632 27.2633 49.8943 27.2557C49.3972 27.2061 48.9076 27.2328 48.4448 27.3282Z" fill="#861D89"/>
<path d="M72.4818 45.524C71.1815 42.8996 69.2807 40.5955 66.898 38.837L61.3525 34.74C59.8074 33.5956 59.8074 31.2077 61.3525 30.0633L66.898 25.9702C67.1925 25.7489 67.4832 25.52 67.7662 25.2835C68.0492 25.047 68.3246 24.8029 68.5923 24.5511C68.8562 24.2955 69.1162 24.04 69.3686 23.7729C70.4969 22.5675 71.4606 21.2171 72.237 19.7599C65.3415 18.9855 52.625 18.6232 44.498 24.841C44.498 24.841 44.4903 24.8448 44.4789 24.8525C44.4062 24.8944 44.1232 25.0585 43.7331 25.3446L43.5992 25.5734C42.3333 26.7445 41.4001 28.2971 40.9641 30.0557C40.7844 30.7804 40.6888 31.5434 40.6888 32.3254C40.6888 34.0343 41.1439 35.6327 41.9356 36.9983C42.3218 37.5781 42.777 38.1809 43.3124 38.7988C43.3124 38.8026 43.32 38.8065 43.32 38.8103L47.1178 41.7475C54.304 45.6423 66.1675 45.9398 72.6003 45.772C72.5621 45.6881 72.5238 45.608 72.4818 45.524ZM54.2887 32.6077C54.2887 32.6839 54.281 32.7602 54.2695 32.8327V32.8556C54.2619 32.9395 54.2504 33.0196 54.239 33.0997C54.2237 33.1951 54.2084 33.2905 54.1892 33.382C54.1701 33.4888 54.1433 33.5956 54.1127 33.6986C54.0477 33.9428 53.9674 34.1793 53.868 34.4044C53.8374 34.4806 53.803 34.5531 53.7647 34.6256C53.7456 34.6676 53.7265 34.7095 53.7035 34.7515C53.6309 34.8964 53.5467 35.0338 53.4588 35.1711C53.4129 35.2398 53.367 35.3084 53.3211 35.3733C53.2293 35.503 53.1299 35.6289 53.0228 35.7471C52.866 35.9264 52.6939 36.0981 52.5141 36.2506C52.4644 36.2964 52.4108 36.3384 52.3573 36.3803C52.3344 36.3956 52.3152 36.4147 52.2961 36.4261C52.2426 36.4681 52.189 36.5062 52.1355 36.5444C52.0169 36.6321 51.8907 36.7122 51.7607 36.7847C51.6804 36.8305 51.6039 36.8724 51.5236 36.9106C51.4509 36.9487 51.3782 36.9831 51.3056 37.0136C51.2329 37.0441 51.1602 37.0746 51.0876 37.1013C51.0111 37.1318 50.9346 37.1585 50.8543 37.1852C50.7778 37.2119 50.7013 37.2348 50.621 37.2539C50.5445 37.273 50.4642 37.292 50.3839 37.3111C50.3036 37.3264 50.2232 37.3416 50.1429 37.3569C50.0626 37.3683 49.9823 37.3798 49.8982 37.3874C49.5731 37.4217 49.2365 37.4217 48.8961 37.3874C47.8138 37.2806 46.8347 36.8038 46.0775 36.079C45.7754 35.7891 45.5076 35.461 45.282 35.0986C45.2055 34.9804 45.1367 34.8545 45.0716 34.7286C45.0066 34.6027 44.9454 34.473 44.8919 34.3395C44.8345 34.206 44.7848 34.0687 44.7427 33.9313C44.6318 33.5842 44.5553 33.218 44.5209 32.8442C44.4444 32.0431 44.5477 31.2725 44.7963 30.5744C44.8766 30.3418 44.976 30.1167 45.0908 29.9031C45.1252 29.8268 45.1634 29.7543 45.2055 29.6856C45.2896 29.5445 45.3738 29.411 45.4694 29.2813C45.6568 29.0181 45.8671 28.7777 46.1004 28.5565C46.2075 28.4535 46.3223 28.3543 46.4408 28.2628C46.4982 28.217 46.5594 28.1712 46.6206 28.1293C46.743 28.0415 46.8653 27.9576 46.9954 27.8851C47.1751 27.7783 47.3587 27.6868 47.5499 27.6066C47.6914 27.5456 47.8368 27.4922 47.9859 27.4464C48.1351 27.3968 48.2919 27.3587 48.4448 27.3282C48.9076 27.2328 49.3972 27.2061 49.8943 27.2557C49.9632 27.2633 50.0282 27.271 50.097 27.2824C50.162 27.29 50.2309 27.3015 50.2959 27.3167C50.491 27.3511 50.686 27.4007 50.8734 27.4655H50.8772C51.1908 27.5647 51.4891 27.6982 51.7722 27.866C51.8869 27.9271 51.9978 27.9996 52.1087 28.0758C52.3229 28.2208 52.5256 28.3848 52.713 28.5718H52.7168C52.7398 28.5946 52.7665 28.6175 52.7895 28.6442C52.8162 28.6671 52.8392 28.69 52.8621 28.7205H52.866C52.9883 28.8464 53.1031 28.9799 53.2102 29.1172C53.3173 29.2546 53.4205 29.3995 53.5123 29.5483C53.9253 30.2082 54.1931 30.975 54.2695 31.8028C54.2963 32.0736 54.3001 32.3444 54.2887 32.6077Z" fill="#FF769A"/>
<path d="M53.5467 0.0801076C51.7798 4.71109 49.3245 9.83798 45.9819 14.385H45.978C42.2683 19.4394 37.4647 23.7767 31.3073 25.9129C28.6952 26.8208 25.8344 27.332 22.7137 27.332C19.2448 27.332 16.1126 26.4126 13.2978 24.8448C13.206 24.7685 13.1142 24.6922 13.0224 24.6197C13.0224 24.6197 7.43481 20.1528 5.20131 17.7801C4.47465 16.8874 3.78242 15.9529 3.11696 14.9878V14.9801C1.13205 11.6805 0 7.53393 0 3.52473C0 2.33075 0.0764898 1.15584 0.217996 0H7.95494C9.99722 6.56882 14.5025 16.7577 22.7787 16.7577C23.1611 16.9065 23.5742 16.9828 24.0025 16.9828C24.2932 16.9828 24.5762 16.9485 24.8477 16.8798C25.3526 16.7501 25.8077 16.5098 26.2016 16.1817C26.2016 16.1817 26.2041 16.1805 26.2092 16.1779H26.2131C32.818 13.8929 37.0402 5.40536 39.0978 0.0801076H53.5467Z" fill="#1658B7"/>
<path d="M13.0224 24.6198C13.1142 24.6923 13.206 24.7686 13.2977 24.8448C11.7679 23.9942 10.3299 22.9528 8.98372 21.7588C7.63367 20.5686 6.37541 19.2259 5.20129 17.7801C7.4348 20.1528 13.0224 24.6198 13.0224 24.6198Z" fill="#1658B7"/>
<path d="M22.7787 16.7577C14.5025 16.7577 9.99723 6.56882 7.95496 0L20.4763 0.0305172V13.3207C20.4763 14.8962 21.4363 16.239 22.7787 16.7577Z" fill="#1658B7"/>
<path d="M22.7787 16.7577C23.9834 16.7577 25.1231 16.5517 26.2016 16.1817C25.8077 16.5098 25.3526 16.7501 24.8477 16.8798C24.5762 16.9484 24.2932 16.9828 24.0025 16.9828C23.5742 16.9828 23.1611 16.9065 22.7787 16.7577Z" fill="#1658B7"/>
<path d="M39.0978 0.0800934C37.0402 5.40534 32.818 13.8929 26.2131 16.1741C26.3125 16.094 26.4081 16.0062 26.4961 15.9109C27.1348 15.2509 27.5287 14.3316 27.5287 13.3207V0.0800934H39.0978Z" fill="#1658B7"/>
<path d="M39.0978 0.0800934C37.0402 5.40534 32.818 13.8929 26.2131 16.1741C26.3125 16.094 26.4081 16.0062 26.4961 15.9109C27.1348 15.2509 27.5287 14.3316 27.5287 13.3207V0.0800934H39.0978Z" fill="#3838AD"/>
<path d="M22.7787 16.7577C14.5025 16.7577 9.99723 6.56882 7.95496 0L20.4763 0.0305172V13.3207C20.4763 14.8962 21.4363 16.239 22.7787 16.7577Z" fill="#3838AD"/>
<path d="M71.9463 61.0916C71.8775 61.1717 71.8086 61.2518 71.736 61.3281C71.7168 61.351 71.6977 61.3701 71.6748 61.393C71.6212 61.4502 71.5677 61.5074 71.5141 61.5646C71.4376 61.6447 71.3612 61.7248 71.2808 61.7973C71.2044 61.8736 71.1279 61.9461 71.0475 62.0148C71.0437 62.0224 71.0399 62.0262 71.0322 62.03C70.9481 62.1101 70.8563 62.1902 70.7683 62.2627C70.5159 62.4763 70.2559 62.6747 69.9882 62.8616C69.8428 62.9608 69.6937 63.06 69.5445 63.1515C69.1697 63.3804 68.7796 63.5864 68.3742 63.7657C68.2939 63.8038 68.2098 63.8382 68.1295 63.8725C67.8847 63.9717 67.6323 64.0632 67.3799 64.1472C67.2078 64.2006 67.0356 64.2501 66.8635 64.2959C66.7565 64.3226 66.6456 64.3493 66.5346 64.3722C66.4696 64.3875 66.4046 64.4027 66.3358 64.4142C66.2478 64.4333 66.1598 64.4485 66.0719 64.4638C65.8921 64.4943 65.7124 64.521 65.5288 64.5439C65.2075 64.5782 64.8825 64.6011 64.5497 64.6049H43.1364C43.0599 64.6011 42.9834 64.5935 42.9108 64.5858C42.8763 64.582 42.8457 64.582 42.8113 64.5782H42.796C42.2912 64.5477 41.8934 64.5248 41.6181 64.5172C38.1875 64.4256 39.9009 64.1166 37.2505 63.1248C36.3556 62.7853 34.5428 61.6753 32.5426 60.3516C28.6454 57.7843 24.0292 54.416 24.0292 54.416C24.0292 54.416 20.0135 50.2084 13.5157 45.8368C13.5004 45.8254 13.4851 45.814 13.4698 45.8063H13.466C13.6611 45.7033 13.8523 45.608 14.0512 45.5126C14.1468 45.4668 14.2424 45.4249 14.338 45.3829C14.3877 45.36 14.4412 45.3371 14.4948 45.3142C14.4986 45.3142 14.4986 45.3104 14.4986 45.3104C14.6478 45.2418 14.7969 45.1769 14.9461 45.1121C15.0187 45.0815 15.0952 45.051 15.1717 45.0205C15.3056 44.9671 15.4394 44.9137 15.5733 44.8603C15.6651 44.8221 15.7607 44.784 15.8563 44.7459C16.0169 44.6848 16.1776 44.6276 16.3382 44.5742C18.7553 43.7235 21.3406 43.2658 24.0331 43.2658C24.1937 43.2658 24.4958 43.262 24.8898 43.2581H25.2301C25.2952 43.2581 25.364 43.2581 25.429 43.2581H25.7311C26.1518 43.2543 26.6184 43.2543 27.0812 43.2581H27.7811C27.9532 43.2581 28.1215 43.2581 28.2859 43.2581C28.4542 43.2658 28.6225 43.2696 28.7831 43.2734H28.7907C28.9169 43.2734 29.0355 43.281 29.1502 43.2887H29.1579C29.3262 43.2963 29.4868 43.3039 29.6321 43.3154C29.6818 43.3192 29.7239 43.323 29.7698 43.3268C30.7068 43.4107 31.6323 43.5404 32.5426 43.7121C36.8183 44.5017 40.7767 46.2069 44.0964 48.8313L48.1618 51.864L49.5501 52.8978L49.5883 52.9283L51.7951 54.5724C52.3993 55.1141 53.1833 55.4459 54.0439 55.465C54.0477 55.465 54.0477 55.4688 54.0515 55.4688C58.6332 58.0208 64.7027 60.4317 71.9501 61.0916H71.9463Z" fill="#822884"/>
<path d="M54.2963 64.521C54.2963 64.521 48.5481 64.5553 42.9108 64.5858H42.7922C40.8991 64.5934 39.0251 64.5973 37.3844 64.6049C36.3135 64.6049 35.3459 64.6087 34.5428 64.6087C33.9691 64.6087 33.2998 64.4676 32.5388 64.2196C26.2666 62.1673 14.0168 52.8558 3.06342 56.0334L3.75947 54.8318L3.84744 54.683V54.6792C4.54732 53.5538 5.33516 52.4896 6.1995 51.4978C6.48633 51.1659 6.78082 50.8416 7.08678 50.5288C7.19387 50.4182 7.30095 50.3076 7.40804 50.2008H7.41186C7.74077 49.8727 8.0735 49.5599 8.41388 49.2547C8.42153 49.2471 8.433 49.2395 8.44065 49.2319C8.6204 49.0716 8.8078 48.9152 8.99138 48.7627C9.02962 48.7245 9.07169 48.694 9.11376 48.6597C9.28969 48.5147 9.46944 48.3697 9.64919 48.2286C10.0125 47.9425 10.3873 47.6717 10.7659 47.4084C10.9533 47.2826 11.1446 47.1567 11.3358 47.0308C11.5079 46.9202 11.68 46.8134 11.8521 46.7066C12.1389 46.5311 12.4258 46.3632 12.7164 46.1992C12.9574 46.0657 13.2021 45.9322 13.4507 45.8063H13.4584C13.5731 45.7453 13.6879 45.688 13.8026 45.6346C13.8791 45.5927 13.9594 45.5583 14.0397 45.5202C14.1889 45.4477 14.3342 45.3791 14.4833 45.3142C14.4872 45.3142 14.4872 45.3104 14.4872 45.3104C14.709 45.2112 14.9346 45.1158 15.1603 45.0205C15.2941 44.9671 15.428 44.9137 15.5619 44.8603C15.6575 44.8221 15.7493 44.784 15.8449 44.7496H15.8602C21.7384 43.4107 27.3183 45.9589 32.5311 49.6286C40.8264 55.4688 48.1809 64.1548 54.2887 64.521H54.2963Z" fill="#AF0072"/>
<path d="M37.3921 64.6087H13.6802L12.0204 64.7079C11.7412 64.7231 11.4658 64.7422 11.1867 64.7613C11.1369 64.7766 11.0834 64.7956 11.0337 64.8109C10.984 64.83 10.9342 64.849 10.8845 64.8719C10.8692 64.8757 10.8539 64.8834 10.8348 64.891C10.8195 64.8986 10.8004 64.9062 10.7813 64.9177C10.7545 64.9291 10.7277 64.9406 10.7009 64.952C10.6933 64.9558 10.6895 64.9597 10.6818 64.9635C10.6512 64.9787 10.6168 64.994 10.5862 65.0131C10.5747 65.0207 10.5594 65.0245 10.548 65.0321C10.395 65.1161 10.2535 65.2114 10.112 65.3182C10.0929 65.3335 10.0699 65.3487 10.047 65.3678C10.0431 65.3716 10.0355 65.3754 10.0317 65.3793C10.024 65.3869 10.0164 65.3945 10.0087 65.4022C9.99724 65.4098 9.98959 65.4174 9.97812 65.425C9.97047 65.4327 9.96282 65.4403 9.95517 65.4479C9.87486 65.5128 9.79837 65.5853 9.7257 65.6615C9.64921 65.7417 9.57655 65.8218 9.50388 65.9095C9.45034 65.9782 9.3968 66.0468 9.3509 66.1193C9.32031 66.1575 9.29354 66.1994 9.26676 66.2414C9.21322 66.3253 9.15968 66.413 9.11378 66.5046C9.10996 66.5046 9.10996 66.5084 9.10613 66.5122C9.10231 66.516 9.09849 66.5237 9.09849 66.5275C9.09466 66.5275 9.09466 66.5313 9.09084 66.5351C9.09084 66.5351 9.09084 66.5389 9.08701 66.5389C9.08701 66.5389 9.08701 66.5504 9.07936 66.5542H9.07554C9.06406 66.5923 9.04877 66.6228 9.03347 66.6572C9.02582 66.6686 9.022 66.6801 9.01817 66.6915C9.00287 66.7182 8.9914 66.7449 8.97993 66.7716C8.94551 66.8517 8.91491 66.9318 8.88814 67.0119C8.84225 67.0424 8.80782 67.073 8.76576 67.0997H8.76193L8.75811 67.1035C8.73898 67.1187 8.71986 67.134 8.69691 67.1493C6.17275 68.9994 3.42294 72.2456 2.47447 77.9218C2.4171 78.2575 2.34826 78.5627 2.26794 78.8488C2.08054 78.4368 1.90462 78.0172 1.74016 77.59C1.65603 77.3801 1.57571 77.1665 1.49922 76.9491C1.42273 76.7355 1.34624 76.518 1.2774 76.3006C1.20856 76.0984 1.14737 75.8962 1.08618 75.6941C1.0747 75.6559 1.0594 75.614 1.05176 75.5682C1.01734 75.4652 0.98674 75.3622 0.959968 75.2554C0.933197 75.1677 0.91025 75.0799 0.887303 74.9884C0.887303 74.9884 0.887303 74.9769 0.887303 74.9731C0.875829 74.935 0.864356 74.9006 0.856707 74.8625C0.806988 74.6756 0.761095 74.4886 0.715201 74.3017C0.657833 74.0767 0.608115 73.8478 0.562221 73.6189C0.527801 73.4663 0.497205 73.3137 0.470433 73.1611C0.439837 73.0047 0.413066 72.8522 0.386294 72.6996C0.359523 72.547 0.332751 72.3906 0.309805 72.2342C0.286858 72.0778 0.263911 71.9214 0.240964 71.7688C0.187421 71.3492 0.137702 70.9296 0.103282 70.51C0.0650371 70.0865 0.0382656 69.6593 0.0229677 69.2321C0.00766971 68.904 0.00384521 68.5759 0.00384521 68.2441C0.00384521 67.9656 0.00384521 67.6909 0.0153187 67.4163C0.0344411 66.8632 0.0688616 66.3177 0.11858 65.7798C0.168298 65.2381 0.237139 64.7041 0.321278 64.1738C0.56987 62.5831 0.963793 61.0458 1.49157 59.5734C1.75546 58.8333 2.04995 58.1162 2.37503 57.4143C2.59303 56.9451 2.8225 56.4835 3.06726 56.0334L3.76332 54.8318L3.85128 54.683V54.6792C4.81123 54.3511 5.85149 54.0955 6.98354 53.943C14.0818 52.9778 25.7197 58.3336 32.5388 61.9156C34.7952 63.1057 36.5239 64.1014 37.3844 64.6049C37.3844 64.6049 37.3844 64.6087 37.3921 64.6087Z" fill="#FF5215"/>
<path d="M11.1868 64.7575C11.137 64.7765 11.0835 64.7956 11.0338 64.8109C10.9841 64.8299 10.9343 64.849 10.8846 64.8719C10.8693 64.8757 10.854 64.8833 10.8349 64.891C10.8196 64.8986 10.8005 64.9062 10.7814 64.9177C10.7546 64.9291 10.7278 64.9406 10.7011 64.952C10.6934 64.9558 10.6896 64.9596 10.6819 64.9635C10.6513 64.9787 10.6169 64.994 10.5863 65.0092C10.5863 65.0092 10.5595 65.0245 10.5481 65.0321C10.3951 65.116 10.2536 65.2114 10.1121 65.3182C10.093 65.3335 10.07 65.3487 10.0471 65.3678C10.0432 65.3716 10.0356 65.3754 10.0318 65.3793C10.0241 65.3869 10.0165 65.3945 10.0088 65.4021C9.99734 65.4098 9.9897 65.4174 9.97822 65.425C9.97057 65.4327 9.96292 65.4403 9.95528 65.4479C9.87496 65.5128 9.79847 65.5852 9.72581 65.6615C9.64932 65.7416 9.57665 65.8217 9.50399 65.9095C9.45044 65.9782 9.3969 66.0468 9.35101 66.1193C9.32041 66.1574 9.29364 66.1994 9.26687 66.2414C9.21332 66.3253 9.15978 66.413 9.11389 66.5046C9.11006 66.5046 9.11006 66.5084 9.10624 66.5122C9.10241 66.516 9.09859 66.5236 9.09859 66.5275C9.09476 66.5275 9.09476 66.5313 9.09094 66.5351C9.09094 66.5351 9.09094 66.5389 9.08712 66.5389C9.08712 66.5389 9.08712 66.5503 9.07947 66.5542H9.07564C8.94178 66.7411 8.81175 66.9394 8.69702 67.1492C8.50579 67.4964 8.34134 67.874 8.19983 68.2746C8.19983 68.2746 8.18836 68.3051 8.18454 68.3165C6.13461 74.2979 9.61107 85.7228 10.7087 89.0339C10.594 88.9538 10.4792 88.8737 10.3683 88.7897H10.3645C10.2039 88.6715 10.0432 88.5532 9.88261 88.4274C9.77552 88.3472 9.66844 88.2671 9.56518 88.1832C9.45044 88.0955 9.33571 88.0077 9.2248 87.9124C9.14448 87.8513 9.06799 87.7865 8.9915 87.7216C8.8194 87.5805 8.65112 87.4317 8.48285 87.2868C8.29162 87.1151 8.10422 86.9435 7.91682 86.7718C7.89005 86.7451 7.86328 86.7222 7.83651 86.6917C7.66058 86.5277 7.48465 86.356 7.31638 86.1843C7.12515 85.9936 6.93775 85.8029 6.758 85.6045C6.62414 85.4634 6.49411 85.3222 6.37173 85.1773C6.28759 85.0857 6.20345 84.9904 6.11931 84.895C5.77893 84.4983 5.45002 84.0901 5.13259 83.6705C4.99491 83.4912 4.86488 83.3119 4.73484 83.1288C4.66218 83.0296 4.58951 82.9304 4.5245 82.8275C4.33327 82.5566 4.15352 82.282 3.97759 82.0035C3.89346 81.8738 3.80932 81.7441 3.729 81.6106C3.52631 81.2863 3.33508 80.9506 3.1515 80.6111C3.08266 80.4891 3.01765 80.3632 2.94881 80.2373C2.86849 80.0885 2.78818 79.9359 2.71551 79.7834C2.63902 79.6308 2.56636 79.482 2.49369 79.3294C2.48604 79.3294 2.48222 79.318 2.48222 79.3065C2.40955 79.1578 2.33689 79.0052 2.26805 78.8526C2.08065 78.4368 1.9009 78.0172 1.74027 77.5899C1.65613 77.3801 1.57581 77.1665 1.49932 76.9491C1.42284 76.7355 1.34635 76.518 1.2775 76.3006C1.20866 76.0984 1.14747 75.8962 1.08628 75.6941C1.07481 75.6559 1.05951 75.614 1.05186 75.5682C1.01744 75.4652 0.986843 75.3622 0.960072 75.2554C0.9333 75.1676 0.910353 75.0799 0.887406 74.9883C0.887406 74.9883 0.887406 74.9769 0.887406 74.9731C0.875933 74.9349 0.864459 74.9006 0.85681 74.8625C0.807092 74.6755 0.761198 74.4886 0.715304 74.3017C0.657937 74.0766 0.608218 73.8478 0.562325 73.6189C0.527904 73.4663 0.497308 73.3137 0.470537 73.1611C0.439941 73.0047 0.413169 72.8521 0.386398 72.6996C0.359627 72.547 0.332855 72.3906 0.309908 72.2342C0.286961 72.0778 0.264014 71.9214 0.241067 71.7688C0.187524 71.3492 0.137806 70.9296 0.103386 70.51C0.0651407 70.0865 0.0383693 69.6593 0.0230713 69.232H0.0268958C2.73464 65.6806 6.88803 65.055 11.1906 64.7575H11.1868Z" fill="#FBAF1B"/>
<path d="M13.6802 64.6087L12.0204 64.7079C12.2805 64.6583 12.5558 64.624 12.8427 64.6087C12.8885 64.6049 12.9344 64.6049 12.9803 64.6049H13.5387C13.5846 64.6049 13.6305 64.6049 13.6802 64.6087Z" fill="#FBAF1B"/>
<path d="M29.9955 92.4442C29.7584 92.509 29.5175 92.5701 29.2765 92.6235C29.0241 92.6807 28.7717 92.7379 28.5193 92.7837C28.1101 92.8638 27.7008 92.9363 27.2878 92.9935C26.8709 93.0545 26.4579 93.1003 26.0372 93.1346C25.3755 93.1918 24.7063 93.2224 24.0293 93.2224C23.9414 93.2224 23.8572 93.2224 23.7693 93.2185C23.6813 93.2224 23.5972 93.2185 23.5092 93.2147C23.3371 93.2109 23.165 93.2033 22.9929 93.1957C22.8246 93.188 22.6563 93.1804 22.4881 93.169C22.4842 93.1728 22.4766 93.1728 22.4728 93.169C22.3045 93.1575 22.1324 93.1461 21.9641 93.1308C21.7117 93.1079 21.4593 93.0812 21.2107 93.0507C20.9583 93.0202 20.7097 92.9859 20.4611 92.9477C20.442 92.9477 20.4228 92.9439 20.4037 92.9401C19.5929 92.8142 18.7936 92.6425 18.0134 92.4289C17.8528 92.387 17.6921 92.3412 17.5315 92.2954C17.2141 92.2038 16.8967 92.1047 16.5869 91.9979C16.4301 91.9445 16.2771 91.891 16.1203 91.8338C15.8449 91.7346 15.5696 91.6316 15.298 91.521C14.7588 91.2998 14.2272 91.0633 13.707 90.8039H13.7032C13.4852 90.6932 13.2672 90.5826 13.053 90.4644C12.9842 90.43 12.9192 90.3957 12.8503 90.3576C12.6247 90.2317 12.399 90.1058 12.1772 89.9723H12.1734C11.9248 89.8235 11.6762 89.6709 11.4353 89.5145H11.4315C11.1867 89.3581 10.9457 89.1979 10.7086 89.0339C10.5939 88.9576 10.4792 88.8737 10.3682 88.7936L10.3644 88.7859C6.12688 80.9163 6.2225 73.0886 8.18446 68.3165C8.18828 68.3051 8.19593 68.2936 8.19976 68.2784C8.37186 67.8626 8.55926 67.4735 8.75813 67.1073H8.76196L8.76578 67.0996C8.86522 66.9127 8.97231 66.7296 9.07557 66.558C9.06409 66.5923 9.0488 66.6228 9.0335 66.6572C9.02585 66.6686 9.02202 66.68 9.0182 66.6915C9.0029 66.7182 8.99143 66.7449 8.98378 66.7716H8.97995C8.94553 66.8517 8.91494 66.9318 8.88817 67.0119C8.74666 67.4086 8.674 67.8321 8.674 68.2707C8.674 68.7781 8.77343 69.2587 8.94936 69.7012C8.99143 69.8081 9.04115 69.9149 9.09851 70.0179C9.14823 70.1209 9.20942 70.22 9.27444 70.3192C9.33563 70.4184 9.40065 70.5138 9.47714 70.6053C9.54598 70.693 9.62247 70.7808 9.70278 70.8647C9.72191 70.8838 9.74485 70.9067 9.7678 70.9257C9.78692 70.9448 9.80604 70.9677 9.82899 70.983C9.91313 71.0669 10.0011 71.1432 10.0929 71.208C10.1388 71.2462 10.1847 71.2805 10.2306 71.3148C10.2573 71.5208 10.2918 71.7268 10.3224 71.9328C10.3491 72.0854 10.3721 72.238 10.4027 72.3867C10.4065 72.4096 10.4103 72.4325 10.4141 72.4516C10.418 72.4745 10.4218 72.4936 10.4294 72.5126C10.4294 72.5203 10.4294 72.5317 10.4333 72.5393V72.5508C10.4562 72.6729 10.4792 72.7911 10.5059 72.9132C10.5136 72.9475 10.5212 72.9818 10.5289 73.0162C10.5327 73.0505 10.5403 73.081 10.5518 73.1153C10.5518 73.1306 10.5556 73.1459 10.5595 73.1611C10.5595 73.1649 10.5633 73.1688 10.5633 73.1726C10.5786 73.2603 10.5977 73.3442 10.6207 73.4282C10.6436 73.5273 10.6666 73.6265 10.6895 73.7219C10.6933 73.7371 10.6972 73.7524 10.701 73.7638C10.701 73.7638 10.7048 73.7791 10.7048 73.7867C10.7048 73.7905 10.7086 73.7944 10.7086 73.7982C10.7354 73.9012 10.7622 74.0042 10.7889 74.1072C10.7889 74.111 10.7928 74.1186 10.7928 74.1224C10.8004 74.1529 10.8081 74.1835 10.8157 74.214C10.8157 74.2216 10.8195 74.2254 10.8234 74.233C10.8272 74.2521 10.8348 74.275 10.8425 74.2979C10.854 74.3437 10.8654 74.3933 10.8807 74.439C10.919 74.5802 10.961 74.7213 11.0069 74.8625C11.0108 74.8853 11.0184 74.9082 11.0261 74.9311C11.0758 75.0951 11.1293 75.2554 11.1829 75.4156C11.2441 75.5987 11.3091 75.7818 11.3741 75.9611C11.4429 76.1404 11.5079 76.3197 11.5768 76.4951C11.7145 76.8499 11.8636 77.1932 12.0204 77.5327C12.0319 77.5594 12.0434 77.5861 12.0587 77.6128C12.074 77.6472 12.0893 77.6777 12.1046 77.712C12.1428 77.7921 12.1811 77.8722 12.2155 77.9523C12.2308 77.979 12.2461 78.0095 12.2575 78.0362C12.422 78.3719 12.5903 78.6962 12.7662 79.0128C12.7968 79.07 12.8274 79.1272 12.8618 79.1806C12.9192 79.2875 12.9765 79.3904 13.0377 79.4896C13.1181 79.627 13.1984 79.7643 13.2825 79.8978C13.294 79.9169 13.3093 79.9398 13.3208 79.9588C13.4049 80.0962 13.489 80.2335 13.577 80.3708C13.5885 80.3823 13.5961 80.3975 13.6038 80.409C13.6038 80.409 13.6114 80.4242 13.6152 80.428C13.6191 80.4318 13.6229 80.4395 13.6267 80.4433C13.6305 80.4471 13.6305 80.4547 13.6344 80.4585C13.7223 80.5921 13.8103 80.7256 13.9021 80.8553C13.9939 80.9926 14.0895 81.1299 14.1851 81.2634C14.1927 81.2711 14.2004 81.2825 14.208 81.2901C14.2119 81.2978 14.2157 81.3054 14.2233 81.313C14.2922 81.4046 14.3572 81.4961 14.426 81.5877C14.4566 81.6296 14.4872 81.6754 14.5216 81.7174L14.5408 81.7403C14.5446 81.7441 14.5446 81.7479 14.5484 81.7517C14.5522 81.7593 14.5561 81.7632 14.5599 81.7708C14.5714 81.7822 14.579 81.7975 14.5905 81.8089C14.5943 81.8127 14.5943 81.8166 14.5981 81.8204C14.602 81.8242 14.602 81.828 14.6058 81.8318C14.6134 81.8433 14.6249 81.8547 14.6326 81.8662C14.7014 81.9577 14.7702 82.0454 14.8429 82.137C15.0571 82.4116 15.2789 82.6787 15.5045 82.9419C15.9558 83.4683 16.4224 83.9718 16.9043 84.4487C17.0229 84.5707 17.1452 84.689 17.2676 84.8072C17.2791 84.8187 17.2906 84.8301 17.302 84.8378C17.3977 84.9331 17.4971 85.0285 17.5965 85.12C17.6004 85.12 17.6042 85.1277 17.608 85.1315C17.6118 85.1353 17.6157 85.1391 17.6195 85.1391C17.6195 85.1391 17.622 85.1417 17.6271 85.1468C17.6271 85.1468 17.631 85.1506 17.6348 85.1544C17.7572 85.2688 17.8795 85.3794 18.0058 85.4901C18.2543 85.7113 18.5068 85.9288 18.7592 86.1386C18.7745 86.1538 18.7898 86.1653 18.8051 86.1805C18.8395 86.2072 18.8739 86.2339 18.9083 86.2644C18.916 86.2644 18.9236 86.2721 18.9313 86.2835L18.9389 86.2873C19.1455 86.4666 19.3558 86.6345 19.5661 86.7909L19.5776 86.8023C19.5776 86.8023 19.5929 86.8176 19.6044 86.8252C19.6235 86.8405 19.6426 86.8557 19.6656 86.871C19.9218 87.0693 20.1781 87.2639 20.4343 87.447C20.5758 87.55 20.7173 87.6492 20.8588 87.7521C20.8932 87.775 20.9277 87.7979 20.9621 87.8208C20.9965 87.8437 21.0309 87.8666 21.0653 87.8895C21.3216 88.0726 21.5817 88.2481 21.8417 88.4121C21.922 88.4655 21.9985 88.5189 22.0788 88.5685C22.1056 88.5837 22.1286 88.599 22.1515 88.6143C22.2395 88.6753 22.3313 88.7287 22.4192 88.7821C22.4307 88.7897 22.4422 88.7974 22.4536 88.805C22.4651 88.8126 22.4766 88.8203 22.4881 88.8279C22.5263 88.8546 22.5684 88.8813 22.6104 88.9042C22.7061 88.9614 22.8017 89.0186 22.8973 89.0758C23.035 89.1636 23.1688 89.2437 23.3027 89.32C23.3983 89.3772 23.4939 89.4306 23.5857 89.4802C23.6278 89.5069 23.666 89.5298 23.7081 89.5527C23.7234 89.5603 23.7425 89.5717 23.7578 89.5794C23.8763 89.648 23.9911 89.7129 24.1096 89.7777C24.1173 89.7815 24.1249 89.7854 24.1326 89.793C24.2588 89.8617 24.3812 89.9265 24.5074 89.9952H24.5112C24.7598 90.1325 25.0046 90.2622 25.2455 90.3843C25.387 90.4567 25.5324 90.5292 25.6739 90.5979C25.8919 90.7085 26.106 90.8153 26.3202 90.9145C26.3546 90.9298 26.3929 90.945 26.4273 90.9641C26.7983 91.1396 27.1578 91.3036 27.5058 91.4524C27.5632 91.4753 27.6167 91.5019 27.6702 91.5248C27.72 91.5439 27.7697 91.5668 27.8194 91.5859C27.9188 91.6278 28.0183 91.6698 28.1177 91.7118C28.1177 91.7118 28.1203 91.713 28.1254 91.7156H28.1292C28.1292 91.7156 28.1445 91.7232 28.1521 91.727C28.1713 91.7346 28.1942 91.7423 28.2133 91.7499C28.263 91.769 28.3128 91.7919 28.3625 91.8109C28.416 91.8338 28.4657 91.8567 28.5155 91.8758C28.5766 91.8987 28.634 91.9216 28.6952 91.9445C28.7411 91.9635 28.787 91.9826 28.8329 92.0017C28.9744 92.0627 29.1197 92.1161 29.2574 92.1695C29.2804 92.1771 29.3033 92.1848 29.3262 92.1924C29.4295 92.2305 29.5289 92.2687 29.6246 92.303C29.6896 92.3297 29.7508 92.3526 29.812 92.3755C29.8731 92.3984 29.9343 92.4213 29.9955 92.4442Z" fill="#FF769A"/>
<path d="M74.4972 71.9405V73.9126C74.394 73.9126 74.2869 73.9241 74.1798 73.9279L74.4972 71.9405Z" fill="#AC2489"/>
<path d="M74.4972 76.8614V81.1643C74.0268 81.1948 73.5105 81.2253 73.0133 81.2482C72.2676 81.2826 71.56 81.2978 71.1011 81.2978C66.3052 81.2978 61.647 79.8864 57.6504 77.2276L50.1314 71.9405H55.4895L56.2123 72.444L56.2429 72.4669C60.6755 75.4156 65.8156 76.9758 71.1011 76.9758C71.6403 76.9758 72.6538 76.9453 73.7056 76.8995C73.9695 76.8881 74.2333 76.8766 74.4972 76.8614Z" fill="#A8288C"/>
<path d="M74.4973 71.9405L74.1798 73.9279C73.0057 73.9889 71.7475 74.0309 71.1011 74.0309C67.7126 74.0309 64.393 73.3099 61.3219 71.9405H74.4973Z" fill="#A8288C"/>
<path d="M41.8705 79.8367C43.1517 78.227 46.1272 76.1556 49.16 78.5817L57.505 84.4525C61.5475 87.1418 66.2555 88.5685 71.1011 88.5685C71.3229 88.5685 71.5715 88.5646 71.8469 88.557C72.6691 88.5379 73.675 88.4807 74.4972 88.4006V83.5636C73.8891 83.6018 73.2275 83.6361 72.6271 83.659C72.0266 83.6819 71.4835 83.6933 71.1011 83.6933C65.8654 83.6933 60.7788 82.1484 56.3844 79.2302L47.9323 73.2794C45.7524 71.5132 43.8095 73.7295 43.4385 74.1911C40.7614 77.5594 36.2982 80.7408 32.6152 81.9996L32.642 79.4476C35.7628 78.1774 39.4496 75.4537 41.6678 72.6652C41.8552 72.4287 42.0809 72.1807 42.3371 71.9404H38.8186C36.8528 73.3976 34.6881 74.6107 32.6879 75.221L32.7223 71.9633V71.9366H12.1963C11.4696 71.9366 10.7965 71.7077 10.2343 71.3186C10.2611 71.5246 10.2955 71.7306 10.3261 71.9366H10.3299C10.3529 72.093 10.3796 72.2418 10.4064 72.3905C10.4102 72.4134 10.4141 72.4363 10.4179 72.4554C10.4217 72.463 10.4217 72.4707 10.4255 72.4783C10.4255 72.4821 10.4255 72.4897 10.4255 72.4935C10.4255 72.5012 10.4255 72.5088 10.4294 72.5164C10.4294 72.5241 10.4294 72.5355 10.4332 72.5431V72.5546C10.4561 72.6766 10.4791 72.7949 10.5059 72.917C10.5135 72.9513 10.5212 72.9856 10.5288 73.02C10.5326 73.0543 10.5403 73.0848 10.5517 73.1191C10.5517 73.1344 10.5556 73.1497 10.5594 73.1649C10.5594 73.1687 10.5632 73.1726 10.5632 73.1764C10.5785 73.2641 10.5976 73.348 10.6206 73.4319C10.6435 73.5311 10.6665 73.6303 10.6894 73.7257H10.6933C10.6933 73.7257 10.6971 73.7524 10.7009 73.7676C10.7009 73.7676 10.7047 73.7829 10.7047 73.7905C10.7047 73.7943 10.7086 73.7982 10.7086 73.802C10.7353 73.905 10.7621 74.008 10.7889 74.111C10.7889 74.1148 10.7927 74.1224 10.7927 74.1262C10.8003 74.1567 10.808 74.1872 10.8156 74.2178C10.8156 74.2254 10.8195 74.2292 10.8233 74.2368C10.8271 74.2559 10.8348 74.2788 10.8424 74.3017C10.8539 74.3475 10.8654 74.397 10.8807 74.4428C10.9189 74.584 10.961 74.7251 11.0069 74.8663C11.0107 74.8891 11.0183 74.912 11.026 74.9349C11.0757 75.0989 11.1292 75.2592 11.1828 75.4194C11.244 75.6025 11.309 75.7856 11.374 75.9649C11.4429 76.1442 11.5079 76.3234 11.5767 76.4989C11.7182 76.8537 11.8674 77.197 12.0204 77.5365C12.0318 77.5632 12.0433 77.5899 12.0586 77.6166C12.0739 77.6509 12.0892 77.6815 12.1045 77.7158C12.1427 77.7959 12.181 77.876 12.2154 77.9561C12.2307 77.9828 12.246 78.0133 12.2575 78.04C12.4219 78.3757 12.5902 78.7 12.7661 79.0166C12.7967 79.0738 12.8273 79.131 12.8617 79.1844C12.9191 79.2912 12.9765 79.3942 13.0377 79.4934C13.118 79.6307 13.1983 79.7681 13.2824 79.9016C13.2939 79.9207 13.3092 79.9435 13.3207 79.9626C13.4048 80.0999 13.489 80.2373 13.5769 80.3746C13.5884 80.386 13.596 80.4013 13.6037 80.4128C13.6037 80.4128 13.6113 80.428 13.6152 80.4318C13.619 80.4356 13.6228 80.4433 13.6266 80.4471C13.6305 80.4509 13.6305 80.4585 13.6343 80.4623C13.7223 80.5959 13.8102 80.7294 13.902 80.8591C13.9938 80.9964 14.0894 81.1337 14.185 81.2672C14.1927 81.2749 14.2003 81.2863 14.208 81.2939C14.2118 81.3016 14.2156 81.3092 14.2233 81.3168C14.2921 81.4084 14.3571 81.4999 14.426 81.5915C14.4566 81.6334 14.4871 81.6792 14.5216 81.7212L14.5407 81.7441C14.5445 81.7479 14.5445 81.7517 14.5483 81.7555C14.5522 81.7631 14.556 81.7669 14.5598 81.7746C14.5713 81.786 14.5789 81.8013 14.5904 81.8127C14.5942 81.8165 14.5942 81.8204 14.5981 81.8242C14.6019 81.828 14.6019 81.8318 14.6057 81.8356C14.6134 81.8471 14.6248 81.8585 14.6325 81.8699C14.7013 81.9615 14.7702 82.0492 14.8428 82.1408C15.0608 82.4154 15.2788 82.6825 15.5045 82.9457C15.9558 83.4721 16.4223 83.9756 16.9042 84.4525C17.0228 84.5745 17.1452 84.6928 17.2676 84.8072C17.2676 84.8072 17.2905 84.8339 17.302 84.8416C17.3976 84.9369 17.497 85.0323 17.5965 85.1238C17.6003 85.1238 17.6041 85.1315 17.6079 85.1353C17.6118 85.1391 17.6156 85.1429 17.6194 85.1429C17.6194 85.1429 17.622 85.1455 17.6271 85.1505C17.6271 85.1505 17.6309 85.1544 17.6347 85.1544C17.7571 85.2726 17.8795 85.3832 18.0057 85.4939C18.2543 85.7151 18.5067 85.9325 18.7591 86.1424C18.7744 86.1576 18.7897 86.1691 18.805 86.1843C18.8394 86.211 18.8738 86.2377 18.9083 86.2682C18.9159 86.2682 18.9236 86.2759 18.9312 86.2873L18.9389 86.2911C18.9427 86.2911 18.9465 86.2988 18.9503 86.2988C18.9656 86.314 18.9809 86.3255 18.9962 86.3369C19.0039 86.3445 19.0153 86.3522 19.023 86.3598C19.0306 86.3674 19.0383 86.3712 19.0459 86.3789C19.0536 86.3865 19.0651 86.3941 19.0727 86.4017C19.1416 86.459 19.2104 86.5162 19.2831 86.5734C19.3748 86.6459 19.4705 86.7222 19.5661 86.7947L19.5775 86.8061C19.5775 86.8061 19.5928 86.8214 19.6043 86.829C19.6234 86.8442 19.6426 86.8595 19.6655 86.8748C19.7458 86.9358 19.8261 86.9968 19.9065 87.0541C20.0327 87.1532 20.1627 87.2486 20.2927 87.344C20.3386 87.3821 20.3883 87.4164 20.4342 87.4508C20.5757 87.5538 20.7172 87.653 20.8588 87.7559C20.8932 87.7788 20.9276 87.8017 20.962 87.8246C20.9964 87.8475 21.0309 87.8704 21.0653 87.8933C21.1953 87.9848 21.3215 88.0726 21.4515 88.1565C21.5816 88.2442 21.7116 88.332 21.8416 88.4159C21.922 88.4693 21.9984 88.5227 22.0788 88.5723C22.1055 88.5875 22.1285 88.6028 22.1514 88.6181C22.1782 88.6333 22.205 88.6486 22.2279 88.6638C22.2929 88.7058 22.358 88.7478 22.4191 88.7859C22.4306 88.7935 22.4421 88.8012 22.4536 88.8088C22.465 88.8164 22.4765 88.824 22.488 88.8317C22.5301 88.8584 22.5683 88.8813 22.6104 88.9042C22.706 88.9652 22.8016 89.0224 22.8972 89.0796C22.9316 89.1025 22.966 89.1216 22.9966 89.1368C23.0999 89.2017 23.2032 89.2627 23.3026 89.3238C23.3982 89.381 23.4938 89.4344 23.5856 89.484C23.6277 89.5107 23.6659 89.5336 23.708 89.5565C23.7233 89.5641 23.7424 89.5755 23.7577 89.5832C23.8763 89.6518 23.991 89.7167 24.1096 89.7815C24.1172 89.7853 24.1249 89.7892 24.1325 89.7968C24.2587 89.8654 24.3811 89.9303 24.5073 89.999H24.5111C24.6373 90.0676 24.7597 90.1325 24.8821 90.1935C25.0045 90.2622 25.1269 90.327 25.2454 90.3881C25.3869 90.4605 25.5323 90.533 25.6738 90.6017C25.8918 90.7123 26.1098 90.8153 26.3201 90.9183C26.3545 90.9335 26.3928 90.9488 26.4272 90.9679C26.4693 90.987 26.5113 91.006 26.5496 91.0213C26.5878 91.0404 26.6261 91.0594 26.6682 91.0747C26.6949 91.0861 26.7255 91.1014 26.7523 91.1128C26.8135 91.1434 26.8747 91.1701 26.9359 91.1968C26.9626 91.2082 26.9856 91.2196 27.0124 91.2311C27.1806 91.3074 27.3451 91.3875 27.5057 91.4562C27.5631 91.479 27.6166 91.5057 27.6702 91.5286C27.7199 91.5477 27.7696 91.5706 27.8193 91.5897C27.9188 91.6316 28.0182 91.6736 28.1176 91.7155C28.1176 91.7155 28.1202 91.7168 28.1253 91.7194H28.1291C28.1291 91.7194 28.1444 91.727 28.1521 91.7308C28.1712 91.7384 28.1941 91.7461 28.2132 91.7537C28.263 91.7728 28.3127 91.7957 28.3624 91.8147C28.4159 91.8376 28.4657 91.8605 28.5154 91.8796C28.5766 91.9025 28.6339 91.9254 28.6951 91.9482C28.741 91.9673 28.7869 91.9864 28.8328 92.0055C28.9743 92.0665 29.1196 92.1199 29.2573 92.1733C29.4486 92.2458 29.636 92.3145 29.8119 92.3793C29.8731 92.4022 29.9343 92.4251 29.9955 92.448H30.0031L32.5082 91.624V91.5973L32.5387 91.6126C36.4741 90.0638 39.9162 87.4737 42.5551 84.1587C43.3162 83.2013 45.8633 80.8209 48.6399 83.0639L57.0078 88.9499C61.0771 91.6583 65.9151 93.2262 71.1011 93.2262C72.2523 93.2262 73.3843 93.146 74.4972 93.0011V90.2545C73.5488 90.3385 72.4205 90.3957 71.5524 90.4109C71.3956 90.4109 71.2426 90.4148 71.1011 90.4148C65.9189 90.4148 60.8782 88.8851 56.5298 85.9936L48.093 80.058C45.7218 78.1392 43.6336 80.5157 43.2358 81.0116C40.6658 84.2427 36.3824 87.3402 32.5387 88.7973L32.5579 86.8175C35.9311 85.3832 39.66 82.6176 41.8705 79.8406V79.8367ZM29.6933 90.8115C29.6933 90.8115 29.7086 90.8191 29.7163 90.8191C29.613 90.8306 29.5442 90.8382 29.5289 90.8382C29.5403 90.8344 29.5939 90.8267 29.6933 90.8115Z" fill="#AF008E"/>
<path d="M96.8555 3.72972C96.8555 3.76461 96.8388 3.8309 96.8052 3.93557L93.0526 12.8465C92.8212 13.4117 92.583 13.8339 92.3349 14.1165C92.0901 14.3991 91.8251 14.6015 91.5468 14.7201V21.9109C91.5468 22.047 91.4998 22.1691 91.4093 22.2703C91.3187 22.3715 91.2081 22.4238 91.0739 22.4238H88.5889C88.4581 22.4238 88.3441 22.3715 88.2535 22.2703C88.163 22.1691 88.116 22.047 88.116 21.9109V14.7201C87.8377 14.6015 87.5728 14.3991 87.3246 14.1165C87.0764 13.8339 86.8383 13.4117 86.6069 12.8465L82.8844 3.93557C82.8509 3.83439 82.8341 3.76461 82.8341 3.72972C82.8341 3.62854 82.8676 3.53783 82.9314 3.46107C82.9984 3.38431 83.0957 3.34593 83.2265 3.34593H85.9664C86.0804 3.34593 86.181 3.3878 86.2648 3.47503C86.3453 3.56225 86.4023 3.65645 86.4359 3.75763L89.4072 11.4125C89.491 11.6358 89.5682 11.7754 89.6419 11.8347C89.7157 11.894 89.7794 11.9254 89.8297 11.9254C89.8968 11.9254 89.9672 11.894 90.041 11.8347C90.1148 11.7754 90.1953 11.6323 90.2791 11.4125L93.2538 3.75763C93.2873 3.65645 93.3443 3.56225 93.4248 3.47503C93.5053 3.3878 93.6059 3.34593 93.7199 3.34593H96.4363C96.5671 3.34593 96.6711 3.38431 96.7449 3.46107C96.8187 3.53783 96.8555 3.62854 96.8555 3.72972Z" fill="#202020"/>
<path d="M112.346 18.2545C111.99 19.2733 111.501 20.1037 110.877 20.7456C110.25 21.3876 109.509 21.8621 108.654 22.1692C107.798 22.4762 106.859 22.6332 105.84 22.6332C104.82 22.6332 103.881 22.4797 103.026 22.1692C102.171 21.8621 101.43 21.3876 100.806 20.7456C100.182 20.1037 99.6893 19.2733 99.3372 18.2545C98.9851 17.2357 98.8073 16.025 98.8073 14.6189V11.1509C98.8073 9.73084 98.9851 8.51318 99.3372 7.50485C99.6893 6.49304 100.182 5.66964 100.806 5.02766C101.43 4.38568 102.171 3.91118 103.026 3.60066C103.881 3.29362 104.82 3.14011 105.84 3.14011C106.859 3.14011 107.798 3.29362 108.654 3.60066C109.509 3.90769 110.25 4.38568 110.877 5.02766C111.501 5.66964 111.99 6.49653 112.346 7.50485C112.698 8.51667 112.876 9.73084 112.876 11.1509V14.6189C112.876 16.0215 112.698 17.2357 112.346 18.2545ZM109.445 11.1544C109.445 9.44125 109.15 8.19568 108.563 7.41763C107.976 6.63958 107.067 6.24881 105.843 6.24881C104.619 6.24881 103.71 6.63958 103.12 7.41763C102.533 8.19568 102.238 9.44125 102.238 11.1544V14.6224C102.238 16.3355 102.533 17.5811 103.12 18.3592C103.707 19.1372 104.616 19.528 105.843 19.528C107.071 19.528 107.976 19.1372 108.563 18.3592C109.15 17.5811 109.445 16.3355 109.445 14.6224V11.1544Z" fill="#202020"/>
<path d="M129.033 18.8057C128.695 19.7303 128.225 20.4735 127.625 21.0387C127.025 21.6039 126.307 22.0121 125.479 22.2598C124.647 22.5076 123.738 22.6332 122.752 22.6332C121.766 22.6332 120.854 22.5076 120.022 22.2598C119.191 22.0121 118.476 21.6039 117.876 21.0387C117.276 20.4735 116.806 19.7303 116.467 18.8057C116.129 17.8811 115.961 16.7333 115.961 15.3656V3.83439C115.961 3.69832 116.011 3.58318 116.109 3.48898C116.206 3.39478 116.323 3.34593 116.454 3.34593H118.899C119.03 3.34593 119.147 3.39478 119.244 3.48898C119.341 3.58318 119.392 3.69832 119.392 3.83439V15.383C119.392 16.1192 119.442 16.7612 119.539 17.2985C119.64 17.8393 119.814 18.2894 120.069 18.6487C120.324 19.0081 120.67 19.2767 121.105 19.4477C121.541 19.6187 122.088 19.7059 122.749 19.7059C123.409 19.7059 123.976 19.6222 124.402 19.4477C124.831 19.2767 125.17 19.0116 125.425 18.6487C125.68 18.2894 125.858 17.8393 125.955 17.2985C126.052 16.7577 126.102 16.1192 126.102 15.383V3.83439C126.102 3.69832 126.153 3.58318 126.25 3.48898C126.347 3.39478 126.465 3.34593 126.595 3.34593H129.04C129.171 3.34593 129.288 3.39478 129.386 3.48898C129.483 3.58318 129.533 3.69832 129.533 3.83439V15.3656C129.533 16.7367 129.365 17.8811 129.027 18.8057" fill="#202020"/>
<path d="M144.799 6.19645C144.701 6.28368 144.584 6.32554 144.453 6.32554H140.134V21.9144C140.134 22.0505 140.084 22.1726 139.986 22.2738C139.889 22.375 139.772 22.4273 139.641 22.4273H137.196C137.065 22.4273 136.948 22.375 136.851 22.2738C136.753 22.1691 136.703 22.0505 136.703 21.9144V6.32554H132.384C132.253 6.32554 132.136 6.28368 132.038 6.19645C131.941 6.11271 131.891 6.00107 131.891 5.86151V3.83439C131.891 3.69832 131.941 3.58318 132.038 3.48898C132.136 3.39478 132.253 3.34593 132.384 3.34593H144.457C144.587 3.34593 144.705 3.39478 144.802 3.48898C144.899 3.58318 144.95 3.69832 144.95 3.83439V5.865C144.95 6.00107 144.899 6.11271 144.802 6.19994" fill="#202020"/>
<path d="M161.141 22.2738C161.044 22.375 160.926 22.4273 160.795 22.4273H158.351C158.22 22.4273 158.102 22.375 158.005 22.2738C157.908 22.1726 157.858 22.0505 157.858 21.9144V14.0572H150.845V21.9144C150.845 22.0505 150.795 22.1726 150.698 22.2738C150.6 22.375 150.483 22.4273 150.352 22.4273H147.908C147.777 22.4273 147.659 22.375 147.562 22.2738C147.465 22.1726 147.415 22.0505 147.415 21.9144V3.83439C147.415 3.69832 147.465 3.58318 147.562 3.48898C147.659 3.39478 147.777 3.34593 147.908 3.34593H150.352C150.483 3.34593 150.6 3.39478 150.698 3.48898C150.795 3.58318 150.845 3.69832 150.845 3.83439V10.9241H157.858V3.83439C157.858 3.69832 157.908 3.58318 158.005 3.48898C158.102 3.39478 158.22 3.34593 158.351 3.34593H160.795C160.926 3.34593 161.044 3.39478 161.141 3.48898C161.238 3.58318 161.288 3.69832 161.288 3.83439V21.9144C161.288 22.0505 161.238 22.1726 161.141 22.2738Z" fill="#202020"/>
<path d="M95.2659 41.1843C94.9105 41.8856 94.4108 42.4543 93.7602 42.8939C93.1096 43.33 92.3248 43.6475 91.4026 43.8429C90.4803 44.0383 89.4441 44.1395 88.2904 44.1395C87.2877 44.1395 86.4191 44.115 85.6847 44.0627C84.9536 44.0104 84.3969 43.9441 84.0179 43.8569C83.6054 43.7731 83.307 43.637 83.1158 43.4591C82.928 43.2777 82.8341 42.9462 82.8341 42.4682V26.2862C82.8341 25.8222 82.9213 25.4942 83.0923 25.2953C83.2667 25.1 83.5484 24.9674 83.9442 24.8976C84.2728 24.8453 84.7993 24.7894 85.5237 24.7301C86.2481 24.6708 87.0965 24.6394 88.0657 24.6394C89.1858 24.6394 90.2087 24.7301 91.1376 24.9081C92.0666 25.086 92.8681 25.3826 93.5455 25.7943C94.2196 26.206 94.7428 26.7398 95.1117 27.3992C95.4806 28.0586 95.6684 28.8751 95.6684 29.852V30.3649C95.6684 31.2197 95.4772 31.9942 95.1016 32.6885C94.7227 33.3829 94.1559 33.8992 93.398 34.2412C94.1559 34.5831 94.7428 35.075 95.162 35.717C95.5812 36.359 95.7925 37.1684 95.7925 38.1454V38.5815C95.7925 39.6072 95.6147 40.4725 95.2626 41.1738M92.3382 30.0509C92.3382 29.6043 92.2645 29.2205 92.1169 28.903C91.9693 28.5855 91.7245 28.3273 91.3892 28.1284C91.0504 27.9295 90.6111 27.79 90.0678 27.7028C89.5246 27.619 88.8572 27.5737 88.0691 27.5737C87.774 27.5737 87.4654 27.5771 87.1435 27.5876C86.8215 27.5981 86.5298 27.6086 86.2682 27.626V32.8665H89.4038C89.9806 32.8665 90.4569 32.8037 90.8358 32.6711C91.2148 32.542 91.5166 32.3641 91.7379 32.1408C91.9593 31.9175 92.1169 31.6558 92.2074 31.3523C92.298 31.0522 92.3416 30.7382 92.3416 30.4102V30.0474L92.3382 30.0509ZM92.4388 38.2047C92.4388 37.8453 92.3885 37.5034 92.2913 37.1754C92.194 36.8509 92.0297 36.5648 91.7983 36.3171C91.5669 36.0694 91.255 35.867 90.8593 35.7135C90.4636 35.56 89.9773 35.4832 89.4038 35.4832H86.2682V41.1319C86.5633 41.1319 86.9087 41.1424 87.3045 41.1599C87.7002 41.1773 88.0288 41.1843 88.2904 41.1843C89.0819 41.1843 89.7425 41.1285 90.2791 41.0168C90.8123 40.9052 91.2416 40.7447 91.5636 40.5283C91.8855 40.3155 92.1102 40.0399 92.241 39.7049C92.3718 39.37 92.4388 38.9827 92.4388 38.5361V38.2012V38.2047Z" fill="#202020"/>
<path d="M111.829 40.312C111.491 41.2366 111.021 41.9798 110.421 42.545C109.821 43.1102 109.103 43.5184 108.275 43.7661C107.443 44.0138 106.534 44.1395 105.548 44.1395C104.562 44.1395 103.65 44.0138 102.818 43.7661C101.987 43.5184 101.272 43.1102 100.672 42.545C100.072 41.9798 99.6022 41.2366 99.2635 40.312C98.9248 39.3874 98.7571 38.2395 98.7571 36.8718V25.3407C98.7571 25.2046 98.8074 25.0895 98.9046 24.9953C99.0019 24.9011 99.1193 24.8522 99.2501 24.8522H101.695C101.826 24.8522 101.943 24.9011 102.04 24.9953C102.138 25.0895 102.188 25.2046 102.188 25.3407V36.8893C102.188 37.6255 102.238 38.2675 102.335 38.8048C102.436 39.3456 102.61 39.7956 102.865 40.155C103.12 40.5144 103.466 40.783 103.902 40.954C104.337 41.1249 104.884 41.2122 105.545 41.2122C106.205 41.2122 106.772 41.1284 107.198 40.954C107.627 40.783 107.966 40.5179 108.221 40.155C108.476 39.7956 108.654 39.3456 108.751 38.8048C108.848 38.264 108.898 37.6255 108.898 36.8893V25.3407C108.898 25.2046 108.949 25.0895 109.046 24.9953C109.143 24.9011 109.261 24.8522 109.391 24.8522H111.836C111.967 24.8522 112.084 24.9011 112.182 24.9953C112.279 25.0895 112.329 25.2046 112.329 25.3407V36.8718C112.329 38.243 112.161 39.3874 111.823 40.312" fill="#202020"/>
<path d="M127.025 38.7699C127.025 39.4188 126.917 40.0678 126.703 40.7098C126.488 41.3517 126.129 41.9274 125.63 42.4298C125.126 42.9358 124.459 43.3475 123.631 43.6615C122.799 43.979 121.766 44.136 120.532 44.136C119.593 44.136 118.778 44.0941 118.087 44.0069C117.396 43.9196 116.756 43.8115 116.162 43.6719C116.032 43.637 115.921 43.5777 115.83 43.4905C115.74 43.4068 115.693 43.2951 115.693 43.1556V41.3064C115.693 41.1703 115.74 41.0552 115.83 40.961C115.921 40.8668 116.032 40.8179 116.162 40.8179H116.213C116.461 40.8528 116.783 40.8807 117.189 40.9086C117.591 40.9331 118.007 40.961 118.436 40.9854C118.865 41.0098 119.271 41.0342 119.657 41.0482C120.042 41.0656 120.351 41.0726 120.582 41.0726C121.686 41.0726 122.437 40.8772 122.839 40.483C123.242 40.0887 123.443 39.5165 123.443 38.7629C123.443 38.5047 123.409 38.2779 123.346 38.0825C123.279 37.8872 123.168 37.6918 123.014 37.5034C122.856 37.315 122.645 37.1231 122.373 36.9242C122.102 36.7288 121.759 36.502 121.35 36.2438L118.091 34.2132C117.514 33.8539 117.041 33.4945 116.672 33.1351C116.303 32.7758 116.005 32.4024 115.783 32.0186C115.562 31.6349 115.404 31.2301 115.314 30.8114C115.223 30.3928 115.18 29.9601 115.18 29.5135C115.18 28.8122 115.287 28.1598 115.502 27.5597C115.716 26.9596 116.065 26.4432 116.551 26.0071C117.038 25.571 117.671 25.2325 118.453 24.9918C119.234 24.751 120.2 24.6324 121.354 24.6324C121.766 24.6324 122.202 24.6464 122.662 24.6708C123.121 24.6952 123.574 24.7336 124.02 24.7859C124.466 24.8383 124.868 24.8871 125.23 24.9394C125.593 24.9918 125.881 25.0406 126.096 25.093C126.226 25.1279 126.334 25.1837 126.418 25.2604C126.501 25.3372 126.542 25.4454 126.542 25.5814V27.4829C126.542 27.619 126.505 27.7307 126.431 27.8179C126.357 27.9051 126.253 27.947 126.123 27.947H126.072C125.251 27.8632 124.436 27.7969 123.627 27.7551C122.819 27.7132 122.014 27.6888 121.209 27.6888C120.287 27.6888 119.627 27.8493 119.221 28.1633C118.818 28.4808 118.617 28.9309 118.617 29.51C118.617 29.7159 118.644 29.9078 118.704 30.0892C118.761 30.2707 118.869 30.4486 119.026 30.63C119.184 30.8114 119.392 30.9894 119.657 31.1708C119.918 31.3522 120.25 31.5616 120.646 31.7988L123.607 33.5189C124.281 33.9132 124.841 34.3109 125.287 34.7122C125.733 35.1134 126.086 35.5286 126.351 35.9577C126.612 36.3869 126.793 36.83 126.894 37.294C126.994 37.7581 127.041 38.243 127.041 38.7594" fill="#202020"/>
<path d="M133.269 43.7765C133.172 43.8777 133.054 43.9301 132.924 43.9301H130.479C130.348 43.9301 130.231 43.8777 130.133 43.7765C130.036 43.6754 129.986 43.5532 129.986 43.4172V25.3371C129.986 25.2011 130.036 25.0859 130.133 24.9917C130.231 24.8975 130.348 24.8487 130.479 24.8487H132.924C133.054 24.8487 133.172 24.8975 133.269 24.9917C133.366 25.0859 133.417 25.2011 133.417 25.3371V43.4172C133.417 43.5532 133.366 43.6754 133.269 43.7765Z" fill="#202020"/>
<path d="M150.711 43.637C150.523 43.8359 150.289 43.9335 150.007 43.9335H147.515C147.22 43.9335 146.945 43.8952 146.69 43.8184C146.435 43.7416 146.207 43.473 146.009 43.009L140.53 30.5009C140.463 30.3648 140.389 30.295 140.308 30.295C140.228 30.295 140.184 30.3648 140.184 30.5009V43.4207C140.184 43.5567 140.137 43.6789 140.05 43.78C139.959 43.8812 139.849 43.9335 139.718 43.9335H137.619C137.488 43.9335 137.37 43.8812 137.273 43.78C137.176 43.6754 137.126 43.5567 137.126 43.4207V25.8779C137.126 25.5883 137.22 25.3441 137.411 25.1452C137.599 24.9499 137.833 24.8487 138.115 24.8487H140.781C141.046 24.8487 141.254 24.901 141.412 25.0022C141.569 25.1034 141.72 25.3267 141.868 25.6686L147.619 38.871C147.669 39.0071 147.733 39.0768 147.817 39.0768C147.901 39.0768 147.941 39.0001 147.941 38.8466V25.3371C147.941 25.0127 148.099 24.8487 148.411 24.8487H150.533C150.845 24.8487 151.003 25.0127 151.003 25.3371V42.9043C151.003 43.1974 150.909 43.4416 150.718 43.637" fill="#202020"/>
<path d="M165.497 43.6231C165.423 43.6928 165.296 43.7417 165.115 43.7766C164.917 43.8115 164.699 43.8498 164.461 43.8917C164.223 43.9336 163.924 43.972 163.572 44.0068C163.217 44.0417 162.791 44.0696 162.288 44.0976C161.785 44.122 161.164 44.1359 160.423 44.1359C159.615 44.1359 158.867 44.0662 158.173 43.9301C157.479 43.794 156.875 43.5323 156.362 43.1485C155.849 42.7648 155.443 42.2274 155.145 41.5436C154.846 40.8598 154.699 39.9666 154.699 38.8745V29.9113C154.699 28.8157 154.846 27.926 155.145 27.2387C155.443 26.5548 155.849 26.0175 156.362 25.6337C156.875 25.2499 157.479 24.9883 158.173 24.8487C158.867 24.7126 159.615 24.6429 160.423 24.6429C161.164 24.6429 161.785 24.6568 162.288 24.6812C162.791 24.7057 163.217 24.7371 163.572 24.7719C163.924 24.8068 164.223 24.8452 164.461 24.8871C164.699 24.929 164.917 24.9673 165.115 25.0022C165.296 25.0371 165.423 25.0894 165.497 25.1557C165.571 25.2255 165.608 25.3546 165.608 25.5395V27.1829C165.608 27.3189 165.558 27.441 165.46 27.5422C165.36 27.6434 165.246 27.6957 165.115 27.6957H160.078C159.353 27.6957 158.847 27.8492 158.559 28.1598C158.27 28.4668 158.126 29.0495 158.126 29.9078V32.6815H164.816C164.947 32.6815 165.065 32.7339 165.162 32.835C165.262 32.9362 165.309 33.0583 165.309 33.1944V35.0436C165.309 35.1797 165.259 35.3018 165.162 35.403C165.065 35.5041 164.947 35.5565 164.816 35.5565H158.126V38.871C158.126 39.7258 158.27 40.3085 158.559 40.619C158.847 40.926 159.353 41.0831 160.078 41.0831H165.115C165.246 41.0831 165.363 41.1354 165.46 41.2366C165.558 41.3378 165.608 41.4599 165.608 41.5959V43.2393C165.608 43.4277 165.571 43.5568 165.497 43.6231Z" fill="#202020"/>
<path d="M180.025 38.7699C180.025 39.4188 179.918 40.0678 179.703 40.7098C179.488 41.3517 179.13 41.9274 178.63 42.4298C178.127 42.9358 177.46 43.3475 176.631 43.6615C175.8 43.979 174.767 44.136 173.532 44.136C172.593 44.136 171.779 44.0941 171.088 44.0069C170.397 43.9196 169.756 43.8115 169.163 43.6719C169.032 43.637 168.921 43.5777 168.831 43.4905C168.74 43.4068 168.693 43.2951 168.693 43.1556V41.3064C168.693 41.1703 168.74 41.0552 168.831 40.961C168.921 40.8668 169.032 40.8179 169.163 40.8179H169.213C169.461 40.8528 169.783 40.8807 170.189 40.9086C170.591 40.9331 171.007 40.961 171.436 40.9854C171.866 41.0098 172.272 41.0342 172.657 41.0482C173.043 41.0656 173.351 41.0726 173.583 41.0726C174.686 41.0726 175.437 40.8772 175.84 40.483C176.242 40.0887 176.443 39.5165 176.443 38.7629C176.443 38.5047 176.41 38.2779 176.346 38.0825C176.279 37.8872 176.168 37.6918 176.014 37.5034C175.857 37.315 175.645 37.1231 175.374 36.9242C175.102 36.7288 174.76 36.502 174.351 36.2438L171.091 34.2132C170.514 33.8539 170.041 33.4945 169.672 33.1351C169.304 32.7758 169.005 32.4024 168.784 32.0186C168.562 31.6349 168.405 31.2301 168.314 30.8114C168.224 30.3928 168.18 29.9601 168.18 29.5135C168.18 28.8122 168.287 28.1598 168.502 27.5597C168.717 26.9596 169.065 26.4432 169.552 26.0071C170.038 25.571 170.672 25.2325 171.453 24.9918C172.235 24.751 173.2 24.6324 174.354 24.6324C174.767 24.6324 175.203 24.6464 175.662 24.6708C176.121 24.6952 176.574 24.7336 177.02 24.7859C177.466 24.8383 177.869 24.8871 178.231 24.9394C178.593 24.9918 178.881 25.0406 179.096 25.093C179.227 25.1279 179.334 25.1837 179.418 25.2604C179.502 25.3372 179.542 25.4454 179.542 25.5814V27.4829C179.542 27.619 179.505 27.7307 179.431 27.8179C179.358 27.9051 179.254 27.947 179.123 27.947H179.073C178.251 27.8632 177.436 27.7969 176.628 27.7551C175.82 27.7132 175.015 27.6888 174.21 27.6888C173.288 27.6888 172.627 27.8493 172.221 28.1633C171.819 28.4808 171.618 28.9309 171.618 29.51C171.618 29.7159 171.644 29.9078 171.705 30.0892C171.762 30.2707 171.869 30.4486 172.027 30.63C172.184 30.8114 172.392 30.9894 172.657 31.1708C172.919 31.3522 173.251 31.5616 173.646 31.7988L176.608 33.5189C177.282 33.9132 177.842 34.3109 178.288 34.7122C178.734 35.1134 179.086 35.5286 179.351 35.9577C179.613 36.3869 179.794 36.83 179.894 37.294C179.995 37.7581 180.042 38.243 180.042 38.7594" fill="#202020"/>
<path d="M194.097 38.7699C194.097 39.4188 193.989 40.0678 193.775 40.7098C193.56 41.3517 193.201 41.9274 192.702 42.4298C192.199 42.9358 191.531 43.3475 190.703 43.6615C189.871 43.979 188.838 44.136 187.604 44.136C186.665 44.136 185.85 44.0941 185.159 44.0069C184.469 43.9196 183.828 43.8115 183.234 43.6719C183.104 43.637 182.993 43.5777 182.902 43.4905C182.812 43.4068 182.765 43.2951 182.765 43.1556V41.3064C182.765 41.1703 182.812 41.0552 182.902 40.961C182.993 40.8668 183.104 40.8179 183.234 40.8179H183.285C183.533 40.8528 183.855 40.8807 184.261 40.9086C184.663 40.9331 185.079 40.961 185.508 40.9854C185.937 41.0098 186.343 41.0342 186.729 41.0482C187.115 41.0656 187.423 41.0726 187.654 41.0726C188.758 41.0726 189.509 40.8772 189.911 40.483C190.314 40.0887 190.515 39.5165 190.515 38.7629C190.515 38.5047 190.482 38.2779 190.418 38.0825C190.351 37.8872 190.24 37.6918 190.086 37.5034C189.928 37.315 189.717 37.1231 189.445 36.9242C189.174 36.7288 188.832 36.502 188.419 36.2438L185.159 34.2132C184.583 33.8539 184.11 33.4945 183.741 33.1351C183.372 32.7758 183.073 32.4024 182.852 32.0186C182.631 31.6349 182.473 31.2301 182.383 30.8114C182.292 30.3928 182.248 29.9601 182.248 29.5135C182.248 28.8122 182.356 28.1598 182.57 27.5597C182.785 26.9596 183.134 26.4432 183.62 26.0071C184.106 25.571 184.74 25.2325 185.522 24.9918C186.303 24.751 187.269 24.6324 188.422 24.6324C188.835 24.6324 189.271 24.6464 189.73 24.6708C190.19 24.6952 190.643 24.7336 191.089 24.7859C191.535 24.8383 191.937 24.8871 192.299 24.9394C192.661 24.9918 192.95 25.0406 193.164 25.093C193.295 25.1279 193.403 25.1837 193.486 25.2604C193.567 25.3372 193.611 25.4454 193.611 25.5814V27.4829C193.611 27.619 193.574 27.7307 193.5 27.8179C193.426 27.9051 193.322 27.947 193.191 27.947H193.141C192.319 27.8632 191.504 27.7969 190.696 27.7551C189.888 27.7132 189.083 27.6888 188.278 27.6888C187.356 27.6888 186.695 27.8493 186.29 28.1633C185.887 28.4808 185.686 28.9309 185.686 29.51C185.686 29.7159 185.713 29.9078 185.773 30.0892C185.83 30.2707 185.937 30.4486 186.095 30.63C186.253 30.8114 186.461 30.9894 186.726 31.1708C186.987 31.3522 187.319 31.5616 187.715 31.7988L190.676 33.5189C191.35 33.9132 191.91 34.3109 192.356 34.7122C192.802 35.1134 193.154 35.5286 193.419 35.9577C193.681 36.3869 193.865 36.83 193.963 37.294C194.063 37.7581 194.11 38.243 194.11 38.7594" fill="#202020"/>
<path d="M94.0922 65.0386C93.9949 65.1154 93.8608 65.1817 93.6964 65.2305C93.5958 65.248 93.4282 65.2829 93.19 65.3352C92.9519 65.3875 92.6602 65.4329 92.3148 65.4748C91.9693 65.5166 91.5837 65.555 91.1544 65.5899C90.7251 65.6248 90.2758 65.6422 89.7962 65.6422C89.055 65.6422 88.2737 65.5306 87.452 65.3073C86.6304 65.084 85.8792 64.6793 85.2018 64.0861C84.5243 63.4965 83.9609 62.694 83.5115 61.6857C83.0588 60.6774 82.8341 59.376 82.8341 57.7815V54.0064C82.8341 52.3979 83.0588 51.0826 83.5082 50.0638C83.9576 49.045 84.521 48.246 85.1984 47.6634C85.8758 47.0807 86.627 46.683 87.4487 46.4701C88.2703 46.2573 89.0517 46.1491 89.7928 46.1491C90.2691 46.1491 90.7218 46.1666 91.1511 46.2015C91.5803 46.2364 91.966 46.2747 92.3114 46.3166C92.6568 46.3585 92.9486 46.4038 93.1867 46.4457C93.4248 46.4876 93.5925 46.526 93.6931 46.5608C93.8574 46.6132 93.9882 46.676 94.0888 46.7527C94.1861 46.8295 94.2364 46.9621 94.2364 47.1505V48.8706C94.2364 49.0241 94.1995 49.1532 94.1257 49.2544C94.0519 49.3555 93.9245 49.4079 93.7434 49.4079H93.6931C93.4785 49.3904 93.2202 49.3695 92.9151 49.3451C92.6099 49.3206 92.2846 49.2962 91.9392 49.2823C91.5937 49.2648 91.2382 49.2474 90.8794 49.2299C90.5172 49.2125 90.1718 49.2055 89.8431 49.2055C89.3334 49.2055 88.8572 49.2823 88.4112 49.4358C87.9651 49.5893 87.5895 49.8545 87.2743 50.2313C86.9624 50.6081 86.7142 51.1035 86.5331 51.7211C86.352 52.3386 86.2615 53.0992 86.2615 54.0064V57.7815C86.2615 58.6712 86.352 59.4248 86.5331 60.0424C86.7142 60.6599 86.9624 61.1554 87.2743 61.5322C87.5862 61.909 87.9651 62.1776 88.4112 62.3416C88.8538 62.5056 89.3334 62.5859 89.8431 62.5859C90.1718 62.5859 90.5172 62.5754 90.8794 62.5614C91.2416 62.544 91.5937 62.5265 91.9392 62.5091C92.2846 62.4916 92.6099 62.4707 92.9151 62.4463C93.2202 62.4184 93.4785 62.3974 93.6931 62.3835H93.7434C93.9245 62.3835 94.0519 62.4358 94.1257 62.537C94.1995 62.6382 94.2364 62.7673 94.2364 62.9208V64.6409C94.2364 64.8293 94.1861 64.9619 94.0888 65.0386" fill="#202020"/>
<path d="M110.273 61.2635C109.918 62.2823 109.428 63.1127 108.804 63.7547C108.177 64.3966 107.436 64.8711 106.581 65.1782C105.726 65.4887 104.787 65.6422 103.767 65.6422C102.748 65.6422 101.809 65.4887 100.954 65.1782C100.098 64.8711 99.3573 64.3966 98.7336 63.7547C98.1098 63.1127 97.6168 62.2823 97.2647 61.2635C96.9125 60.2447 96.7348 59.034 96.7348 57.628V54.1599C96.7348 52.7399 96.9125 51.5222 97.2647 50.5139C97.6168 49.5056 98.1098 48.6787 98.7336 48.0367C99.3573 47.3947 100.098 46.9202 100.954 46.6097C101.809 46.3027 102.748 46.1491 103.767 46.1491C104.787 46.1491 105.726 46.3027 106.581 46.6097C107.436 46.9167 108.177 47.3947 108.804 48.0367C109.428 48.6787 109.918 49.5056 110.273 50.5139C110.625 51.5257 110.803 52.7399 110.803 54.1599V57.628C110.803 59.034 110.625 60.2447 110.273 61.2635ZM107.372 54.1599C107.372 52.4468 107.077 51.2012 106.49 50.4232C105.904 49.6451 104.995 49.2544 103.771 49.2544C102.547 49.2544 101.638 49.6451 101.048 50.4232C100.461 51.2012 100.166 52.4468 100.166 54.1599V57.628C100.166 59.3411 100.461 60.5867 101.048 61.3647C101.634 62.1427 102.543 62.5335 103.771 62.5335C104.998 62.5335 105.904 62.1462 106.49 61.3647C107.077 60.5867 107.372 59.3411 107.372 57.628V54.1599Z" fill="#202020"/>
<path d="M127.605 65.1397C127.417 65.3386 127.182 65.4363 126.9 65.4363H124.409C124.114 65.4363 123.839 65.3979 123.584 65.3212C123.329 65.2444 123.101 64.9757 122.903 64.5117L117.423 52.0036C117.356 51.8675 117.282 51.7978 117.202 51.7978C117.121 51.7978 117.078 51.8675 117.078 52.0036V64.9234C117.078 65.0595 117.031 65.1781 116.944 65.2828C116.853 65.384 116.742 65.4363 116.612 65.4363H114.512C114.381 65.4363 114.264 65.384 114.167 65.2828C114.07 65.1781 114.019 65.0595 114.019 64.9234V47.3807C114.019 47.0911 114.113 46.8469 114.304 46.648C114.492 46.4526 114.727 46.3514 115.009 46.3514H117.675C117.94 46.3514 118.148 46.4038 118.305 46.5049C118.463 46.6061 118.614 46.8294 118.761 47.1713L124.513 60.3737C124.563 60.5098 124.627 60.5796 124.711 60.5796C124.794 60.5796 124.835 60.5028 124.835 60.3493V46.8399C124.835 46.5154 124.992 46.3514 125.304 46.3514H127.427C127.739 46.3514 127.897 46.5154 127.897 46.8399V64.407C127.897 64.7001 127.803 64.9443 127.611 65.1397" fill="#202020"/>
<path d="M142.354 65.0386C142.257 65.1154 142.123 65.1817 141.958 65.2305C141.861 65.248 141.69 65.2829 141.452 65.3352C141.214 65.3875 140.922 65.4329 140.577 65.4748C140.231 65.5166 139.845 65.555 139.416 65.5899C138.987 65.6248 138.534 65.6422 138.058 65.6422C137.317 65.6422 136.535 65.5306 135.714 65.3073C134.892 65.084 134.141 64.6793 133.464 64.0861C132.786 63.4965 132.223 62.694 131.773 61.6857C131.324 60.6774 131.099 59.376 131.099 57.7815V54.0064C131.099 52.3979 131.324 51.0826 131.773 50.0638C132.223 49.045 132.786 48.246 133.464 47.6634C134.141 47.0807 134.892 46.683 135.714 46.4701C136.535 46.2573 137.317 46.1491 138.058 46.1491C138.534 46.1491 138.987 46.1666 139.416 46.2015C139.845 46.2364 140.231 46.2747 140.577 46.3166C140.922 46.3585 141.214 46.4038 141.452 46.4457C141.69 46.4876 141.861 46.526 141.958 46.5608C142.123 46.6132 142.253 46.676 142.354 46.7527C142.451 46.8295 142.502 46.9621 142.502 47.1505V48.8706C142.502 49.0241 142.465 49.1532 142.391 49.2544C142.317 49.3555 142.19 49.4079 142.009 49.4079H141.958C141.744 49.3904 141.485 49.3695 141.18 49.3451C140.875 49.3206 140.55 49.2962 140.204 49.2823C139.859 49.2648 139.503 49.2474 139.145 49.2299C138.782 49.2125 138.437 49.2055 138.108 49.2055C137.599 49.2055 137.119 49.2823 136.676 49.4358C136.234 49.5893 135.855 49.8545 135.539 50.2313C135.228 50.6081 134.979 51.1035 134.798 51.7211C134.617 52.3386 134.527 53.0992 134.527 54.0064V57.7815C134.527 58.6712 134.617 59.4248 134.798 60.0424C134.979 60.6599 135.228 61.1554 135.539 61.5322C135.851 61.909 136.23 62.1776 136.676 62.3416C137.122 62.5056 137.599 62.5859 138.108 62.5859C138.437 62.5859 138.782 62.5754 139.145 62.5614C139.507 62.544 139.859 62.5265 140.204 62.5091C140.55 62.4916 140.875 62.4707 141.18 62.4463C141.485 62.4184 141.744 62.3974 141.958 62.3835H142.009C142.19 62.3835 142.317 62.4358 142.391 62.537C142.465 62.6382 142.502 62.7673 142.502 62.9208V64.6409C142.502 64.8293 142.451 64.9619 142.354 65.0386Z" fill="#202020"/>
<path d="M155.772 65.1293C155.698 65.1991 155.571 65.2479 155.389 65.2828C155.208 65.3352 154.95 65.3805 154.611 65.4224C154.273 65.4643 153.907 65.5026 153.511 65.5375C153.116 65.5724 152.713 65.5968 152.301 65.6143C151.888 65.6317 151.519 65.6422 151.191 65.6422C150.386 65.6422 149.635 65.5724 148.944 65.4363C148.253 65.3003 147.653 65.0386 147.143 64.6548C146.633 64.271 146.227 63.7337 145.932 63.0499C145.637 62.366 145.49 61.4728 145.49 60.3773V46.8678C145.49 46.7318 145.54 46.6097 145.637 46.5085C145.734 46.4073 145.852 46.355 145.983 46.355H148.427C148.558 46.355 148.675 46.4073 148.773 46.5085C148.87 46.6097 148.92 46.7318 148.92 46.8678V60.3773C148.92 61.2321 149.061 61.8148 149.34 62.1253C149.618 62.4323 150.121 62.5893 150.845 62.5893H155.386C155.517 62.5893 155.634 62.6417 155.731 62.7428C155.832 62.844 155.879 62.9661 155.879 63.1022V64.7455C155.879 64.9339 155.842 65.063 155.768 65.1293" fill="#202020"/>
<path d="M171.852 65.0002C171.852 65.1363 171.812 65.2444 171.728 65.3212C171.644 65.398 171.537 65.4363 171.406 65.4363H168.79C168.676 65.4363 168.576 65.3945 168.495 65.3072C168.411 65.2235 168.354 65.1188 168.321 65.0002L167.184 60.1191H161.506L160.37 65.0002C160.336 65.1188 160.279 65.2235 160.195 65.3072C160.111 65.3945 160.014 65.4363 159.9 65.4363H157.284C157.153 65.4363 157.046 65.398 156.962 65.3212C156.878 65.2444 156.838 65.1363 156.838 65.0002L156.852 64.9479C156.852 64.9479 156.865 64.906 156.865 64.8711L160.913 48.7693C161.06 48.1692 161.275 47.6982 161.557 47.3563C161.835 47.0144 162.137 46.7527 162.459 46.5748C162.781 46.3933 163.109 46.2782 163.445 46.2293C163.784 46.177 164.082 46.1526 164.347 46.1526C164.612 46.1526 164.91 46.177 165.249 46.2293C165.588 46.2817 165.916 46.3968 166.235 46.5748C166.557 46.7562 166.855 47.0144 167.137 47.3563C167.415 47.6982 167.63 48.1692 167.778 48.7693L171.825 64.8711C171.825 64.906 171.829 64.9304 171.839 64.9479L171.852 65.0002ZM164.743 49.5648C164.709 49.4113 164.669 49.3032 164.619 49.2438C164.568 49.1845 164.478 49.1531 164.347 49.1531C164.216 49.1531 164.126 49.1845 164.075 49.2438C164.025 49.3032 163.985 49.4113 163.951 49.5648L162.174 57.1918H166.52L164.743 49.5648Z" fill="#202020"/>
<path d="M187.926 46.7911C187.926 46.826 187.923 46.8469 187.913 46.8539C187.903 46.8609 187.899 46.8853 187.899 46.9167L183.852 63.022C183.704 63.6221 183.489 64.0931 183.211 64.435C182.929 64.7769 182.631 65.0386 182.309 65.22C181.987 65.4015 181.658 65.5166 181.323 65.5654C180.984 65.6178 180.686 65.6422 180.421 65.6422C180.156 65.6422 179.857 65.6178 179.519 65.5654C179.18 65.5131 178.851 65.398 178.529 65.22C178.207 65.0386 177.909 64.7804 177.627 64.435C177.349 64.0931 177.134 63.6221 176.987 63.022L172.939 46.9167C172.939 46.8818 172.936 46.8609 172.925 46.8539C172.919 46.8469 172.912 46.8225 172.912 46.7911C172.912 46.655 172.952 46.5469 173.036 46.4701C173.117 46.3933 173.224 46.355 173.358 46.355H175.974C176.088 46.355 176.189 46.3968 176.269 46.4841C176.349 46.5713 176.41 46.6725 176.443 46.7911L180.022 62.2265C180.055 62.38 180.095 62.4881 180.146 62.5474C180.196 62.6068 180.287 62.6382 180.417 62.6382C180.548 62.6382 180.639 62.6068 180.689 62.5474C180.739 62.4881 180.78 62.38 180.813 62.2265L184.391 46.7911C184.425 46.6725 184.482 46.5678 184.562 46.4841C184.643 46.4003 184.744 46.355 184.858 46.355H187.473C187.604 46.355 187.712 46.3933 187.795 46.4701C187.876 46.5469 187.919 46.655 187.919 46.7911" fill="#202020"/>
<path d="M201.17 65.1293C201.096 65.1991 200.968 65.2479 200.787 65.2828C200.589 65.3177 200.371 65.3561 200.133 65.398C199.895 65.4398 199.6 65.4782 199.245 65.5131C198.889 65.548 198.463 65.5759 197.96 65.6038C197.457 65.6282 196.837 65.6422 196.096 65.6422C195.287 65.6422 194.54 65.5724 193.845 65.4363C193.151 65.3003 192.547 65.0386 192.034 64.6548C191.521 64.271 191.115 63.7337 190.817 63.0499C190.519 62.366 190.371 61.4728 190.371 60.3773V51.414C190.371 50.3185 190.519 49.4288 190.817 48.7449C191.115 48.0611 191.521 47.5238 192.034 47.14C192.547 46.7562 193.151 46.4945 193.845 46.3584C194.54 46.2224 195.291 46.1526 196.096 46.1526C196.837 46.1526 197.457 46.1665 197.96 46.191C198.463 46.2154 198.889 46.2468 199.245 46.2817C199.597 46.3166 199.895 46.355 200.133 46.3968C200.371 46.4387 200.589 46.4771 200.787 46.512C200.968 46.5468 201.096 46.5992 201.17 46.6655C201.243 46.7318 201.28 46.8643 201.28 47.0493V48.6926C201.28 48.8287 201.23 48.9508 201.133 49.052C201.032 49.1531 200.918 49.2055 200.787 49.2055H195.75C195.026 49.2055 194.519 49.359 194.231 49.666C193.943 49.9731 193.798 50.5557 193.798 51.414V54.1878H200.489C200.62 54.1878 200.737 54.2401 200.834 54.3413C200.935 54.4425 200.982 54.5646 200.982 54.7007V56.5498C200.982 56.6859 200.931 56.8045 200.834 56.9092C200.737 57.0139 200.62 57.0627 200.489 57.0627H193.798V60.3773C193.798 61.2321 193.943 61.8147 194.231 62.1253C194.519 62.4323 195.026 62.5893 195.75 62.5893H200.787C200.918 62.5893 201.035 62.6416 201.133 62.7428C201.23 62.844 201.28 62.9661 201.28 63.1022V64.7455C201.28 64.9339 201.243 65.063 201.17 65.1293Z" fill="#202020"/>
<path d="M94.8769 75.5544C94.8769 76.6709 94.6086 77.6199 94.072 78.4084C93.5355 79.197 92.7407 79.9611 91.6876 80.7042L89.3904 82.2952C88.1999 83.1256 87.2978 83.9281 86.684 84.6991C86.0703 85.4702 85.7652 86.4018 85.7652 87.5008V87.6055H94.1592C94.2967 87.6055 94.4141 87.6508 94.5181 87.7381C94.6187 87.8253 94.6723 87.9404 94.6723 88.0835V90.1001C94.6723 90.2432 94.622 90.3653 94.5181 90.4699C94.4175 90.5746 94.2967 90.6304 94.1592 90.6304H83.3439C83.2064 90.6304 83.089 90.5781 82.985 90.4699C82.8844 90.3653 82.8307 90.2397 82.8307 90.1001V87.4973C82.8307 86.7716 82.9314 86.0668 83.1359 85.3865C83.3405 84.7061 83.6222 84.0676 83.9777 83.4745C84.3365 82.8814 84.7457 82.3371 85.2152 81.8416C85.6813 81.3462 86.181 80.9136 86.7075 80.5402L89.2328 78.7888C89.7258 78.4538 90.1248 78.1607 90.4334 77.913C90.7386 77.6653 90.9767 77.4315 91.1477 77.2082C91.3187 76.9884 91.4328 76.7477 91.4931 76.493C91.5535 76.2383 91.5837 75.9208 91.5837 75.551C91.5837 74.8252 91.3556 74.3158 90.8962 74.0263C90.4367 73.7332 89.6721 73.5866 88.599 73.5866C88.2234 73.5866 87.8209 73.6006 87.3883 73.625C86.9557 73.6529 86.513 73.6808 86.0603 73.7192C85.6075 73.7541 85.1682 73.796 84.7322 73.8379C84.2996 73.8832 83.8871 73.9321 83.4948 73.9844H83.4445C83.307 73.9844 83.1963 73.9321 83.1125 73.8239C83.0253 73.7192 82.985 73.5936 82.985 73.4506V71.8561C82.985 71.7165 83.032 71.6049 83.1259 71.5246C83.2198 71.4444 83.3338 71.3886 83.4713 71.3537C83.81 71.2664 84.189 71.1827 84.6082 71.1025C85.024 71.0222 85.4566 70.9524 85.9094 70.8896C86.3587 70.8268 86.8182 70.778 87.2877 70.7431C87.7538 70.7082 88.1932 70.6908 88.6023 70.6908C90.8291 70.6908 92.4321 71.0885 93.4114 71.884C94.3906 72.6795 94.8769 73.9007 94.8769 75.5475" fill="#B50B80"/>
<path d="M111.078 85.9727C110.773 87.131 110.334 88.0696 109.764 88.7848C109.194 89.5001 108.496 90.0234 107.671 90.3514C106.846 90.6793 105.914 90.8433 104.877 90.8433C103.841 90.8433 102.912 90.6793 102.097 90.3514C101.282 90.0234 100.581 89.5035 100.005 88.7848C99.4245 88.0696 98.9851 87.131 98.6766 85.9727C98.3714 84.8143 98.2172 83.4117 98.2172 81.7649V79.8006C98.2172 78.1538 98.3714 76.7512 98.6766 75.5929C98.9818 74.4345 99.4245 73.4925 100.005 72.7668C100.581 72.0411 101.279 71.5142 102.097 71.1863C102.912 70.8583 103.841 70.6943 104.877 70.6943C105.914 70.6943 106.846 70.8583 107.671 71.1863C108.496 71.5142 109.194 72.0411 109.764 72.7668C110.334 73.4925 110.773 74.4345 111.078 75.5929C111.383 76.7512 111.538 78.1538 111.538 79.8006V81.7649C111.538 83.4117 111.383 84.8143 111.078 85.9727ZM107.99 79.8041C107.99 78.6039 107.909 77.613 107.748 76.828C107.587 76.043 107.366 75.4219 107.084 74.9649C106.802 74.5078 106.474 74.1833 106.101 73.9984C105.726 73.8135 105.32 73.7193 104.877 73.7193C104.435 73.7193 104.026 73.8135 103.653 73.9984C103.278 74.1833 102.952 74.5043 102.671 74.9649C102.389 75.4219 102.168 76.043 102.007 76.828C101.846 77.613 101.765 78.6039 101.765 79.8041V81.7614C101.765 82.9617 101.846 83.949 102.007 84.7236C102.168 85.4982 102.389 86.1157 102.671 86.5728C102.952 87.0298 103.278 87.3543 103.653 87.5392C104.026 87.7241 104.435 87.8149 104.877 87.8149C105.32 87.8149 105.729 87.7241 106.101 87.5392C106.474 87.3543 106.802 87.0333 107.084 86.5728C107.366 86.1157 107.584 85.4982 107.748 84.7236C107.909 83.949 107.99 82.9617 107.99 81.7614V79.8041Z" fill="#B50B80"/>
<path d="M127.025 75.5544C127.025 76.6709 126.756 77.6199 126.22 78.4084C125.683 79.197 124.888 79.9611 123.835 80.7042L121.538 82.2952C120.348 83.1256 119.445 83.9281 118.835 84.6991C118.221 85.4702 117.916 86.4018 117.916 87.5008V87.6055H126.31C126.448 87.6055 126.565 87.6508 126.669 87.7381C126.77 87.8253 126.823 87.9404 126.823 88.0835V90.1001C126.823 90.2432 126.773 90.3653 126.669 90.4699C126.569 90.5746 126.448 90.6304 126.31 90.6304H115.492C115.354 90.6304 115.237 90.5781 115.133 90.4699C115.032 90.3653 114.978 90.2397 114.978 90.1001V87.4973C114.978 86.7716 115.079 86.0668 115.284 85.3865C115.488 84.7061 115.77 84.0676 116.125 83.4745C116.481 82.8814 116.893 82.3371 117.363 81.8416C117.832 81.3462 118.329 80.9136 118.855 80.5402L121.38 78.7888C121.873 78.4538 122.273 78.1607 122.581 77.913C122.886 77.6653 123.124 77.4315 123.295 77.2082C123.466 76.9884 123.58 76.7477 123.641 76.493C123.701 76.2383 123.731 75.9208 123.731 75.551C123.731 74.8252 123.503 74.3158 123.044 74.0263C122.584 73.7332 121.82 73.5866 120.747 73.5866C120.371 73.5866 119.969 73.6006 119.536 73.625C119.103 73.6529 118.661 73.6808 118.208 73.7192C117.759 73.7541 117.316 73.796 116.88 73.8379C116.447 73.8832 116.035 73.9321 115.642 73.9844H115.592C115.455 73.9844 115.344 73.9321 115.26 73.8239C115.173 73.7192 115.133 73.5936 115.133 73.4506V71.8561C115.133 71.7165 115.18 71.6049 115.274 71.5246C115.367 71.4444 115.481 71.3886 115.619 71.3537C115.958 71.2664 116.337 71.1827 116.756 71.1025C117.172 71.0222 117.608 70.9524 118.057 70.8896C118.506 70.8268 118.966 70.778 119.435 70.7431C119.902 70.7082 120.341 70.6908 120.75 70.6908C122.977 70.6908 124.58 71.0885 125.559 71.884C126.538 72.6795 127.028 73.9007 127.028 75.5475" fill="#B50B80"/>
<path d="M143.94 85.7214C143.84 85.8261 143.719 85.8784 143.585 85.8784H141.697V90.1001C141.697 90.2432 141.653 90.3653 141.569 90.4735C141.485 90.5781 141.375 90.634 141.237 90.634H138.608C138.47 90.634 138.36 90.5816 138.276 90.4735C138.192 90.3688 138.149 90.2432 138.149 90.1001V85.8784H130.496C130.358 85.8784 130.241 85.8261 130.137 85.7179C130.036 85.6133 129.982 85.4877 129.982 85.3446V83.1954C129.982 82.8779 130.076 82.5953 130.264 82.3476L138.122 71.3851C138.206 71.2455 138.303 71.1304 138.413 71.0397C138.524 70.9525 138.672 70.9071 138.859 70.9071H141.18C141.318 70.9071 141.435 70.9594 141.539 71.0676C141.64 71.1758 141.693 71.2979 141.693 71.4409V82.9861H143.581C143.716 82.9861 143.836 83.0384 143.937 83.1431C144.041 83.2477 144.091 83.3698 144.091 83.5094V85.3516C144.091 85.4912 144.041 85.6133 143.937 85.7214M138.175 76.2418C138.175 76.1371 138.149 76.0813 138.098 76.0813C138.048 76.0813 137.988 76.1336 137.92 76.2418L133.457 82.693C133.407 82.7453 133.38 82.7976 133.38 82.8535C133.38 82.9407 133.447 82.9861 133.584 82.9861H138.175V76.2418Z" fill="#B50B80"/>
</svg>
