<svg width="114" height="114" viewBox="0 0 114 114" fill="none" xmlns="http://www.w3.org/2000/svg">
<path d="M50.0397 68.6223C48.7082 66.8468 48.5925 64.5924 48.7019 62.2833C48.7541 61.0582 48.8985 59.8388 49.134 58.6353C48.1957 58.2096 47.3789 57.5557 46.7582 56.7332C45.03 54.4054 45.3611 50.8531 47.1241 48.5697C49.0108 46.1261 52.55 45.7197 55.3635 47.9798C56.3097 48.8532 57.1191 49.8641 57.7643 50.9785C58.5002 52.0484 58.3651 52.3465 59.8488 52.7455C60.7501 52.9064 61.5588 53.3982 62.1163 54.1244C62.5334 54.7496 62.7613 55.4819 62.7729 56.2334C62.8362 57.6356 62.2337 58.824 62.1744 59.9298C64.0309 61.67 62.8584 65.0598 60.5214 65.6868C60.2302 67.0854 60.207 68.5266 60.453 69.9339C60.4585 69.9643 60.4726 69.9926 60.4937 70.0153C60.5147 70.038 60.5418 70.0543 60.5717 70.0621C60.6017 70.07 60.6332 70.0691 60.6627 70.0596C60.6921 70.0501 60.7183 70.0324 60.738 70.0085C60.9221 69.7731 61.1838 69.4876 61.3827 69.2755C62.5889 67.923 64.055 66.827 65.6936 66.0528C69.7298 64.2578 74.3667 65.3408 76.5168 69.3337C77.6796 71.4928 77.8939 73.9096 77.9868 76.0027C78.0313 77.0076 78.0615 78.021 78.0615 79.0237C80.2468 75.2645 81.0682 73.6474 82.2145 73.8327C83.6617 70.7575 83.6931 67.9697 88.5022 64.8535C88.4373 62.0394 87.8487 59.2621 86.7665 56.6637C85.9976 56.9986 85.1997 57.2626 84.3828 57.4526C79.3947 58.7727 74.2938 59.9794 69.1489 59.6374C68.3931 59.5872 68.2694 59.3171 68.2768 58.7568C68.3179 55.6041 68.233 50.2199 67.5358 47.1533C67.0132 44.847 65.4132 41.2823 64.3381 39.179C59.0788 38.2008 51.9942 38.4978 45.4141 40.4085C45.2454 41.4719 45.1566 42.5465 45.1485 43.6232C44.9245 48.4163 43.2018 53.0182 40.2232 56.78C39.8755 57.2081 39.721 57.2388 39.2929 57.1454C35.1311 56.184 31.0403 54.9379 27.0493 53.4158C28.6938 58.7317 28.2554 64.7851 30.646 69.8706C31.3912 71.3493 32.2406 72.7731 33.1876 74.1314C32.0057 74.8068 30.7791 75.4008 29.5163 75.9092C29.9011 76.2343 30.2646 76.5838 30.6044 76.9557C32.3033 78.7262 33.8658 80.6226 35.2784 82.6289C35.6774 79.7048 36.9103 74.9909 38.4351 72.1711C39.9889 69.2972 42.3111 67.7194 45.686 67.7194C47.1333 67.6909 48.5602 68.064 49.8083 68.7973C49.9553 68.8868 50.1349 68.7494 50.0397 68.6223Z" fill="#375DFB"/>
<path d="M20.943 78.1727C18.6539 79.3406 16.2753 80.6624 14.107 82.0601C13.6132 82.3355 13.1435 82.6523 12.7031 83.0068C11.433 81.2089 10.4755 79.2096 9.87074 77.0931C9.61285 77.1486 9.35218 77.1902 9.08984 77.2179C9.11492 77.2926 9.13145 77.3758 9.16508 77.4584C9.77501 79.5669 10.7352 81.5577 12.0054 83.3477C12.041 83.3965 12.0871 83.4367 12.1402 83.4654C12.1934 83.4941 12.2523 83.5106 12.3126 83.5136C12.3151 83.5387 12.3229 83.563 12.3354 83.5849C12.3479 83.6068 12.365 83.6259 12.3853 83.6408C12.4057 83.6557 12.429 83.6661 12.4537 83.6714C12.4784 83.6767 12.504 83.6767 12.5287 83.6714C13.1703 83.4684 13.7738 83.1602 14.3145 82.7594C16.2348 81.6194 19.3151 79.8422 21.2685 78.8806C21.1512 78.6488 21.0426 78.4126 20.943 78.1727Z" fill="#191919"/>
<path d="M5.69267 59.508C6.42676 62.058 6.95195 64.6635 7.26301 67.2988C7.52008 67.2908 7.77602 67.2822 8.03537 67.2822C7.52578 63.5727 6.90164 59.7149 5.26916 56.3513C4.86749 55.358 4.1646 54.5156 3.25934 53.9425C3.25079 53.9425 3.25079 53.9345 3.24281 53.9345C6.41486 52.6081 10.5998 50.2295 19.2484 47.3311C20.8803 46.7839 20.8815 46.6824 21.4081 47.2399C23.4621 49.4617 25.002 52.1083 25.9185 54.9919C27.9267 61.214 26.8266 67.3307 30.8274 73.8885C29.9405 74.1626 29.0697 74.4861 28.2191 74.8575C28.2356 74.8826 28.2441 74.9077 28.2607 74.9322C28.4357 74.9102 28.6134 74.9312 28.7784 74.9935C28.9434 75.0558 29.0907 75.1574 29.2074 75.2896C30.5184 74.7521 30.8935 74.7082 31.2093 74.3924C31.5 74.5252 31.9149 74.21 31.6995 73.8691C26.0183 64.8706 30.2796 56.3639 22.38 47.2063C21.8915 46.6402 21.391 46.0229 20.5611 46.1518C19.5351 46.3108 7.77374 50.5373 2.95211 53.5857C2.91946 53.6094 2.89317 53.6407 2.87558 53.677C2.85799 53.7133 2.84964 53.7533 2.85128 53.7936C2.85291 53.8339 2.86448 53.8732 2.88496 53.9079C2.90543 53.9426 2.93418 53.9717 2.96864 53.9927C2.94191 54.0138 2.92017 54.0406 2.90496 54.0711C2.88975 54.1015 2.88144 54.135 2.88062 54.1691C2.8798 54.2031 2.8865 54.237 2.90024 54.2681C2.91397 54.2993 2.9344 54.3271 2.96009 54.3495C4.44608 55.6702 5.11412 57.664 5.69267 59.508Z" fill="#191919"/>
<path d="M40.6615 85.7565C40.6951 85.7565 40.6951 85.7149 40.6615 85.7149C40.6285 85.7063 40.6285 85.7565 40.6615 85.7565Z" fill="#191919"/>
<path d="M39.5073 36.5758C39.2683 36.383 38.9811 36.2594 38.6768 36.2184C38.1855 36.1078 36.6499 35.7983 35.8029 35.6535C34.5329 35.3753 33.24 35.2141 31.9406 35.1718C31.8903 35.1733 31.8421 35.1926 31.8047 35.2262C31.7672 35.2598 31.7429 35.3056 31.7361 35.3555C31.7293 35.4053 31.7403 35.456 31.7673 35.4985C31.7943 35.5409 31.8355 35.5724 31.8836 35.5874C33.1153 35.9711 34.3723 36.2681 35.6456 36.476C35.7493 36.4965 38.3622 37.0084 38.4614 37.0243C38.7644 37.1127 39.0856 37.1184 39.3916 37.0409C39.4354 37.0239 39.4746 36.9967 39.5056 36.9614C39.5367 36.9262 39.5589 36.884 39.5702 36.8384C39.5816 36.7927 39.5818 36.7451 39.5708 36.6994C39.5599 36.6537 39.5381 36.6113 39.5073 36.5758Z" fill="#191919"/>
<path d="M39.0502 40.5128C38.5759 40.1605 37.9871 40.3338 33.3855 39.4742C32.7694 39.3044 32.1305 39.2317 31.492 39.2588C31.301 39.2918 31.309 39.5574 31.4418 39.6486C32.1612 40.136 36.199 40.759 37.0489 40.8947C37.6303 40.9779 38.4169 41.219 38.9841 40.9944C39.0321 40.9785 39.0748 40.9494 39.1072 40.9105C39.1395 40.8716 39.1603 40.8244 39.1672 40.7742C39.1741 40.724 39.1668 40.6729 39.1461 40.6267C39.1254 40.5805 39.0922 40.541 39.0502 40.5128Z" fill="#191919"/>
<path d="M38.4857 45.0231C38.2504 44.8428 37.973 44.7251 37.6798 44.6811C37.14 44.5398 33.1967 43.8757 32.5218 43.776C31.8302 43.6184 31.122 43.5458 30.4128 43.56C30.2133 43.581 30.0805 43.8592 30.2886 43.9504C30.9211 44.1931 31.5785 44.3652 32.2488 44.4634C32.8729 44.5917 36.8624 45.3309 37.3902 45.3936C37.7214 45.4715 38.0667 45.4658 38.3951 45.3771C38.4291 45.3651 38.4597 45.3448 38.484 45.3182C38.5084 45.2915 38.5258 45.2593 38.5348 45.2243C38.5437 45.1893 38.544 45.1527 38.5354 45.1176C38.5268 45.0825 38.5098 45.0501 38.4857 45.0231Z" fill="#191919"/>
<path d="M22.1307 55.689C21.7389 55.6216 21.3358 55.686 20.9844 55.872C14.9134 58.0152 13.6269 58.2871 12.6784 59.0947C12.512 59.2441 12.6949 59.5764 12.911 59.4852C14.78 58.7231 18.1766 57.7518 21.2586 56.6198C21.6154 56.495 22.0726 56.3872 22.2715 56.0464C22.2897 56.0144 22.3005 55.9787 22.3031 55.9419C22.3057 55.9052 22.3 55.8683 22.2865 55.834C22.273 55.7998 22.252 55.769 22.2251 55.7439C22.1981 55.7188 22.1659 55.7 22.1307 55.689Z" fill="#191919"/>
<path d="M22.255 60.0569C21.5659 59.9822 20.8431 60.3561 20.195 60.5556C15.9115 61.9003 14.9995 61.6478 14.5971 62.582C14.5224 62.7735 14.7629 62.8978 14.9043 62.8231C15.4274 62.6 15.9776 62.4467 16.5408 62.3671C17.3992 62.1915 18.9581 61.7971 20.5878 61.2795C21.2559 61.1567 21.8835 60.8713 22.4152 60.4485C22.4462 60.4162 22.4672 60.3756 22.4756 60.3316C22.484 60.2876 22.4794 60.2421 22.4624 60.2006C22.4455 60.1591 22.4169 60.1235 22.38 60.098C22.3432 60.0725 22.2998 60.0582 22.255 60.0569Z" fill="#191919"/>
<path d="M102.885 38.6192C102.705 38.4077 102.448 38.2761 102.171 38.2533C100.631 37.8826 99.1354 37.3476 97.71 36.6573C97.2283 36.4418 96.6554 36.0263 96.1071 36.134C95.9657 36.1591 95.9298 36.3694 96.0324 36.476C96.4723 36.8505 96.9684 37.1532 97.5025 37.3732C98.9026 38.0828 100.38 38.6291 101.905 39.0011C102.043 39.062 102.193 39.0941 102.344 39.0955C102.495 39.0969 102.646 39.0675 102.785 39.0091C102.85 38.9705 102.897 38.9078 102.916 38.8348C102.934 38.7617 102.923 38.6842 102.885 38.6192Z" fill="#191919"/>
<path d="M100.649 41.5177C100.342 41.1272 99.6798 41.1027 99.2203 41.036C96.16 40.5412 95.0593 39.6355 94.4939 39.725C94.465 39.729 94.4376 39.7401 94.4141 39.7574C94.3906 39.7747 94.3718 39.7975 94.3594 39.8239C94.347 39.8503 94.3414 39.8794 94.3431 39.9085C94.3448 39.9376 94.3537 39.9659 94.3691 39.9906C94.5144 40.2015 94.72 40.3637 94.959 40.4557C96.1941 41.0975 97.5228 41.54 98.896 41.7668C99.4264 41.9243 99.98 41.9891 100.532 41.9583C100.577 41.9458 100.617 41.922 100.649 41.8892C100.682 41.8563 100.705 41.8157 100.716 41.7712C100.728 41.7267 100.728 41.6799 100.716 41.6354C100.704 41.591 100.681 41.5504 100.649 41.5177Z" fill="#191919"/>
<path d="M98.9958 43.6278C98.3032 43.1718 97.6386 43.5708 94.2448 42.4399C93.7407 42.2187 93.2145 42.0515 92.6751 41.9412C92.5006 41.9212 92.3011 42.1492 92.4756 42.3071C93.3921 43.1137 95.948 43.7863 97.243 44.0171C97.7923 44.1893 98.3781 44.209 98.9377 44.0741C98.9825 44.0596 99.0223 44.0326 99.0524 43.9964C99.0825 43.9601 99.1017 43.9161 99.1078 43.8693C99.1139 43.8226 99.1066 43.7751 99.0868 43.7323C99.067 43.6896 99.0354 43.6533 98.9958 43.6278Z" fill="#191919"/>
<path d="M88.9952 53.9688C88.9622 53.4677 87.312 44.9109 87.1678 44.1927C86.1025 38.874 85.4008 35.6837 82.7076 31.6835C82.4066 31.236 82.0526 30.8416 81.7357 30.4124C81.7177 30.3878 81.6938 30.3681 81.6662 30.355C81.6387 30.342 81.6083 30.336 81.5778 30.3377C81.554 30.3281 81.5288 30.3226 81.5032 30.3212C80.2186 30.2721 78.9324 30.3584 77.6659 30.5788C74.1576 31.0086 70.3699 31.7826 67.1779 33.361C66.0684 33.8729 65.0298 34.5262 64.0879 35.3047C64.0367 35.2868 63.9813 35.2849 63.9289 35.2992C63.8766 35.3135 63.8298 35.3433 63.7948 35.3848C63.7597 35.4262 63.738 35.4772 63.7326 35.5312C63.7271 35.5852 63.7381 35.6396 63.7642 35.6871C64.4619 37.0825 65.1727 38.4801 65.7905 39.9148C67.979 44.9966 69.0813 50.4795 69.027 56.0122C68.9584 56.8975 68.9723 57.7874 69.0686 58.6701C69.1131 58.9352 69.4756 58.8861 69.5582 58.6781C69.7923 58.7475 70.0309 58.8003 70.2724 58.836C72.5935 59.0174 74.9286 58.8693 77.2082 58.3959C80.5165 57.6815 83.7466 56.6439 86.852 55.298C87.5611 55.0396 88.2474 54.7227 88.904 54.3507C88.962 54.3081 89.0029 54.2463 89.0196 54.1764C89.0363 54.1065 89.0277 54.0329 88.9952 53.9688ZM70.5141 58.213C70.2291 58.2027 69.9493 58.2381 69.6751 58.2546C69.7908 57.6274 69.8437 56.9902 69.833 56.3525C69.958 50.7916 68.8991 45.2678 66.7265 40.1474C66.0948 38.5943 65.3192 37.1038 64.41 35.6951C65.322 35.1969 66.2123 34.6725 67.1511 34.2251C73.4103 31.2406 79.678 31.4064 81.5374 30.9356C81.6994 31.2799 81.8795 31.6154 82.0771 31.9405C83.5928 34.1191 84.6729 36.5703 85.2577 39.159C86.6138 44.2571 87.8279 52.277 88.3888 53.8855C86.3829 54.4487 78.7381 58.5168 70.5141 58.213Z" fill="#191919"/>
<path d="M86.0381 9.57201C86.0328 9.54472 86.022 9.51876 86.0066 9.49563C85.9911 9.4725 85.9713 9.45266 85.9481 9.43724C85.925 9.42183 85.899 9.41114 85.8717 9.4058C85.8444 9.40047 85.8163 9.40058 85.789 9.40614C85.7637 9.35407 85.7249 9.30969 85.6767 9.27753C85.6286 9.24538 85.5727 9.22662 85.5149 9.22317C85.023 9.19695 84.5185 9.36111 83.1061 9.747C81.42 10.2076 80.549 10.4681 78.3471 11.1253C77.6843 11.2673 77.0424 11.4937 76.4371 11.799C75.8756 11.6217 76.0574 12.4431 75.8807 13.7758C75.8539 13.9747 75.814 14.1748 75.781 14.3737C75.7627 14.335 75.7361 14.3007 75.7031 14.2734C75.6701 14.2461 75.6315 14.2265 75.59 14.2158C73.7581 13.6925 72.4032 13.8402 70.1574 11.7323C67.8426 9.56004 66.6872 7.69044 66.2455 7.30512C66.233 7.26267 66.2117 7.22335 66.1829 7.18976C66.1541 7.15617 66.1185 7.12907 66.0785 7.11026C66.0385 7.09146 65.9949 7.08137 65.9507 7.08067C65.9064 7.07996 65.8626 7.08867 65.8219 7.10619C65.518 7.20721 65.2319 7.35573 64.9744 7.54623C56.6689 13.3101 52.7393 14.2899 52.4566 14.8548C52.2987 14.8382 52.1248 14.9876 52.1824 15.154C52.5346 16.0801 52.9799 16.968 53.5117 17.804C57.4053 24.3783 63.3692 26.9308 70.5889 25.9686C73.1336 25.6977 75.5813 24.8421 77.7406 23.4686C81.3847 20.9937 86.5956 13.7057 86.0381 9.57201ZM81.9769 17.9368C81.1579 19.1082 80.2349 20.2034 79.2192 21.2091C74.5652 25.7344 66.4934 26.4531 61.1451 23.9668C57.1899 22.1297 55.6007 19.7528 53.3783 16.1008C53.1964 15.8015 53.0129 15.5308 52.814 15.2538C55.4508 14.5071 63.7403 9.48993 65.9456 7.83636C67.072 9.49592 68.3662 11.0351 69.808 12.4294C71.3546 13.8968 73.3782 14.7579 75.508 14.8548C75.57 14.8586 75.6316 14.8411 75.6824 14.8052C74.4181 19.5003 69.7669 23.5399 66.2204 23.9337C65.4647 23.9471 64.7104 24.0025 63.9609 24.0996C63.8469 24.1258 63.8036 24.3242 63.9199 24.3738C64.5785 24.6017 65.2769 24.6921 65.9719 24.6394C68.1105 24.6012 69.7584 23.6174 71.4706 22.2722C73.5191 20.6662 75.1089 18.5494 76.0802 16.1344C76.6246 14.9244 76.8314 13.5896 76.6787 12.2715C77.4767 12.2613 77.9367 12.0122 83.2571 10.5359C84.0199 10.3727 84.7717 10.1617 85.508 9.90432C84.991 12.8259 83.78 15.5806 81.9769 17.9368Z" fill="#191919"/>
<path d="M37.9957 14.9545C37.624 14.6824 37.1867 14.5137 36.7285 14.4655C36.2704 14.4173 35.8076 14.4915 35.3874 14.6804C34.9708 14.8404 34.63 15.1517 34.4329 15.552C34.2358 15.9524 34.1971 16.4124 34.3243 16.8401C34.3394 16.8915 34.3723 16.9358 34.4171 16.965C34.4619 16.9943 34.5157 17.0066 34.5687 16.9997C34.6218 16.9929 34.6707 16.9673 34.7066 16.9275C34.7424 16.8878 34.7629 16.8366 34.7644 16.7831C34.7929 16.4258 34.9387 16.0879 35.1791 15.8221C35.4195 15.5562 35.741 15.3773 36.0936 15.3131C36.5516 15.233 37.0229 15.3278 37.4143 15.5787C38.071 16.0592 37.7421 16.8851 37.3892 17.5475C37.0307 18.2206 36.7548 18.8203 37.2479 19.4495C37.367 19.6012 37.5842 19.7499 37.7039 19.9147C38.0653 20.4089 38.5726 20.1854 38.5674 19.8064C38.5592 19.6782 38.5202 19.554 38.4538 19.4441C38.3873 19.3343 38.2953 19.2421 38.1855 19.1754C37.6566 18.7331 37.8031 18.6709 38.1354 17.9784C38.6558 16.8988 38.9938 15.7434 37.9957 14.9545Z" fill="#375DFB"/>
<path d="M39.6149 21.2924C39.3897 21.3489 39.1923 21.4844 39.0586 21.6743C39.0365 21.7396 39.0326 21.8097 39.0473 21.877C39.0619 21.9444 39.0946 22.0065 39.1418 22.0567C39.2517 22.1523 39.3836 22.219 39.5257 22.2509C39.6678 22.2827 39.8156 22.2787 39.9558 22.2391C40.3707 21.9889 40.0971 21.261 39.6149 21.2924Z" fill="#375DFB"/>
<path d="M58.1213 27.0237C57.6903 26.92 56.2226 26.6521 55.6132 27.5304C55.4725 27.7333 55.7575 27.9431 55.9456 27.7875C56.2518 27.627 56.6049 27.5799 56.9425 27.6547C57.4076 27.6535 57.8682 27.7468 58.2962 27.9289C59.1034 28.3626 59.0008 29.2484 58.388 29.9239C57.4851 30.9168 57.0673 30.8296 56.393 31.1779C56.0572 31.358 55.7895 31.6429 55.6306 31.9893C55.4717 32.3356 55.4304 32.7245 55.5129 33.0965C55.5214 33.1462 55.54 33.1936 55.5674 33.2359C55.5949 33.2782 55.6307 33.3145 55.6726 33.3425C55.7145 33.3705 55.7617 33.3896 55.8113 33.3988C55.8609 33.4079 55.9118 33.4069 55.961 33.3957C56.079 33.3741 56.184 33.3074 56.2538 33.2098C56.3236 33.1121 56.3527 32.9912 56.3349 32.8725C56.3018 32.6747 56.3363 32.4715 56.4327 32.2957C56.5292 32.12 56.6821 31.9818 56.8667 31.9035C57.3131 31.7363 57.7416 31.5247 58.1458 31.2719C59.1718 30.4916 59.6944 29.7329 59.7321 28.8961C59.7239 28.4452 59.5585 28.0113 59.2644 27.6694C58.9702 27.3275 58.5659 27.0991 58.1213 27.0237Z" fill="#375DFB"/>
<path d="M55.6541 34.8145C55.582 34.8268 55.5132 34.8536 55.4517 34.8932C55.3902 34.9328 55.3374 34.9844 55.2963 35.0449C55.2552 35.1054 55.2268 35.1736 55.2126 35.2454C55.1985 35.3171 55.199 35.391 55.2141 35.4625C55.2492 35.5886 55.3324 35.6959 55.4459 35.7611C55.5594 35.8264 55.6939 35.8444 55.8206 35.8114C56.3159 35.6951 56.4658 34.75 55.6541 34.8145Z" fill="#375DFB"/>
<path d="M48.702 30.5035C48.3448 30.0884 47.8874 29.7715 47.3733 29.583C45.5698 28.7126 36.3683 25.821 32.148 25.3137C31.7747 25.2687 31.407 25.2806 31.0434 25.2721C31.0262 25.2704 31.0089 25.2734 30.9932 25.2806C30.9816 25.2521 30.9635 25.2266 30.9405 25.2062C30.9174 25.1858 30.8899 25.171 30.8602 25.1629C30.8305 25.1549 30.7993 25.1538 30.769 25.1598C30.7388 25.1658 30.7104 25.1786 30.686 25.1974C29.9465 25.673 29.3039 26.2846 28.7924 26.9998C27.3064 28.9566 26.5694 31.6504 26.2422 34.0849C25.65 38.5195 26.0593 43.5811 23.6841 47.5562C23.875 47.7723 24.0495 48.0048 24.2324 48.2374C28.2008 41.8876 25.1792 34.1504 29.1162 27.8377C29.6472 27.0439 30.2477 26.2988 30.9105 25.6112C30.9312 25.6317 30.957 25.6461 30.9852 25.6528C31.26 25.7247 31.5336 25.8347 31.8157 25.9019C31.8727 25.9156 42.176 28.1398 46.6671 30.1382C47.6868 30.5942 47.8498 30.7828 48.1291 30.894C46.8842 31.8926 45.884 33.1626 45.205 34.607C42.5727 39.7849 44.5085 44.5335 41.9412 50.3224C41.207 51.9865 40.2084 53.5208 38.984 54.8659C34.6984 53.6879 30.4095 52.5306 26.1174 51.394C26.2588 51.7013 26.3916 52.017 26.5079 52.3323C27.2141 52.5232 37.8725 55.3954 39.0091 55.7215C39.0785 55.7409 39.1519 55.7419 39.2218 55.7244C39.2918 55.7069 39.356 55.6716 39.4081 55.6217C46.4145 48.2875 43.0681 41.7753 45.486 35.8695C46.3815 33.683 47.595 32.4832 48.6256 31.2679C48.6702 31.2134 48.696 31.1459 48.699 31.0754C48.7019 31.005 48.682 30.9356 48.6421 30.8775C48.6983 30.8348 48.7358 30.7721 48.747 30.7025C48.7581 30.6329 48.742 30.5616 48.702 30.5035Z" fill="#191919"/>
<path d="M111.048 31.5672C111.037 31.5282 111.018 31.4919 110.992 31.4605C110.966 31.429 110.934 31.4031 110.899 31.3842C110.901 31.2983 110.876 31.2138 110.826 31.1435C110.777 31.0731 110.706 31.0206 110.624 30.9937C110.116 30.8341 110.143 30.8735 106.87 30.1718C98.7108 28.4213 95.8597 27.5703 95.4077 27.796C95.3739 27.7916 95.3395 27.7938 95.3066 27.8027C95.2736 27.8115 95.2428 27.8268 95.2158 27.8476C95.1887 27.8684 95.1661 27.8944 95.1491 27.924C95.1322 27.9536 95.1213 27.9862 95.117 28.0201C94.8707 30.5281 94.5054 32.3954 90.3489 35.8615C89.0716 36.9263 87.7577 37.9791 86.5613 39.1339C86.6183 39.4497 86.6861 39.7569 86.7442 40.0727C88.2109 38.6061 89.356 37.7306 91.0136 36.3432C93.4076 34.3408 96.1766 31.3574 95.6568 28.2697C96.1908 28.4793 96.7407 28.6459 97.3012 28.7679C100.037 29.4462 104.763 30.5138 106.671 30.9276C107.909 31.1961 109.162 31.5506 110.425 31.708C110.367 32.051 110.339 32.3986 110.342 32.7465C110.153 37.2717 108.161 42.3584 104.76 45.3304C103.464 46.3292 102.358 47.5531 101.496 48.9436C100.589 50.3399 100.094 51.9636 100.067 53.6284C98.8875 52.448 90.3865 49.7593 88.8042 49.2423C88.8789 49.5501 88.9621 49.8653 89.0453 50.1811C98.9286 53.2693 98.9633 54.0799 99.8428 54.2344C99.9052 54.2474 99.9699 54.2418 100.029 54.2181C100.088 54.1945 100.139 54.1539 100.175 54.1015C100.196 54.1177 100.22 54.1286 100.246 54.1331C100.271 54.1376 100.298 54.1356 100.322 54.1274C100.347 54.1191 100.37 54.1048 100.387 54.0858C100.405 54.0667 100.418 54.0436 100.425 54.0183C100.763 52.4666 101.299 50.9648 102.021 49.5501C103.032 47.7831 103.963 47.0489 105.302 45.8702C108.882 42.7169 110.897 37.4684 111.133 32.9705C111.186 32.5013 111.157 32.0265 111.048 31.5672Z" fill="#191919"/>
<path d="M51.8586 60.5973C51.7825 60.5748 51.7007 60.582 51.6297 60.6175C51.5588 60.6529 51.5039 60.7139 51.4761 60.7882C51.4241 60.824 51.3791 60.869 51.3433 60.921C51.2801 61.0003 51.2405 61.0957 51.2287 61.1964C51.217 61.2971 51.2337 61.399 51.277 61.4907C51.3202 61.5824 51.3883 61.6601 51.4735 61.715C51.5586 61.77 51.6575 61.8 51.7588 61.8017C52.2724 61.78 52.4633 60.8355 51.8586 60.5973Z" fill="#191919"/>
<path d="M54.8402 61.0122C54.7619 61.0713 54.6986 61.148 54.6554 61.236C54.6121 61.324 54.5901 61.4209 54.5911 61.519C54.598 61.6555 54.657 61.7841 54.7559 61.8784C54.8549 61.9727 54.9862 62.0254 55.1229 62.0257C55.4301 62.0132 55.5755 61.7099 55.596 61.4357C55.614 61.3081 55.5875 61.1783 55.5209 61.0679C55.4544 60.9576 55.3519 60.8735 55.2306 60.8298C55.1545 60.8058 55.0722 60.8112 54.9999 60.845C54.9276 60.8788 54.8706 60.9385 54.8402 61.0122Z" fill="#191919"/>
<path d="M53.2381 62.8562C53.3726 62.1391 53.677 61.4443 53.7448 60.7215C53.7608 60.5471 53.5288 60.5306 53.4376 60.6383C52.9867 61.2437 52.6749 62.7183 52.5649 63.4627C52.5136 63.8115 52.4321 64.2607 52.9138 64.3177C53.1418 64.3344 53.3708 64.3055 53.5876 64.2328C53.8044 64.1601 54.0045 64.045 54.1763 63.8942C54.2059 63.8636 54.2258 63.825 54.2335 63.7831C54.2412 63.7413 54.2363 63.6981 54.2195 63.659C54.2026 63.62 54.1746 63.5867 54.1389 63.5636C54.1033 63.5404 54.0615 63.5283 54.019 63.5288C53.7051 63.5768 53.3943 63.6432 53.0882 63.7277C53.0876 63.669 53.2261 62.916 53.2381 62.8562Z" fill="#191919"/>
<path d="M52.0981 66.5441C52.1961 66.3844 52.3292 66.2491 52.4872 66.1484C52.6452 66.0476 52.824 65.9841 53.0101 65.9627C53.1269 65.9439 53.2467 65.9611 53.3535 66.012C53.4603 66.0629 53.5491 66.1451 53.608 66.2477C53.6952 66.4244 53.6833 66.6045 53.8241 66.7544C53.847 66.777 53.8748 66.7942 53.9053 66.8046C53.9358 66.8149 53.9683 66.8182 54.0003 66.8142C54.0323 66.8102 54.063 66.799 54.09 66.7814C54.117 66.7639 54.1397 66.7404 54.1564 66.7128C54.2144 66.5645 54.2303 66.403 54.2025 66.2463C54.1746 66.0895 54.104 65.9434 53.9985 65.8242C53.8877 65.694 53.7484 65.591 53.5915 65.5233C53.4345 65.4556 53.2641 65.425 53.0933 65.4337C52.5701 65.4337 51.7892 65.8242 51.8473 66.4386C51.8667 66.5441 52.016 66.6438 52.0981 66.5441Z" fill="#191919"/>
<path d="M60.3556 71.8685C60.1361 71.9626 59.9317 72.0886 59.7491 72.2424C58.4649 72.9826 57.0486 73.4651 55.5795 73.6628C54.6258 73.7137 53.6724 73.5549 52.7865 73.1977C52.6279 73.1221 52.4776 73.0302 52.338 72.9235C52.8292 71.8721 53.0681 70.7206 53.0356 69.5605C53.3868 69.6229 53.7457 69.6285 54.0987 69.5771C55.114 69.4098 56.0567 68.9443 56.8068 68.2398C56.8967 68.1189 56.9771 67.9913 57.0473 67.8579C57.1807 67.6584 56.9162 67.3786 56.7156 67.5256C56.0036 68.1422 55.1638 68.5932 54.2566 68.8463C53.8178 68.9494 53.3607 68.9467 52.9232 68.8383C52.4856 68.73 52.0801 68.5192 51.74 68.2233C50.0956 66.7943 50.1058 64.3524 50.144 62.3591C50.1702 61.0299 50.2922 59.6927 50.3931 58.364C50.3921 58.3185 50.3749 58.2749 50.3445 58.241C50.3142 58.2071 50.2727 58.1851 50.2276 58.1791C50.1825 58.173 50.1367 58.1833 50.0985 58.208C50.0603 58.2327 50.0322 58.2702 50.0192 58.3139C49.5353 60.554 49.2497 63.791 49.7342 65.9724C49.8725 66.7189 50.1895 67.4209 50.6581 68.0183C51.1267 68.6156 51.733 69.0906 52.4252 69.4026C52.334 69.9675 52.3038 70.5495 52.1761 71.1052C52.0622 71.5829 51.9235 72.0544 51.7605 72.5177C51.7264 72.5065 51.6901 72.5036 51.6546 72.5092C51.6191 72.5148 51.5854 72.5286 51.5562 72.5497C51.5271 72.5708 51.5034 72.5984 51.487 72.6304C51.4706 72.6624 51.462 72.6978 51.4619 72.7337C51.573 73.9205 53.8798 74.4015 55.2575 74.4198C56.9263 74.2745 58.5428 73.7641 59.9925 72.9247C60.2672 72.7434 60.5739 72.5507 60.6486 72.2105C60.6649 72.1674 60.6694 72.1207 60.6615 72.0753C60.6535 72.0299 60.6335 71.9875 60.6036 71.9525C60.5736 71.9175 60.5347 71.8912 60.4911 71.8765C60.4475 71.8617 60.4007 71.8589 60.3556 71.8685Z" fill="#191919"/>
<path d="M91.7699 66.9596C93.1123 66.5464 95.6995 64.764 100.6 64.6671C101.029 64.7127 101.463 64.6761 101.879 64.5593C101.917 64.5366 101.949 64.5043 101.971 64.4657C101.992 64.4271 102.004 64.3834 102.004 64.339C102.004 64.2946 101.992 64.251 101.971 64.2124C101.949 64.1737 101.917 64.1415 101.879 64.1187C101.473 63.9571 101.033 63.9027 100.6 63.9608C98.3162 63.9918 96.06 64.4629 93.9547 65.3482C93.0981 65.6519 92.3063 66.1141 91.6206 66.7105C91.5977 66.7343 91.5833 66.765 91.5796 66.7979C91.5759 66.8307 91.583 66.8638 91.6 66.8922C91.617 66.9205 91.6429 66.9424 91.6736 66.9546C91.7043 66.9668 91.7381 66.9686 91.7699 66.9596Z" fill="#191919"/>
<path d="M103.556 65.9547C103.184 65.8338 102.787 65.8081 102.402 65.88C100.352 66.0557 98.3214 66.4029 96.3301 66.918C95.5214 67.0806 94.7408 67.3604 94.013 67.7485C93.9808 67.7694 93.956 67.7999 93.9423 67.8358C93.9286 67.8717 93.9267 67.911 93.9369 67.9481C93.947 67.9851 93.9687 68.018 93.9988 68.0418C94.0289 68.0657 94.0658 68.0793 94.1042 68.0808C95.1012 68.0278 96.0331 67.6037 98.8056 67.101C102.403 66.4483 103.02 66.7117 103.557 66.3862C103.696 66.3013 103.73 66.0294 103.556 65.9547Z" fill="#191919"/>
<path d="M102.429 68.9284C101.963 68.6747 101.424 68.5867 100.901 68.6787C99.4617 68.7106 97.0079 68.8839 95.6684 69.4431C95.6283 69.4553 95.5937 69.4811 95.5708 69.5162C95.5479 69.5513 95.538 69.5933 95.543 69.6349C95.548 69.6765 95.5674 69.7151 95.5979 69.7438C95.6285 69.7725 95.6681 69.7895 95.71 69.7919C97.2649 69.829 97.7984 69.5143 100.777 69.4431C101.283 69.4311 101.956 69.5428 102.388 69.2271C102.414 69.2128 102.435 69.1928 102.452 69.1687C102.468 69.1446 102.479 69.1169 102.483 69.088C102.487 69.059 102.484 69.0295 102.475 69.0018C102.466 68.9741 102.45 68.949 102.429 68.9284Z" fill="#191919"/>
<path d="M100.965 71.5777C99.1487 70.9439 96.2548 71.5065 94.2199 71.8935C92.136 72.2897 90.3246 72.6636 88.9372 74.3354C88.6205 74.7144 88.3501 75.1298 88.1318 75.5729C87.9735 75.86 87.8533 76.1666 87.7744 76.4849C86.2842 75.8267 84.7559 75.2581 83.1978 74.7823C84.119 73.9353 84.6593 71.2449 85.6813 69.5993C87.2357 67.0947 89.9062 65.5979 92.5504 64.2749C92.8391 64.1784 93.0914 63.9958 93.2732 63.7516C93.2944 63.7131 93.3054 63.6698 93.3052 63.6258C93.305 63.5818 93.2935 63.5386 93.2718 63.5004C93.2502 63.4621 93.2191 63.43 93.1815 63.4071C93.1439 63.3842 93.1011 63.3714 93.0571 63.3698C92.803 63.3701 92.5546 63.4452 92.3429 63.5858C91.6179 63.9546 91.3591 64.0418 90.1085 64.7486C84.9084 67.6886 84.5077 70.4161 83.48 73.0461C83.2063 73.5834 82.9758 74.1417 82.7909 74.7156C82.65 74.7005 82.5081 74.6978 82.3668 74.7076C82.3263 74.6337 82.2586 74.5784 82.178 74.5536C82.0974 74.5288 82.0104 74.5364 81.9353 74.5748C81.2359 74.9983 78.7057 79.5053 78.3055 80.2229C77.8974 80.9533 77.507 81.6926 77.1342 82.4408C77.2964 80.2682 77.3154 78.0872 77.1912 75.912C77.0892 73.7523 76.8629 71.5321 75.8232 69.5993C73.8419 65.9251 69.6227 65.1048 66.0796 66.6923C64.2927 67.5563 62.7208 68.8076 61.478 70.3551C61.3059 70.5765 61.1584 70.816 61.038 71.0693C61.022 71.0982 61.0169 71.1318 61.0236 71.1641C61.0303 71.1963 61.0484 71.2252 61.0745 71.2453C61.1006 71.2654 61.1331 71.2755 61.166 71.2738C61.1989 71.272 61.2301 71.2585 61.254 71.2357C61.4187 71.0847 61.6194 70.9508 61.7772 70.7872C62.256 70.2505 62.7663 69.7429 63.3054 69.267C64.0245 68.626 64.8098 68.0635 65.6481 67.5889C68.9136 65.7934 73.0615 66.2779 75.0092 69.5742C76.054 71.3446 76.3276 73.4365 76.4462 75.4634C76.6845 79.5526 76.4023 81.156 76.5288 83.0302C76.5346 83.089 76.5585 83.1445 76.5972 83.1891C76.6359 83.2338 76.6875 83.2653 76.7449 83.2793C76.0042 84.8289 75.431 86.4531 75.0349 88.1243C74.8685 88.7242 74.7956 89.3461 74.8188 89.9682C74.8205 90.0073 74.8359 90.0446 74.8624 90.0734C74.8888 90.1023 74.9246 90.1208 74.9635 90.1258C75.0023 90.1308 75.0416 90.1219 75.0745 90.1007C75.1074 90.0794 75.1317 90.0473 75.1432 90.0098C75.5296 89.0864 75.6984 87.2488 77.2522 83.8538C78.7074 80.8223 80.3929 77.9068 82.2938 75.1328C82.9864 75.5216 83.0753 75.3369 85.5001 76.3298C87.8057 77.2738 88.1911 77.4562 88.4156 77.5012C87.8532 82.7747 87.0132 88.015 85.8991 93.2001C85.1187 96.7484 84.3367 100.616 81.4964 103.026C81.0946 103.418 80.6147 103.72 80.088 103.913C79.5613 104.107 78.9997 104.186 78.4401 104.148C76.0398 103.829 74.1428 101.177 73.3733 98.7816C73.3558 98.7139 73.3175 98.6535 73.2638 98.6088C73.2101 98.5641 73.1438 98.5374 73.0741 98.5325C73.1242 98.0924 73.171 97.6518 73.2069 97.2118C73.5369 93.2035 73.4776 85.1711 72.6756 83.224C72.6622 83.1797 72.6334 83.1416 72.5945 83.1165C72.5556 83.0914 72.5091 83.0809 72.4631 83.087C72.4172 83.093 72.375 83.1151 72.3438 83.1494C72.3127 83.1837 72.2948 83.2279 72.2932 83.2741C72.1758 84.2779 72.7452 86.9159 72.7087 92.1867C72.665 96.4128 72.192 100.624 71.2968 104.754C71.2016 105.176 71.1828 105.593 71.1304 106.025C71.0916 106.34 71.5533 106.356 71.6434 106.099C71.7887 105.745 71.9108 105.381 72.0087 105.011C72.3934 103.27 72.701 101.513 72.9304 99.7449C73.7284 101.755 75.1438 103.708 77.1484 104.571C77.6763 104.81 78.2487 104.935 78.8282 104.938C79.4077 104.941 79.9812 104.821 80.5114 104.588C83.8545 103.1 85.3564 98.8306 86.1926 95.2846C86.8471 92.4998 87.4068 89.6936 87.8707 86.8708C88.2355 84.6547 88.9987 79.6432 89.017 77.3182C89.0162 77.2561 88.9945 77.196 88.9553 77.1477C88.9161 77.0995 88.8617 77.066 88.8009 77.0526C88.7029 76.9334 88.5733 76.8441 88.427 76.795C88.6326 76.1582 88.9445 75.5608 89.3493 75.028C90.6307 73.4126 92.1765 73.0985 94.1498 72.7183C98.4892 71.8833 97.9563 72.174 100.936 71.9876C100.982 71.9779 101.023 71.9537 101.053 71.9187C101.083 71.8836 101.102 71.8397 101.105 71.7934C101.108 71.7471 101.096 71.7011 101.071 71.6622C101.046 71.6233 101.008 71.5936 100.965 71.5777Z" fill="#191919"/>
<path d="M43.0457 68.8947C41.3572 69.5578 39.9808 70.8332 39.1914 72.4664C37.1502 76.2238 35.7947 83.2 35.9355 84.9425C34.2402 82.3162 32.3078 79.8507 30.1626 77.577C29.7274 77.064 29.2308 76.6065 28.684 76.2147C28.6745 76.1484 28.6399 76.0882 28.5875 76.0466C28.535 76.0049 28.4686 75.9849 28.4018 75.9907C28.1952 76.0149 27.9935 76.0708 27.8039 76.1566C27.317 75.0384 26.7039 73.9795 25.9765 73.0005C22.2265 67.4264 20.9867 67.8083 14.7714 66.2893C14.4028 66.1724 14.0182 66.1135 13.6314 66.1149C13.569 66.1154 13.5085 66.1365 13.4592 66.1748C13.41 66.2131 13.3746 66.2665 13.3586 66.3268C13.3426 66.3872 13.3469 66.4511 13.3707 66.5088C13.3946 66.5664 13.4367 66.6147 13.4906 66.6461C14.0874 66.9275 14.723 67.118 15.3762 67.211C18.3579 67.9565 19.5554 68.099 20.8083 68.7061C23.7814 70.1602 25.3683 73.6434 27.4283 76.3481C25.8625 77.2692 24.4454 78.4223 23.2251 79.7681C22.7765 78.672 22.2783 77.5918 21.7967 76.5037C21.3646 75.5404 20.9576 74.5087 19.7948 74.3029C19.2788 74.2325 18.7551 74.2407 18.2416 74.3274C16.7071 74.5349 9.51489 75.647 8.40738 76.2301C8.368 76.2554 8.33764 76.2925 8.32069 76.3361C8.30374 76.3797 8.30105 76.4276 8.31303 76.4728C8.325 76.518 8.35102 76.5583 8.38733 76.5878C8.42364 76.6173 8.46838 76.6346 8.51511 76.6371C9.10949 76.6267 9.70054 76.5457 10.2758 76.396C11.5931 76.1514 17.6619 75.0354 18.9968 74.9755C19.4541 74.9164 19.9168 75.032 20.2924 75.2993C20.6236 75.6554 20.8761 76.0772 21.0334 76.5373C21.1189 76.7254 22.6465 80.1602 22.8004 80.3164C22.7759 80.358 22.7509 80.3911 22.7258 80.4304C22.7178 80.439 22.7178 80.4469 22.7092 80.4555C22.6738 80.4535 22.6383 80.4594 22.6055 80.4728C22.5726 80.4863 22.5432 80.5069 22.5193 80.5331C22.4954 80.5594 22.4777 80.5907 22.4675 80.6247C22.4573 80.6587 22.4547 80.6946 22.4602 80.7297C22.6511 81.3772 22.85 82.0087 22.9999 82.6677C23.6959 85.8363 24.4819 91.3528 27.1039 96.5392C29.2528 100.822 33.4139 106.072 38.0679 104.845C40.5599 104.181 42.2374 102.079 43.4829 99.9199C43.8906 101.594 44.3393 103.259 44.8287 104.911C44.9651 105.602 45.2329 106.26 45.6175 106.849C45.7669 107.024 46.0165 106.866 46.0331 106.675C46.0145 106.053 45.8821 105.439 45.6426 104.864C42.9317 95.8677 42.5401 90.17 41.7968 87.764C41.7865 87.729 41.7639 87.6988 41.7331 87.6789C41.7024 87.6591 41.6655 87.651 41.6293 87.656C41.5931 87.661 41.5598 87.6789 41.5357 87.7064C41.5115 87.7338 41.498 87.7691 41.4976 87.8056C41.3676 90.325 42.6581 96.4588 43.2338 98.9206C42.0625 100.948 40.7087 103.115 38.4162 103.979C34.0163 105.659 29.9802 100.573 27.8341 96.4126C25.1027 91.1025 24.3064 85.1762 23.6315 82.4414C23.5035 81.8256 23.2722 81.2358 22.9475 80.6972C22.9555 80.6886 22.964 80.6886 22.972 80.6806C23.9125 80.0907 25.8055 77.9526 27.8478 76.901C28.033 76.8058 28.2132 76.7266 28.3876 76.6268C28.7099 77.0584 29.0625 77.4666 29.4427 77.8483C35.9492 84.9693 37.9887 90.3399 39.4102 92.6831C39.551 92.9157 39.95 92.7658 39.8588 92.4916C39.2393 90.4459 37.2368 86.9119 36.1875 85.3318C36.2337 85.3252 36.2775 85.3074 36.3152 85.2798C36.3528 85.2523 36.3832 85.2159 36.4035 85.1739C36.7501 84.2523 36.9969 78.9644 39.3436 73.7284C40.8911 70.2662 43.3296 68.5414 47.193 69.2596C49.1088 69.6095 49.9627 70.5358 51.0804 71.9505C51.2047 72.1004 51.4623 71.934 51.4042 71.7596C50.3976 68.9734 46.4412 67.716 43.0457 68.8947Z" fill="#191919"/>
<path d="M16.3589 69.194C15.5539 68.8631 14.6958 68.6803 13.8258 68.6542C11.4129 68.386 8.98204 68.3164 6.55774 68.4462C6.35082 68.4712 6.15214 68.5423 5.97634 68.6542C5.78539 68.7289 5.85892 68.9894 6.02593 69.0532C6.23056 69.1415 6.45117 69.1867 6.67402 69.186C9.04052 69.088 11.411 69.1575 13.7677 69.3941C14.6086 69.5456 15.4652 69.5902 16.3173 69.5269C16.3516 69.517 16.3823 69.4973 16.4056 69.4702C16.4288 69.443 16.4435 69.4097 16.448 69.3742C16.4524 69.3387 16.4463 69.3028 16.4305 69.2707C16.4147 69.2387 16.3898 69.212 16.3589 69.194Z" fill="#191919"/>
<path d="M12.8364 71.022C10.9389 70.6327 7.56733 71.0391 5.65441 71.3127C5.29743 71.3222 4.94871 71.4223 4.64095 71.6034C4.59643 71.6309 4.56082 71.6707 4.53845 71.718C4.51607 71.7653 4.50789 71.8181 4.51488 71.87C4.52188 71.9218 4.54375 71.9705 4.57786 72.0102C4.61197 72.0499 4.65685 72.0789 4.70707 72.0936C5.27365 72.2492 5.51704 71.9705 8.76889 71.7031C10.1226 71.5891 11.5015 71.6114 12.8393 71.3874C12.8787 71.3755 12.9131 71.3512 12.9375 71.318C12.962 71.2849 12.975 71.2448 12.9747 71.2036C12.9743 71.1625 12.9607 71.1225 12.9358 71.0898C12.9108 71.057 12.876 71.0333 12.8364 71.022Z" fill="#191919"/>
<path d="M13.2097 73.0313C12.6258 72.8721 12.0106 72.8664 11.4239 73.0147C9.84315 73.1728 8.27519 73.4395 6.73106 73.8127C6.43389 73.858 6.15499 73.9844 5.92508 74.1781C5.90782 74.1971 5.89562 74.2201 5.88957 74.245C5.88352 74.27 5.88383 74.296 5.89047 74.3208C5.89711 74.3456 5.90986 74.3683 5.92756 74.3869C5.94525 74.4055 5.96733 74.4193 5.99177 74.4272C6.25246 74.4997 6.52758 74.5026 6.78977 74.4357C7.03886 74.4021 9.60671 73.9569 11.4244 73.7631C12.4767 73.6491 12.8711 73.6902 13.2102 73.4639C13.2475 73.4414 13.2783 73.4096 13.2997 73.3717C13.3211 73.3337 13.3323 73.2909 13.3322 73.2474C13.3321 73.2039 13.3208 73.1611 13.2994 73.1232C13.2779 73.0853 13.247 73.0537 13.2097 73.0313Z" fill="#191919"/>
<path d="M62.0729 61.0704C61.9247 60.7243 61.668 60.4359 61.3416 60.2484C61.3775 60.0273 61.9418 56.3987 61.9315 56.1615C61.9638 55.5681 61.787 54.9821 61.4319 54.5055C61.0767 54.0289 60.5658 53.692 59.9878 53.5532C58.7184 53.169 58.2254 53.2152 57.1806 51.5103C56.5868 50.3871 55.7993 49.3775 54.8544 48.5281C53.8118 47.6478 52.4809 47.1834 51.1169 47.2239C46.9725 47.4519 45.206 53.0892 47.437 56.1365C48.8124 58.0175 51.256 58.5789 53.5674 58.421C54.4372 58.379 55.3003 58.2453 56.142 58.022C56.294 59.6822 57.0125 61.2396 58.1769 62.4327C58.2245 62.4775 58.2826 62.5095 58.3459 62.5257C58.4092 62.5418 58.4756 62.5416 58.5387 62.525C58.6019 62.5084 58.6599 62.476 58.707 62.4308C58.7542 62.3856 58.7892 62.3292 58.8085 62.2668C59.0793 61.1148 59.6447 60.5648 60.8685 60.6053C62.1134 61.2841 61.557 63.7249 60.046 64.0692C59.2303 64.255 59.0017 63.8178 58.5674 63.795C58.5226 63.7945 58.4782 63.8043 58.4378 63.8238C58.3974 63.8432 58.362 63.8717 58.3344 63.9071C58.3068 63.9424 58.2878 63.9837 58.2788 64.0276C58.2697 64.0716 58.271 64.117 58.2824 64.1603C58.3964 64.5707 58.9601 64.7617 59.3785 64.8084C59.0488 65.8398 58.8758 66.9148 58.8655 67.9976C58.8458 69.2292 59.0167 70.4565 59.3722 71.6359C59.3981 71.7154 59.4536 71.7817 59.5273 71.8212C59.6009 71.8606 59.687 71.8701 59.7674 71.8476C59.8479 71.825 59.9165 71.7723 59.959 71.7003C60.0014 71.6284 60.0144 71.5428 59.9952 71.4615C59.3939 69.3001 59.3311 67.0243 59.8123 64.8329C61.7389 64.7321 62.7033 62.4013 62.0729 61.0704ZM49.0262 55.9455C48.3194 56.1786 47.5533 54.6539 47.3977 53.8194C47.2267 52.9074 47.2506 51.2607 47.8964 50.6211C47.9161 50.6024 47.9404 50.5891 47.9668 50.5827C47.9932 50.5762 48.0208 50.5768 48.0469 50.5845C48.073 50.5921 48.0967 50.6064 48.1155 50.6261C48.1343 50.6457 48.1476 50.67 48.1541 50.6964C48.2681 51.4807 47.8531 52.2006 48.129 53.5783C48.4527 55.1965 49.1898 55.0478 49.2416 55.6634C49.2401 55.7271 49.2184 55.7887 49.1797 55.8394C49.141 55.8901 49.0873 55.9272 49.0262 55.9455Z" fill="#191919"/>
</svg>
