<svg width="300" height="257" viewBox="0 0 300 257" fill="none" xmlns="http://www.w3.org/2000/svg">
<path d="M200.094 75.3948C200.202 74.3668 201.911 73.2823 202.631 72.6192C204.473 70.9204 206.768 68.7899 207.266 66.3535C207.702 64.2153 206.172 62.8468 203.944 62.5936C203.317 62.5229 201.386 62.7542 201.117 62.0167C200.616 60.6263 201.965 57.9394 202.122 56.4912C203.237 46.2703 196.072 40.6047 188.555 42.2881C187.306 42.5669 185.472 43.6013 184.179 43.1876C182.16 42.5335 180.838 39.7862 179.376 38.4844C174.736 34.3467 166.991 33.5269 162.209 37.4564C161.275 38.2274 160.281 39.9918 158.917 40.1421C157.643 40.2796 156.2 39.1694 155.117 38.7183C152.388 37.5824 149.061 36.5634 146.106 37.5939C145.222 37.9072 144.433 38.4421 143.815 39.1475C143.197 39.8528 142.77 40.7049 142.575 41.6224C142.425 42.3112 142.703 44.3209 141.869 44.6859C140.795 45.1562 138.855 44.6781 137.692 44.7463C128.683 45.2692 125.556 50.6804 128.492 56.5683C129.038 57.6631 130.462 58.9661 130.59 60.1663C130.71 61.2906 127.162 60.972 125.129 66.5617C120.728 78.6677 134.469 78.5983 134.598 78.6574C135.805 71.9176 136.172 66.3137 142.745 62.2261C143.009 62.1644 142.727 62.104 143.271 63.2297C144.101 64.6957 145.376 65.8596 146.912 66.5527C147.395 66.7789 148.911 67.059 149.02 67.6758C149.14 68.353 148.045 69.4748 147.717 70.0145C147.166 70.9067 146.829 71.9143 146.733 72.9584C146.71 73.7812 146.933 74.5921 147.374 75.2868C147.816 75.9816 148.455 76.5285 149.209 76.8571C152.988 78.9478 158.669 77.1373 162.219 75.6132C163.352 75.1262 165.867 73.2231 167.201 73.565C167.908 73.7461 168.311 76.3688 168.684 76.9574C169.307 77.8923 170.113 78.6914 171.053 79.3067C171.993 79.9219 173.048 80.3405 174.154 80.5374C176.202 80.9704 178.302 81.1105 180.39 80.955C180.758 80.9241 182.559 80.5065 182.817 80.9164C183.125 81.4022 180.304 84.0994 179.99 84.5144C175.493 90.5205 177.542 93.805 177.533 93.9335C178.281 93.5021 179.089 93.1835 179.93 92.9877C186.385 91.4971 188.115 100.878 183.043 106.087L183.232 106.296C188.821 111.19 197.964 106.81 199.673 101.085C200.148 99.4924 199.254 96.3583 200.187 95.0669C200.842 94.1674 202.196 93.7433 203.11 93.1072C204.299 92.3661 205.299 91.3569 206.029 90.1603C206.758 88.9638 207.198 87.6131 207.312 86.2162C207.426 84.8194 207.212 83.4153 206.686 82.1161C206.16 80.817 205.338 79.6589 204.284 78.7345C203.593 78.0933 199.994 76.3598 200.094 75.3948Z" fill="#262626"/>
<path d="M114.142 44.1175C111.936 42.474 109.169 40.5079 106.752 40.8151C104.623 41.0849 103.241 43.4108 100.735 42.3661C97.6357 41.0811 92.4188 35.5119 89.3825 36.1158C89.07 36.1773 88.7793 36.3199 88.5393 36.5293C88.2994 36.7387 88.1188 37.0075 88.0155 37.3087C87.9123 37.61 87.8901 37.9331 87.9512 38.2456C88.0123 38.5581 88.1545 38.8491 88.3635 39.0893C89.7851 40.5063 91.3254 41.799 92.9675 42.9533C105.312 52.4957 104.132 46.009 108.184 46.8224C111.805 47.5497 115.061 51.4716 118.319 53.6059C120.062 54.747 121.874 54.1341 122.138 52.1539C122.532 49.2202 115.983 45.4886 114.142 44.1175Z" fill="#375DFB"/>
<path d="M99.0246 17.8192C107.392 30.9802 108.509 24.4884 112.024 26.6215C115.183 28.5387 116.919 33.3253 119.255 36.4389C120.509 38.1094 122.426 38.1389 123.342 36.3695C124.703 33.7429 119.81 28.017 118.548 26.1049C117.034 23.8086 115.088 21.0124 112.721 20.4856C110.621 20.0179 108.536 21.7346 106.534 19.8984C103.699 17.2975 100.152 8.50811 96.6397 10.4125C96.3143 10.5895 96.0606 10.8744 95.9225 11.2182C95.7844 11.5621 95.7704 11.9433 95.8829 12.2963C96.7181 14.2495 97.7718 16.1037 99.0246 17.8192Z" fill="#375DFB"/>
<path d="M181.923 106.935C183.223 106.018 184.276 104.793 184.988 103.37C185.699 101.947 186.048 100.37 186.001 98.7792C186.081 93.9579 182.347 91.172 177.537 93.9348C177.545 93.8063 175.49 90.4447 179.994 84.5157C180.303 84.0981 183.127 81.4022 182.821 80.9177C182.564 80.5104 180.765 80.928 180.394 80.9576C178.306 81.1156 176.206 80.975 174.158 80.5399C173.052 80.3428 171.997 79.9238 171.057 79.3084C170.117 78.6929 169.311 77.8936 168.688 76.9586C168.315 76.3714 167.917 73.7461 167.205 73.5675C165.873 73.2206 163.357 75.1288 162.223 75.6158C157.598 77.5973 151.106 79.3205 147.682 75.6672C146.208 74.1162 146.625 71.8251 147.721 70.0132C148.049 69.471 149.144 68.3517 149.024 67.6745C148.915 67.059 147.399 66.775 146.916 66.5514C145.976 66.1473 145.131 65.551 144.436 64.8008C143.74 64.0505 143.209 63.163 142.877 62.1953L142.749 62.2248C134.7 67.2363 135.793 75.0363 133.867 82.0575C132.582 85.9125 131.105 86.6745 129.47 89.6866C128.094 92.2864 127.599 95.2621 128.057 98.1676C129.222 107.317 134.269 117.601 143.476 120.606C143.467 122.818 143.321 125.028 143.038 127.221C139.849 127.944 136.599 128.36 133.331 128.464L133.351 129.071C136.435 155.479 174.388 150.634 185.309 135.624L185.508 135.206C182.278 133.684 173.991 130.543 170.677 125.868C171.633 120.351 173.567 115.048 176.387 110.211C177.599 108.175 180.021 108.049 181.923 106.935Z" fill="white"/>
<path d="M62.7052 70.8588C58.9789 66.1775 49.5152 66.2649 43.6726 67.5075C41.5563 67.9572 41.8878 68.0986 41.803 67.776C41.8569 66.0387 42.0034 64.3065 42.2411 62.5834C47.6379 60.5633 50.6383 61.8548 52.3858 60.2267C53.194 59.4724 52.6338 58.4662 51.9373 57.879C47.1047 54.281 36.9266 56.2586 32.7724 64.6895C30.358 69.5905 30.7306 74.9451 30.3644 80.2457C30.1074 83.9066 28.7055 87.3582 28.446 91.0178C28.2185 94.2111 28.9419 97.3529 28.9522 100.537C28.9042 103.308 28.7017 106.074 28.3457 108.823C26.8218 122.876 29.993 140.109 33.9455 148.648L33.916 148.797C39.4849 149.682 45.1747 147.008 49.4317 143.585C49.8891 143.217 52.107 140.97 53.9573 139.428L53.8288 139.268C48.7789 131.826 46.1872 122.684 44.4101 113.865C43.8126 110.91 43.3089 107.183 43.2061 105.878C43.1869 105.621 42.9286 105.082 43.0378 104.943C46.6357 96.8273 47.2987 95.0592 47.5531 92.9929C47.5531 92.9325 47.5634 91.8479 47.4336 91.8685L47.4632 91.6192C48.5258 91.6539 54.2335 93.2807 55.5789 90.4255C56.3499 88.7974 54.0626 87.4018 52.3472 86.8853C48.9138 85.9311 45.3178 85.7122 41.794 86.2428C41.3378 86.3019 40.5206 86.3135 39.7548 86.433C39.6623 85.1865 39.6725 83.9362 39.7856 82.6923C46.6061 79.174 58.3865 84.4284 60.2047 80.7134C61.5487 77.9661 54.0794 74.2075 45.5139 75.1879L45.4445 74.3822C52.0761 72.4406 58.9275 75.1751 62.4623 73.4827C63.2436 73.1088 63.5828 72.1399 62.7052 70.8588Z" fill="white"/>
<path d="M226.293 215.162C226.659 205.672 229.634 196.471 229.891 186.964C230.231 174.192 224.689 161.062 216.056 151.712C207.89 142.87 196.084 140.245 185.603 135.264C185.571 135.245 185.538 135.228 185.504 135.214L185.304 135.632C174.382 150.641 136.43 155.485 133.346 129.078L133.327 128.472C125.39 128.76 117.403 127.451 113.206 127.377C100.842 127.161 95.9518 136.337 85.635 140.507C79.845 142.847 74.0204 139.641 66.9262 144.814C66.7861 144.52 66.3351 132.187 51.9476 135.425L51.6096 135.614C52.3138 136.933 53.0978 138.209 53.9572 139.433C52.1069 140.975 49.8891 143.222 49.4316 143.59C45.1746 147.013 39.4849 149.687 33.9159 148.802L33.9455 148.653C33.3208 147.324 32.7859 145.955 32.3444 144.555L32.1555 144.615C26.6303 145.341 26.7395 149.765 27.391 151.554C29.3184 156.841 32.9381 160.496 35.7161 165.26C37.862 168.941 39.3448 173.029 42.678 175.883C55.5968 186.934 87.4841 185.743 92.4183 186.565C91.3839 196.482 91.2104 206.588 90.0218 216.377C89.5464 220.286 88.6392 224.254 87.7539 228.243C93.3434 227.567 96.0983 234.429 102.096 233.138C106.021 232.163 109.855 230.852 113.554 229.218C114.915 228.697 117.878 227.08 118.397 229.298C119.497 233.993 117.112 233.849 110.829 235.882C107.189 237.059 101.301 239.402 97.5105 238.339C93.6004 237.243 91.5753 232.3 86.4214 234.749C85.6811 238.467 85.3792 242.259 85.5219 246.048C109.193 248.465 136.088 249.837 161.739 250.186C164.432 247.72 167.54 245.75 170.919 244.367C177.497 241.959 180.248 250.314 186.744 248.922C196.423 246.847 202.261 241.692 203.055 245.083C203.688 247.789 203.174 248.883 201.414 249.709C210.047 249.195 223.737 249.409 227.223 239.832C230.068 231.999 225.982 223.188 226.293 215.162Z" fill="#C2D6FF"/>
<path d="M76.7624 77.0874C77.9476 77.0127 79.1375 77.1131 80.2934 77.3855C81.4732 77.6789 82.5203 78.3599 83.2668 79.3194C83.3464 79.4184 84.2613 81.0002 84.2613 81.0002C84.5543 80.8936 83.7409 76.5503 86.8878 73.2902C89.4577 71.0415 88.219 72.6953 83.8938 72.0463C82.0872 71.7739 79.5533 68.5254 79.1588 68.7722C78.79 69.0099 79.2385 70.1857 79.259 70.2242C79.5574 71.5455 79.3943 72.9291 78.797 74.1448C78.1997 75.3605 77.2042 76.335 75.976 76.9062C75.818 76.9749 75.6651 77.0547 75.5186 77.1452C75.6586 77.2763 76.5838 77.0977 76.7624 77.0874Z" fill="#C2D6FF"/>
<path d="M81.2609 98.8292C82.4417 98.9176 83.6021 99.1858 84.702 99.6246C85.8309 100.065 86.7729 100.882 87.3682 101.938C87.4286 102.046 88.1045 103.737 88.1045 103.737C88.4052 103.681 88.2446 99.2597 91.8437 96.4854C91.9337 96.416 93.3458 95.5499 93.3458 95.5011C91.9022 95.3862 90.4693 95.1628 89.0592 94.8329C87.3284 94.2675 85.2866 90.7299 84.8613 90.9252C84.4617 91.1089 84.7418 92.3477 84.7418 92.3875C84.8394 93.7397 84.4742 95.0849 83.7062 96.202C82.9382 97.3192 81.813 98.1419 80.5156 98.5349C80.3486 98.5799 80.1841 98.6403 80.0273 98.7136C80.1378 98.8588 81.0823 98.8164 81.2609 98.8292Z" fill="#C2D6FF"/>
<path d="M217.52 208.08C216.727 204.69 210.901 209.838 201.209 211.918C194.666 213.323 191.857 204.99 185.384 207.363C181.562 208.925 178.079 211.215 175.131 214.107C174.794 214.407 172.604 216.723 173.041 216.603C175.828 225.039 181.559 213.544 187.552 212.933C188.404 212.853 189.263 212.949 190.076 213.216C190.889 213.483 191.638 213.915 192.277 214.484C193.557 215.622 195.033 216.515 196.634 217.121C200.424 218.185 206.31 215.836 209.951 214.654C216.235 212.619 218.62 212.775 217.52 208.08Z" fill="#375DFB"/>
<path d="M186.737 248.921C180.242 250.313 177.486 241.958 170.913 244.366C167.533 245.748 164.425 247.718 161.732 250.184C165.095 250.234 193.372 250.075 193.372 250.075C197.674 249.967 199.097 249.859 201.408 249.706C203.168 248.881 203.682 247.788 203.049 245.08C202.251 241.698 196.488 246.831 186.737 248.921Z" fill="#375DFB"/>
<path d="M178.164 157.513C182.052 157.032 183.832 160.737 187.254 161.701C191.191 162.808 196.707 160.423 203.665 158.289C207.609 157.08 209.041 156.477 208.141 152.659C207.344 149.284 201.555 154.395 191.829 156.499C185.337 157.902 182.578 149.526 175.995 151.942C173.147 153.065 170.507 154.659 168.188 156.657C167.367 157.332 166.531 157.975 165.746 158.686C165.406 158.993 163.229 161.302 163.657 161.183C166.429 169.542 172.079 158.266 178.164 157.513Z" fill="#375DFB"/>
<path d="M130.294 186.286C123.789 187.683 121.042 179.323 114.459 181.731C110.656 183.331 107.181 185.617 104.205 188.475C103.867 188.774 101.688 191.081 102.116 190.961C103.975 196.591 107.617 192.962 109.327 191.604C111.383 189.974 113.982 187.62 116.627 187.298C120.516 186.825 122.295 190.527 125.708 191.484C129.496 192.547 135.385 190.199 139.026 189.018C145.309 186.983 147.694 187.14 146.594 182.443C145.8 179.056 139.976 184.209 130.294 186.286Z" fill="#375DFB"/>
<path d="M113.554 229.216C109.855 230.85 106.022 232.161 102.096 233.135C96.0983 234.42 93.3434 227.565 87.7539 228.24C87.2759 230.399 86.8082 232.577 86.4214 234.746C91.5547 232.313 93.6813 237.262 97.5105 238.337C101.301 239.399 107.189 237.052 110.829 235.88C117.116 233.847 119.497 233.991 118.397 229.295C117.878 227.078 114.915 228.694 113.554 229.216Z" fill="#375DFB"/>
<path d="M98.6066 152.658C97.8113 149.268 91.9853 154.417 82.2878 156.498C75.7924 157.891 73.0362 149.532 66.4624 151.941C63.6084 153.058 60.9649 154.653 58.6448 156.656C57.8327 157.328 56.9911 157.977 56.2034 158.685C55.8642 158.992 53.6772 161.301 54.1141 161.181C56.8767 169.542 62.5433 158.262 68.6263 157.511C72.5145 157.032 74.2942 160.737 77.707 161.699C81.495 162.767 87.3852 160.414 91.0242 159.242C97.3243 157.209 99.704 157.355 98.6054 152.658H98.6066Z" fill="#375DFB"/>
<path d="M41.8531 67.9636C47.3342 66.3537 53.1664 66.3814 58.6319 68.0433C60.2296 68.5772 61.6433 69.5529 62.7091 70.8575L62.8376 70.7778C63.4955 65.9681 65.2134 56.5233 66.0705 52.3072C66.7219 49.0947 67.7306 45.5147 65.951 43.9933C63.7422 42.1043 48.9357 42.8907 46.4956 45.286C43.9925 47.7442 43.9257 52.4267 43.264 56.1763L43.3231 56.4655C44.387 56.2527 45.4714 56.1592 46.556 56.1866C48.4886 56.1282 50.3844 56.7241 51.9361 57.8777C52.6325 58.4649 53.1928 59.4711 52.3845 60.2254C50.6576 61.8355 47.6058 60.5736 42.2399 62.5821C41.9788 64.364 41.8495 66.1627 41.8531 67.9636Z" fill="#375DFB"/>
<path d="M55.7181 89.9282L55.7682 89.9371C55.7874 90.2057 57.5093 89.5002 57.5979 89.4604C58.306 89.1201 58.9353 88.6357 59.4455 88.0383C59.9557 87.4409 60.3357 86.7436 60.561 85.9909C61.5673 81.9408 62.2394 77.815 62.5707 73.6549L62.4615 73.4853C61.5574 73.9119 60.5657 74.1201 59.5665 74.0931C54.7543 74.0057 50.1979 72.9983 45.4436 74.3912L45.513 75.1969C53.9217 74.2396 61.5748 77.9327 60.2038 80.7224C58.3856 84.4361 46.6001 79.1804 39.7847 82.7013C39.6683 83.9446 39.658 85.1956 39.7539 86.4407C40.5249 86.3212 41.3369 86.3122 41.7931 86.2505C45.3169 85.7198 48.913 85.9387 52.3464 86.893C53.5079 87.2438 55.8954 88.3566 55.7181 89.9282Z" fill="#375DFB"/>
<path d="M181.709 100.646C180.84 100.097 179.831 99.8081 178.802 99.815C178.884 98.7625 179.039 97.6574 179.564 97.2809C179.743 97.1833 179.942 97.1264 180.146 97.1144C180.35 97.1024 180.555 97.1356 180.744 97.2116C180.826 97.2331 180.911 97.2383 180.995 97.227C181.078 97.2156 181.159 97.1879 181.232 97.1454C181.305 97.1029 181.369 97.0465 181.42 96.9794C181.471 96.9122 181.508 96.8357 181.53 96.7541C181.551 96.6725 181.556 96.5875 181.545 96.5039C181.534 96.4202 181.506 96.3397 181.463 96.2668C181.421 96.1939 181.365 96.1301 181.297 96.079C181.23 96.0279 181.154 95.9905 181.072 95.969C180.7 95.8398 180.303 95.797 179.912 95.8438C179.52 95.8905 179.145 96.0256 178.813 96.2388C177.693 97.0432 177.578 98.7934 177.477 100.338C177.386 101.717 177.374 102.86 176.087 103.398C175.951 103.456 175.84 103.559 175.771 103.69C175.703 103.82 175.681 103.97 175.71 104.115C175.739 104.259 175.817 104.39 175.93 104.484C176.044 104.578 176.186 104.631 176.333 104.632C176.833 104.492 177.289 104.23 177.662 103.868C178.034 103.507 178.31 103.059 178.465 102.564C178.601 102.091 178.683 101.605 178.709 101.113C179.534 101.072 180.351 101.293 181.043 101.745C181.115 101.789 181.195 101.818 181.278 101.831C181.362 101.844 181.447 101.84 181.529 101.82C181.611 101.8 181.688 101.764 181.756 101.714C181.824 101.664 181.882 101.601 181.925 101.529C181.969 101.457 181.998 101.377 182.011 101.294C182.024 101.21 182.02 101.125 182 101.043C181.98 100.961 181.944 100.884 181.894 100.816C181.844 100.748 181.782 100.69 181.709 100.646Z" fill="#262626"/>
<path d="M88.1282 180.864C87.7119 180.456 86.8047 179.444 84.249 176.938C81.0193 174.036 78.2123 170.696 75.9096 167.015C75.8614 166.942 75.8285 166.86 75.8132 166.774C75.7978 166.688 75.8003 166.599 75.8203 166.514C75.8404 166.429 75.8777 166.348 75.9299 166.278C75.9821 166.208 76.0481 166.149 76.1239 166.105C76.1997 166.061 76.2837 166.033 76.3706 166.023C76.4576 166.013 76.5457 166.02 76.6297 166.046C76.7136 166.071 76.7915 166.113 76.8586 166.169C76.9257 166.225 76.9805 166.295 77.0198 166.373C80.2643 171.942 84.6704 175.247 89.1305 180.064C89.6483 180.62 88.8979 181.618 88.1282 180.864Z" fill="#262626"/>
<path d="M94.6853 172.383C94.6026 172.364 94.517 172.362 94.4335 172.376C94.35 172.391 94.2702 172.422 94.1986 172.467C94.127 172.512 94.065 172.571 94.0162 172.641C93.9675 172.71 93.9328 172.788 93.9143 172.871C93.2957 175.683 92.7844 178.517 92.3813 181.367C90.0973 177.495 88.2965 173.357 87.0193 169.046C87.0014 168.961 86.9669 168.881 86.9177 168.81C86.8685 168.739 86.8056 168.678 86.7327 168.632C86.6413 168.573 86.5364 168.538 86.4278 168.531C86.3193 168.524 86.2108 168.545 86.1127 168.592C86.0145 168.639 85.9298 168.71 85.8668 168.798C85.8037 168.887 85.7643 168.99 85.7523 169.098C85.7419 169.184 85.7489 169.271 85.7729 169.354C86.9936 174.291 89.922 179.595 92.0999 183.512C91.4343 188.968 91.0206 195.4 90.7109 200.231C89.5994 217.525 89.0713 219.339 87.2673 227.45C85.6983 234.5 84.6665 239.41 84.849 245.806C84.8518 245.934 84.8926 246.058 84.9662 246.162C85.0397 246.266 85.1427 246.346 85.2618 246.391C85.381 246.437 85.511 246.445 85.6353 246.417C85.7595 246.388 85.8723 246.322 85.9592 246.229C86.0171 246.168 86.0624 246.095 86.0923 246.016C86.1223 245.938 86.1365 245.853 86.1339 245.769C85.8255 234.963 89.381 226.88 90.6544 216.453C92.4327 201.746 91.9072 187.948 95.1697 173.149C95.2065 172.983 95.1763 172.809 95.0855 172.666C94.9947 172.522 94.8508 172.42 94.6853 172.383Z" fill="#262626"/>
<path d="M182.601 105.627C180.71 107.51 177.428 107.208 175.826 109.9C171.391 117.353 169.721 125.358 168.604 134.721C168.594 134.804 168.601 134.889 168.624 134.97C168.647 135.051 168.686 135.127 168.738 135.193C168.79 135.259 168.855 135.314 168.929 135.355C169.002 135.396 169.083 135.422 169.167 135.431C169.335 135.45 169.504 135.402 169.638 135.297C169.771 135.193 169.858 135.04 169.88 134.872C170.974 125.706 172.6 117.827 176.929 110.558C177.977 108.797 180.324 108.617 182.245 107.493C183.644 106.523 184.78 105.219 185.548 103.699C186.316 102.18 186.692 100.493 186.643 98.7908C186.724 93.8718 183.029 90.6028 177.898 93.0237C177.32 90.6336 178.176 87.9724 180.509 84.8987C180.582 84.801 180.802 84.5748 181.084 84.2793C183.2 82.0537 183.791 81.2518 183.36 80.5721C182.822 79.7214 181.048 80.2585 180.337 80.3151C178.304 80.4693 176.261 80.3292 174.268 79.9039C173.253 79.7224 172.284 79.3389 171.42 78.776C170.555 78.2131 169.813 77.4824 169.236 76.6271C168.912 76.1131 168.56 73.245 167.365 72.943C165.695 72.5061 163.143 74.5171 161.969 75.0234C157.649 76.8738 151.359 78.6471 148.145 75.22C146.889 73.8965 147.332 71.888 148.274 70.337C148.659 69.71 149.835 68.5843 149.654 67.564C149.465 66.491 147.805 66.2572 147.17 65.9642C146.316 65.5992 145.548 65.0597 144.914 64.3804C144.281 63.701 143.797 62.8968 143.492 62.0192C143.289 61.1543 143.273 60.2559 143.445 59.3842C143.616 58.5124 143.972 57.6873 144.488 56.964C144.53 56.8907 144.557 56.8099 144.567 56.7262C144.578 56.6425 144.572 56.5575 144.55 56.4761C144.527 56.3947 144.489 56.3185 144.437 56.2519C144.386 56.1852 144.321 56.1294 144.248 56.0877C144.175 56.0459 144.094 56.019 144.01 56.0085C143.926 55.9979 143.841 56.004 143.76 56.0263C143.679 56.0486 143.602 56.0868 143.536 56.1385C143.469 56.1903 143.413 56.2546 143.372 56.328C142.295 57.9555 141.854 59.922 142.133 61.8535C135.596 66.0683 135.175 71.7801 133.967 78.5482C132.757 85.5039 131.107 85.3163 128.897 89.3936C127.452 92.1094 126.933 95.2224 127.418 98.2601C128.582 107.396 133.505 117.746 142.791 121.064C142.814 122.911 142.707 124.757 142.471 126.589C131.744 129.364 119.513 126.846 113.218 126.742C100.547 126.515 95.6449 135.767 85.3949 139.917C80.0058 142.091 74.4407 139.212 67.3953 143.722C67.2536 142.294 66.8249 140.909 66.1349 139.65C65.4449 138.391 64.5078 137.285 63.3799 136.398C60.553 134.286 56.5542 133.735 51.8064 134.803C51.6444 134.844 51.505 134.947 51.418 135.09C51.331 135.232 51.3035 135.403 51.3412 135.566C51.3779 135.729 51.4765 135.871 51.616 135.962C51.7556 136.054 51.9252 136.087 52.089 136.056C60.8267 134.09 65.6889 138.121 66.1926 144.57C64.2575 146.072 62.6168 147.919 61.3535 150.017C61.2654 150.163 61.2389 150.338 61.2797 150.504C61.3206 150.669 61.4254 150.811 61.5713 150.899C61.7172 150.988 61.892 151.014 62.0575 150.973C62.2229 150.932 62.3653 150.828 62.4534 150.682C63.7055 148.599 65.354 146.782 67.3054 145.333C74.1991 140.308 79.9698 143.487 85.8754 141.103C96.2642 136.897 101.071 127.833 113.195 128.022C117.493 128.093 124.835 129.343 132.708 129.135V129.154C135.853 156.107 174.542 151.513 185.824 136.012C185.898 135.909 185.94 135.787 185.945 135.66C185.949 135.533 185.917 135.408 185.85 135.299C185.784 135.191 185.687 135.105 185.572 135.052C185.457 134.998 185.328 134.98 185.203 135C185.12 135.012 185.04 135.042 184.968 135.086C184.896 135.13 184.833 135.188 184.784 135.257C174.136 149.89 137.07 154.681 133.995 129.098C136.788 129.002 139.564 128.62 142.278 127.956C142.01 129.727 141.652 131.483 141.206 133.217C141.174 133.34 141.179 133.471 141.221 133.591C141.263 133.711 141.34 133.817 141.442 133.893C141.543 133.97 141.666 134.014 141.793 134.021C141.92 134.027 142.047 133.996 142.156 133.93C142.303 133.843 142.409 133.702 142.452 133.537C143.423 129.587 143.987 125.549 144.136 121.484C154.593 124.365 166.69 118.143 173.845 110.214C173.904 110.152 173.949 110.078 173.979 109.998C174.009 109.918 174.023 109.832 174.02 109.747C174.016 109.618 173.973 109.493 173.897 109.389C173.82 109.285 173.713 109.207 173.591 109.166C173.469 109.124 173.337 109.119 173.213 109.152C173.088 109.186 172.976 109.256 172.892 109.353C163.624 119.618 147.014 125.701 136.942 115.952C132.325 111.048 129.429 104.776 128.69 98.0815C128.245 95.3171 128.714 92.4832 130.025 90.0091C131.648 87.015 133.149 86.2441 134.482 82.2323C136.369 75.3395 135.391 67.9688 142.525 63.1372C142.991 64.1305 143.655 65.0186 144.475 65.7476C145.296 66.4765 146.256 67.0311 147.297 67.3777C147.671 67.4843 148.035 67.6205 148.387 67.785C148.398 68.0317 147.854 68.7436 147.616 69.0482C146.747 70.1598 146.217 71.4981 146.088 72.9032C146.051 73.8501 146.298 74.7864 146.798 75.5915C147.298 76.3965 148.028 77.0334 148.893 77.42C152.77 79.5633 158.414 77.943 162.467 76.2043C163.44 75.7867 166.084 73.9517 166.954 74.1483C167.308 74.4478 167.813 76.7903 168.144 77.3133C168.815 78.3142 169.679 79.1704 170.687 79.8315C171.694 80.4925 172.824 80.9449 174.009 81.1619C176.607 81.7607 179.299 81.8378 181.928 81.388C181.443 82.0305 179.5 84.0865 179.475 84.1251C176.829 87.6113 175.906 90.8161 176.731 93.6572C176.161 94.0119 175.614 94.4038 175.094 94.8304C175.075 94.8471 173.089 96.8016 173.089 97.3156C173.089 97.4529 173.133 97.5866 173.215 97.6967C173.297 97.8069 173.412 97.8878 173.543 97.9273C173.675 97.9671 173.815 97.964 173.945 97.9185C174.074 97.8729 174.186 97.7874 174.263 97.6741C174.797 97.048 175.345 96.4328 175.904 95.8289C184.666 88.5121 188.394 99.8663 182.601 105.627Z" fill="#262626"/>
<path d="M222.35 167.005C218.612 167.162 214.962 168.191 211.694 170.011C210.139 165.424 207.547 161.258 204.121 157.835C201.27 154.997 194.966 150.125 191.245 148.908C191.153 148.817 191.038 148.753 190.912 148.723C190.786 148.692 190.655 148.697 190.531 148.737C190.408 148.776 190.298 148.85 190.214 148.948C190.13 149.046 190.074 149.166 190.052 149.294C189.988 149.862 190.484 150.02 191.059 150.202C193.395 150.95 197.674 154.116 198.689 154.842C204.214 158.736 208.368 164.276 210.558 170.671C202.984 175.264 198.038 183.007 195.841 187.039C194.171 190.089 191.332 194.516 191.666 198.178C191.674 198.262 191.698 198.345 191.737 198.42C191.777 198.495 191.83 198.561 191.896 198.616C191.961 198.67 192.036 198.711 192.117 198.736C192.198 198.761 192.284 198.769 192.368 198.761C192.538 198.745 192.695 198.663 192.804 198.531C192.913 198.4 192.966 198.231 192.951 198.061C192.653 194.806 195.438 190.461 196.972 187.652C200.056 181.998 208.696 168.807 222.401 168.293C222.571 168.286 222.732 168.213 222.848 168.088C222.964 167.963 223.026 167.797 223.02 167.626C223.013 167.456 222.94 167.295 222.815 167.179C222.69 167.063 222.524 167.001 222.353 167.008L222.35 167.005Z" fill="#262626"/>
<path d="M190.301 250.856C190.221 250.866 190.139 250.859 190.062 250.835C189.985 250.812 189.914 250.772 189.854 250.719C189.793 250.666 189.744 250.6 189.711 250.527C189.677 250.454 189.659 250.374 189.658 250.294C189.658 247.828 193.304 221.767 191.144 211.002C191.111 210.835 191.145 210.662 191.237 210.519C191.332 210.377 191.479 210.278 191.646 210.244C191.77 210.216 191.901 210.227 192.019 210.275C192.137 210.323 192.237 210.407 192.306 210.514C192.354 210.584 192.387 210.662 192.404 210.745C194.31 220.245 191.89 240.379 190.951 250.195C190.937 250.364 190.865 250.523 190.746 250.644C190.627 250.765 190.47 250.84 190.301 250.856Z" fill="#262626"/>
<path d="M63.7488 71.5385C63.1449 69.6573 60.7498 68.0999 58.857 67.4432C53.5317 65.8019 47.852 65.6928 42.4675 67.1284C42.5254 65.7534 42.6719 64.3836 42.9031 63.028C47.8669 61.2958 50.9199 62.46 52.8255 60.6957C53.8817 59.7178 53.4423 58.303 52.3218 57.3637C50.6504 56.157 48.6355 55.5196 46.5742 55.5454C43.5771 55.4756 40.6239 56.2759 38.0721 57.8495C35.5203 59.423 33.4792 61.7025 32.1957 64.4119C30.222 68.4314 30.0498 72.7644 29.8828 76.9599C29.8974 79.8402 29.5262 82.7094 28.779 85.491C27.7171 89.1624 27.4646 93.0206 28.0389 96.799C28.4347 100.856 28.4758 101.682 27.7061 108.775C26.2156 122.525 29.2249 139.3 32.932 147.956C32.8208 147.93 32.7102 147.901 32.6004 147.869C32.4768 147.827 32.3434 147.825 32.2183 147.862C32.0932 147.899 31.9826 147.974 31.9014 148.076C31.8205 148.177 31.772 148.301 31.7621 148.43C31.7523 148.56 31.7816 148.689 31.8462 148.802C31.8896 148.876 31.9475 148.942 32.0166 148.993C32.0857 149.045 32.1645 149.083 32.2484 149.104C38.3108 150.831 44.8216 148.125 49.8341 144.092C50.4471 143.6 55.1024 138.887 56.3141 138.59C56.4727 138.626 56.6392 138.601 56.7798 138.519C56.9203 138.437 57.0245 138.305 57.071 138.149C57.1183 137.993 57.1047 137.825 57.0329 137.679C56.9611 137.533 56.8364 137.42 56.6842 137.363C56.0571 137.121 55.2361 137.534 53.5451 138.941C51.592 140.569 49.4821 142.728 49.0285 143.091C44.26 146.923 38.9866 148.777 34.4585 148.231C33.0728 144.993 32.001 141.629 31.2577 138.186C26.4134 117.933 29.6219 108.179 29.595 100.536C29.586 97.7538 28.8548 94.3164 29.081 91.0756C29.338 87.5445 30.7424 83.9696 31.0007 80.3022C31.363 74.9129 31.0007 69.7511 33.3431 64.9876C34.5302 62.5005 36.4098 60.4088 38.7563 58.9637C41.1028 57.5186 43.8165 56.7814 46.5717 56.8407C48.3473 56.7826 50.0905 57.326 51.5187 58.3827C51.9607 58.7553 52.386 59.3529 51.944 59.7666C50.4612 61.1403 45.9844 60.0236 40.9719 62.4446C40.8256 62.5206 40.7142 62.65 40.6606 62.8059C40.607 62.9618 40.6155 63.1324 40.6841 63.2822C40.7528 63.4321 40.8765 63.5499 41.0295 63.6111C41.1826 63.6724 41.3533 63.6725 41.5064 63.6113C41.3178 64.9016 41.2032 66.2016 41.1633 67.5049C40.1403 67.8203 39.1443 68.2174 38.1848 68.6922C37.3753 69.0559 36.5144 69.5069 36.5144 70.2638C36.5124 70.4249 36.5711 70.5809 36.6787 70.7009C36.7864 70.8208 36.9352 70.8959 37.0956 70.9112C37.256 70.9266 37.4163 70.8811 37.5448 70.7838C37.6732 70.6865 37.7604 70.5445 37.7891 70.3859C38.1154 70.1481 38.4701 69.9528 38.844 69.805C45.0402 67.1467 51.9721 66.7443 58.4343 68.6678C61.292 69.6598 63.5612 72.253 62.1799 72.9186C61.3632 73.3028 60.4672 73.4886 59.565 73.4609C58.1167 73.4299 56.6693 73.3613 55.2245 73.2553C50.0847 72.8903 45.0053 74.6174 41.3985 75.1699C39.9773 75.3884 38.0306 75.6839 37.2866 76.7248C37.1942 76.8637 37.1594 77.0331 37.1896 77.1972C37.2198 77.3613 37.3127 77.5073 37.4486 77.6041C37.5845 77.7009 37.7528 77.7411 37.9177 77.7161C38.0827 77.6911 38.2315 77.6028 38.3326 77.4701C38.7579 76.8738 40.5992 76.5924 41.5886 76.4421C45.3523 75.8677 49.441 74.9181 55.371 76.7929C56.8641 77.2876 60.3129 79.0532 59.6203 80.4577C57.8843 84.0351 42.4457 76.6772 36.3422 84.7676C36.2706 84.863 36.227 84.9766 36.2163 85.0954C36.2056 85.2142 36.2282 85.3337 36.2815 85.4404C36.3349 85.5471 36.4169 85.6369 36.5184 85.6996C36.6199 85.7624 36.7369 85.7956 36.8562 85.7956C37.5064 85.7956 37.41 85.0426 39.1421 83.8411C39.0765 84.5299 39.0511 85.222 39.0663 85.9138C38.5716 86.0385 38.1116 86.2736 37.7197 86.5987C37.6507 86.6512 37.5931 86.7172 37.5503 86.7926C37.5074 86.868 37.4803 86.9513 37.4706 87.0374C37.4608 87.1236 37.4686 87.2108 37.4934 87.2939C37.5182 87.377 37.5596 87.4541 37.6151 87.5208C37.6705 87.5874 37.7389 87.6422 37.8161 87.6817C37.8932 87.7212 37.9776 87.7447 38.0641 87.7508C38.1506 87.7568 38.2374 87.7453 38.3193 87.7169C38.4012 87.6885 38.4766 87.6439 38.5408 87.5856C39.1537 87.0716 39.8437 87.0497 41.2507 86.9534C44.8813 86.3865 48.5899 86.5772 52.1432 87.5136C53.3665 87.8811 55.5419 89.0274 54.9919 90.1774C53.8804 92.6022 48.0532 90.8893 47.5469 90.9998C42.7104 90.3368 40.3076 91.3571 37.6798 95.2043C37.5844 95.3453 37.5485 95.5183 37.58 95.6856C37.6116 95.8529 37.708 96.0009 37.8482 96.0974C37.9177 96.1455 37.9961 96.1794 38.0787 96.1969C38.1614 96.2145 38.2468 96.2155 38.3299 96.1999C38.4129 96.1842 38.4921 96.1522 38.5627 96.1057C38.6333 96.0592 38.694 95.9992 38.7412 95.9291C41.022 92.5881 42.8248 91.74 46.8775 92.2142C47.2424 95.3072 42.4804 103.881 39.8373 110.876C39.8041 110.956 39.7872 111.041 39.7878 111.127C39.7883 111.214 39.8062 111.299 39.8403 111.378C39.8745 111.457 39.9242 111.529 39.9866 111.588C40.0489 111.648 40.1226 111.694 40.2033 111.725C40.284 111.755 40.3699 111.769 40.4561 111.766C40.5422 111.762 40.6268 111.741 40.7047 111.704C40.7827 111.668 40.8524 111.615 40.9098 111.551C40.9672 111.487 41.011 111.411 41.0387 111.33C43.5598 104.658 47.6716 97.3362 48.1946 92.9903C48.1946 92.2823 48.1419 92.3761 48.2768 92.3979C50.7542 92.7911 54.9033 93.4516 56.1574 90.7133C57.1365 88.683 54.681 86.9225 52.5171 86.2736C48.093 84.9436 44.4785 85.3278 40.3512 85.7249C40.3384 84.8318 40.4001 83.9388 40.535 83.0573C43.6458 81.6772 47.6395 82.0421 51.1808 82.3685C51.6883 82.4147 53.1532 82.5458 53.4513 82.5779C55.7834 82.8349 59.6897 83.2526 60.7755 81.0102C61.964 78.597 58.266 76.3907 55.7642 75.558C53.9549 75.0071 52.0834 74.6864 50.1939 74.6032C57.1069 74.1124 59.7257 75.5027 62.7312 74.0635C63.1887 73.8494 63.5481 73.4699 63.7369 73.0013C63.9258 72.5328 63.93 72.0101 63.7488 71.5385Z" fill="#262626"/>
<path d="M60.8307 69.4915C60.7372 69.4917 60.6448 69.4715 60.5599 69.4322C60.475 69.393 60.3998 69.3357 60.3393 69.2644C60.2789 69.193 60.2347 69.1094 60.21 69.0192C60.1852 68.929 60.1804 68.8346 60.1959 68.7424L63.5278 48.7786C63.5564 48.6107 63.6503 48.4609 63.789 48.3619C63.9276 48.263 64.0998 48.2229 64.2679 48.2505C64.3512 48.2643 64.431 48.2945 64.5026 48.3392C64.5742 48.3839 64.6364 48.4423 64.6854 48.5111C64.7345 48.5798 64.7695 48.6575 64.7885 48.7398C64.8074 48.8221 64.81 48.9073 64.796 48.9906L61.4629 68.9531C61.438 69.1029 61.3608 69.239 61.2451 69.3374C61.1294 69.4357 60.9825 69.4899 60.8307 69.4902V69.4915Z" fill="#262626"/>
<path d="M56.1921 86.9405C56.2589 86.9084 57.3023 86.3584 57.8625 83.2564C57.8927 83.0886 57.9883 82.9396 58.1283 82.8422C58.2683 82.7449 58.4412 82.7071 58.6091 82.7373C58.7769 82.7674 58.9259 82.863 59.0232 83.0031C59.1206 83.1431 59.1583 83.316 59.1282 83.4839C58.4163 87.434 56.8872 88.0752 56.5891 88.1638C56.5088 88.1899 56.4241 88.1999 56.34 88.1932C56.2558 88.1866 56.1737 88.1634 56.0985 88.1251C56.0233 88.0867 55.9563 88.0339 55.9015 87.9697C55.8467 87.9054 55.805 87.831 55.779 87.7507C55.7529 87.6704 55.7429 87.5857 55.7496 87.5015C55.7562 87.4173 55.7794 87.3353 55.8177 87.26C55.8561 87.1848 55.9089 87.1179 55.9731 87.063C56.0374 87.0082 56.1118 86.9666 56.1921 86.9405Z" fill="#262626"/>
<path d="M136.907 75.5079C136.781 75.508 136.658 75.4709 136.553 75.4012C136.448 75.3314 136.366 75.2322 136.317 75.116C136.268 75 136.254 74.8722 136.277 74.7484C136.3 74.6246 136.358 74.5102 136.446 74.4195C137.255 73.5876 138.23 72.935 139.308 72.5038C140.386 72.0726 141.542 71.8724 142.702 71.9163C143.45 71.8589 144.201 71.9768 144.895 72.2607C145.012 72.3089 145.113 72.3905 145.184 72.4953C145.255 72.6001 145.293 72.7235 145.295 72.8501C145.296 72.9767 145.26 73.1009 145.191 73.2072C145.123 73.3135 145.024 73.3973 144.908 73.448C144.751 73.5149 144.574 73.5167 144.416 73.4532C143.881 73.239 143.305 73.1511 142.73 73.1962C141.739 73.153 140.749 73.3189 139.825 73.6831C138.902 74.0473 138.065 74.6016 137.37 75.31C137.31 75.3723 137.238 75.4219 137.158 75.4559C137.079 75.4899 136.993 75.5076 136.907 75.5079Z" fill="#262626"/>
<path d="M168.018 83.9748C167.871 83.9748 167.729 83.9244 167.614 83.8321C167.5 83.7397 167.421 83.6109 167.39 83.4672C167.045 81.8528 166.255 80.3673 165.109 79.1787C163.963 77.9901 162.508 77.1458 160.907 76.7415C160.823 76.7233 160.743 76.6882 160.672 76.6383C160.602 76.5885 160.542 76.5249 160.496 76.4513C160.451 76.3778 160.421 76.2959 160.408 76.2104C160.395 76.1249 160.399 76.0377 160.42 75.954C160.442 75.8702 160.48 75.7917 160.533 75.723C160.585 75.6544 160.651 75.597 160.726 75.5544C160.801 75.5118 160.884 75.4848 160.97 75.4751C161.056 75.4653 161.143 75.473 161.226 75.4976C163.058 75.9605 164.724 76.9267 166.035 78.2869C167.346 79.6471 168.251 81.3472 168.647 83.1948C168.666 83.2885 168.665 83.3855 168.643 83.4787C168.621 83.5719 168.578 83.6589 168.518 83.7335C168.457 83.8081 168.381 83.8683 168.295 83.9098C168.209 83.9513 168.114 83.9731 168.018 83.9735V83.9748Z" fill="#262626"/>
<path d="M160.784 82.2696C160.704 82.1116 160.59 81.9736 160.45 81.8657C160.309 81.7579 160.146 81.6829 159.973 81.6463C159.268 81.5178 158.93 82.3325 158.747 83.0174C158.456 84.12 158.006 85.9627 158.839 86.6437C158.939 86.7286 159.059 86.7884 159.187 86.8181C159.315 86.8479 159.449 86.8466 159.576 86.8146C160.735 86.528 161.358 83.3515 160.784 82.2696Z" fill="#262626"/>
<path d="M140.628 77.6127C140.301 77.5999 139.729 77.7669 139.552 78.9607C139.385 79.7235 139.392 80.5141 139.573 81.2737C140.042 82.8311 141.483 82.3402 141.726 80.9524C141.934 79.7522 141.933 77.6487 140.628 77.6114V77.6127Z" fill="#262626"/>
<path d="M145.629 96.4315C145.016 96.2633 144.443 95.9745 143.942 95.5822C143.211 95.0535 142.364 94.708 141.472 94.5747C138.89 93.9977 136.744 93.4568 136.118 90.7197C135.981 90.1144 135.983 89.4857 136.124 88.8813C136.266 88.2769 136.542 87.7126 136.934 87.2309C137.327 86.7498 137.824 86.3643 138.387 86.1039C138.951 85.8434 139.567 85.7146 140.188 85.7275C141.601 85.6645 142.826 86.3507 143.501 85.2803C143.592 85.1361 143.737 85.034 143.903 84.9964C144.069 84.9589 144.244 84.9889 144.388 85.0798C144.532 85.1708 144.634 85.3154 144.672 85.4817C144.709 85.6479 144.679 85.8223 144.588 85.9665C143.418 87.8195 141.479 86.9508 140.208 87.0112C139.778 86.9936 139.35 87.0754 138.956 87.2504C138.563 87.4253 138.215 87.6887 137.94 88.0199C137.666 88.3515 137.471 88.7421 137.373 89.1611C137.274 89.5802 137.273 90.0164 137.371 90.4357C137.984 93.1175 140.755 92.8438 143.349 93.7767C144.29 94.1224 145.182 95.027 145.976 95.1902C146.187 95.2737 146.413 95.3102 146.639 95.2972C146.865 95.2841 147.085 95.2219 147.285 95.1148C147.484 95.0078 147.658 94.8584 147.794 94.6772C147.929 94.496 148.024 94.2874 148.071 94.0659C148.087 93.983 148.121 93.9044 148.168 93.8347C148.216 93.7649 148.277 93.7054 148.348 93.6598C148.419 93.6135 148.498 93.5816 148.581 93.5659C148.664 93.5503 148.749 93.5512 148.831 93.5686C150.287 93.8795 148.364 97.3747 145.629 96.4315Z" fill="#262626"/>
<path d="M137.025 102.679C136.904 102.557 136.836 102.392 136.835 102.22C136.837 102.049 136.906 101.885 137.028 101.764C137.088 101.704 137.16 101.657 137.24 101.625C137.319 101.594 137.404 101.579 137.489 101.581C137.574 101.582 137.658 101.6 137.736 101.635C137.814 101.669 137.884 101.718 137.943 101.78C140.6 104.499 146.058 104.596 149.81 103.598C149.892 103.575 149.978 103.568 150.063 103.579C150.147 103.589 150.229 103.616 150.303 103.658C150.377 103.7 150.442 103.756 150.494 103.824C150.546 103.891 150.585 103.968 150.607 104.05C150.629 104.133 150.634 104.218 150.622 104.303C150.61 104.387 150.582 104.468 150.539 104.542C150.496 104.615 150.438 104.679 150.37 104.73C150.302 104.781 150.224 104.818 150.142 104.839C145.944 105.96 140.046 105.771 137.025 102.679Z" fill="#262626"/>
<path d="M141.264 108.574C140.856 108.362 140.389 108.12 140.252 107.674C140.209 107.521 140.224 107.357 140.295 107.214C140.366 107.072 140.487 106.96 140.635 106.902C140.783 106.843 140.948 106.842 141.097 106.898C141.246 106.953 141.369 107.062 141.443 107.204C141.904 107.502 142.416 107.713 142.951 107.828C143.346 107.904 143.752 107.907 144.148 107.837C144.231 107.823 144.316 107.825 144.399 107.843C144.481 107.862 144.559 107.896 144.628 107.945C144.697 107.994 144.756 108.055 144.801 108.127C144.846 108.198 144.877 108.278 144.891 108.361C144.906 108.444 144.903 108.529 144.885 108.612C144.866 108.694 144.832 108.772 144.783 108.841C144.735 108.91 144.673 108.969 144.602 109.014C144.53 109.059 144.451 109.09 144.367 109.104C143.303 109.281 142.21 109.095 141.264 108.574Z" fill="#262626"/>
<path d="M125.974 20.7502C126.383 22.6526 127.481 24.3365 129.057 25.478C130.633 26.6195 132.576 27.1379 134.511 26.9336C136.243 26.8477 137.901 26.2046 139.238 25.1001C140.574 23.9956 141.519 22.4888 141.93 20.8042C134.881 21.9311 130.86 21.773 125.974 20.7502Z" fill="white"/>
<path d="M48.6854 46.7573C48.4658 46.7623 48.2535 46.8377 48.0797 46.9722C47.906 47.1067 47.78 47.2934 47.7201 47.5048C47.6602 47.7163 47.6696 47.9413 47.747 48.147C47.8244 48.3527 47.9656 48.5281 48.15 48.6477C48.3344 48.7672 48.5522 48.8245 48.7716 48.8111C48.9909 48.7978 49.2002 48.7145 49.3687 48.5735C49.5373 48.4325 49.6562 48.2411 49.708 48.0276C49.7599 47.8141 49.742 47.5895 49.6569 47.3869C49.5758 47.1974 49.4401 47.0363 49.267 46.9241C49.094 46.812 48.8916 46.7539 48.6854 46.7573Z" fill="white"/>
<path fill-rule="evenodd" clip-rule="evenodd" d="M43.6638 105.087C43.6963 104.945 43.6794 104.796 43.6159 104.665C43.5525 104.533 43.4463 104.428 43.3147 104.365C43.1832 104.302 43.0341 104.285 42.892 104.318C42.75 104.351 42.6234 104.432 42.533 104.546C42.4451 104.66 42.3904 104.795 42.375 104.938C42.3658 105.022 42.3666 105.107 42.3776 105.19C42.3943 105.319 42.429 105.45 42.4572 105.545L42.5009 105.691L42.5395 105.818C42.5575 105.883 42.5639 105.915 42.5652 105.924V105.925V105.928C42.6705 107.264 43.1794 111.016 43.7807 113.992C45.5617 122.833 48.174 132.077 53.297 139.629L53.3125 139.651L53.4577 139.831C53.51 139.899 53.5753 139.955 53.6497 139.997C53.7241 140.039 53.8061 140.065 53.8909 140.075C53.9757 140.085 54.0616 140.078 54.1436 140.054C54.2255 140.03 54.302 139.99 54.3684 139.937C54.4348 139.883 54.4899 139.817 54.5304 139.742C54.5709 139.666 54.596 139.584 54.6043 139.499C54.6126 139.414 54.6038 139.328 54.5786 139.247C54.5534 139.165 54.5122 139.09 54.4573 139.024L54.3456 138.885C49.3792 131.556 46.8106 122.527 45.04 113.738C44.4463 110.804 43.9478 107.103 43.8475 105.827" fill="#262626"/>
<g clip-path="url(#clip0_1_60495)">
<path d="M62.1201 9.75787C62.3986 11.971 62.902 14.1841 64.058 16.2106C65.5967 18.9075 67.9485 20.4836 71.0777 20.9784C71.2799 21.0105 71.4822 21.0408 71.6016 21.0594C70.7547 21.3058 69.8188 21.513 68.9341 21.8475C65.9456 22.9779 64.0494 25.1266 63.0028 28.0236C62.524 29.3502 62.2441 30.7198 62.1254 32.1204C62.1095 32.3057 62.0763 32.4903 62.0624 32.5913C61.7593 30.0739 61.1922 27.5501 59.7106 25.3042C58.1759 22.9772 55.9627 21.6532 53.1824 21.1778C53.0524 21.1553 52.9224 21.1328 52.7918 21.1148C52.6624 21.0974 52.5318 21.0865 52.3169 21.0633C54.8949 20.6496 57.128 19.7432 58.8769 17.9071C60.2989 16.4139 61.1299 14.6215 61.5849 12.6613C61.811 11.686 61.951 10.692 62.1207 9.75787H62.1201Z" fill="url(#paint0_linear_1_60495)"/>
<path d="M47.1875 31.4076C48.9199 31.0524 50.0069 30.0887 50.2974 28.2771C50.6429 30.0456 51.6099 31.129 53.524 31.4256C51.6106 31.7852 50.5156 32.8023 50.2788 34.5921C50.0387 32.8564 48.9736 31.7582 47.1875 31.4076Z" fill="url(#paint1_linear_1_60495)"/>
<path d="M53.4179 11.5792C51.6397 11.9298 50.5527 12.918 50.2781 14.7122C49.9591 12.9849 49.0047 11.8796 47.1709 11.5612C48.9079 11.2047 50.0042 10.2468 50.2947 8.42422C50.6383 10.1928 51.6106 11.28 53.4179 11.5792Z" fill="url(#paint2_linear_1_60495)"/>
<path d="M69.1836 7.38653C71.2814 6.95228 72.127 5.72607 72.316 4.19299C72.5614 5.65209 73.2704 6.98445 75.4743 7.40712C73.6876 7.7616 72.5866 8.71568 72.3028 10.537C71.9599 8.77486 70.9949 7.67861 69.1843 7.38653H69.1836Z" fill="url(#paint3_linear_1_60495)"/>
</g>
<defs>
<linearGradient id="paint0_linear_1_60495" x1="61.9592" y1="9.75787" x2="61.9592" y2="32.5913" gradientUnits="userSpaceOnUse">
<stop stop-color="#C2D6FF"/>
<stop offset="1" stop-color="#EBF1FF"/>
</linearGradient>
<linearGradient id="paint1_linear_1_60495" x1="50.3557" y1="28.2771" x2="50.3557" y2="34.5921" gradientUnits="userSpaceOnUse">
<stop stop-color="#C2D6FF"/>
<stop offset="1" stop-color="#EBF1FF"/>
</linearGradient>
<linearGradient id="paint2_linear_1_60495" x1="50.2944" y1="8.42422" x2="50.2944" y2="14.7122" gradientUnits="userSpaceOnUse">
<stop stop-color="#C2D6FF"/>
<stop offset="1" stop-color="#EBF1FF"/>
</linearGradient>
<linearGradient id="paint3_linear_1_60495" x1="72.329" y1="4.19299" x2="72.329" y2="10.537" gradientUnits="userSpaceOnUse">
<stop stop-color="#C2D6FF"/>
<stop offset="1" stop-color="#EBF1FF"/>
</linearGradient>
<clipPath id="clip0_1_60495">
<rect width="28.3026" height="30.3991" fill="white" transform="translate(47.1709 4.19299)"/>
</clipPath>
</defs>
</svg>
